<svg width="64" height="64" viewBox="0 0 64 64" fill="none" xmlns="http://www.w3.org/2000/svg">
<path fill-rule="evenodd" clip-rule="evenodd" d="M32.2929 14.5116C31.7782 14.5117 31.2723 14.6484 30.8275 14.9075C30.383 15.1667 30.0154 15.5392 29.7617 15.9868L29.7592 15.9905L13.1267 45.0966L13.1243 45.1015C12.8678 45.5458 12.7334 46.0502 12.7345 46.5632C12.7357 47.076 12.8721 47.5795 13.1304 48.0225C13.389 48.4658 13.7611 48.8336 14.2072 49.0872C14.6532 49.3406 15.1585 49.4719 15.6714 49.4672H48.9449C49.4552 49.4667 49.9564 49.3316 50.3981 49.0762C50.8402 48.8206 51.2077 48.4527 51.4628 48.0104C51.7178 47.5681 51.8527 47.0665 51.8526 46.5559C51.8525 46.0453 51.7169 45.5437 51.4616 45.1015L51.4591 45.0966L34.8279 15.9905L34.8255 15.9868C34.5716 15.539 34.2031 15.1667 33.7584 14.9075C33.3136 14.6484 32.8077 14.5116 32.2929 14.5116ZM33.583 42.3984C33.5829 41.7097 33.0242 41.1513 32.3356 41.151H32.3149C31.626 41.151 31.0676 41.7096 31.0675 42.3984C31.0675 43.0873 31.626 43.6458 32.3149 43.6458H32.3356C33.0242 43.6455 33.583 43.0871 33.583 42.3984ZM31.0675 25.7672V34.0822C31.0675 34.7711 31.626 35.3296 32.3149 35.3296C33.0035 35.3292 33.5622 34.7709 33.5622 34.0822V25.7672C33.5622 25.0785 33.0035 24.5202 32.3149 24.5198C31.626 24.5198 31.0675 25.0783 31.0675 25.7672Z" fill="#DC2626"/>
<path fill-rule="evenodd" clip-rule="evenodd" d="M32.2929 12.0169C33.2489 12.0169 34.1883 12.2702 35.0143 12.7514C35.839 13.232 36.5224 13.9228 36.9937 14.7528L53.6226 43.8541L53.7894 44.1671C54.1548 44.9085 54.3471 45.725 54.3474 46.5547C54.3476 47.503 54.0975 48.435 53.6238 49.2565C53.15 50.078 52.4689 50.7612 51.648 51.236C50.8271 51.7107 49.8956 51.961 48.9473 51.962H15.6824C14.7334 51.9686 13.7996 51.7244 12.9745 51.2555C12.146 50.7846 11.4557 50.1028 10.9755 49.2797C10.4956 48.4566 10.2419 47.5208 10.2398 46.5681C10.2377 45.6171 10.4875 44.6829 10.9621 43.859L27.5934 14.7528C28.0647 13.9229 28.7469 13.232 29.5716 12.7514C30.3977 12.2701 31.3369 12.017 32.2929 12.0169ZM32.2929 14.5116C31.7782 14.5117 31.2723 14.6484 30.8275 14.9075C30.383 15.1667 30.0154 15.5392 29.7617 15.9868L29.7592 15.9905L13.1267 45.0966L13.1243 45.1015C12.8678 45.5458 12.7334 46.0502 12.7345 46.5632C12.7357 47.076 12.8721 47.5795 13.1304 48.0225C13.389 48.4658 13.7611 48.8336 14.2072 49.0872C14.6532 49.3406 15.1585 49.4719 15.6714 49.4672H48.9449C49.4552 49.4667 49.9564 49.3316 50.3981 49.0762C50.8402 48.8206 51.2077 48.4527 51.4628 48.0104C51.7178 47.5681 51.8527 47.0665 51.8526 46.5559C51.8525 46.0453 51.7169 45.5437 51.4616 45.1015L51.4591 45.0966L34.8279 15.9905L34.8255 15.9868C34.5716 15.539 34.2031 15.1667 33.7584 14.9075C33.3136 14.6484 32.8077 14.5116 32.2929 14.5116Z" fill="white" fill-opacity="0.2"/>
<path d="M31.0675 34.0822V25.7672C31.0675 25.0783 31.626 24.5198 32.3149 24.5198C33.0035 24.5202 33.5622 25.0785 33.5622 25.7672V34.0822C33.5622 34.7709 33.0035 35.3292 32.3149 35.3296C31.626 35.3296 31.0675 34.7711 31.0675 34.0822Z" fill="white"/>
<path d="M32.3356 41.151C33.0242 41.1513 33.5829 41.7097 33.583 42.3984C33.583 43.0871 33.0242 43.6455 32.3356 43.6458H32.3149C31.626 43.6458 31.0675 43.0873 31.0675 42.3984C31.0676 41.7096 31.626 41.151 32.3149 41.151H32.3356Z" fill="white"/>
</svg>
