<svg xmlns="http://www.w3.org/2000/svg" fill="none" viewBox="0 0 14 14" id="Map-Location--Streamline-Flex">
  <desc>
    Map Location Streamline Icon: https://streamlinehq.com
  </desc>
  <g id="map-location--map-location-pin-navigation-gps-travel">
    <path id="Subtract" fill="#7fb0f2" fill-rule="evenodd" d="M3.64728 0.0635188c0.39992 -0.063889164 0.86552 -0.100481 1.26774 -0.0064755l0.0115 0.0026896 -0.00003 0.0001352L8.43484 0.96778c0.11224 0.029047 0.22804 0.017697 0.32764 -0.02999l0.1005 -0.048199 0.00001 -0.000005L8.863 0.889579c0.44061 -0.211504 0.93927 -0.450869 1.3887 -0.574803 0.3719 -0.10254 0.9291 -0.2477447 1.4634 -0.2972049 0.3507 -0.0324687 0.6105 0.1611339 0.7573 0.3092789 0.2608 0.263132 0.4024 0.578516 0.4912 0.8707 0.0736 0.24198 0.1191 0.49958 0.1575 0.7167l0.0001 0.00053 0.0001 0.00043c0.0066 0.03769 0.0131 0.07416 0.0194 0.10911 0.2607 1.43654 0.3578 2.90222 0.293 4.36054 -0.7437 -0.54949 -1.6626 -0.87265 -2.6525 -0.87265h-0.0626c-2.34357 0 -4.28867 1.81111 -4.45564 4.1487 -0.04018 0.56259 0.01012 1.17159 0.1922 1.76889l-1.54084 -0.3987c-0.08129 -0.021 -0.15639 -0.02 -0.21941 -0.0027 -0.36537 0.1001 -0.74302 0.2342 -1.14631 0.3774 -0.17742 0.063 -0.35981 0.1278 -0.5483 0.1922 -0.0767 0.0262 -0.15646 0.0545 -0.23845 0.0836 -0.3083 0.1094 -0.64802 0.23 -0.97438 0.2922 -0.33437 0.0638 -0.59753 -0.0939 -0.75347 -0.2321 -0.298784 -0.2648 -0.452083 -0.6019 -0.54397 -0.9091 -0.071638 -0.2395 -0.115706 -0.5 -0.152445 -0.7171l-0.000015 -0.0001c-0.008734 -0.0516 -0.017054 -0.1008 -0.025232 -0.14664 -0.416451 -2.33525 -0.416451 -4.72577 0 -7.06102l0.049175 -0.27575c0.060659 -0.34015 0.13711 -0.76593 0.339458 -1.15754 0.055999 -0.10838 0.127494 -0.22915 0.215676 -0.33937 0.084973 -0.1062 0.208113 -0.23138 0.375493 -0.311289C1.6916 0.633085 2.13415 0.42762 2.54339 0.314776c0.29186 -0.080478 0.69248 -0.18553 1.10389 -0.2512572Z" clip-rule="evenodd" stroke-width="1"></path>
    <path id="Union" fill="#3c6de3" fill-rule="evenodd" d="M10.7187 6.76221c-1.68778 0 -3.08858 1.3043 -3.20882 2.98775 -0.05503 0.77034 0.11508 1.60074 0.63037 2.27734 0.54815 0.7198 1.10929 1.2131 1.95105 1.7736 0.3988 0.2655 0.9185 0.2655 1.3173 0 0.8418 -0.5605 1.4029 -1.0538 1.9511 -1.7736 0.5153 -0.6766 0.6854 -1.507 0.6304 -2.27733 -0.1203 -1.68346 -1.5211 -2.98776 -3.2088 -2.98776h-0.0626Z" clip-rule="evenodd" stroke-width="1"></path>
    <path id="Subtract_2" fill="#3c6de3" fill-rule="evenodd" d="m8.86322 0.889777 0.10949 -0.052505V5.8666c-1.50002 0.63759 -2.58681 2.07326 -2.70975 3.79431 -0.04019 0.56269 0.01013 1.17169 0.19224 1.76909l-1.54066 -0.3987c-0.08128 -0.021 -0.15639 -0.02 -0.21941 -0.0028 -0.06977 0.0192 -0.13999 0.0396 -0.21075 0.061V0.00244141c0.1476 0.0056899 0.29295 0.02256849 0.43086 0.05479929l0.01151 0.0026896 -0.00004 0.0001352L8.43506 0.967978c0.11225 0.029046 0.22804 0.017697 0.32764 -0.02999l0.1005 -0.0482 0.00001 -0.000004 0.00001 -0.000007Z" clip-rule="evenodd" stroke-width="1"></path>
    <path id="Vector" fill="#7fb0f2" d="M10.7517 10.7275c0.56 0 0.875 -0.315 0.875 -0.87496 0 -0.56 -0.315 -0.875 -0.875 -0.875s-0.87499 0.315 -0.87499 0.875c0 0.55996 0.31499 0.87496 0.87499 0.87496Z" stroke-width="1"></path>
  </g>
</svg>