<svg xmlns="http://www.w3.org/2000/svg" fill="none" viewBox="0 0 14 14" id="Backpack--Streamline-Flex">
  <desc>
    Backpack Streamline Icon: https://streamlinehq.com
  </desc>
  <g id="backpack--bag-backpack-school-baggage-cloth-clothing-accessories">
    <path id="Union" fill="#7fb0f2" fill-rule="evenodd" d="M6.91225 2.97827c-0.24845 0 -0.57823 0.01977 -0.93237 0.04875C3.95381 3.19281 2.3247 4.80753 2.312 6.87834c-0.00122 0.19837 -0.00014 0.4027 0.00379 0.61181 0.03323 1.77182 0.27034 3.93165 1.07261 5.71545 0.07107 0.158 0.21888 0.2679 0.39066 0.2906 1.02897 0.1356 2.17511 0.2505 3.13204 0.2537 0.96214 0.0032 2.11032 -0.1052 3.1498 -0.2373 0.1463 -0.0186 0.2768 -0.1007 0.3569 -0.2245 1.0861 -1.6794 1.3029 -4.00654 1.2652 -5.88068 -0.0052 -0.25778 -0.0152 -0.50881 -0.0288 -0.75055 -0.111 -1.97432 -1.70361 -3.44443 -3.6247 -3.6141 -0.42588 -0.03762 -0.82788 -0.0645 -1.11725 -0.0645Z" clip-rule="evenodd" stroke-width="1"></path>
    <path id="Subtract" fill="#3c6de3" fill-rule="evenodd" d="M6.99978 1.75c-0.67999 0 -1.23123 0.55124 -1.23123 1.23122v0.0685c-0.54023 0.07198 -1.04828 0.24748 -1.5 0.50682v-0.57532C4.26855 1.47281 5.49136 0.25 6.99978 0.25 8.50819 0.25 9.731 1.47281 9.731 2.98122v0.5955c-0.45264 -0.26087 -0.96144 -0.43736 -1.5 -0.51125v-0.08425c0 -0.67998 -0.55124 -1.23122 -1.23122 -1.23122ZM10.068 13.5117c0.1434 -0.0203 0.271 -0.1018 0.3498 -0.2236 1.0814 -1.6722 1.3011 -3.98645 1.2657 -5.85637 0.2209 0.01612 0.435 0.04063 0.6394 0.06643 0.7146 0.09023 1.2769 0.67093 1.346 1.38684 0.0417 0.43233 0.0809 0.8951 0.0809 1.3726 0 0.4292 -0.0476 1.0774 -0.0896 1.5685 -0.0571 0.6671 -0.5534 1.2108 -1.2145 1.3257 -0.5783 0.1005 -1.4401 0.2406 -2.3777 0.3599ZM2.31476 7.43184c0.00032 0.0194 0.00066 0.03883 0.00103 0.05831 0.03323 1.77182 0.27034 3.93165 1.07261 5.71545 0.06981 0.1552 0.21366 0.264 0.38154 0.2893 -0.87189 -0.1151 -1.67064 -0.2465 -2.21708 -0.3423 -0.659926 -0.1156 -1.15611 -0.6587 -1.213119 -1.3255C0.297738 11.3359 0.25 10.6871 0.25 10.2576c0 -0.4775 0.039213 -0.94027 0.080925 -1.3726C0.399998 8.16909 0.9623 7.58839 1.67693 7.49816c0.2039 -0.02574 0.41747 -0.05019 0.63783 -0.06632Z" clip-rule="evenodd" stroke-width="1"></path>
    <path id="Intersect" fill="#3c6de3" fill-rule="evenodd" d="M11.6587 6.74023c-0.1616 0.06047 -0.3322 0.10148 -0.5091 0.12029 -1.19976 0.12763 -2.41453 0.25253 -3.64948 0.28514v-0.37064c0 -0.27614 -0.22385 -0.5 -0.5 -0.5 -0.27614 0 -0.5 0.22386 -0.5 0.5v0.37538c-1.30944 -0.0228 -2.59595 -0.1548 -3.86567 -0.28988 -0.10972 -0.01167 -0.21701 -0.03188 -0.32121 -0.05997 -0.00067 0.02586 -0.00108 0.05179 -0.00124 0.07779 -0.00122 0.19837 -0.00014 0.4027 0.00379 0.61181 0.00207 0.11058 0.00494 0.22268 0.00869 0.33611 0.06737 0.01176 0.13546 0.02134 0.20418 0.02865 1.27104 0.13521 2.60373 0.27272 3.97146 0.29563v0.38211c0 0.27615 0.22386 0.5 0.5 0.5 0.27615 0 0.5 -0.22385 0.5 -0.5v-0.38668c1.29201 -0.03284 2.55128 -0.16298 3.75528 -0.29106 0.1471 -0.01565 0.2912 -0.04166 0.4316 -0.07728 -0.0002 -0.12511 -0.0015 -0.24861 -0.004 -0.37021 -0.0046 -0.22828 -0.013 -0.45126 -0.0243 -0.66719Z" clip-rule="evenodd" stroke-width="1"></path>
  </g>
</svg>