<svg xmlns="http://www.w3.org/2000/svg" fill="none" viewBox="0 0 14 14" id="Ball--Streamline-Flex">
  <desc>
    Ball Streamline Icon: https://streamlinehq.com
  </desc>
  <g id="ball--sports-ball-sport-basketball-shopping-catergories">
    <path id="Vector" fill="#3c6de3" d="M7 13.5c4.16 0 6.5 -2.34 6.5 -6.5S11.16 0.5 7 0.5 0.5 2.84 0.5 7s2.34 6.5 6.5 6.5Z" stroke-width="1"></path>
    <path id="Subtract" fill="#7fb0f2" fill-rule="evenodd" d="M6.37497 0.518314c-1.71903 0.103183 -3.0922 0.639636 -4.07736 1.567216C3.7831 3.18164 4.53776 4.88114 4.53776 6.99997c0 2.11882 -0.75465 3.81833 -2.24013 4.91443 0.98516 0.9276 2.35832 1.464 4.07734 1.5672l0 -12.963286ZM0.5 6.99996c0 -1.59294 0.343102 -2.91901 1.00011 -3.94903l0.01265 0.00933c1.13398 0.81557 1.775 2.11515 1.775 3.93971s-0.64102 3.12413 -1.775 3.93973l-0.01264 0.0093C0.843106 9.91898 0.5 8.5929 0.5 6.99996Zm12.0052 3.94074c0.6535 -1.02887 0.9948 -2.3521 0.9948 -3.94074 0 -1.58864 -0.3413 -2.91186 -0.9948 -3.9407 -0.0005 0.00034 -0.0009 0.00067 -0.0014 0.001 -1.134 0.81557 -1.775 2.11515 -1.775 3.93971s0.641 3.12413 1.775 3.93973c0.0005 0.0003 0.0009 0.0006 0.0014 0.001Zm-0.7955 0.9668c-0.9857 0.9318 -2.36144 1.4707 -4.08473 1.5741l0 -12.963289C9.34827 0.621739 10.724 1.16059 11.7097 2.0924c-1.4794 1.09634 -2.23089 2.79317 -2.23089 4.90757s0.75149 3.81123 2.23089 4.90753Z" clip-rule="evenodd" stroke-width="1"></path>
  </g>
</svg>