<svg xmlns="http://www.w3.org/2000/svg" fill="none" viewBox="0 0 14 14" id="Baseball--Streamline-Flex">
  <desc>
    Baseball Streamline Icon: https://streamlinehq.com
  </desc>
  <g id="baseball--baseball-sports-bat-homerun-field-games">
    <path id="Union" fill="#7fb0f2" fill-rule="evenodd" d="M7 0C4.82797 0 3.06046 0.612432 1.83645 1.83645 0.612432 3.06046 0 4.82797 0 7s0.612432 3.9395 1.83645 5.1636C3.06046 13.3876 4.82797 14 7 14s3.9395 -0.6124 5.1636 -1.8364C13.3876 10.9395 14 9.17203 14 7s-0.6124 -3.93954 -1.8364 -5.16355C10.9395 0.612432 9.17203 0 7 0Z" clip-rule="evenodd" stroke-width="1"></path>
    <path id="Intersect" fill="#3c6de3" fill-rule="evenodd" d="m11.2652 1.1084 -0.1761 0.15361c-0.7138 0.62282 -1.25394 1.40587 -1.62194 2.32582l-0.63192 -0.22569c-0.32507 -0.1161 -0.68271 0.05331 -0.7988 0.37838 -0.1161 0.32507 0.05331 0.6827 0.37837 0.7988l0.68687 0.24531c-0.15126 0.68394 -0.22665 1.42426 -0.22665 2.21408 0 0.78973 0.07537 1.52996 0.2266 2.21384l-0.68682 0.24529c-0.32506 0.1161 -0.49447 0.47373 -0.37837 0.79876 0.11609 0.3251 0.47373 0.4945 0.7988 0.3784l0.63183 -0.2256c0.368 0.92 0.90813 1.7031 1.62203 2.326l0.1772 0.1546c0.325 -0.212 0.6246 -0.4543 0.8973 -0.7269 0.0265 -0.0265 0.0528 -0.0533 0.0788 -0.0804l-0.3315 -0.2892c-0.5341 -0.466 -0.9624 -1.0665 -1.2655 -1.80495l0.5648 -0.20174c0.3251 -0.1161 0.4945 -0.47373 0.3784 -0.7988 -0.1161 -0.32507 -0.4737 -0.49448 -0.7988 -0.37838l-0.5005 0.17877c-0.108 -0.54264 -0.1643 -1.13892 -0.1643 -1.78969 0 -0.65086 0.0563 -1.24722 0.1643 -1.78993l0.5005 0.17875c0.3251 0.1161 0.6827 -0.05331 0.7988 -0.37838 0.1161 -0.32507 -0.0533 -0.6827 -0.3784 -0.7988l-0.5648 -0.2017c0.3032 -0.73839 0.7314 -1.33877 1.2655 -1.80475l0.3306 -0.2884c-0.0257 -0.02675 -0.0517 -0.05325 -0.0779 -0.0795 -0.273 -0.27295 -0.5729 -0.51549 -0.8984 -0.7276Zm-8.53081 11.782 0.17653 -0.154c0.71414 -0.6231 1.25439 -1.4065 1.62241 -2.3269l0.63149 0.2255c0.32506 0.1161 0.6827 -0.0533 0.79879 -0.3784 0.1161 -0.32503 -0.0533 -0.68266 -0.37837 -0.79876l-0.68662 -0.24522c0.1511 -0.68362 0.22641 -1.42355 0.22641 -2.21293 0 -0.79017 -0.07546 -1.53079 -0.22686 -2.21499l0.68707 -0.24538c0.32507 -0.1161 0.49447 -0.47373 0.37837 -0.7988 -0.11609 -0.32507 -0.47373 -0.49448 -0.79879 -0.37838l-0.63227 0.22581c-0.36799 -0.91958 -0.90799 -1.70233 -1.62163 -2.32497l-0.17671 -0.15417c-0.32521 0.21202 -0.62497 0.45442 -0.89774 0.72719 -0.02642 0.02642 -0.05256 0.0531 -0.07841 0.08002l0.33107 0.28886c0.53388 0.4658 0.96202 1.0659 1.26512 1.80389l-0.56443 0.20158c-0.32507 0.1161 -0.49448 0.47373 -0.37838 0.7988 0.11609 0.32507 0.47373 0.49448 0.7988 0.37838l0.50033 -0.17869c0.1081 0.54296 0.16446 1.13962 0.16446 1.79085 0 0.6504 -0.05621 1.24637 -0.16405 1.78878l-0.50074 -0.17884c-0.32507 -0.1161 -0.68271 0.05331 -0.7988 0.37838 -0.1161 0.32507 0.05331 0.6827 0.37838 0.7988l0.56522 0.20186c-0.30314 0.73893 -0.73156 1.33963 -1.26591 1.80583l-0.33093 0.2887c0.0258 0.0269 0.05189 0.0535 0.07827 0.0799 0.27282 0.2728 0.57264 0.5153 0.89792 0.7273Z" clip-rule="evenodd" stroke-width="1"></path>
  </g>
</svg>