<svg xmlns="http://www.w3.org/2000/svg" fill="none" viewBox="0 0 14 14" id="Bicycle-Bike--Streamline-Flex">
  <desc>
    Bicycle Bike Streamline Icon: https://streamlinehq.com
  </desc>
  <g id="bicycle-bike">
    <path id="Union" fill="#3c6de3" fill-rule="evenodd" d="M1.25122 9.38532c0 -0.67954 0.19095 -1.12275 0.46838 -1.39735 0.27839 -0.27553 0.72965 -0.46624 1.42093 -0.46624 0.69127 0 1.14254 0.19071 1.42092 0.46624 0.27743 0.2746 0.46838 0.71781 0.46838 1.39735 0 0.67958 -0.19095 1.12278 -0.46838 1.39738 -0.27838 0.2755 -0.72965 0.4662 -1.42092 0.4662 -0.69128 0 -1.14254 -0.1907 -1.42093 -0.4662 -0.27743 -0.2746 -0.46838 -0.7178 -0.46838 -1.39738Zm1.88931 -3.11359c-0.91789 0 -1.72377 0.25724 -2.300255 0.82783 -0.577426 0.57152 -0.8390543 1.3726 -0.8390543 2.28576 0 0.91318 0.2616283 1.71428 0.8390543 2.28578 0.576485 0.5706 1.382365 0.8278 2.300255 0.8278 0.91788 0 1.72376 -0.2572 2.30025 -0.8278 0.57742 -0.5715 0.83905 -1.3726 0.83905 -2.28578 0 -0.91316 -0.26163 -1.71424 -0.83905 -2.28576 -0.57649 -0.57059 -1.38237 -0.82783 -2.30025 -0.82783Zm5.82944 3.11359c0 -0.67954 0.19095 -1.12275 0.46838 -1.39735 0.27839 -0.27553 0.72965 -0.46624 1.42095 -0.46624 0.6913 0 1.1425 0.19071 1.4209 0.46624 0.2774 0.2746 0.4684 0.71781 0.4684 1.39735 0 0.67958 -0.191 1.12278 -0.4684 1.39738 -0.2784 0.2755 -0.7296 0.4662 -1.4209 0.4662s-1.14256 -0.1907 -1.42095 -0.4662c-0.27743 -0.2746 -0.46838 -0.7178 -0.46838 -1.39738Zm1.88933 -3.11359c-0.91791 0 -1.72379 0.25724 -2.30027 0.82783 -0.57743 0.57152 -0.83906 1.3726 -0.83906 2.28576 0 0.91318 0.26163 1.71428 0.83906 2.28578 0.57648 0.5706 1.38236 0.8278 2.30027 0.8278 0.9179 0 1.7237 -0.2572 2.3002 -0.8278 0.5775 -0.5715 0.8391 -1.3726 0.8391 -2.28578 0 -0.91316 -0.2616 -1.71424 -0.8391 -2.28576 -0.5765 -0.57059 -1.3823 -0.82783 -2.3002 -0.82783Z" clip-rule="evenodd" stroke-width="1"></path>
    <path id="Union_2" fill="#7fb0f2" fill-rule="evenodd" d="M10.1238 3.15538c-0.0196 -0.15413 0.0115 -0.20468 0.0156 -0.21131l0.0001 -0.00013c0.0065 -0.01062 0.0309 -0.04395 0.1224 -0.08234 0.2141 -0.08982 0.5473 -0.11062 0.9352 -0.11062 0.4368 0 0.6007 0.15276 0.6766 0.26076 0.1011 0.14396 0.1305 0.33805 0.1194 0.46271 -0.0307 0.34381 0.2232 0.64739 0.567 0.67806 0.3438 0.03067 0.6474 -0.22318 0.678 -0.56699 0.0307 -0.34334 -0.0317 -0.85126 -0.3415 -1.2923 -0.3351 -0.477 -0.9014 -0.79224 -1.6995 -0.79224 -0.3595 0 -0.9397 0.00692 -1.41882 0.20798 -0.25513 0.10705 -0.52224 0.28493 -0.70394 0.58075 -0.1845 0.30037 -0.23772 0.65184 -0.19065 1.02294 0.03187 0.25128 0.06648 0.50161 0.10385 0.7511 -0.72605 0.41912 -1.42481 0.86153 -2.09997 1.33026l-0.86288 -1.26004c0.2569 0.00081 0.49815 -0.15804 0.59009 -0.4136 0.11685 -0.3248 -0.05173 -0.68282 -0.37653 -0.79967 -0.94892 -0.34137 -1.82365 -0.34137 -2.77257 0 -0.3248 0.11685 -0.49338 0.47487 -0.37654 0.79967 0.11685 0.3248 0.47487 0.49338 0.79967 0.37653 0.17228 -0.06197 0.33805 -0.10814 0.50064 -0.1385l1.48667 2.17094c-1.10122 0.838 -2.14044 1.75539 -3.13537 2.76669 -0.24208 0.24606 -0.23885 0.64178 0.00721 0.88386 0.24606 0.24211 0.64177 0.23881 0.88385 -0.00722 1.69465 -1.72253 3.52071 -3.15866 5.58026 -4.39102 0.26824 1.40316 0.62653 2.78516 1.07783 4.16536 0.1072 0.32808 0.4601 0.50709 0.7882 0.39982 0.3281 -0.10726 0.5071 -0.46019 0.3999 -0.78828 -0.6471 -1.97917 -1.095 -3.9587 -1.3542 -6.00317Z" clip-rule="evenodd" stroke-width="1"></path>
  </g>
</svg>