<svg xmlns="http://www.w3.org/2000/svg" fill="none" viewBox="0 0 14 14" id="Boots--Streamline-Flex">
  <desc>
    Boots Streamline Icon: https://streamlinehq.com
  </desc>
  <g id="boots">
    <path id="Union" fill="#7fb0f2" fill-rule="evenodd" d="M7.56545 0.25c-0.72598 0 -1.31169 0.573614 -1.31153 1.277 0.00006 0.28519 -0.00069 0.58498 -0.00311 0.83558 -0.00307 0.31778 -0.00508 0.65528 -0.00712 0.99818l0 0.00032c-0.00389 0.65385 -0.00789 1.32727 -0.01959 1.92091 -0.00891 0.45216 -0.02222 0.85333 -0.04302 1.1603 -0.01042 0.15377 -0.02248 0.2802 -0.03617 0.37588l-0.0002 0.00142h-2.5859c-1.87646 0 -3.403655 1.48088 -3.304213 3.31581 0.009484 0.175 0.019297 0.3493 0.029257 0.5229 0.051749 0.9017 0.338656 1.6099 0.878666 2.1151 0.5366 0.5021 1.29094 0.7735 2.21669 0.8681 1.12869 0.1153 1.88678 0.1115 2.8502 0.1066l0.00112 0c0.20385 -0.001 0.41689 -0.0021 0.64459 -0.0021 1.26413 0 2.50058 -0.0583 3.69628 -0.1231 0.9283 -0.0502 1.6574 -0.3289 2.1775 -0.8534 0.5169 -0.5213 0.7964 -1.254 0.8937 -2.1532 0.1176 -1.08621 0.1108 -2.21577 0.1044 -3.28202v-0.00001c-0.0014 -0.23856 -0.0028 -0.47395 -0.0028 -0.70498 0 -1.46892 -0.0822 -2.90116 -0.161 -4.27516l0 -0.00014 -0.0001 -0.00312c-0.01 -0.17332 -0.0315 -0.54023 -0.0528 -0.90266C13.4908 0.775608 12.9177 0.25 12.2243 0.25H7.56545Z" clip-rule="evenodd" stroke-width="1"></path>
    <path id="Intersect" fill="#3c6de3" fill-rule="evenodd" d="M13.5759 11.0654H0.325195c0.105894 0.7103 0.381398 1.2815 0.837315 1.708 0.5366 0.5021 1.29094 0.7735 2.21669 0.8681 1.12869 0.1153 1.88678 0.1115 2.85019 0.1066h0.00001l0.00112 0 0.00018 0c0.20379 -0.001 0.41678 -0.0021 0.64441 -0.0021 1.26413 0 2.50058 -0.0583 3.69619 -0.1231 0.9284 -0.0502 1.6575 -0.3289 2.1776 -0.8534 0.428 -0.4316 0.6932 -1.0081 0.827 -1.7041Z" clip-rule="evenodd" stroke-width="1"></path>
    <path id="Intersect_2" fill="#3c6de3" fill-rule="evenodd" d="M6.21289 5.7168H9.0673c0.34517 0 0.625 -0.27983 0.625 -0.625 0 -0.34518 -0.27983 -0.625 -0.625 -0.625H6.23498c-0.00281 0.28143 -0.00645 0.55592 -0.01156 0.81519 -0.00298 0.15117 -0.00645 0.29665 -0.01053 0.43481Zm0.02972 -2.28711H9.0673c0.34517 0 0.625 -0.27982 0.625 -0.625s-0.27983 -0.625 -0.625 -0.625H6.25157c-0.0004 0.0631 -0.00087 0.12434 -0.00144 0.18289 -0.00307 0.31778 -0.00507 0.65528 -0.00711 0.99818l-0.00001 0.00032c-0.00013 0.02285 -0.00027 0.04572 -0.0004 0.06861Z" clip-rule="evenodd" stroke-width="1"></path>
  </g>
</svg>