<svg xmlns="http://www.w3.org/2000/svg" fill="none" viewBox="0 0 14 14" id="Brightness-1--Streamline-Flex">
  <desc>
    Brightness 1 Streamline Icon: https://streamlinehq.com
  </desc>
  <g id="brightness-1--bright-adjust-brightness-adjustment-sun-raise-controls">
    <path id="Union" fill="#3c6de3" fill-rule="evenodd" d="M7 3.125c1.45733 0 2.49225 0.44475 3.1311 1.26611 0.6092 0.78322 0.7439 1.76939 0.7439 2.60889 0 0.8395 -0.1347 1.82567 -0.7439 2.60889C9.49225 10.4302 8.45733 10.875 7 10.875s-2.49225 -0.4448 -3.13108 -1.26611C3.25975 8.82567 3.125 7.8395 3.125 7c0 -0.8395 0.13475 -1.82567 0.74392 -2.60889C4.50775 3.56975 5.54267 3.125 7 3.125Z" clip-rule="evenodd" stroke-width="1"></path>
    <path id="Union_2" fill="#7fb0f2" fill-rule="evenodd" d="M7.00008 0c0.41422 0 0.75 0.335786 0.75 0.75v0.52083c0 0.41422 -0.33578 0.75 -0.75 0.75 -0.41421 0 -0.75 -0.33578 -0.75 -0.75V0.75c0 -0.414214 0.33579 -0.75 0.75 -0.75Zm-3.8891 2.05024c-0.2929 -0.2929 -0.76777 -0.2929 -1.06066 0 -0.2929 0.29289 -0.2929 0.76776 0 1.06066l0.36828 0.36828c0.2929 0.29289 0.76777 0.29289 1.06066 0 0.2929 -0.29289 0.2929 -0.76777 0 -1.06066l-0.36828 -0.36828Zm8.47042 8.47066c-0.2929 -0.2929 -0.7677 -0.2929 -1.0606 0 -0.2929 0.2929 -0.2929 0.7678 0 1.0607l0.3683 0.3683c0.2929 0.2929 0.7677 0.2929 1.0606 0 0.2929 -0.2929 0.2929 -0.7678 0 -1.0607l-0.3683 -0.3683ZM7.75008 12.729c0 -0.4142 -0.33578 -0.75 -0.75 -0.75 -0.41421 0 -0.75 0.3358 -0.75 0.75v0.5208c0 0.4143 0.33579 0.75 0.75 0.75 0.41422 0 0.75 -0.3357 0.75 -0.75v-0.5208ZM14.0001 7c0 0.41421 -0.3358 0.75 -0.75 0.75h-0.5209c-0.4142 0 -0.75 -0.33579 -0.75 -0.75s0.3358 -0.75 0.75 -0.75h0.5209c0.4142 0 0.75 0.33579 0.75 0.75Zm-12.72927 0.75c0.41422 0 0.75 -0.33579 0.75 -0.75s-0.33578 -0.75 -0.75 -0.75H0.75C0.335786 6.25 4.4e-8 6.58579 0 7c-4.4e-8 0.41421 0.335786 0.75 0.75 0.75h0.52083ZM11.9498 2.05024c0.2929 0.29289 0.2929 0.76776 0 1.06066l-0.3682 0.36828c-0.2929 0.29289 -0.7678 0.29289 -1.0607 0 -0.2929 -0.29289 -0.2929 -0.76777 0 -1.06066l0.3683 -0.36828c0.2929 -0.2929 0.7678 -0.2929 1.0606 0ZM3.47939 11.5816c0.29289 -0.2929 0.29289 -0.7678 0 -1.0607 -0.2929 -0.2929 -0.76777 -0.2929 -1.06066 0l-0.36829 0.3683c-0.29289 0.2929 -0.29289 0.7678 0 1.0607 0.29289 0.2929 0.76777 0.2929 1.06066 0l0.36829 -0.3683Z" clip-rule="evenodd" stroke-width="1"></path>
  </g>
</svg>