<svg xmlns="http://www.w3.org/2000/svg" fill="none" viewBox="0 0 14 14" id="Cap-Side--Streamline-Flex">
  <desc>
    Cap Side Streamline Icon: https://streamlinehq.com
  </desc>
  <g id="cap-side">
    <path id="Vector 3770" fill="#7fb0f2" d="M1.24639 10.2794 0.245736 9.57163c-0.372709 -0.26362 -0.310104 -0.83428 0.110895 -1.01082L2.96688 7.46619l5.6163 1.50005 -2.06403 1.38126c-1.60191 1.0721 -3.69909 1.045 -5.27276 -0.0681Z" stroke-width="1"></path>
    <path id="Vector" fill="#3c6de3" d="M9.86984 2.5702c-3.37513 -0.90436 -5.78235 0.48545 -6.68671 3.86058 -0.09576 0.35736 -0.16579 0.70387 -0.21047 1.03889L13.3933 10.2619c0.1288 -0.31252 0.2414 -0.64762 0.3371 -1.00498 0.9044 -3.37513 -0.4854 -5.78235 -3.86056 -6.68672Z" stroke-width="1"></path>
    <path id="Intersect" fill="#7fb0f2" fill-rule="evenodd" d="M11.0536 2.98413c-1.87537 0.5907 -3.21374 2.14779 -3.8677 4.58841 -0.08877 0.33129 -0.15847 0.65479 -0.20934 0.97014L13.3931 10.262c0.1288 -0.31249 0.2414 -0.64759 0.3372 -1.00494 0.7901 -2.94861 -0.1708 -5.15847 -2.6767 -6.27293Z" clip-rule="evenodd" stroke-width="1"></path>
  </g>
</svg>