<svg xmlns="http://www.w3.org/2000/svg" fill="none" viewBox="0 0 14 14" id="Cap-Front--Streamline-Flex">
  <desc>
    Cap Front Streamline Icon: https://streamlinehq.com
  </desc>
  <g id="cap-front">
    <path id="Union" fill="#7fb0f2" fill-rule="evenodd" d="M7.01812 0.999023c-2.14288 0 -3.88897 0.583027 -5.10064 1.753157C0.703207 3.92482 0.0947266 5.62027 0.0947266 7.70219c0 0.69203 0.0669924 1.34094 0.2013834 1.94266 0.03435 0.15381 0.139199 0.28241 0.282927 0.34704 0.143729 0.06461 0.309514 0.05771 0.447363 -0.01866 1.11368 -0.61702 3.13646 -1.07011 5.99172 -1.07011s4.87808 0.4531 5.99168 1.07011c0.1379 0.07637 0.3037 0.08327 0.4474 0.01866 0.1437 -0.06463 0.2486 -0.19323 0.2829 -0.34703 0.1344 -0.60172 0.2014 -1.25063 0.2014 -1.94267 0 -2.08192 -0.6085 -3.77737 -1.8227 -4.95001C10.9071 1.58205 9.161 0.999023 7.01812 0.999023Z" clip-rule="evenodd" stroke-width="1"></path>
    <path id="Union_2" fill="#3c6de3" fill-rule="evenodd" d="M7.01804 0.999023c0.58891 0 1.14785 0.044037 1.67396 0.132187 0.15212 0.23832 0.30488 0.50563 0.45311 0.80066 0.67396 1.34148 1.26989 3.28744 1.26989 5.75727 0 0.15212 -0.0011 0.30226 -0.0031 0.45039 0.6594 0.10226 1.1985 0.22752 1.6326 0.35459 0.5121 0.14991 0.8777 0.30223 1.1218 0.42196 0.1221 0.05985 0.2136 0.11148 0.2777 0.15046 0.0321 0.01949 0.0573 0.0358 0.076 0.04839 0.0094 0.00629 0.0171 0.01165 0.0233 0.01601l0.008 0.00577 0.0032 0.0023 0.0014 0.001 0.0006 0.00047c0.0003 0.00022 0.0006 0.00043 -0.2971 0.40216l0.2977 -0.40173c0.1158 0.08584 0.189 0.2175 0.2007 0.3612l0.2406 2.95859c0.0136 0.1682 -0.0585 0.332 -0.1918 0.4355 -0.1332 0.1034 -0.3095 0.1327 -0.469 0.0779l-0.0002 -0.0001 -0.0001 0 -0.0002 -0.0001 -0.0032 -0.001 -0.0172 -0.0057c-0.016 -0.0053 -0.0414 -0.0134 -0.0757 -0.0239 -0.0687 -0.0212 -0.1735 -0.0521 -0.313 -0.0896 -0.279 -0.0751 -0.6965 -0.1764 -1.2406 -0.2782 -1.0882 -0.2035 -2.6823 -0.4087 -4.6874 -0.4087 -2.00509 0 -3.5992 0.2052 -4.68744 0.4087 -0.54409 0.1018 -0.96157 0.2031 -1.24055 0.2782 -0.139479 0.0375 -0.244311 0.0684 -0.313004 0.0896 -0.034346 0.0105 -0.059654 0.0186 -0.075738 0.0239l-0.017183 0.0057 -0.003206 0.001 -0.000153 0.0001 -0.000058 0 -0.000177 0.0001c-0.160516 0.0551 -0.338065 0.0251 -0.47151 -0.0798 -0.1335522 -0.105 -0.2046558 -0.2706 -0.18879164 -0.4398L0.2806 9.48614c0.013279 -0.14158 0.086213 -0.27081 0.200553 -0.35535l0.297262 0.40204c-0.297262 -0.40204 -0.296968 -0.40225 -0.296667 -0.40248l0.000631 -0.00046 0.001369 -0.001 0.003171 -0.00231 0.008087 -0.00576c0.006172 -0.00435 0.013914 -0.00969 0.023275 -0.01597 0.018722 -0.01256 0.043909 -0.02883 0.075955 -0.04825 0.064106 -0.03886 0.15556 -0.09029 0.27751 -0.14989 0.243974 -0.11924 0.609344 -0.27083 1.121204 -0.41983 0.4337 -0.12624 0.97229 -0.25055 1.63111 -0.35179 -0.00198 -0.14669 -0.00297 -0.29535 -0.00297 -0.44595 0 -2.46983 0.59589 -4.41579 1.26986 -5.75727 0.14822 -0.29503 0.30098 -0.56234 0.4531 -0.80066 0.52612 -0.08815 1.08507 -0.132187 1.67399 -0.132187ZM4.87247 7.98822c0.63232 -0.05369 1.34502 -0.0855 2.14563 -0.08502 0.80047 0.00048 1.51311 0.0332 2.14546 0.08774 0.00093 -0.09957 0.0014 -0.20017 0.0014 -0.3018 0 -2.26676 -0.54657 -4.02127 -1.13681 -5.19611 -0.29605 -0.58925 -0.59917 -1.02492 -0.84235 -1.30345 -0.06286 -0.072 -0.11916 -0.13057 -0.16777 -0.17707 -0.04862 0.0465 -0.10492 0.10507 -0.16778 0.17707 -0.24318 0.27853 -0.5463 0.7142 -0.84235 1.30345 -0.59024 1.17484 -1.13681 2.92935 -1.13681 5.19611 0 0.1007 0.00046 0.2004 0.00138 0.29908Z" clip-rule="evenodd" stroke-width="1"></path>
  </g>
</svg>