<svg xmlns="http://www.w3.org/2000/svg" fill="none" viewBox="0 0 14 14">
  <g id="cricket--sports-cricket-bat-ball-teams-game">
    <path id="Union" fill="#3c6de3" fill-rule="evenodd" d="M10.5364 0.536447C10.9105 0.162432 11.428 0 12 0c0.572 0 1.0895 0.162432 1.4636 0.536447C13.8376 0.910461 14 1.42797 14 2c0 0.57203 -0.1624 1.08954 -0.5364 1.46355C13.0895 3.83757 12.572 4 12 4c-0.572 0 -1.0895 -0.16243 -1.4636 -0.53645C10.1624 3.08954 10 2.57203 10 2c0 -0.57203 0.1624 -1.089539 0.5364 -1.463553Z" clip-rule="evenodd" stroke-width="1"></path>
    <path id="Union_2" fill="#3c6de3" fill-rule="evenodd" d="M9.97564 8.91889c-0.29289 -0.29289 -0.76776 -0.29289 -1.06066 0 -0.29289 0.29289 -0.29289 0.76777 0 1.06066l2.81962 2.81955c-0.2217 0.2939 -0.1986 0.7136 0.0691 0.9813 0.2928 0.2929 0.7677 0.2929 1.0606 0l0.9161 -0.9161c0.2929 -0.2929 0.2929 -0.7678 0 -1.0606 -0.269 -0.2691 -0.6916 -0.291 -0.9857 -0.0657L9.97564 8.91889Z" clip-rule="evenodd" stroke-width="1"></path>
    <path id="Union_3" fill="#7fb0f2" fill-rule="evenodd" d="M4.28279 0.405046C3.81351 -0.0371195 3.07561 -0.152802 2.49967 0.236639 1.5857 0.854654 0.853678 1.58668 0.235663 2.50065c-0.389442 0.57593 -0.2737592 1.31383 0.168406 1.78311C3.06251 7.10524 3.21757 7.25155 6.31828 10.1722l0.09191 0.0866c0.10278 0.0968 0.24169 0.1456 0.38244 0.1345l2.90961 -0.2313c0.24488 -0.0194 0.43936 -0.2139 0.45886 -0.45879l0.2312 -2.9096c0.0112 -0.14075 -0.0377 -0.27967 -0.1345 -0.38244l-0.0865 -0.0919C7.25057 3.21855 7.10426 3.06349 4.28279 0.405046Z" clip-rule="evenodd" stroke-width="1"></path>
  </g>
</svg>