<svg xmlns="http://www.w3.org/2000/svg" fill="none" viewBox="0 0 14 14" id="Cycling--Streamline-Flex">
  <desc>
    Cycling Streamline Icon: https://streamlinehq.com
  </desc>
  <g id="cycling--cycling-sports-bycicle-track-wheel">
    <path id="Union" fill="#3c6de3" fill-rule="evenodd" d="M2.47195 8.33984c-0.75692 0 -1.38357 0.21366 -1.820748 0.65084 -0.437177 0.43718 -0.650835789 1.06382 -0.650835789 1.82072 0 0.757 0.213658789 1.3836 0.650835789 1.8208 0.437178 0.4372 1.063828 0.6508 1.820748 0.6508 0.75693 0 1.38358 -0.2136 1.82076 -0.6508 0.43717 -0.4372 0.65083 -1.0638 0.65083 -1.8208 0 -0.7569 -0.21366 -1.38354 -0.65083 -1.82072 -0.43718 -0.43718 -1.06383 -0.65084 -1.82076 -0.65084Z" clip-rule="evenodd" stroke-width="1"></path>
    <path id="Union_2" fill="#3c6de3" fill-rule="evenodd" d="M11.528 8.33984c-0.7569 0 -1.3835 0.21366 -1.82071 0.65084 -0.43717 0.43718 -0.65083 1.06382 -0.65083 1.82072 0 0.757 0.21366 1.3836 0.65083 1.8208 0.43721 0.4372 1.06381 0.6508 1.82071 0.6508 0.757 0 1.3836 -0.2136 1.8208 -0.6508 0.4372 -0.4372 0.6508 -1.0638 0.6508 -1.8208 0 -0.7569 -0.2136 -1.38354 -0.6508 -1.82072 -0.4372 -0.43718 -1.0638 -0.65084 -1.8208 -0.65084Z" clip-rule="evenodd" stroke-width="1"></path>
    <path id="Union_3" fill="#7fb0f2" fill-rule="evenodd" d="M8.78776 1.14982c0.30703 -0.307031 0.72603 -0.434 1.17197 -0.434 0.44597 0 0.86497 0.126969 1.17197 0.434 0.307 0.30703 0.434 0.72602 0.434 1.17197 0 0.44594 -0.127 0.86494 -0.434 1.17197 -0.307 0.30703 -0.726 0.434 -1.17197 0.434 -0.44594 0 -0.86494 -0.12697 -1.17197 -0.434 -0.30702 -0.30703 -0.43399 -0.72603 -0.43399 -1.17197 0 -0.44595 0.12697 -0.86494 0.43399 -1.17197ZM7.58255 3.36776c-0.16768 -0.04526 -0.31125 -0.02579 -0.39108 -0.00887 -0.08567 0.01817 -0.15713 0.04635 -0.20738 0.06902 -0.09986 0.04505 -0.19182 0.10325 -0.26536 0.15392 -0.15118 0.10418 -0.32221 0.24512 -0.49369 0.39576 -0.34778 0.30554 -0.76727 0.71317 -1.1643 1.11196 -1.11744 1.12237 -0.50741 2.98 0.99455 3.30662l0.50103 0.10896c0.05008 0.01089 0.08769 0.03372 0.10997 0.05536 0.02023 0.01964 0.025 0.03453 0.02656 0.04441 0.13487 0.85515 -0.04249 1.5945 -0.60241 2.4259 -0.23138 0.3436 -0.14042 0.8097 0.20315 1.0411 0.34357 0.2313 0.80965 0.1404 1.04102 -0.2032 0.74231 -1.1023 1.04153 -2.21917 0.83992 -3.49749 -0.11386 -0.72195 -0.68825 -1.19891 -1.29946 -1.33182l-0.50103 -0.10896c-0.38962 -0.08473 -0.49866 -0.53311 -0.25031 -0.78256 0.39066 -0.39239 0.78194 -0.77158 1.09132 -1.04338 0.05288 -0.04646 0.10146 -0.08808 0.14564 -0.12493 0.06891 0.05909 0.14311 0.12487 0.22552 0.19794l0.00021 0.00018c0.04345 0.03852 0.08918 0.07907 0.13763 0.12172 0.17323 0.15253 0.37409 0.32548 0.57512 0.47197 0.18646 0.13588 0.44286 0.30211 0.72461 0.37663 0.57684 0.15256 1.18162 0.14627 1.63902 0.11393 0.2338 -0.01653 0.4437 -0.04117 0.6032 -0.06022l0.0252 -0.00301 0 -0.00001c0.0703 -0.00841 0.1255 -0.01501 0.172 -0.01984 0.0394 -0.00409 0.0586 -0.00536 0.0646 -0.00575 0.0014 -0.00009 0.0021 -0.00013 0.0021 -0.00016l-0.0016 -0.00001c0.4142 0 0.75 -0.33579 0.75 -0.75 0 -0.41422 -0.3358 -0.75 -0.75 -0.75 -0.1149 0 -0.2753 0.01941 -0.3994 0.03445l-0.0409 0.00492c-0.1574 0.01881 -0.3363 0.0396 -0.531 0.05336 -0.3994 0.02824 -0.81031 0.02195 -1.1497 -0.0678l-0.00008 -0.00004c-0.00276 -0.00106 -0.07281 -0.02807 -0.22465 -0.13873 -0.14063 -0.10247 -0.29694 -0.23551 -0.46727 -0.38548 -0.03714 -0.03271 -0.07569 -0.0669 -0.11499 -0.10174 -0.12869 -0.11413 -0.2653 -0.23528 -0.38603 -0.33408 -0.08083 -0.06614 -0.17007 -0.1353 -0.26058 -0.1948 -0.07971 -0.0524 -0.21154 -0.13214 -0.37115 -0.17523Zm-0.47048 1.41785c-0.00002 -0.00008 0.0015 0.00071 0.00468 0.0026 -0.00306 -0.00158 -0.00465 -0.00252 -0.00468 -0.0026Z" clip-rule="evenodd" stroke-width="1"></path>
  </g>
</svg>