<svg xmlns="http://www.w3.org/2000/svg" fill="none" viewBox="0 0 14 14">
  <g id="downhill-skiing--sports-downhill-skiing-snow-winter">
    <path id="Union" fill="#3c6de3" fill-rule="evenodd" d="M11.3683 4.03304c0.3837 0.1561 0.5682 0.59367 0.4121 0.97735l-0.5994 1.47325c-0.1561 0.38368 -0.5937 0.56816 -0.9774 0.41205 -0.38364 -0.1561 -0.56812 -0.59367 -0.41202 -0.97735l0.59942 -1.47325c0.1561 -0.38368 0.5937 -0.56816 0.9773 -0.41205Z" clip-rule="evenodd" stroke-width="1"></path>
    <path id="Union_2" fill="#7fb0f2" fill-rule="evenodd" d="M10.45 0.000574167C10.8807 0.0130901 11.2694 0.228869 11.595 0.574026c0.3257 0.345157 0.5185 0.745714 0.506 1.176434 -0.0125 0.43071 -0.2283 0.8194 -0.5734 1.14506 -0.3452 0.32567 -0.7457 0.51851 -1.1765 0.506 -0.43067 -0.01252 -0.81935 -0.2283 -1.14502 -0.57346 -0.32566 -0.34515 -0.51851 -0.74571 -0.50599 -1.17643 0.01252 -0.43072 0.2283 -0.819399 0.57345 -1.145063C9.6187 0.180903 10.0193 -0.0119418 10.45 0.000574167ZM8.46885 2.80766c-0.12042 -0.3026 -0.42237 -0.49291 -0.74732 -0.471l0.05046 0.7483c-0.05046 -0.7483 -0.05066 -0.74829 -0.05087 -0.74827l-0.00048 0.00003 -0.00113 0.00008 -0.00301 0.00021 -0.00891 0.00066 -0.02901 0.00234c-0.02416 0.00205 -0.0578 0.00513 -0.0997 0.00951 -0.08365 0.00876 -0.20091 0.02279 -0.34159 0.04435 -0.27899 0.04277 -0.66165 0.1169 -1.06193 0.24315 -0.39482 0.12453 -0.84276 0.31082 -1.22821 0.59479 -0.38998 0.28729 -0.75594 0.70605 -0.8855 1.29067 -0.13021 0.58757 0.01657 1.08257 0.31162 1.47697 0.25891 0.34609 0.62619 0.60277 0.89614 0.78949 0.65115 0.45039 0.94179 0.66922 0.99847 1.0374 0.00001 0.00002 0.00001 0.00004 0.00001 0.00006l0 -0.00004c0.00005 0.00038 0.00063 0.00472 0.00101 0.01362 0.00043 0.00991 0.00054 0.02394 -0.00023 0.04251 -0.00157 0.0378 -0.00652 0.08767 -0.0167 0.15061 -0.02058 0.1272 -0.0586 0.28433 -0.11384 0.46724 -0.11053 0.366 -0.27501 0.78653 -0.45121 1.1942 -0.17498 0.40486 -0.35532 0.78276 -0.49244 1.06046 -0.06839 0.1384 -0.1256 0.2511 -0.16545 0.3286 -0.01992 0.0388 -0.03548 0.0687 -0.04591 0.0887l-0.01167 0.0223 -0.00276 0.0052 -0.00058 0.0011 -0.00003 0.0001c-0.19394 0.366 -0.05445 0.8199 0.31156 1.0138 0.36601 0.194 0.81993 0.0545 1.01387 -0.3115l-0.66272 -0.3512c0.66272 0.3512 0.66275 0.3511 0.6628 0.351l0.00011 -0.0002 0.00033 -0.0006 0.00108 -0.0021 0.00377 -0.0071 0.01378 -0.0263c0.01186 -0.0227 0.02895 -0.0556 0.05047 -0.0975 0.04302 -0.0837 0.10388 -0.2035 0.17626 -0.3501 0.1444 -0.2924 0.33635 -0.6944 0.52442 -1.1295 0.18685 -0.43234 0.3762 -0.91178 0.51027 -1.35571 0.1227 -0.40632 0.24155 -0.91212 0.17636 -1.33574 -0.16132 -1.04831 -1.00905 -1.62303 -1.51332 -1.9649l-0.00005 -0.00004c-0.04052 -0.02747 -0.07883 -0.05344 -0.11438 -0.07803 -0.29462 -0.20378 -0.45768 -0.3332 -0.54833 -0.45437 -0.0545 -0.07286 -0.07652 -0.12629 -0.04824 -0.25389 0.02781 -0.12548 0.11279 -0.26174 0.31071 -0.40754 0.20245 -0.14915 0.47937 -0.27404 0.78974 -0.37193 0.24108 -0.07604 0.48089 -0.12918 0.68453 -0.16554 0.70014 1.46158 1.72636 2.49706 3.1243 3.34406 0.3543 0.21465 0.8155 0.10146 1.0301 -0.2528s0.1015 -0.81545 -0.2528 -1.03009c-1.32044 -0.80004 -2.18175 -1.74292 -2.74385 -3.15552Z" clip-rule="evenodd" stroke-width="1"></path>
    <path id="Union_3" fill="#3c6de3" fill-rule="evenodd" d="M10.5572 8.79295c0.1272 -0.39421 -0.0893 -0.81686 -0.4835 -0.94403 -0.39421 -0.12716 -0.81687 0.08932 -0.94403 0.48353l-0.82334 2.55235 -0.29991 0.9297c-0.93555 -0.2938 -1.92093 -0.6511 -2.85004 -1.0113 -1.11444 -0.4321 -2.13849 -0.86479 -2.88441 -1.18968 -0.3727 -0.16232 -0.67534 -0.29747 -0.88437 -0.39184 -0.1045 -0.04718 -0.18556 -0.08414 -0.24024 -0.1092l-0.06186 -0.02842 -0.01539 -0.00711 -0.00368 -0.0017 -0.00083 -0.00039 -0.00014 -0.00006 -0.00002 -0.00001c-0.375707 -0.17438 -0.821646 -0.01118 -0.9960367 0.36453 -0.1743923 0.37571 -0.0111901 0.82168 0.3645227 0.99608l0.315766 -0.68032c-0.315766 0.68032 -0.315687 0.68032 -0.31558 0.68042l0.000359 0.0001 0.001231 0.0006 0.004503 0.0021 0.017054 0.0079 0.065328 0.03c0.057056 0.0261 0.140648 0.0642 0.247817 0.1126 0.214311 0.0968 0.523066 0.2346 0.902596 0.3999 0.75853 0.3304 1.80226 0.7714 2.94111 1.213 1.13712 0.4409 2.37855 0.8861 3.53043 1.222 1.13359 0.3307 2.24716 0.5761 3.10246 0.5761 0.5338 0 1.1283 -0.1614 1.5403 -0.295 0.2164 -0.0703 0.4043 -0.1402 0.5384 -0.1928 0.0673 -0.0263 0.1216 -0.0485 0.16 -0.0645l0.0452 -0.019 0.013 -0.0056 0.004 -0.0017 0.0013 -0.0006 0.0005 -0.0002 0.0003 -0.0001c0 -0.0001 0.0001 -0.0001 -0.3001 -0.6874l0.3002 0.6873c0.3796 -0.1658 0.5529 -0.6079 0.3871 -0.9875 -0.1658 -0.3795 -0.6078 -0.5528 -0.9874 -0.3871l-0.0001 0 -0.0006 0.0003 -0.0072 0.0031 -0.0326 0.0137c-0.0296 0.0123 -0.0741 0.0305 -0.1306 0.0526 -0.1133 0.0444 -0.2725 0.1037 -0.4543 0.1627 -0.3846 0.1247 -0.7916 0.2218 -1.0774 0.2218 -0.4538 0 -1.07 -0.0997 -1.79611 -0.2772l0.31394 -0.9732 0.79237 -2.45645Z" clip-rule="evenodd" stroke-width="1"></path>
  </g>
</svg>