<svg xmlns="http://www.w3.org/2000/svg" fill="none" viewBox="0 0 14 14" id="Dribble-Logo--Streamline-Flex">
  <desc>
    Dribble Logo Streamline Icon: https://streamlinehq.com
  </desc>
  <g id="dribble">
    <path id="Union" fill="#7fb0f2" d="M7 0C4.83048 0 3.06233 0.611781 1.83706 1.83706 0.611781 3.06233 0 4.83048 0 7s0.611781 3.9377 1.83706 5.1629C3.06233 13.3882 4.83048 14 7 14s3.9377 -0.6118 5.1629 -1.8371C13.3882 10.9377 14 9.16952 14 7c0 -2.16952 -0.6118 -3.93767 -1.8371 -5.16294C10.9377 0.611781 9.16952 0 7 0Z" stroke-width="1"></path>
    <path id="Intersect" fill="#3c6de3" fill-rule="evenodd" d="M0.164844 5.15897c2.334786 0.20494 4.502206 -0.16998 6.339776 -0.82069C5.65713 3.11967 4.56303 1.9417 3.16902 0.8873 3.16007 0.880527 3.15134 0.873558 3.14286 0.866406 3.55354 0.64371 3.99915 0.463968 4.47708 0.327148 5.80791 1.42081 6.86473 2.62252 7.69302 3.86064c1.68543 -0.76144 3.00248 -1.73135 3.78738 -2.60317 0.243 0.17491 0.4706 0.36807 0.682 0.57951 0.0842 0.08418 0.1655 0.17093 0.2439 0.26019 -0.8764 0.9719 -2.2814 2.01428 -4.05545 2.83693 0.41184 0.73637 0.74926 1.47821 1.02151 2.21098 1.54574 -0.21004 3.08624 -0.16618 4.62574 0.03417 -0.0068 0.43295 -0.0385 0.84943 -0.0951 1.24826 -1.4011 -0.18663 -2.775 -0.23395 -4.13584 -0.0726 0.53354 1.89049 0.65094 3.66219 0.52054 5.05019 -0.40631 0.1699 -0.8413 0.3034 -1.30288 0.4005 0.0003 -0.028 0.00249 -0.0563 0.00667 -0.0847 0.19341 -1.3176 0.11951 -3.1633 -0.46488 -5.15847 -0.20924 0.04557 -0.41828 0.09662 -0.62716 0.15342 -1.98453 0.53958 -3.98889 1.60655 -6.04287 3.46695 -0.00669 -0.0066 -0.01337 -0.0133 -0.02002 -0.0199 -0.289 -0.289 -0.54387 -0.6082 -0.76463 -0.9558 2.165 -1.94769 4.32252 -3.10553 6.49955 -3.69746 0.18336 -0.04986 0.36662 -0.09563 0.54979 -0.13749 -0.25211 -0.64729 -0.56047 -1.30215 -0.93284 -1.9525 -2.06836 0.77258 -4.52556 1.22019 -7.172805 0.98099 0.0236692 -0.43197 0.0734047 -0.84627 0.149219 -1.24167Z" clip-rule="evenodd" stroke-width="1"></path>
  </g>
</svg>