<svg xmlns="http://www.w3.org/2000/svg" fill="none" viewBox="0 0 14 14">
  <g id="fishing-phishing--sports-fishing-phishing-hook-string">
    <path id="Union" fill="#7fb0f2" fill-rule="evenodd" d="M9.73901 2.75c-0.70025 0 -1.3536 0.19791 -1.83165 0.67305 -0.47873 0.47581 -0.67909 1.12764 -0.67909 1.82695 0 0.69931 0.20036 1.35114 0.67909 1.82695 0.29743 0.29562 0.66272 0.48392 1.06494 0.58401 -0.09823 1.30027 -0.32208 2.47494 -0.73581 3.34694 -0.23826 0.5021 -0.52408 0.8706 -0.85361 1.1129 -0.32029 0.2354 -0.71942 0.3799 -1.24603 0.3799 -0.64905 0 -1.09548 -0.1489 -1.41392 -0.3582 -0.32006 -0.2103 -0.56489 -0.5173 -0.75089 -0.9205 -0.22489 -0.4874 -0.34762 -1.0776 -0.41099 -1.71346 0.15119 0.18455 0.27115 0.39653 0.36122 0.63826 0.1446 0.3882 0.57648 0.5856 0.96463 0.441 0.38816 -0.1446 0.5856 -0.5765 0.44099 -0.96463 -0.41748 -1.12065 -1.24484 -1.85001 -2.31838 -2.24508 -0.23008 -0.08468 -0.48703 -0.05155 -0.68811 0.08872 -0.20108 0.14026 -0.32091 0.36996 -0.32091 0.61513 0 1.16245 0.07194 2.60326 0.60952 3.76846 0.27637 0.5991 0.68603 1.1493 1.28907 1.5457 0.60466 0.3974 1.34996 0.6046 2.23777 0.6046 0.82816 0 1.54245 -0.2361 2.13448 -0.6714 0.5828 -0.4284 1.00821 -1.0206 1.32035 -1.6784 0.53802 -1.1339 0.78412 -2.55922 0.88412 -3.98268 0.414 -0.09811 0.7901 -0.28835 1.0949 -0.59127 0.4787 -0.47581 0.679 -1.12764 0.679 -1.82695 0 -0.69931 -0.2003 -1.35114 -0.679 -1.82695 -0.4781 -0.47514 -1.1315 -0.67305 -1.83169 -0.67305Zm-1.01074 2.5c0 -0.42069 0.11657 -0.64386 0.2365 -0.76305 0.1206 -0.11986 0.34761 -0.23695 0.77424 -0.23695 0.42659 0 0.65359 0.11709 0.77419 0.23695 0.12 0.11919 0.2365 0.34236 0.2365 0.76305s-0.1165 0.64386 -0.2365 0.76305c-0.1206 0.11986 -0.3476 0.23695 -0.77419 0.23695 -0.42663 0 -0.65364 -0.11709 -0.77424 -0.23695 -0.11993 -0.11919 -0.2365 -0.34236 -0.2365 -0.76305Z" clip-rule="evenodd" stroke-width="1"></path>
    <path id="Union_2" fill="#3c6de3" fill-rule="evenodd" d="M9.48201 0.00113953C9.8956 -0.0214833 10.2492 0.295463 10.2718 0.709058c0.0157 0.285814 0.05 0.671512 0.0904 1.127102 0.0057 0.06424 0.0116 0.12987 0.0175 0.19681 0.0472 0.53322 0.0986 1.13582 0.1314 1.72759 0.023 0.41358 -0.2937 0.76744 -0.70728 0.79038 -0.41357 0.02294 -0.76744 -0.29373 -0.79038 -0.70731 -0.03133 -0.56495 -0.08081 -1.14604 -0.12791 -1.67851 -0.00583 -0.0659 -0.01164 -0.13128 -0.01739 -0.19596 -0.03999 -0.4496 -0.0769 -0.8647 -0.09405 -1.178178 -0.02262 -0.413595 0.29432 -0.7672196 0.70792 -0.78984247Z" clip-rule="evenodd" stroke-width="1"></path>
  </g>
</svg>