<svg xmlns="http://www.w3.org/2000/svg" fill="none" viewBox="0 0 14 14">
  <g id="flag-score--sports-score-flag-racing-checker">
    <path id="Union" fill="#7fb0f2" fill-rule="evenodd" d="M10.724 0.148343C8.15645 -0.0938881 5.66319 -0.0052593 3.16559 0.170629l-0.02051 0.001727C2.31253 0.253999 1.65125 0.930021 1.60209 1.77838c-0.12285 2.12015 -0.11391 4.43201 -0.06971 6.54341 0.00809 0.38605 0.30796 0.70287 0.69298 0.73214 2.73068 0.20763 5.68541 0.41911 8.49864 0.1537 0.82 -0.07736 1.465 -0.72027 1.5714 -1.52566 0.2716 -2.05696 0.2716 -3.951 0 -6.00797C12.189 0.868615 11.544 0.225706 10.724 0.148343Z" clip-rule="evenodd" stroke-width="1"></path>
    <g id="Union_2">
      <path fill="#3c6de3" d="M10.7242 0.148379C10.1658 0.0956912 9.61081 0.0586551 9.05856 0.0347646V3.12112h3.38634c-0.0339 -0.47599 -0.0832 -0.95681 -0.1479 -1.44688 -0.1062 -0.804327 -0.7508 -1.44832 -1.5728 -1.525861Z" stroke-width="1"></path>
      <path fill="#3c6de3" fill-rule="evenodd" d="M3.05399 9.11612c0.03431 1.38208 0.08309 2.67598 0.17612 4.08458 0.02729 0.4133 -0.28638 0.7705 -0.70061 0.7977 -0.41423 0.0272 -0.77216 -0.2857 -0.79946 -0.6991 -0.11507 -1.7425 -0.16338 -3.30887 -0.19935 -5.05281 -0.04419 -2.14221 -0.05325 -4.46172 0.06961 -6.61368C1.71923 0.914062 2.2989 0.243631 3.16528 0.170659 3.99481 0.112241 4.82389 0.0634467 5.65538 0.0332031L5.6552 3.12112h3.40336l-0.00034 3.10156H5.6552l0.00018 3.05472c-0.87779 -0.04022 -1.74847 -0.09865 -2.60139 -0.16128Zm-0.02756 -5.995c-0.02183 1.01256 -0.02615 2.08393 -0.01961 3.10156H5.6552V3.12112H3.02643Z" clip-rule="evenodd" stroke-width="1"></path>
      <path fill="#3c6de3" d="M12.297 7.68178c0.0652 -0.49427 0.1148 -0.97913 0.1487 -1.4591H9.05822l0.00034 3.08962c0.55882 -0.01902 1.11494 -0.0527 1.66564 -0.10466 0.822 -0.07754 1.4666 -0.72153 1.5728 -1.52586Z" stroke-width="1"></path>
    </g>
  </g>
</svg>