<svg xmlns="http://www.w3.org/2000/svg" fill="none" viewBox="0 0 14 14" id="Football--Streamline-Flex">
  <desc>
    Football Streamline Icon: https://streamlinehq.com
  </desc>
  <g id="football--football-sports-american-rugby-ball">
    <path id="Union" fill="#7fb0f2" fill-rule="evenodd" d="M11.8433 0.275553C10.0551 -0.0476721 8.4262 -0.117956 6.90554 0.234906 5.37578 0.58988 3.98963 1.36511 2.67724 2.67749 1.36486 3.98987 0.589636 5.37602 0.234662 6.90578c-0.352863 1.52067 -0.2825786 3.14952 0.040646 4.93772 0.173144 0.9579 0.923412 1.7082 1.881312 1.8813 1.7882 0.3233 3.41706 0.3935 4.93771 0.0406 1.52975 -0.3549 2.91587 -1.1302 4.22827 -2.4426 1.3124 -1.3123 2.0876 -2.69847 2.4426 -4.22822 0.3529 -1.52065 0.2826 -3.14952 -0.0406 -4.93772 -0.1732 -0.95789 -0.9234 -1.708164 -1.8813 -1.881307Z" clip-rule="evenodd" stroke-width="1"></path>
    <path id="Union_2" fill="#3c6de3" fill-rule="evenodd" d="M10.5357 4.16069c0.2441 -0.24408 0.2441 -0.6398 0 -0.88388 -0.2441 -0.24408 -0.63981 -0.24408 -0.88389 0l-0.70927 0.70927c-0.25644 -0.19597 -0.5256 -0.36179 -0.78429 -0.463 -0.32146 -0.12577 -0.684 0.03287 -0.80976 0.35432 -0.12577 0.32145 0.03287 0.68399 0.35432 0.80976 0.0966 0.03779 0.21483 0.1039 0.34511 0.19354L6.94903 5.97959c-0.25618 -0.1957 -0.52504 -0.36127 -0.78346 -0.46237 -0.32145 -0.12577 -0.68399 0.03287 -0.80976 0.35432 -0.12576 0.32145 0.03287 0.68399 0.35433 0.80976 0.09638 0.03771 0.2143 0.10361 0.34423 0.19294l-1.09729 1.0973c-0.25648 -0.19602 -0.52569 -0.36188 -0.78443 -0.46311 -0.32145 -0.12577 -0.68399 0.03287 -0.80976 0.35432 -0.12576 0.32145 0.03287 0.68399 0.35433 0.80976 0.09663 0.0378 0.21492 0.10395 0.34525 0.19364l-0.62941 0.62941c-0.24408 0.24408 -0.24408 0.63984 0 0.88384 0.24408 0.2441 0.6398 0.2441 0.88388 0l0.65636 -0.65632c0.17263 0.21418 0.29633 0.41202 0.35402 0.55952 0.12577 0.3215 0.48831 0.4801 0.80976 0.3543 0.32145 -0.1257 0.48009 -0.4883 0.35432 -0.80972 -0.12897 -0.32964 -0.36282 -0.67626 -0.6303 -0.99189l1.10436 -1.10436c0.17302 0.21453 0.297 0.41278 0.35478 0.56047 0.12577 0.32145 0.48831 0.48009 0.80976 0.35432 0.32145 -0.12576 0.48009 -0.4883 0.35432 -0.80975 -0.12909 -0.32996 -0.36328 -0.67693 -0.63109 -0.99282L8.95879 5.7376c0.17268 0.21422 0.29642 0.41216 0.35413 0.55966 0.12576 0.32145 0.4883 0.48009 0.80978 0.35432 0.3214 -0.12576 0.4801 -0.4883 0.3543 -0.80975 -0.129 -0.32968 -0.3629 -0.67635 -0.63042 -0.99203l0.68912 -0.68911Z" clip-rule="evenodd" stroke-width="1"></path>
  </g>
</svg>