<svg xmlns="http://www.w3.org/2000/svg" fill="none" viewBox="0 0 14 14">
  <g id="golf--sports-golf-ball-club-outdoor">
    <path id="Union" fill="#7fb0f2" fill-rule="evenodd" d="M7.00027 0C5.62799 0 4.4853 0.3875 3.68616 1.18664c-0.79915 0.79915 -1.18665 1.94184 -1.18665 3.31412s0.3875 2.51497 1.18665 3.31412c0.79914 0.79914 1.94183 1.18664 3.31411 1.18664s2.51497 -0.3875 3.31413 -1.18664c0.7991 -0.79915 1.1866 -1.94184 1.1866 -3.31412s-0.3875 -2.51497 -1.1866 -3.31412C9.51524 0.3875 8.37255 0 7.00027 0Z" clip-rule="evenodd" stroke-width="1"></path>
    <path id="Union_2" fill="#3c6de3" fill-rule="evenodd" d="M6.96973 1.47461c0.34517 0 0.625 0.27982 0.625 0.625v0.24657c0 0.34518 -0.27983 0.625 -0.625 0.625 -0.34518 0 -0.625 -0.27982 -0.625 -0.625v-0.24657c0 -0.34518 0.27982 -0.625 0.625 -0.625ZM5.18066 2.49023c0.34518 0 0.625 0.27983 0.625 0.625v0.24658c0 0.34518 -0.27982 0.625 -0.625 0.625 -0.34517 0 -0.625 -0.27982 -0.625 -0.625v-0.24658c0 -0.34517 0.27983 -0.625 0.625 -0.625Zm4.20264 0.625c0 -0.34517 -0.27982 -0.625 -0.625 -0.625s-0.625 0.27983 -0.625 0.625v0.24658c0 0.34518 0.27982 0.625 0.625 0.625s0.625 -0.27982 0.625 -0.625v-0.24658Z" clip-rule="evenodd" stroke-width="1"></path>
    <path id="Union_3" fill="#3c6de3" fill-rule="evenodd" d="M3.81162 9.45225c-0.35327 -0.21627 -0.81497 -0.10521 -1.03124 0.24806 -0.21627 0.35329 -0.10521 0.81499 0.24806 1.03129 0.90731 0.5554 1.99403 0.8719 3.22183 0.9617v1.5568c0 0.4143 0.33579 0.75 0.75 0.75 0.41422 0 0.75 -0.3357 0.75 -0.75v-1.5568c1.22792 -0.0898 2.31473 -0.4062 3.22213 -0.9617 0.3533 -0.2163 0.4643 -0.678 0.2481 -1.03129 -0.2163 -0.35327 -0.678 -0.46433 -1.0313 -0.24806 -0.79737 0.48816 -1.8549 0.76785 -3.18878 0.76785 -1.33389 0 -2.39142 -0.27969 -3.1888 -0.76785Z" clip-rule="evenodd" stroke-width="1"></path>
  </g>
</svg>