<svg xmlns="http://www.w3.org/2000/svg" fill="none" viewBox="0 0 14 14">
  <g id="gymnastics--sports-gymnastics-acrobatic-athlete-gym-sport">
    <path id="Union" fill="#7fb0f2" fill-rule="evenodd" d="M2.10681 1.06628c0.30533 -0.305337 0.72997 -0.440303 1.20572 -0.440303 0.47576 0 0.90039 0.134966 1.20573 0.440303 0.30533 0.30533 0.4403 0.72997 0.4403 1.20572 0 0.47576 -0.13497 0.90039 -0.4403 1.20573 -0.30534 0.30533 -0.72997 0.4403 -1.20573 0.4403 -0.47575 0 -0.90039 -0.13497 -1.20572 -0.4403 -0.30534 -0.30534 -0.44031 -0.72997 -0.44031 -1.20573 0 -0.47575 0.13497 -0.90039 0.44031 -1.20572Zm11.62579 0.66826c0.317 0.26655 0.358 0.73966 0.0914 1.05671 -1.3235 1.57419 -2.7949 2.84122 -4.5266 3.89996 0.00991 0.07738 0.01763 0.16112 0.02389 0.24699 0.01588 0.21763 0.02522 0.48941 0.03024 0.78848 0.01009 0.60034 0.00332 1.34911 -0.00988 2.07554 -0.01323 0.72798 -0.03306 1.44038 -0.04955 1.97018 -0.00826 0.2651 -0.01569 0.4848 -0.02106 0.6384l-0.00636 0.1782 -0.00173 0.0471 -0.00046 0.0121 -0.00012 0.0032 -0.00003 0.0008 -0.00001 0.0002 -0.74942 -0.0283 0.74942 0.0284c-0.01569 0.4139 -0.36395 0.7367 -0.77786 0.7211 -0.41392 -0.0157 -0.73675 -0.364 -0.72106 -0.7779l0.74936 0.0284 -0.74936 -0.0284 0 -0.0002 0.00003 -0.0007 0.00011 -0.0029 0.00044 -0.0117 0.00169 -0.046 0.00628 -0.1758c0.00531 -0.152 0.01268 -0.3698 0.02086 -0.6326 0.01638 -0.5261 0.03601 -1.2315 0.04908 -1.95083 0.0131 -0.72092 0.01949 -1.44911 0.00984 -2.0231 -0.00484 -0.2881 -0.01358 -0.52783 -0.02647 -0.70452 -0.00254 -0.03483 -0.00514 -0.06569 -0.00772 -0.09277 -0.03613 -0.02323 -0.08322 -0.05107 -0.14282 -0.08298 -0.21066 -0.11279 -0.50641 -0.23892 -0.85459 -0.36633 -0.63611 -0.23275 -1.37626 -0.44413 -1.93423 -0.5692 -1.28668 0.44038 -2.68365 0.53897 -4.234095 0.33561 -0.410696 -0.05387 -0.6999618 -0.43047 -0.64609331 -0.84117C0.0595902 5.01981 0.436194 4.73055 0.84689 4.78442c1.48318 0.19454 2.72 0.0664 3.81331 -0.36305 1.09514 -0.43016 2.09994 -1.18373 3.08558 -2.32246 0.27108 -0.31319 0.74473 -0.34732 1.05792 -0.07624 0.31318 0.27109 0.34732 0.74473 0.07623 1.05792 -0.63728 0.73627 -1.30521 1.35527 -2.0205 1.85079 0.16186 0.05337 0.32161 0.10869 0.47615 0.16523 0.35791 0.13097 0.70676 0.27536 0.99588 0.42556 1.67494 -0.99741 3.07934 -2.19145 4.34444 -3.6962 0.2665 -0.31705 0.7396 -0.35799 1.0567 -0.09143ZM7.90235 7.01718c-0.00018 0.00002 -0.00241 -0.00193 -0.00617 -0.0059 0.00447 0.0039 0.00634 0.00589 0.00617 0.0059Z" clip-rule="evenodd" stroke-width="1"></path>
  </g>
</svg>