<svg xmlns="http://www.w3.org/2000/svg" fill="none" viewBox="0 0 14 14" id="Hanger--Streamline-Flex">
  <desc>
    Hanger Streamline Icon: https://streamlinehq.com
  </desc>
  <g id="hanger--hanger-locker-check-coat-room-cloak-hotel">
    <path id="Union" fill="#7fb0f2" fill-rule="evenodd" d="M6.9996 0.499634c0.74999 0 1.44096 0.216319 1.9427 0.724566 0.50033 0.50682 0.7113 1.20152 0.7113 1.95415 0 0.75262 -0.21097 1.44732 -0.7113 1.95414 -0.32859 0.33286 -0.73835 0.54051 -1.1927 0.64418v0.30706c2.3082 0.30993 4.407 2.01702 5.8483 4.25127 0.4993 0.774 0.543 1.6332 0.0782 2.3019 -0.4394 0.6319 -1.216 0.9189 -1.9946 0.8547 -3.14826 -0.2598 -6.21547 -0.2602 -9.36363 -0.0005 -0.77857 0.0642 -1.555191 -0.2227 -1.994529 -0.8547 -0.464876 -0.6687 -0.4211498 -1.5278 0.078155 -2.3018C1.84281 8.1003 3.9415 6.39368 6.2496 6.08375v-0.97669c0 -0.41422 0.33578 -0.75 0.75 -0.75 0.46857 0 0.7296 -0.13085 0.87523 -0.27837 0.14703 -0.14894 0.27877 -0.4186 0.27877 -0.90034 0 -0.48175 -0.13174 -0.75141 -0.27877 -0.90035 -0.14563 -0.14752 -0.40666 -0.27837 -0.87523 -0.27837 -0.46857 0 -0.7296 0.13085 -0.87523 0.27837 -0.14703 0.14894 -0.27878 0.4186 -0.27878 0.90035 0 0.41421 -0.33579 0.75 -0.75 0.75s-0.75 -0.33579 -0.75 -0.75c0 -0.75263 0.21097 -1.44733 0.7113 -1.95415C5.55863 0.715953 6.2496 0.499634 6.9996 0.499634ZM12.3374 11.1481c-1.4518 -2.25044 -3.45042 -3.6148 -5.3377 -3.6148 -1.88734 0 -3.88599 1.36399 -5.33772 3.6144 -0.2416 0.3745 -0.15495 0.5636 -0.10703 0.6325 0.07347 0.1057 0.27953 0.2457 0.63958 0.216 3.23039 -0.2666 6.3801 -0.2661 9.61037 0.0004 0.36 0.0297 0.5661 -0.1103 0.6396 -0.216 0.0479 -0.0689 0.1345 -0.2579 -0.1071 -0.6325Z" clip-rule="evenodd" stroke-width="1"></path>
  </g>
</svg>