<svg xmlns="http://www.w3.org/2000/svg" fill="none" viewBox="0 0 14 14" id="Hiking--Streamline-Flex">
  <desc>
    Hiking Streamline Icon: https://streamlinehq.com
  </desc>
  <g id="hiking--hiking-sports-mountain-track-walk">
    <path id="Union" fill="#7fb0f2" fill-rule="evenodd" d="M4.88992 0.543462c0.37723 -0.377927 0.89964 -0.542485438 1.47806 -0.542485438 0.57842 0 1.10083 0.164558438 1.47806 0.542485438 0.3771 0.377792 0.54111 0.900668 0.54111 1.479488 0 0.57881 -0.16401 1.10169 -0.54111 1.47948 -0.37723 0.37793 -0.89964 0.54249 -1.47806 0.54249 -0.57842 0 -1.10083 -0.16456 -1.47806 -0.54249 -0.3771 -0.37779 -0.5411 -0.90067 -0.5411 -1.47948 0 -0.57882 0.164 -1.101696 0.5411 -1.479488ZM3.54873 4.88961c0.75265 -0.34993 1.69509 -0.4584 2.5044 -0.24238 0.74529 0.19893 1.2551 0.5983 1.62621 0.88903l0.07274 0.05686c0.39345 0.3063 0.61075 0.44289 0.91755 0.46421 0.33312 0.02314 0.69369 -0.10899 1.03142 -0.31509 0.29028 -0.17715 0.49865 -0.36708 0.60275 -0.46191l0.0001 -0.00013c0.0139 -0.01269 0.026 -0.02368 0.0361 -0.0327 0.3094 -0.27547 0.7834 -0.24802 1.0589 0.06132 0.2755 0.30933 0.248 0.78341 -0.0613 1.05888l-0.0229 0.02093c-0.096 0.08827 -0.408 0.37513 -0.8323 0.63402 -0.4602 0.28084 -1.13988 0.58505 -1.91675 0.53107 -0.80318 -0.05581 -1.3396 -0.46916 -1.735 -0.77697l-0.03376 -0.0263 -0.0003 -0.00023c-0.03858 -0.03005 -0.07618 -0.05934 -0.11305 -0.08785 -0.00838 0.0318 -0.01675 0.06445 -0.0251 0.09792 -0.0981 0.39315 -0.17966 0.84508 -0.2263 1.27029 -0.01398 0.12751 0.04235 0.26422 0.16628 0.35395l0.07529 0.05448c0.74563 0.53937 1.37888 0.99744 1.75394 1.70769 0.38664 0.7321 0.45978 1.6437 0.45978 2.9687 0 0.4142 -0.33579 0.75 -0.75 0.75 -0.41422 0 -0.75 -0.3358 -0.75 -0.75 0 -1.35 -0.09437 -1.9051 -0.28619 -2.2683 -0.19085 -0.3614 -0.51688 -0.6209 -1.38249 -1.24759 -0.54006 -0.39101 -0.85316 -1.04412 -0.77767 -1.73246 0.05402 -0.49249 0.1475 -1.01111 0.26198 -1.4699 0.02984 -0.11962 0.0622 -0.23966 0.09704 -0.35735 -0.36821 -0.02128 -0.77678 0.05089 -1.11898 0.20999 -0.46374 0.21561 -0.62419 0.48906 -0.62925 0.71382 0.00277 0.00856 0.0207 0.062 0.11842 0.16071 0.12167 0.1229 0.28969 0.2356 0.43635 0.3187 0.36037 0.20422 0.48696 0.66191 0.28275 1.02228 -0.20422 0.36038 -0.66191 0.48697 -1.02228 0.28275 -0.20199 -0.11446 -0.50322 -0.30622 -0.76279 -0.56841 -0.24886 -0.25137 -0.55614 -0.66645 -0.55253 -1.21804 0.00681 -1.03864 0.75178 -1.72554 1.49694 -2.07199Zm1.85269 6.13079c0.16876 -0.3783 -0.00108 -0.8217 -0.37935 -0.9905 -0.37828 -0.16875 -0.82174 0.0011 -0.99051 0.3794 -0.33844 0.7586 -0.78683 1.423 -1.37895 2.0596 -0.2821 0.3033 -0.26492 0.7778 0.03838 1.0599s0.77786 0.265 1.05996 -0.0383c0.69551 -0.7478 1.2395 -1.5489 1.65047 -2.4701Z" clip-rule="evenodd" stroke-width="1"></path>
    <path id="Vector 2892 (Stroke)" fill="#3c6de3" fill-rule="evenodd" d="M10.6824 3.15376c0.4086 -0.06771 0.7948 0.20867 0.8625 0.61732 0.5377 3.24524 0.5377 6.35452 0 9.59982 -0.0677 0.4086 -0.4539 0.685 -0.8625 0.6173 -0.4087 -0.0677 -0.68503 -0.4539 -0.6173 -0.8625 0.5108 -3.0829 0.5108 -6.02654 0 -9.10943 -0.06773 -0.40865 0.2086 -0.7948 0.6173 -0.86251Z" clip-rule="evenodd" stroke-width="1"></path>
  </g>
</svg>