<svg xmlns="http://www.w3.org/2000/svg" fill="none" viewBox="0 0 14 14">
  <g id="hockey--sports-hockey-skater-team-hooked-angle-stick">
    <path id="Subtract" fill="#7fb0f2" fill-rule="evenodd" d="m4.26159 10.1764 -0.03354 0.0414c-0.7371 -0.1719 -1.703 -0.34334 -2.56158 -0.4825 -0.808098 -0.13098 -1.6056698 0.4322 -1.6489952 1.3033 -0.02641491 0.5311 -0.02291111 1.101 0.0107011 1.6229 0.0480719 0.7465 0.6642091 1.2837 1.3716241 1.3091 1.19479 0.0429 2.3288 0.0389 3.53454 -0.0121 0.47882 -0.0202 0.91348 -0.2728 1.17435 -0.6681l0.13153 -0.1997 -1.97863 -2.9143Zm5.3564 -2.21287 4.21541 -6.39872c0.2899 -0.43995 0.1928 -1.029365 -0.2235 -1.352782 -0.4333 -0.336675 -1.0558 -0.2647442 -1.4013 0.161349L7.88185 5.71064l1.73614 2.25289Z" clip-rule="evenodd" stroke-width="1"></path>
    <path id="Intersect" fill="#3c6de3" fill-rule="evenodd" d="M2.65797 9.90381c-0.15627 1.21779 -0.15228 2.90119 0.01195 4.09519 -0.4196 -0.0033 -0.8409 -0.0126 -1.27005 -0.0281 -0.707415 -0.0254 -1.3235525 -0.5626 -1.3716243 -1.309 -0.03361226 -0.5219 -0.03711606 -1.0918 -0.0107012 -1.6229 0.0433254 -0.8711 0.8408975 -1.43431 1.6489955 -1.30333 0.32132 0.05208 0.65767 0.10869 0.99143 0.16814Z" clip-rule="evenodd" stroke-width="1"></path>
    <path id="Union" fill="#7fb0f2" fill-rule="evenodd" d="M1.79139 0.373377C1.44596 -0.0527162 0.823459 -0.124647 0.390104 0.212028L0.390103 0.212029C-0.0261851 0.535445 -0.12325 1.12486 0.166583 1.56481l0.417536 -0.27507 -0.417536 0.27507L7.89133 13.2904l0.0002 0.0003c0.26087 0.3953 0.69533 0.6476 1.17415 0.6678 1.20572 0.051 2.33972 0.055 3.53452 0.0121 0.7074 -0.0254 1.3236 -0.5626 1.3716 -1.3091 0.0337 -0.5219 0.0372 -1.0918 0.0108 -1.6229 -0.0434 -0.8711 -0.8409 -1.43428 -1.649 -1.3033 -0.8586 0.13916 -1.8245 0.3106 -2.56162 0.4825L1.79139 0.373378l0 -0.000001Z" clip-rule="evenodd" stroke-width="1"></path>
    <path id="Intersect_2" fill="#3c6de3" fill-rule="evenodd" d="M11.342 9.90381c0.1563 1.21779 0.1523 2.90119 -0.0119 4.09519 0.4196 -0.0033 0.8409 -0.0126 1.27 -0.0281 0.7074 -0.0254 1.3236 -0.5626 1.3717 -1.309 0.0336 -0.5219 0.0371 -1.0918 0.0107 -1.6229 -0.0434 -0.8711 -0.8409 -1.43431 -1.649 -1.30333 -0.3214 0.05208 -0.6577 0.10869 -0.9915 0.16814Z" clip-rule="evenodd" stroke-width="1"></path>
  </g>
</svg>