<svg xmlns="http://www.w3.org/2000/svg" fill="none" viewBox="0 0 14 14">
  <g id="holiday-vacation-beach-umbrella--holiday-vacation-beach-umbrella-seaside-summer">
    <path id="Union" fill="#3c6de3" fill-rule="evenodd" d="M4.44464 5.06989c-0.39622 0.12075 -0.61953 0.53984 -0.49878 0.93607l1.26491 4.15034c0.12076 0.3963 0.53985 0.6196 0.93607 0.4988 0.39622 -0.1207 0.61953 -0.5398 0.49877 -0.93605l-1.2649 -4.15039c-0.12076 -0.39622 -0.53985 -0.61953 -0.93607 -0.49877Z" clip-rule="evenodd" stroke-width="1"></path>
    <path id="Union_2" fill="#3c6de3" fill-rule="evenodd" d="M12.0938 0c-0.5421 0 -1.0362 0.153994 -1.3942 0.512072 -0.3581 0.358077 -0.5121 0.852148 -0.5121 1.394178 0 0.54203 0.154 1.0361 0.5121 1.39418 0.358 0.35808 0.8521 0.51207 1.3942 0.51207 0.542 0 1.0361 -0.15399 1.3941 -0.51207 0.3581 -0.35808 0.5121 -0.85215 0.5121 -1.39418S13.846 0.870149 13.4879 0.512072C13.1299 0.153994 12.6358 0 12.0938 0Z" clip-rule="evenodd" stroke-width="1"></path>
    <path id="Union_3" fill="#7fb0f2" fill-rule="evenodd" d="M13.9651 13.3146c-0.2857 -0.7243 -0.9886 -1.3486 -1.8181 -1.8556 -0.8474 -0.5179 -1.9055 -0.9611 -3.01792 -1.2903 -1.1138 -0.32957 -2.29959 -0.5501 -3.408 -0.61307 -1.10082 -0.06254 -2.16308 0.02807 -3.00773 0.35237 -1.61338 0.6194 -2.326348 1.4979 -2.587853 2.308 -0.12694675 0.3932 -0.1382445 0.7435 -0.11691329 0.9982 0.01067599 0.1274 0.02960859 0.2321 0.04693649 0.3081 0.0086805 0.0381 0.0170118 0.0692 0.0238068 0.0926 0.0033999 0.0118 0.0064228 0.0216 0.0089226 0.0294l0.0033429 0.0103 0.0013457 0.004 0.0005856 0.0017 0.0002704 0.0008c0.0001286 0.0004 0.000255 0.0007 0.4726638 -0.1631l-0.4724088 0.1638c0.0697808 0.2013 0.2594018 0.3362 0.4724088 0.3362H13.5c0.1655 0 0.3202 -0.0819 0.4134 -0.2187 0.0931 -0.1368 0.1124 -0.3108 0.0517 -0.4647Z" clip-rule="evenodd" stroke-width="1"></path>
    <path id="Union_4" fill="#7fb0f2" d="M9.10981 4.05773C8.53996 2.77528 7.74404 1.82529 6.7336 1.3025 5.71577 0.775873 4.54321 0.715417 3.29297 1.09645 2.04272 1.47749 1.10319 2.18164 0.552085 3.18642c-0.54710336 0.99749 -0.677894 2.22992 -0.435623 3.6122 0.023513 0.13415 0.100736 0.25291 0.213819 0.32882 0.113083 0.07591 0.25224 0.1024 0.385306 0.07336C3.50052 6.59289 6.18623 5.77437 8.83683 4.7257c0.12665 -0.05011 0.22738 -0.14971 0.2789 -0.27579 0.05153 -0.12608 0.04939 -0.26771 -0.00592 -0.39218Z" stroke-width="1"></path>
    <path id="Intersect" fill="#3c6de3" fill-rule="evenodd" d="M3.03914 6.63826c-0.56676 -2.48897 -0.74084 -4.27576 -0.51137 -5.25051 0.24008 -0.11209 0.49541 -0.20937 0.76521 -0.29159 0.25989 -0.07921 0.51643 -0.139339 0.76892 -0.180169 0.72564 0.682399 1.56155 2.269909 2.45637 4.664889 -1.14814 0.39326 -2.30616 0.74521 -3.47913 1.05738Z" clip-rule="evenodd" stroke-width="1"></path>
  </g>
</svg>