<svg xmlns="http://www.w3.org/2000/svg" fill="none" viewBox="0 0 14 14">
  <g id="ice-skating--sports-ice-skating-shoe-winter">
    <path id="Union" fill="#3c6de3" fill-rule="evenodd" d="M13.2503 10.2168c0.4143 0 0.75 0.3358 0.75 0.75 0 0.6977 -0.1798 1.4378 -0.6146 2.0239 -0.4539 0.6119 -1.1558 1.0099 -2.0585 1.0099H0.749756c-0.414214 0 -0.750000141 -0.3358 -0.750000141 -0.75 0 -0.4143 0.335786141 -0.75 0.750000141 -0.75H2.59907v-1.5338c0 -0.4142 0.33579 -0.75 0.75 -0.75 0.41422 0 0.75 0.3358 0.75 0.75v1.5338h3.32305V11c0 -0.4142 0.33579 -0.75 0.75 -0.75s0.75 0.3358 0.75 0.75v1.5006h2.40508c0.4162 0 0.6759 -0.1637 0.8538 -0.4036 0.1971 -0.2656 0.3193 -0.6674 0.3193 -1.1302 0 -0.4142 0.3358 -0.75 0.75 -0.75Z" clip-rule="evenodd" stroke-width="1"></path>
    <path id="Union_2" fill="#7fb0f2" fill-rule="evenodd" d="M5.84155 0.13644c-1.89457 -0.1819199 -2.91468 -0.1819201 -4.80925 0C0.791982 0.159516 0.602476 0.35101 0.581908 0.591554 0.360056 3.18621 0.184912 7.29652 0.573147 10.1796c0.096298 0.7152 0.701983 1.2192 1.393553 1.2447 2.99036 0.1104 5.50946 0.1104 8.4998 0 0.6915 -0.0255 1.2958 -0.5285 1.4022 -1.2366 0.242 -1.61081 -0.3317 -2.78448 -1.327 -3.57742 -0.96027 -0.76515 -2.28155 -1.15423 -3.54101 -1.33536 -0.34308 -0.04934 -0.58289 -0.33197 -0.5814 -0.6174 0.00686 -1.31211 -0.03502 -2.98619 -0.12735 -4.065966C6.27137 0.35101 6.08187 0.159516 5.84155 0.13644Z" clip-rule="evenodd" stroke-width="1"></path>
    <path id="Intersect" fill="#3c6de3" fill-rule="evenodd" d="M6.35509 1.56445H4.6875c-0.27614 0 -0.5 0.22386 -0.5 0.5 0 0.27615 0.22386 0.5 0.5 0.5h1.7061c-0.00998 -0.34403 -0.02281 -0.68174 -0.03851 -1Zm0.05722 1.84375H4.6875c-0.27614 0 -0.5 0.22386 -0.5 0.5 0 0.27615 0.22386 0.5 0.5 0.5H6.42c0.00019 -0.3206 -0.00237 -0.65817 -0.00769 -1Z" clip-rule="evenodd" stroke-width="1"></path>
  </g>
</svg>