<svg xmlns="http://www.w3.org/2000/svg" fill="none" viewBox="0 0 14 14">
  <g id="kayaking--sports-kayaking-boat-double-end-puddle">
    <path id="Union" fill="#7fb0f2" fill-rule="evenodd" d="M11.935 0.243321c-0.2583 -0.080823 -0.5167 -0.1500719 -0.7808 -0.2092032 -0.7353 -0.1646518 -1.44784 0.2834562 -1.65919 0.9820022 -0.20103 0.66445 -0.34574 1.35032 -0.27147 2.11256 0.04217 0.43275 0.29116 0.76759 0.61228 0.97398l-0.56973 2.12629c-0.0425 0.01174 -0.08456 0.02741 -0.1257 0.04717l-0.00019 0.00009 -0.00452 0.00212 -0.02522 0.01162c-0.02331 0.0106 -0.05896 0.02649 -0.10452 0.04581 -0.0917 0.03889 -0.22053 0.09042 -0.36762 0.14055 -0.31896 0.1087 -0.62913 0.17739 -0.83006 0.16657 -0.1307 -0.00705 -0.15839 -0.03721 -0.161 -0.04005l-0.00019 -0.0002c-0.02798 -0.02445 -0.0637 -0.0706 -0.15558 -0.23773l-0.01958 -0.03592c-0.07553 -0.1391 -0.20707 -0.38131 -0.40754 -0.58144 -0.25344 -0.25301 -0.58712 -0.42023 -1.01559 -0.46041 -0.59826 -0.0561 -1.02364 0.29973 -1.27114 0.60786 -0.25187 0.31357 -0.43597 0.71205 -0.57201 1.07848 -0.27603 0.74354 -0.4344 1.58049 -0.49877 1.97128 -0.00459 0.02786 -0.00876 0.05384 -0.01252 0.07777 0.5097 -0.11711 1.04533 -0.21613 1.57694 -0.28807 0.07592 -0.3689 0.18894 -0.83049 0.34057 -1.23892 0.11451 -0.30843 0.23164 -0.5322 0.33525 -0.6612 0.01335 -0.01662 0.02481 -0.02976 0.03439 -0.04006 0.0178 0.00645 0.0217 0.01263 0.02281 0.01439l0.00031 0.00044c0.0355 0.03544 0.06797 0.08842 0.1724 0.27839l0.00482 0.00877c0.08462 0.15402 0.23036 0.41928 0.47822 0.63588 0.27972 0.24443 0.63392 0.38521 1.06753 0.40856 0.36389 0.01961 0.74659 -0.05422 1.06436 -0.14222L8.4902 9.12459c-0.08934 0.33342 0.10853 0.67613 0.44194 0.76547 0.33342 0.08933 0.67613 -0.10853 0.76547 -0.44195l1.34569 -5.02216c0.381 -0.01837 0.7637 -0.18387 1.0164 -0.53731 0.4455 -0.62298 0.6631 -1.28932 0.8212 -1.96527 0.1663 -0.71063 -0.2268 -1.454994 -0.9459 -1.680049ZM6.92446 1.42647c-0.4692 -0.09317 -0.89674 -0.04012 -1.23672 0.1872 -0.33998 0.22733 -0.55237 0.60216 -0.64555 1.07136 -0.09317 0.4692 -0.04012 0.89674 0.18721 1.23672 0.22732 0.33998 0.60215 0.55237 1.07135 0.64554 0.4692 0.09318 0.89674 0.04013 1.23672 -0.1872 0.33998 -0.22732 0.55237 -0.60215 0.64555 -1.07135 0.09317 -0.4692 0.04012 -0.89675 -0.18721 -1.23673 -0.22732 -0.33997 -0.60215 -0.55236 -1.07135 -0.64554Zm-0.9059 5.33416c0 0.00024 -0.00203 0.00183 -0.00606 0.00404 0.00405 -0.00318 0.00607 -0.00429 0.00606 -0.00404Z" clip-rule="evenodd" stroke-width="1"></path>
    <path id="Subtract" fill="#3c6de3" fill-rule="evenodd" d="M13.5893 11.2784c-0.1101 -0.0187 -0.2233 -0.0285 -0.3387 -0.0285h-0.6345c-0.0217 -0.0212 -0.0473 -0.0465 -0.0785 -0.0778l-0.0299 -0.0302 -0.015 -0.0152c-0.151 -0.1526 -0.4594 -0.4642 -0.8747 -0.7147 -0.5252 -0.3169 -1.1361 -0.49598 -1.8398 -0.49598 -0.70372 0 -1.31457 0.17908 -1.83983 0.49598 -0.41524 0.2505 -0.72366 0.5621 -0.8747 0.7148l-0.01501 0.0151 -0.0305 0.0308 -0.01786 0.0179 -0.01848 -0.0185 -0.03016 -0.0304 -0.01474 -0.0149c-0.15104 -0.1527 -0.45946 -0.4643 -0.8747 -0.7148 -0.52526 -0.3169 -1.13611 -0.49598 -1.83983 -0.49598 -0.70373 0 -1.31458 0.17908 -1.83984 0.49598 -0.41524 0.2505 -0.72365 0.5621 -0.87469 0.7148l-0.01501 0.0151 -0.03051 0.0308c-0.03089 0.031 -0.05625 0.0561 -0.07789 0.0772H0.75c-0.115619 0 -0.228946 0.0098 -0.339194 0.0286 -0.088301 -0.0902 -0.14274 -0.2136 -0.14274 -0.3498 0 -0.2994 0.178044 -0.5216 0.318612 -0.6557 0.152362 -0.1454 0.35083 -0.27375 0.563262 -0.38705 0.4287 -0.22866 1.00637 -0.44421 1.64349 -0.62974 1.2753 -0.37136 2.88115 -0.64879 4.2066 -0.64879 1.32544 0 2.9313 0.27743 4.20657 0.64879 0.6371 0.18553 1.2148 0.40108 1.6435 0.62974 0.2124 0.1133 0.4109 0.24165 0.5633 0.38705 0.1405 0.1341 0.3186 0.3563 0.3186 0.6557 0 0.1361 -0.0544 0.2596 -0.1427 0.3497Z" clip-rule="evenodd" stroke-width="1"></path>
    <path id="Union_2" fill="#3c6de3" fill-rule="evenodd" d="M4.22239 11.166c-0.48072 0 -0.8676 0.1193 -1.1941 0.3163 -0.28071 0.1693 -0.49784 0.3884 -0.64757 0.5395l-0.03181 0.0321c-0.16873 0.1695 -0.27283 0.2654 -0.39409 0.3334 -0.10398 0.0583 -0.25242 0.1126 -0.51034 0.1126H0.75c-0.414214 0 -0.75 0.3358 -0.75 0.75s0.335786 0.75 0.75 0.75h0.69448c0.49859 0 0.9022 -0.1125 1.24412 -0.3043 0.32289 -0.1811 0.55775 -0.4171 0.72082 -0.5809l0.00264 -0.0027c0.18181 -0.1826 0.27784 -0.2771 0.39111 -0.3454 0.08803 -0.0531 0.20615 -0.1006 0.41922 -0.1006 0.21306 0 0.33118 0.0475 0.41921 0.1006 0.11328 0.0683 0.2093 0.1628 0.39112 0.3454l0.00263 0.0027c0.16307 0.1638 0.39793 0.3998 0.72082 0.5809 0.34192 0.1918 0.74553 0.3043 1.24413 0.3043 0.49859 0 0.9022 -0.1125 1.24412 -0.3043 0.32289 -0.1811 0.55775 -0.4171 0.72082 -0.5809l0.00263 -0.0027c0.18182 -0.1826 0.27784 -0.2771 0.39112 -0.3454 0.08803 -0.0531 0.20615 -0.1006 0.41921 -0.1006 0.21307 0 0.3312 0.0475 0.4192 0.1006 0.1133 0.0683 0.2093 0.1628 0.3911 0.3454l0.0027 0.0027c0.163 0.1638 0.3979 0.3998 0.7208 0.5809 0.3419 0.1918 0.7455 0.3043 1.2441 0.3043h0.6945c0.4142 0 0.75 -0.3358 0.75 -0.75s-0.3358 -0.75 -0.75 -0.75h-0.6945c-0.2579 0 -0.4063 -0.0543 -0.5103 -0.1126 -0.1213 -0.068 -0.2254 -0.1639 -0.3941 -0.3334l-0.0318 -0.0321c-0.1498 -0.1511 -0.3669 -0.3702 -0.6476 -0.5395 -0.3265 -0.197 -0.7134 -0.3163 -1.1941 -0.3163 -0.48072 0 -0.86759 0.1193 -1.1941 0.3163 -0.2807 0.1693 -0.49783 0.3884 -0.64757 0.5395l-0.0318 0.0321c-0.16873 0.1695 -0.27283 0.2654 -0.3941 0.3334 -0.10397 0.0583 -0.25241 0.1126 -0.51033 0.1126 -0.25793 0 -0.40637 -0.0543 -0.51034 -0.1126 -0.12127 -0.068 -0.22537 -0.1639 -0.39409 -0.3334l-0.03181 -0.0321c-0.14974 -0.1511 -0.36687 -0.3702 -0.64757 -0.5395 -0.32651 -0.197 -0.71338 -0.3163 -1.1941 -0.3163Z" clip-rule="evenodd" stroke-width="1"></path>
  </g>
</svg>