<svg xmlns="http://www.w3.org/2000/svg" fill="none" viewBox="0 0 14 14" id="Leaf--Streamline-Flex">
  <desc>
    Leaf Streamline Icon: https://streamlinehq.com
  </desc>
  <g id="leaf--nature-environment-leaf-ecology-plant-plants-eco">
    <path id="Union" fill="#7fb0f2" fill-rule="evenodd" d="M2.45494 0.460637c-0.09887 -0.13369 -0.25443 -0.211851 -0.41921 -0.210623 -0.16477 0.001229 -0.31918 0.081702 -0.4161 0.216852C0.534929 1.97947 0.0791636 4.08093 0.307359 6.14617 0.536287 8.21804 1.45918 10.3063 3.19973 11.7773c2.85411 2.4122 6.50049 2.6625 8.65997 0.4724 1.1396 -1.1557 1.8388 -2.53741 1.8876 -4.00715 0.049 -1.47784 -0.5624 -2.96225 -1.8876 -4.30625 -0.7012 -0.71116 -1.5941 -1.15503 -2.52344 -1.46092 -0.92764 -0.30535 -1.92725 -0.48408 -2.85797 -0.6414l-0.23751 -0.04001 -0.00001 0c-0.85468 -0.14374 -1.63426 -0.27485 -2.29699 -0.47374 -0.72879 -0.21872 -1.21759 -0.492803 -1.48884 -0.859593Z" clip-rule="evenodd" stroke-width="1"></path>
    <path id="Intersect" fill="#3c6de3" fill-rule="evenodd" d="M12.632 11.338c-0.3228 -1.2818 -1.0426 -2.29253 -1.9642 -3.12666C9.44968 7.1088 7.85417 6.29393 6.36803 5.53491l-0.06382 -0.03259c-0.30739 -0.15702 -0.68388 -0.03511 -0.84089 0.27228 -0.15702 0.3074 -0.03511 0.68389 0.27228 0.8409 1.54184 0.78756 3.00422 1.53678 4.09339 2.52259 0.98131 0.88821 1.63571 1.94791 1.72731 3.39511 0.1041 -0.0894 0.2053 -0.1839 0.3035 -0.2835 0.2863 -0.2903 0.5448 -0.595 0.7722 -0.9117Z" clip-rule="evenodd" stroke-width="1"></path>
  </g>
</svg>