<svg xmlns="http://www.w3.org/2000/svg" fill="none" viewBox="0 0 14 14">
  <g id="martial-arts--sports-martial-arts-fighting-close-combat">
    <path id="Union" fill="#7fb0f2" fill-rule="evenodd" d="M6.46346 0.157468c-0.32673 -0.254604 -0.79799 -0.1961371 -1.0526 0.130589 -0.2343 0.300684 -0.20346 0.723783 0.0576 0.987763 0.00431 0.00543 0.01012 0.01288 0.01748 0.02256 0.02987 0.03928 0.07325 0.09944 0.12547 0.17681 0.10456 0.15491 0.23393 0.36299 0.35205 0.58742 0.12012 0.22823 0.21671 0.45099 0.26992 0.63956 0.0225 0.07971 0.03289 0.13814 0.03764 0.17844 -0.05591 0.02932 -0.13865 0.06567 -0.2589 0.11022 -0.08367 0.031 -0.19713 0.06894 -0.32715 0.11242l-0.00001 0 -0.00001 0c-0.28611 0.09568 -0.65241 0.21816 -0.95783 0.3525 -0.48557 0.21357 -1.03532 0.5361 -1.42592 1.08673 -0.40493 0.57082 -0.57665 1.29726 -0.46515 2.19142 0.11974 0.96024 0.63788 2.20525 0.777 2.50089 0.17638 0.37478 0.62319 0.53562 0.99797 0.35924 0.37479 -0.17637 0.53563 -0.62318 0.35925 -0.99796 -0.12287 -0.26109 -0.55634 -1.33073 -0.64575 -2.04778 -0.04956 -0.39741 -0.01027 -0.67858 0.06665 -0.88482l2.10253 1.2275v6.35843c0 0.4142 0.33579 0.75 0.75 0.75 0.41422 0 0.75 -0.3358 0.75 -0.75V6.8391l5.3649 -4.52497c0.3166 -0.26706 0.3568 -0.74023 0.0897 -1.05685 -0.267 -0.316631 -0.7402 -0.356815 -1.0568 -0.08976L7.18587 5.55815l-1.49446 -0.87249c0.11716 -0.04215 0.23236 -0.0801 0.35177 -0.11945l0.00001 -0.00001c0.15224 -0.05016 0.31133 -0.10258 0.49007 -0.1688 0.19538 -0.0724 0.41947 -0.16559 0.61611 -0.29491 0.19772 -0.13004 0.43559 -0.34102 0.54856 -0.67432 0.13749 -0.40565 0.06529 -0.82783 -0.02092 -1.13336 -0.09246 -0.32766 -0.24007 -0.65322 -0.38618 -0.93082 -0.1481 -0.2814 -0.30698 -0.536655 -0.43616 -0.728021 -0.06464 -0.09577 -0.12451 -0.179481 -0.17469 -0.24548C6.65524 0.357953 6.6296 0.325423 6.60472 0.296032L6.60306 0.294058c-0.01277 -0.015216 -0.06743 -0.080347 -0.1396 -0.13659ZM5.45971 1.26502l0.00212 0.00256c-0.00817 -0.00896 -0.00944 -0.01121 -0.00212 -0.00256ZM6.3437 2.8358c0.00003 0 -0.00053 0.00051 -0.00177 0.00151l0.00177 -0.00151ZM1.05983 1.1321C1.3616 0.83034 1.78097 0.697266 2.25 0.697266c0.46903 0 0.8884 0.133074 1.19017 0.434834 0.30176 0.30176 0.43483 0.72114 0.43483 1.19017 0 0.46902 -0.13307 0.8884 -0.43483 1.19016 -0.30177 0.30176 -0.72114 0.43484 -1.19017 0.43484 -0.46903 0 -0.8884 -0.13308 -1.19017 -0.43484C0.758074 3.21067 0.625 2.79129 0.625 2.32227c0 -0.46903 0.133074 -0.88841 0.43483 -1.19017Z" clip-rule="evenodd" stroke-width="1"></path>
  </g>
</svg>