<svg xmlns="http://www.w3.org/2000/svg" fill="none" viewBox="0 0 14 14" id="Meditation--Streamline-Flex">
  <desc>
    Meditation Streamline Icon: https://streamlinehq.com
  </desc>
  <g id="meditation--meditation-zen-concentration-mind">
    <path id="Union" fill="#7fb0f2" fill-rule="evenodd" d="M5.53233 0.532335C5.89785 0.166824 6.41097 0 7 0s1.10215 0.166824 1.46766 0.532335C8.83318 0.897846 9 1.41097 9 2c0 0.58903 -0.16682 1.10215 -0.53234 1.46766C8.10215 3.83318 7.58903 4 7 4c-0.58903 0 -1.10215 -0.16682 -1.46767 -0.53234C5.16682 3.10215 5 2.58903 5 2c0 -0.58903 0.16682 -1.102154 0.53233 -1.467665ZM4.55621 7.93622c-0.36859 0.59981 -0.8997 1.21436 -1.70501 1.47899l-1.866369 0.61329c-0.393511 0.1293 -0.817343 -0.08484 -0.9466553 -0.47835 -0.03698631 -0.11256 -0.045872 -0.22759 -0.03049816 -0.33751C-0.0355997 8.9713 0.104277 8.72873 0.343907 8.64999l1.992533 -0.65477c0.22611 -0.0743 0.42604 -0.20871 0.60635 -0.39024 0.21233 -0.23136 0.40836 -0.55077 0.60426 -0.94923 0.07764 -0.15793 0.16491 -0.30573 0.26117 -0.44351 0.63321 -1.03072 1.76302 -1.54622 3.19185 -1.54622 1.42985 0 2.56024 0.51624 3.19323 1.54842 0.0956 0.13715 0.1824 0.28422 0.2596 0.44131 0.1952 0.39705 0.3905 0.71561 0.602 0.94677 0.181 0.18277 0.3817 0.31806 0.6088 0.3927l1.9925 0.65477c0.2399 0.07881 0.3798 0.3217 0.3362 0.56324 0.0152 0.10974 0.0063 0.22456 -0.0306 0.33692 -0.1293 0.39351 -0.5532 0.60765 -0.9467 0.47835l-1.8663 -0.61329c-0.8055 -0.26468 -1.33666 -0.8794 -1.70525 -1.47932v1.84396l2.52055 1.46835c0.452 0.2633 0.73 0.747 0.73 1.27 0 0.6977 -0.4983 1.3329 -1.2289 1.414 -1.1216 0.1245 -2.21446 0.0774 -3.35344 -0.1399 -0.00888 -0.0017 -0.01769 -0.0037 -0.02643 -0.006 -0.27094 -0.0724 -0.70741 -0.1985 -1.1426 -0.3434 -0.27459 -0.0915 -0.56106 -0.1944 -0.80786 -0.2997 -0.6541 0.3197 -1.33445 0.5785 -2.05728 0.7814 -0.1866 0.0524 -0.37675 0.0754 -0.56357 0.0754h-0.80001c-0.77781 0 -1.40835 -0.6305 -1.40835 -1.4083 0 -0.4916 0.25635 -0.9477 0.67632 -1.2032l2.57423 -1.56622V7.93622Z" clip-rule="evenodd" stroke-width="1"></path>
    <path id="Intersect" fill="#3c6de3" fill-rule="evenodd" d="M7.65048 13.6635c-0.21636 -0.0635 -0.46227 -0.1393 -0.70776 -0.2211 -0.27459 -0.0914 -0.56106 -0.1944 -0.80786 -0.2996 -0.02153 0.0105 -0.04308 0.021 -0.06467 0.0314 0.60139 -0.3383 1.18176 -0.7387 1.75861 -1.1844 0.27315 -0.211 0.66567 -0.1607 0.8767 0.1125 0.21104 0.2731 0.16068 0.6657 -0.11247 0.8767 -0.30784 0.2378 -0.62132 0.4672 -0.94255 0.6845Z" clip-rule="evenodd" stroke-width="1"></path>
  </g>
</svg>