<svg xmlns="http://www.w3.org/2000/svg" fill="none" viewBox="0 0 14 14" id="Module-Three--Streamline-Flex">
  <desc>
    Module Three Streamline Icon: https://streamlinehq.com
  </desc>
  <g id="module-three--code-three-module-programming-plugin">
    <path id="Union" fill="#7fb0f2" fill-rule="evenodd" d="M7.00006 0.25c-0.50848 0 -1.00147 0.046476 -1.4641 0.098042 -0.84905 0.094639 -1.53029 0.774718 -1.62141 1.626398 -0.04927 0.46054 -0.09277 0.94963 -0.09277 1.45384 0 0.50422 0.0435 0.99331 0.09277 1.45384 0.09112 0.85169 0.77236 1.53177 1.62141 1.6264 0.46263 0.05157 0.95562 0.09805 1.4641 0.09805 0.50848 0 1.00147 -0.04648 1.4641 -0.09804 0.84905 -0.09464 1.53029 -0.77472 1.62144 -1.62641 0.0492 -0.46053 0.0927 -0.94962 0.0927 -1.45384 0 -0.50421 -0.0435 -0.9933 -0.0927 -1.45384C9.99445 1.12276 9.31321 0.442682 8.46416 0.348042 8.00153 0.296476 7.50854 0.25 7.00006 0.25ZM3.42828 7.39343c-0.50847 0 -1.00147 0.04648 -1.4641 0.09805 -0.84905 0.09463 -1.530289 0.77471 -1.62141 1.6264C0.293499 9.57841 0.25 10.0675 0.25 10.5717c0 0.5042 0.043499 0.9933 0.092771 1.4539 0.09112 0.8516 0.772359 1.5317 1.621409 1.6264 0.46263 0.0515 0.95563 0.098 1.4641 0.098 0.50848 0 1.00147 -0.0465 1.4641 -0.098 0.84906 -0.0947 1.5303 -0.7748 1.62142 -1.6264 0.04927 -0.4606 0.09277 -0.9497 0.09277 -1.4539s-0.0435 -0.99329 -0.09277 -1.45382c-0.09112 -0.85169 -0.77237 -1.53177 -1.62142 -1.6264 -0.46263 -0.05157 -0.95562 -0.09805 -1.4641 -0.09805Zm7.14332 0c-0.5085 0 -1.00148 0.04648 -1.46411 0.09805 -0.84905 0.09463 -1.53029 0.77471 -1.62141 1.6264 -0.04927 0.46053 -0.09277 0.94962 -0.09277 1.45382 0 0.5042 0.0435 0.9933 0.09277 1.4539 0.09112 0.8516 0.77236 1.5317 1.62141 1.6264 0.46263 0.0515 0.95561 0.098 1.46411 0.098 0.5085 0 1.0015 -0.0465 1.4641 -0.098 0.849 -0.0947 1.5303 -0.7748 1.6214 -1.6264 0.0493 -0.4606 0.0928 -0.9497 0.0928 -1.4539s-0.0435 -0.99329 -0.0928 -1.45382c-0.0911 -0.85169 -0.7724 -1.53177 -1.6214 -1.6264 -0.4626 -0.05157 -0.9556 -0.09805 -1.4641 -0.09805Z" clip-rule="evenodd" stroke-width="1"></path>
  </g>
</svg>