<svg xmlns="http://www.w3.org/2000/svg" fill="none" viewBox="0 0 14 14">
  <g id="motorsports-helmet--sports-motorsports-racer-car-bike-helmet">
    <path id="Union" fill="#7fb0f2" fill-rule="evenodd" d="M8.28646 1.32422c-2.29897 0 -4.36028 0.51044 -5.86321 2.06803C0.934308 4.93535 0.129089 7.36793 0.00115852 10.8954 -0.0347859 11.8865 0.770594 12.6762 1.73301 12.6762h6.55345c1.72484 0 3.17884 -0.4836 4.20144 -1.4984 1.0234 -1.0157 1.5123 -2.46164 1.5123 -4.17758 0 -1.71594 -0.4889 -3.16192 -1.5123 -4.17759 -1.0226 -1.01484 -2.4766 -1.49841 -4.20144 -1.49841Z" clip-rule="evenodd" stroke-width="1"></path>
    <path id="Union_2" fill="#3c6de3" fill-rule="evenodd" d="M10.265 3.26468c-0.30802 -0.15579 -0.68402 -0.03239 -0.83981 0.27563 -0.15579 0.30802 -0.03239 0.68402 0.27563 0.83981 0.64948 0.32852 1.07718 0.92209 1.21108 1.84239 0.0286 0.19681 0.0437 0.40923 0.0437 0.63748 0 0.34518 0.2798 0.625 0.625 0.625s0.625 -0.27982 0.625 -0.625c0 -0.28308 -0.0187 -0.55593 -0.0567 -0.81745 -0.1836 -1.26153 -0.819 -2.23926 -1.8839 -2.77786ZM5.69361 8.66639c-1.50969 0.03533 -3.89027 0.02784 -5.498298 -0.02253C0.533203 6.30123 1.27486 4.58195 2.42325 3.39179c0.02576 -0.02669 0.05168 -0.05307 0.07776 -0.07916 1.21897 0.31231 3.10073 0.83697 3.90892 1.0701 0.91641 0.26434 1.6281 1.07186 1.66856 2.04293 0.05522 1.32536 -1.14225 2.21165 -2.38488 2.24073Z" clip-rule="evenodd" stroke-width="1"></path>
  </g>
</svg>