<svg xmlns="http://www.w3.org/2000/svg" fill="none" viewBox="0 0 14 14">
  <g id="nordic-walking--sports-nordic-walking-pole-society-activity">
    <path id="Union" fill="#7fb0f2" fill-rule="evenodd" d="M7.55886 0.276807C8.0073 -0.00930037 8.5608 -0.063587 9.15548 0.0678331 9.75015 0.199253 10.2292 0.481737 10.5153 0.930175c0.2861 0.448435 0.3404 1.001945 0.209 1.596615 -0.1314 0.59468 -0.4139 1.07376 -0.86233 1.35986 -0.44844 0.28611 -1.00194 0.3404 -1.59662 0.20898 -0.59467 -0.13142 -1.07375 -0.41391 -1.35986 -0.86234 -0.28611 -0.44844 -0.34039 -1.00195 -0.20897 -1.59662 0.13142 -0.59468 0.4139 -1.073756 0.86234 -1.359863ZM7.74795 4.6185c-0.63472 -0.11383 -1.46142 -0.14689 -2.262 0.21882 -0.82655 0.37758 -1.50779 1.1256 -1.93176 2.34214 -0.13632 0.39114 0.07026 0.81873 0.4614 0.95504 0.39114 0.13632 0.81873 -0.07026 0.95504 -0.4614 0.31656 -0.90832 0.7531 -1.2953 1.13859 -1.47139 0.15975 -0.07298 0.32978 -0.11844 0.50628 -0.14168 -0.21883 0.45878 -0.41636 0.96419 -0.59623 1.46324 -0.00964 0.02244 -0.01827 0.04556 -0.02584 0.06932l-0.00788 0.02474c-0.04665 0.13078 -0.0921 0.26088 -0.13641 0.38936 -0.02311 0.06701 -0.0419 0.13495 -0.0564 0.20338 -0.48353 1.45715 -1.04028 2.91853 -1.7765 4.60673 -0.16557 0.3797 0.008 0.8217 0.38768 0.9873 0.37968 0.1656 0.8217 -0.008 0.98727 -0.3877 0.52001 -1.1924 0.95396 -2.2777 1.33663 -3.3289 0.12053 0.0707 0.23877 0.1391 0.35401 0.2058l0.00003 0.0001c0.2237 0.1295 0.4361 0.2525 0.63199 0.3725 0.09025 0.0554 0.1664 0.1038 0.22852 0.1453v2.4372c0 0.4142 0.33579 0.75 0.75 0.75s0.75 -0.3358 0.75 -0.75v-2.7548c0 -0.1859 -0.06467 -0.3266 -0.10594 -0.4007 -0.04423 -0.0794 -0.0943 -0.14046 -0.13078 -0.1809 -0.07258 -0.08047 -0.15476 -0.14848 -0.22108 -0.19953 -0.13702 -0.10547 -0.31182 -0.21811 -0.48677 -0.32536 -0.20135 -0.12343 -0.45254 -0.26912 -0.69706 -0.41093 -0.16737 -0.09708 -0.33162 -0.19234 -0.4746 -0.2774 -0.03818 -0.02271 -0.07118 -0.06899 -0.07144 -0.13215 0.05071 -0.154 0.10067 -0.30803 0.14998 -0.46234 0.23021 -0.64242 0.4599 -1.21364 0.69251 -1.65581l0.00413 0.0036c0.12643 0.11 0.25467 0.23637 0.39782 0.38121l0.0882 0.08953 0.00002 0.00001 0 0.00001c0.11471 0.11662 0.23979 0.24379 0.3659 0.36431 0.31736 0.30329 0.7186 0.64247 1.22384 0.83877 0.5338 0.20737 1.1305 0.23571 1.7909 0.00975 0.3919 -0.13409 0.6009 -0.5605 0.4668 -0.95241s-0.5605 -0.60091 -0.9524 -0.46681c-0.3347 0.11452 -0.5668 0.08716 -0.7621 0.01128 -0.2238 -0.08696 -0.4519 -0.25858 -0.7307 -0.52502 -0.10765 -0.10288 -0.21131 -0.20823 -0.32363 -0.32239l-0.00001 -0.00002 -0.09995 -0.10143c-0.14668 -0.14841 -0.3083 -0.30894 -0.48009 -0.45841 -0.33907 -0.29502 -0.77761 -0.60146 -1.33797 -0.70196Z" clip-rule="evenodd" stroke-width="1"></path>
    <path id="Union_2" fill="#3c6de3" fill-rule="evenodd" d="M4.3553 9.86254c0.14833 -0.38674 -0.04493 -0.82051 -0.43167 -0.96884 -0.38674 -0.14834 -0.82051 0.04492 -0.96885 0.43166L1.57436 12.9244c-0.14834 0.3867 0.04493 0.8205 0.43167 0.9688 0.38674 0.1484 0.82051 -0.0449 0.96884 -0.4317L4.3553 9.86254Zm7.4159 -0.17484c0 -0.41421 -0.3358 -0.75 -0.75 -0.75s-0.75 0.33579 -0.75 0.75v3.5033c0 0.4142 0.3358 0.75 0.75 0.75s0.75 -0.3358 0.75 -0.75V9.6877Z" clip-rule="evenodd" stroke-width="1"></path>
  </g>
</svg>