<svg xmlns="http://www.w3.org/2000/svg" fill="none" viewBox="0 0 14 14" id="Notification-Edit--Streamline-Flex">
  <desc>
    Notification Edit Streamline Icon: https://streamlinehq.com
  </desc>
  <g id="notification-edit--notification-edit-warning-alert-attention">
    <path id="Subtract" fill="#3c6de3" d="M4.32715 12.3457c-0.32111 -0.027 -0.6 0.2479 -0.47859 0.5464 0.08935 0.2197 0.21475 0.4113 0.37617 0.5712 0.36143 0.358 0.88333 0.5371 1.52468 0.5371 0.64135 0 1.16325 -0.1791 1.52468 -0.5371 0.16142 -0.1599 0.28682 -0.3515 0.37617 -0.5712 0.1214 -0.2985 -0.15749 -0.5733 -0.47859 -0.5464 -0.58184 0.0489 -1.08704 0.0621 -1.42223 0.0621 -0.3352 0 -0.84043 -0.0132 -1.42229 -0.0621Z" stroke-width="1"></path>
    <path id="Subtract_2" fill="#7fb0f2" fill-rule="evenodd" d="M6.13337 5.63142c-0.18481 0.86921 0.19563 1.61705 0.67136 2.04888 0.4758 0.43191 1.25578 0.73759 2.10181 0.47161l1.83766 -0.57772c0.1499 -0.0471 0.292 -0.11395 0.423 -0.19834 0.0134 0.0194 0.0265 0.03923 0.0392 0.05952 0.1907 0.30401 0.2928 0.67769 0.2928 1.18198 0 0.66637 -0.3739 1.15515 -0.8482 1.49065 -0.4644 0.3284 -1.06794 0.5454 -1.668 0.6934 -1.20639 0.2977 -2.56493 0.3555 -3.23342 0.3555 -0.66847 0 -2.027 -0.0578 -3.23338 -0.3555 -0.60005 -0.148 -1.20362 -0.365 -1.667988 -0.6934C0.373916 9.77249 0 9.28372 0 8.61735c0 -0.50428 0.102153 -0.87795 0.292841 -1.18196 0.15203 -0.24238 0.354362 -0.42105 0.499087 -0.54886l0.000003 0c0.023283 -0.02056 0.045074 -0.03981 0.064926 -0.05779 0.154263 -0.13972 0.269253 -0.26137 0.357433 -0.45329 0.09099 -0.19801 0.17075 -0.51087 0.17075 -1.04757 0 -1.31827 0.37602 -2.41834 1.15292 -3.18787C3.31415 1.37118 4.42219 1 5.74959 1c0.93385 0 1.75913 0.18371 2.43667 0.56036L6.92484 2.99165c-0.19891 0.2257 -0.33628 0.49886 -0.39884 0.79313l-0.39263 1.84664Z" clip-rule="evenodd" stroke-width="1"></path>
    <path id="Union" fill="#3c6de3" fill-rule="evenodd" d="M13.3216 0.506362c-0.7493 -0.662812 -1.9168 -0.707397 -2.593 0.059853L7.86263 3.81814c-0.05683 0.06449 -0.09608 0.14253 -0.11396 0.22661L7.35604 5.8914c-0.0751 0.3532 0.07626 0.67039 0.28885 0.86337 0.2126 0.19299 0.54268 0.31287 0.88678 0.2047l1.83773 -0.57773c0.0809 -0.02544 0.154 -0.07105 0.2124 -0.13254l2.9603 -3.11486c0.7224 -0.76014 0.5458 -1.95021 -0.2205 -2.627978Z" clip-rule="evenodd" stroke-width="1"></path>
  </g>
</svg>