<svg xmlns="http://www.w3.org/2000/svg" fill="none" viewBox="0 0 14 14" id="Package--Streamline-Flex">
  <desc>
    Package Streamline Icon: https://streamlinehq.com
  </desc>
  <g id="package--package-box-shipping-e-commerce">
    <path id="Union" fill="#7fb0f2" fill-rule="evenodd" d="M7.47067 0.326164c-0.30571 -0.101552 -0.63683 -0.101553 -0.94254 0.000002C4.48755 1.00404 2.90679 1.80279 1.07278 2.99865l0.2731 0.41883 -0.2731 -0.41883c-0.384083 0.25044 -0.632172 0.66242 -0.674764 1.11789C0.206055 6.16932 0.19592 7.83963 0.396326 9.88957c0.044273 0.45283 0.292267 0.86093 0.673304 1.10943l0.27072 -0.4151 -0.27072 0.4151c1.83539 1.1971 3.41671 1.9965 5.45856 2.6748 0.30571 0.1016 0.63684 0.1016 0.94254 0 2.0419 -0.6782 3.62427 -1.4777 5.45987 -2.6748 0.3811 -0.2485 0.6291 -0.6566 0.6734 -1.10944 0.2003 -2.05 0.1897 -3.7202 -0.0023 -5.77288 -0.0426 -0.45545 -0.2907 -0.86744 -0.6748 -1.11788C11.0928 1.80291 9.51129 1.00404 7.47067 0.326164Z" clip-rule="evenodd" stroke-width="1"></path>
    <path id="Intersect" fill="#3c6de3" fill-rule="evenodd" d="m7.40567 13.6935 0 -6.89991c0 -0.23974 -0.13713 -0.45835 -0.35296 -0.5627L0.812059 3.21387c-0.234245 0.24297 -0.382065 0.56043 -0.414043 0.9024C0.206055 6.16905 0.19592 7.83936 0.396326 9.8893c0.044273 0.4529 0.292267 0.8609 0.673304 1.1094l0.27072 -0.4151 -0.27072 0.4151c1.83539 1.1971 3.41671 1.9966 5.45856 2.6749 0.28415 0.0944 0.59025 0.101 0.87748 0.0199Z" clip-rule="evenodd" stroke-width="1"></path>
    <path id="Intersect_2" fill="#3c6de3" fill-rule="evenodd" d="m12.9524 3.01559 -2.4487 1.16888C8.93487 3.14189 6.61644 1.82339 4.81405 0.96875c-0.51132 0.2162 -1.00328 0.44824 -1.49142 0.70212 0.00034 0.00014 0.00068 0.00029 0.00102 0.00043 1.57712 0.65221 4.04852 2.0026 5.85627 3.14509L6.73046 5.98565c-0.31151 0.1487 -0.44349 0.52177 -0.29479 0.83328 0.1487 0.31151 0.52177 0.44349 0.83327 0.29479l2.89196 -1.3805c0.0245 0.22507 0.0444 0.47509 0.0444 0.68879v1.45297l0.625 0.00001h-0.625c0 0.34518 0.2798 0.625 0.625 0.625s0.625 -0.27982 0.625 -0.62501V6.42201c0 -0.33009 -0.0353 -0.69518 -0.0681 -0.96645 -0.0135 -0.1117 -0.027 -0.2108 -0.0383 -0.28941l2.2503 -1.07421c-0.048 -0.43557 -0.284 -0.82915 -0.6468 -1.07635Z" clip-rule="evenodd" stroke-width="1"></path>
  </g>
</svg>