<svg xmlns="http://www.w3.org/2000/svg" fill="none" viewBox="0 0 14 14" id="Paint-Palette--Streamline-Flex">
  <desc>
    Paint Palette Streamline Icon: https://streamlinehq.com
  </desc>
  <g id="paint-palette--color-colors-design-paint-painting-palette">
    <path id="Union" fill="#7fb0f2" fill-rule="evenodd" d="M7 0C4.82797 0 3.06046 0.612432 1.83645 1.83645 0.612432 3.06046 0 4.82797 0 7s0.612432 3.9395 1.83645 5.1636C3.06046 13.3876 4.82797 14 7 14c0.54973 0 1.21303 -0.0701 1.80304 -0.2942 0.59089 -0.2245 1.17059 -0.6303 1.41626 -1.3346 0.0862 -0.247 0.118 -0.4928 0.0745 -0.7326 -0.0441 -0.2429 -0.1582 -0.4392 -0.29887 -0.5961 -0.23855 -0.2661 -0.59269 -0.4523 -0.86386 -0.5949l-0.0552 -0.029c-0.31704 -0.1676 -0.57083 -0.3092 -0.7548 -0.49637 -0.16249 -0.16529 -0.27324 -0.36969 -0.27324 -0.69661 0 -0.34073 0.0757 -0.53294 0.15994 -0.64863 0.08394 -0.11526 0.21506 -0.20773 0.42611 -0.27705 0.21714 -0.07132 0.49148 -0.10895 0.82525 -0.12767 0.2358 -0.01322 0.47756 -0.01627 0.73477 -0.0195 0.1102 -0.00139 0.2232 -0.00281 0.3398 -0.00508 0.7302 -0.01424 1.6021 -0.05782 2.2873 -0.4556C13.5727 7.25571 14 6.46468 14 5.226 14 2.91939 11.3556 0 7 0Z" clip-rule="evenodd" stroke-width="1"></path>
    <path id="Union_2" fill="#3c6de3" fill-rule="evenodd" d="M8.55953 2.58997c-0.37882 0 -0.71007 0.10731 -0.94638 0.34362 -0.2363 0.23631 -0.34362 0.56756 -0.34362 0.94638 0 0.37881 0.10732 0.71007 0.34362 0.94637 0.23631 0.23631 0.56756 0.34363 0.94638 0.34363 0.37882 0 0.71007 -0.10732 0.94638 -0.34363 0.23631 -0.2363 0.34362 -0.56756 0.34362 -0.94637 0 -0.37882 -0.10731 -0.71007 -0.34362 -0.94638 -0.23631 -0.23631 -0.56756 -0.34362 -0.94638 -0.34362Z" clip-rule="evenodd" stroke-width="1"></path>
    <path id="Union_3" fill="#3c6de3" fill-rule="evenodd" d="M4.40035 4.15002c-0.37882 0 -0.71007 0.10732 -0.94638 0.34363 -0.2363 0.23631 -0.34362 0.56756 -0.34362 0.94637 0 0.37882 0.10732 0.71007 0.34362 0.94638 0.23631 0.23631 0.56756 0.34362 0.94638 0.34362 0.37882 0 0.71007 -0.10731 0.94638 -0.34362 0.23631 -0.23631 0.34362 -0.56756 0.34362 -0.94638 0 -0.37881 -0.10731 -0.71006 -0.34362 -0.94637 -0.23631 -0.23631 -0.56756 -0.34363 -0.94638 -0.34363Z" clip-rule="evenodd" stroke-width="1"></path>
    <path id="Vector" fill="#3c6de3" d="M4.66016 10.8401c0.64 0 1 -0.36 1 -1.00001 0 -0.64 -0.36 -1 -1 -1s-1 0.36 -1 1c0 0.64001 0.36 1.00001 1 1.00001Z" stroke-width="1"></path>
  </g>
</svg>