<svg xmlns="http://www.w3.org/2000/svg" fill="none" viewBox="0 0 14 14" id="Playground--Streamline-Flex">
  <desc>
    Playground Streamline Icon: https://streamlinehq.com
  </desc>
  <g id="playground--playground-sports-soccer-football-stadium">
    <path id="Union" fill="#7fb0f2" fill-rule="evenodd" d="M11.4314 1.70342c-2.98751 -0.26732 -5.87532 -0.26732 -8.86283 0 -1.1965 0.10706 -2.172573 1.03408 -2.34375 2.226 -0.2994346 2.08499 -0.2994343 4.05735 0 6.14238 0.171178 1.1919 1.14725 2.1189 2.34375 2.226 2.98751 0.2673 5.87532 0.2673 8.86283 0 1.1965 -0.1071 2.1726 -1.0341 2.3438 -2.226 0.2994 -2.08503 0.2994 -4.05739 0 -6.14238 -0.1712 -1.19192 -1.1473 -2.11894 -2.3438 -2.226Z" clip-rule="evenodd" stroke-width="1"></path>
    <path id="Intersect" fill="#3c6de3" fill-rule="evenodd" d="M0.0322195 5.85156c0.022968 -0.41427 0.0583252 -0.83031 0.1060715 -1.25H1.82c0.7445 0 1.45567 0.52125 1.56014 1.33329 0.09192 0.71449 0.09192 1.41491 0 2.12939 -0.10447 0.81205 -0.81564 1.33329 -1.56014 1.33329H0.138055c-0.0477066 -0.41968 -0.0830234 -0.83572 -0.1059505 -1.25H1.82c0.19145 0 0.3054 -0.12652 0.32036 -0.24278 0.07829 -0.6086 0.07829 -1.20181 0 -1.8104 -0.01496 -0.11626 -0.12891 -0.24279 -0.32036 -0.24279H0.0322195ZM6.37492 12.4942V9.31425c-0.42595 -0.08774 -0.80811 -0.27359 -1.11182 -0.57731C4.81683 8.29067 4.62504 7.67504 4.62504 7c0 -0.67504 0.19179 -1.29067 0.63806 -1.73694 0.30368 -0.30369 0.6858 -0.48953 1.1117 -0.57728V1.50697c0.41676 -0.00538 0.83323 -0.00539 1.25 -0.00001v3.17872c0.42609 0.08771 0.80838 0.27358 1.11218 0.57738 0.44627 0.44627 0.63806 1.0619 0.63806 1.73694 0 0.67504 -0.19179 1.29067 -0.63806 1.73694 -0.30377 0.30378 -0.68602 0.48964 -1.11206 0.57736v3.1799c-0.41676 0.0054 -0.83324 0.0054 -1.25 0ZM13.968 8.14753c-0.023 0.41428 -0.0583 0.83032 -0.106 1.25h-1.6819c-0.7445 0 -1.4557 -0.52124 -1.5602 -1.33329 -0.0919 -0.71448 -0.0919 -1.4149 0 -2.12939 0.1045 -0.81204 0.8157 -1.33329 1.5602 -1.33329h1.6817c0.0477 0.41969 0.0831 0.83573 0.106 1.25h-1.7877c-0.1915 0 -0.3054 0.12653 -0.3204 0.24279 -0.0783 0.60859 -0.0783 1.2018 0 1.8104 0.015 0.11626 0.1289 0.24278 0.3204 0.24278h1.7879ZM7.8531 6.14694c0.14873 0.14873 0.27194 0.4081 0.27194 0.85306s-0.12321 0.70433 -0.27194 0.85306c-0.14873 0.14873 -0.4081 0.27194 -0.85306 0.27194s-0.70433 -0.12321 -0.85306 -0.27194c-0.14873 -0.14873 -0.27194 -0.4081 -0.27194 -0.85306s0.12321 -0.70433 0.27194 -0.85306c0.14873 -0.14873 0.4081 -0.27194 0.85306 -0.27194s0.70433 0.12321 0.85306 0.27194Z" clip-rule="evenodd" stroke-width="1"></path>
  </g>
</svg>