<svg xmlns="http://www.w3.org/2000/svg" fill="none" viewBox="0 0 14 14" id="Potted-Flower-Tulip--Streamline-Flex">
  <desc>
    Potted Flower Tulip Streamline Icon: https://streamlinehq.com
  </desc>
  <g id="potted-flower-tulip--nature-flower-plant-tree-pot">
    <path id="Union" fill="#7fb0f2" fill-rule="evenodd" d="M3.57104 0.492752C3.6614 0.342149 3.82415 0.25 3.99979 0.25c0.57778 0 1.80991 0.293284 3.00005 1.31814C8.18998 0.543284 9.42211 0.25 9.99989 0.25c0.17561 0 0.33841 0.092149 0.42871 0.242752 0.9164 1.527208 1.3479 3.422208 0.8934 4.983588 -0.2307 0.79231 -0.6911 1.49772 -1.4253 2.00005 -0.5717 0.39112 -1.28683 0.64386 -2.1467 0.73527v3.81954c0 0.4143 -0.33579 0.75 -0.75 0.75s-0.75 -0.3357 -0.75 -0.75l0 -3.81949c-0.86008 -0.09137 -1.57537 -0.34412 -2.14717 -0.73532 -0.73424 -0.50233 -1.19459 -1.20775 -1.4252 -2.00007 -0.45446 -1.56137 -0.02291 -3.45637 0.89341 -4.983568Z" clip-rule="evenodd" stroke-width="1"></path>
    <path id="Union_2" fill="#3c6de3" fill-rule="evenodd" d="M0.536136 9.89143c1.888764 -0.89385 3.583754 -0.61501 4.826154 0.12497 0.69425 0.4134 1.26121 0.9811 1.63781 1.5749 0.37659 -0.5937 0.94349 -1.1613 1.63764 -1.5747 1.24241 -0.73993 2.93736 -1.01878 4.82616 -0.12492 0.1952 0.09238 0.309 0.29962 0.2823 0.51392 -0.0594 0.4752 -0.3211 0.9698 -0.6866 1.4105 -0.372 0.4485 -0.8805 0.8768 -1.4919 1.2155 -1.192 0.6604 -2.79596 0.9907 -4.56807 0.4416 -1.7718 0.5487 -3.37549 0.2185 -4.56728 -0.4418 -0.61137 -0.3388 -1.11989 -0.7671 -1.491901 -1.2155 -0.365529 -0.4407 -0.627173 -0.9353 -0.686569 -1.4105 -0.026786 -0.2143 0.087047 -0.42158 0.282256 -0.51397Z" clip-rule="evenodd" stroke-width="1"></path>
  </g>
</svg>