<svg xmlns="http://www.w3.org/2000/svg" fill="none" viewBox="0 0 14 14">
  <g id="roller-skating--sports-roller-skating-shoe-wheel">
    <path id="Union" fill="#3c6de3" fill-rule="evenodd" d="M2.66752 10.6738c-0.46488 0 -0.89878 0.1319 -1.21613 0.4484 -0.31755 0.3167 -0.45017 0.7501 -0.45017 1.2147 0 0.4646 0.13262 0.898 0.45017 1.2147 0.31735 0.3165 0.75125 0.4484 1.21613 0.4484 0.46487 0 0.89877 -0.1319 1.21612 -0.4484 0.31755 -0.3167 0.45017 -0.7501 0.45017 -1.2147 0 -0.4646 -0.13262 -0.898 -0.45017 -1.2147 -0.31735 -0.3165 -0.75125 -0.4484 -1.21612 -0.4484Zm3.11615 0.4484c0.31735 -0.3165 0.75125 -0.4484 1.21612 -0.4484 0.46487 0 0.89877 0.1319 1.21612 0.4484 0.31755 0.3167 0.45018 0.7501 0.45018 1.2147 0 0.4646 -0.13263 0.898 -0.45018 1.2147 -0.31735 0.3165 -0.75125 0.4484 -1.21612 0.4484 -0.46487 0 -0.89877 -0.1319 -1.21612 -0.4484 -0.31755 -0.3167 -0.45017 -0.7501 -0.45017 -1.2147 0 -0.4646 0.13262 -0.898 0.45017 -1.2147Zm5.54863 -0.4484c-0.4649 0 -0.8988 0.1319 -1.2161 0.4484 -0.31756 0.3167 -0.45018 0.7501 -0.45018 1.2147 0 0.4646 0.13262 0.898 0.45018 1.2147 0.3173 0.3165 0.7512 0.4484 1.2161 0.4484s0.8988 -0.1319 1.2161 -0.4484c0.3176 -0.3167 0.4502 -0.7501 0.4502 -1.2147 0 -0.4646 -0.1326 -0.898 -0.4502 -1.2147 -0.3173 -0.3165 -0.7512 -0.4484 -1.2161 -0.4484Z" clip-rule="evenodd" stroke-width="1"></path>
    <path id="Union_2" fill="#7fb0f2" fill-rule="evenodd" d="M7.03623 0.123399c-1.71348 -0.1645319 -2.86322 -0.164532 -4.57671 0 -0.24032 0.023075 -0.42983 0.214569 -0.45039 0.455114 -0.20026 2.342107 -0.35896 5.600417 -0.00765 8.209257 0.09028 0.67046 0.65792 1.14191 1.30445 1.16578 2.70086 0.09975 5.20196 0.09975 7.90277 0.00001 0.6465 -0.02387 1.2125 -0.49427 1.3122 -1.1578 0.2211 -1.47179 -0.3041 -2.54846 -1.2157 -3.27485 -0.8768 -0.69861 -2.07967 -1.05161 -3.22024 -1.21564 -0.2887 -0.04153 -0.4844 -0.27852 -0.48319 -0.50901 0.00622 -1.19023 -0.03192 -2.24443 -0.11514 -3.217747 -0.02057 -0.240544 -0.21008 -0.432039 -0.4504 -0.455114Z" clip-rule="evenodd" stroke-width="1"></path>
    <path id="Intersect" fill="#3c6de3" fill-rule="evenodd" d="M7.51141 0.888672H6.18652c-0.27614 0 -0.5 0.223858 -0.5 0.499998s0.22386 0.5 0.5 0.5h1.38274c-0.01451 -0.34385 -0.03378 -0.67654 -0.05785 -0.999998Zm0.08472 1.914058H6.18652c-0.27614 0 -0.5 0.22386 -0.5 0.5 0 0.27615 0.22386 0.5 0.5 0.5h1.41527c-0.00003 -0.00216 -0.00003 -0.00432 -0.00002 -0.00647 0.00179 -0.34197 -0.00009 -0.67271 -0.00564 -0.99353Z" clip-rule="evenodd" stroke-width="1"></path>
  </g>
</svg>