<svg xmlns="http://www.w3.org/2000/svg" fill="none" viewBox="0 0 14 14" id="Running--Streamline-Flex">
  <desc>
    Running Streamline Icon: https://streamlinehq.com
  </desc>
  <g id="running--running-sports-track-endurance-speed">
    <path id="Union" fill="#7fb0f2" fill-rule="evenodd" d="M9.62677 0.0622475c0.55453 -0.148587 1.14453 -0.0253034 1.72053 0.3072675 0.5761 0.33257 0.9778 0.781875 1.1264 1.336415 0.1486 0.55453 0.0253 1.14453 -0.3073 1.72056 -0.3325 0.57603 -0.7818 0.97779 -1.3364 1.12638 -0.5545 0.14859 -1.14451 0.0253 -1.72053 -0.30727 -0.57603 -0.33257 -0.9778 -0.78188 -1.12638 -1.33641 -0.14859 -0.55454 -0.02531 -1.14453 0.30726 -1.72056 0.33257 -0.576031 0.78188 -0.977795 1.33642 -1.1263825ZM5.81827 3.89202c1.02331 0.04122 1.8457 0.61637 2.57962 1.24797 0.39657 0.34129 0.71165 0.77623 0.94963 1.10472l0.00004 0.00005c0.03746 0.05172 0.07301 0.10079 0.10667 0.14645 0.29933 0.40603 0.44332 0.53144 0.53544 0.56487 0.12643 0.04589 0.19093 0.04374 0.28413 0.02287 0.0649 -0.0145 0.1462 -0.04017 0.2684 -0.08523 0.0602 -0.02221 0.1246 -0.04693 0.1994 -0.07567l0.0033 -0.00128c0.0725 -0.02786 0.1531 -0.05887 0.2399 -0.0912 0.3882 -0.14463 0.82 0.05278 0.9647 0.44092 0.1446 0.38815 -0.0528 0.82004 -0.4409 0.96467 -0.0686 0.02556 -0.1381 0.05298 -0.2087 0.08087l-0.0001 0.00003c-0.5075 0.20038 -1.0758 0.42476 -1.82176 0.15407 -0.58436 -0.21204 -0.97567 -0.73825 -1.23118 -1.08483 -0.04437 -0.06018 -0.08701 -0.11862 -0.12839 -0.17533l-0.00001 -0.00002c-0.07355 -0.10078 -0.1431 -0.19609 -0.21125 -0.28602 -0.19923 0.26829 -0.4062 0.58909 -0.55797 0.91388 -0.14886 0.31857 -0.21445 0.57804 -0.21301 0.76117 0.00118 0.1489 0.04116 0.21989 0.12591 0.28416 0.71986 0.54586 1.32491 1.13888 1.74421 1.87636 0.42453 0.7467 0.63002 1.5906 0.63002 2.5939 0 0.4142 -0.33579 0.75 -0.75 0.75s-0.75 -0.3358 -0.75 -0.75c0 -0.7863 -0.15763 -1.3664 -0.434 -1.8525 -0.28161 -0.4953 -0.71526 -0.9438 -1.34656 -1.42254 -0.5145 -0.39014 -0.71531 -0.93301 -0.71953 -1.46755 -0.00395 -0.50033 0.16049 -0.99388 0.35401 -1.40802 0.22391 -0.47917 0.52721 -0.93635 0.81119 -1.30308 -0.39262 -0.26544 -0.7194 -0.39184 -1.04358 -0.4049 -0.47036 -0.01895 -1.13652 0.19699 -2.1877 1.09926 -0.31431 0.26979 -0.78781 0.2337 -1.05759 -0.08061 -0.26979 -0.31431 -0.23369 -0.78781 0.08061 -1.05759 1.16005 -0.99573 2.19228 -1.50145 3.22505 -1.45985Zm-0.69084 6.77118c0.32262 -0.2598 0.37357 -0.73192 0.11379 -1.05455 -0.25977 -0.32262 -0.73191 -0.37357 -1.05453 -0.11379 -0.74635 0.60094 -1.59612 0.55724 -2.67204 0.232 -0.3965 -0.11985 -0.815083 0.1044 -0.934942 0.50094 -0.119859 0.3964 0.104398 0.815 0.500892 0.9349 1.20649 0.3647 2.70064 0.5844 4.04683 -0.4995Z" clip-rule="evenodd" stroke-width="1"></path>
  </g>
</svg>