<svg xmlns="http://www.w3.org/2000/svg" fill="none" viewBox="0 0 14 14">
  <g id="scuba-diving--sports-scuba-diving-marine-environment-explore">
    <path id="Union" fill="#3c6de3" fill-rule="evenodd" d="M7.767 2.47029c-1.04203 0.11576 -2.02468 0.34302 -2.99163 0.69391 -0.5961 0.21631 -0.89005 0.85662 -0.73131 1.44904l0.01376 0.05133c0.15873 0.59242 0.73345 0.99997 1.35784 0.88925 1.01286 -0.1796 1.97748 -0.4741 2.93779 -0.89487 0.11315 -0.04958 0.17312 -0.17437 0.14115 -0.29369l-0.45852 -1.7112c-0.03197 -0.11932 -0.1463 -0.19741 -0.26908 -0.18377Z" clip-rule="evenodd" stroke-width="1"></path>
    <path id="Union_2" fill="#7fb0f2" fill-rule="evenodd" d="M13.7807 1.77819c0.2928 -0.293 0.2926 -0.76787 -0.0004 -1.06066 -0.293 -0.29279 -0.7678 -0.292623 -1.0606 0.000373 -0.156 0.156138 -0.3177 0.306367 -0.4929 0.469247l0 0.00001c-0.1426 0.13256 -0.2943 0.27351 -0.4593 0.43285 -0.3089 0.29836 -0.6865 0.68141 -0.8774 1.04437 -0.1529 0.29084 -0.3834 0.88946 -0.5648 1.37707 -0.095 0.25536 -0.1835 0.4992 -0.251 0.68688l-0.0093 0.02598c-0.14358 0.04453 -0.33048 0.09988 -0.55444 0.16544l-0.28401 0.08294c-0.50945 0.1486 -1.13732 0.33174 -1.77658 0.53105 -0.76175 0.23751 -1.5595 0.504 -2.21121 0.77096 -0.32485 0.13306 -0.63043 0.27308 -0.88349 0.41717 -0.22492 0.12807 -0.5129 0.31566 -0.69104 0.57732 -0.16388 0.24072 -0.22582 0.53003 -0.259 0.72523 -0.03591 0.21129 -0.0577 0.45076 -0.07727 0.66598l-0.00149 0.01633c-0.04329 0.47566 -0.08427 0.87086 -0.1901 1.163 -0.00039 0.00066 -0.00103 0.00183 -0.00197 0.00352 -0.005 0.00906 -0.01834 0.03324 -0.04534 0.07602 -0.04304 0.06823 -0.10299 0.15603 -0.1782 0.26103 -0.15 0.2095 -0.34215 0.4615 -0.53977 0.7157 -0.12938 0.1664 -0.2568 0.3283 -0.37441 0.4777l-0.00018 0.0003 -0.0005 0.0006c-0.06243 0.0793 -0.12209 0.1551 -0.17781 0.2262l-0.00035 0.0005c-0.13704 0.1748 -0.29434 0.3756 -0.35829 0.4824 -0.21268 0.3555 -0.09694 0.816 0.25851 1.0287 0.35544 0.2127 0.81599 0.0969 1.02867 -0.2585 -0.00385 0.0064 -0.00384 0.0064 0.00263 -0.0025 0.00792 -0.011 0.02556 -0.0354 0.05769 -0.0778 0.04868 -0.0642 0.11362 -0.1478 0.19179 -0.2476 0.05216 -0.0665 0.11014 -0.1402 0.17181 -0.2185 0.11951 -0.1519 0.2529 -0.3214 0.38468 -0.4909 0.20048 -0.2579 0.40734 -0.5287 0.57506 -0.7629 0.08365 -0.1168 0.16224 -0.231 0.22714 -0.3338 0.05663 -0.0897 0.13197 -0.2156 0.17932 -0.3425 0.18711 -0.50153 0.24088 -1.09498 0.2795 -1.52117l0.00395 -0.04354c0.02151 -0.23639 0.03866 -0.41945 0.06372 -0.5669 0.01109 -0.06522 0.02128 -0.10667 0.02782 -0.13035 0.02591 -0.02001 0.0819 -0.061 0.18563 -0.12006 0.17396 -0.09905 0.41357 -0.21125 0.70987 -0.33262 0.59056 -0.24191 1.33885 -0.49309 2.08911 -0.72701 0.62476 -0.19478 1.23714 -0.37342 1.74675 -0.52207l0.00004 -0.00002 0.28876 -0.08433c0.2752 -0.08056 0.5145 -0.15151 0.6877 -0.20714 0.0846 -0.02719 0.1675 -0.05515 0.2353 -0.0818 0.0315 -0.01235 0.0796 -0.03212 0.1292 -0.05838 0.0234 -0.0124 0.0683 -0.03726 0.1179 -0.07507l0.0022 -0.00166c0.028 -0.02121 0.1746 -0.13203 0.2521 -0.33947 0.0084 -0.02242 0.0292 -0.08046 0.0577 -0.16007l0.0716 -0.19949c0.0666 -0.18505 0.153 -0.42334 0.2454 -0.6717 0.1934 -0.51984 0.3883 -1.01506 0.4866 -1.20192 0.0604 -0.11476 0.254 -0.3373 0.5919 -0.66367 0.1155 -0.1115 0.2552 -0.24191 0.3985 -0.37568l0 -0.00001c0.2033 -0.18967 0.4138 -0.38613 0.5726 -0.54508ZM1.24627 5.69205c0.3627 -0.05747 0.72883 0.06058 1.07089 0.30906 0.34205 0.24849 0.56751 0.56019 0.62498 0.92289 0.05747 0.3627 -0.06058 0.72883 -0.30907 1.07089 -0.24848 0.34206 -0.56019 0.56751 -0.92288 0.62498 -0.3627 0.05747 -0.728835 -0.06058 -1.070893 -0.30906 -0.342057 -0.24848 -0.5675092 -0.56019 -0.6249794 -0.92289 -0.0574702 -0.3627 0.0605766 -0.72883 0.3090614 -1.07089 0.248485 -0.34206 0.560191 -0.56751 0.922891 -0.62498Z" clip-rule="evenodd" stroke-width="1"></path>
  </g>
</svg>