<svg xmlns="http://www.w3.org/2000/svg" fill="none" viewBox="0 0 14 14" id="Cog-Double--Streamline-Flex">
  <desc>
    Cog Double Streamline Icon: https://streamlinehq.com
  </desc>
  <g id="cog-double--work-loading-cog-double-gear-settings-machine">
    <path id="Subtract" fill="#7fb0f2" fill-rule="evenodd" d="M5.02589 5.24184c-0.1843 -0.12606 -0.40295 -0.19364 -0.62623 -0.19392l-0.25074 0 -0.25065 -0.00007c-0.22328 0.00029 -0.44194 0.06787 -0.62623 0.19393 -0.18411 0.12593 -0.32603 0.30437 -0.40728 0.51209l-0.20474 0.52046 -0.58294 0.33654 -0.55174 -0.08392c-0.22105 -0.03336 -0.44761 0.00065 -0.648978 0.09774 -0.201285 0.09705 -0.368631 0.25254 -0.480192 0.44615l-0.248553 0.43015c-0.1118492 0.19356 -0.1627177 0.41637 -0.14595208 0.63929 0.01675888 0.22284 0.10031608 0.43544 0.23975908 0.61006l0.348045 0.4361v0.67547l-0.345605 0.43539c-0.139238 0.1745 -0.2231823 0.3876 -0.23992743 0.6102 -0.01676557 0.223 0.03409863 0.4458 0.14594843 0.6393l0.248416 0.4299c0.11156 0.1937 0.27902 0.3494 0.480333 0.4464 0.201366 0.0971 0.427346 0.1312 0.648396 0.0979l0.55232 -0.0841 0.58389 0.3371 0.20354 0.5193c0.08121 0.208 0.22323 0.3867 0.40753 0.5127 0.1843 0.1261 0.40231 0.1937 0.62559 0.194l0.24902 0 0.2491 0c0.22329 -0.0003 0.4413 -0.0678 0.6256 -0.1939 0.18429 -0.1261 0.32631 -0.3047 0.40753 -0.5127l0.20353 -0.5193 0.5839 -0.3371 0.55231 0.084c0.22105 0.0334 0.44703 -0.0007 0.6484 -0.0978 0.20131 -0.0971 0.36877 -0.2528 0.48033 -0.4464l0.24841 -0.4299c0.11185 -0.1936 0.16272 -0.4164 0.14595 -0.6393 -0.01674 -0.2226 -0.10069 -0.4357 -0.23993 -0.6103l-0.3456 -0.43533V9.1865l0.34804 -0.4361c0.13945 -0.17461 0.223 -0.38722 0.23976 -0.61006 0.01677 -0.22292 -0.0341 -0.44572 -0.14595 -0.63928l-0.24855 -0.43015c-0.11156 -0.19361 -0.2789 -0.3491 -0.48019 -0.44615 -0.20137 -0.09709 -0.42792 -0.1311 -0.64898 -0.09774l-0.55173 0.08392 -0.58295 -0.33654 -0.20473 -0.52046c-0.08125 -0.20772 -0.22317 -0.38617 -0.40728 -0.5121Zm-0.87696 2.7821c-0.35542 -0.00018 -0.73321 0.10229 -1.01162 0.33502 -0.31789 0.26572 -0.46562 0.67965 -0.48603 1.06911 -0.02042 0.38977 0.08315 0.81263 0.34051 1.11503 0.28598 0.3361 0.73944 0.4811 1.15714 0.4808 0.41729 0.0003 0.8711 -0.1439 1.15728 -0.4802 0.25736 -0.3025 0.36094 -0.72529 0.34051 -1.11507 -0.02041 -0.38945 -0.16814 -0.80338 -0.48602 -1.0691 -0.27818 -0.23253 -0.65596 -0.33577 -1.01177 -0.33559Z" clip-rule="evenodd" stroke-width="1"></path>
    <path id="Subtract_2" fill="#3c6de3" fill-rule="evenodd" d="M11.5117 0.166537C11.3534 0.0582815 11.1655 0.000245243 10.9738 0h-0.1853l-0.1864 0.0000329018C10.4103 0.000278145 10.2225 0.0583144 10.0642 0.16657c-0.15806 0.108124 -0.27991 0.26133 -0.3497 0.439667l-0.13566 0.344867 -0.35532 0.205126 -0.36548 -0.05559c-0.18982 -0.02864 -0.38445 0.00055 -0.55737 0.08392 -0.17269 0.08327 -0.3163 0.21663 -0.41209 0.38269l-0.18488 0.31994c-0.09604 0.16621 -0.13973 0.35754 -0.12533 0.54896 0.01439 0.19134 0.08614 0.3739 0.20586 0.52383l0.23059 0.28893v0.4122l-0.22873 0.28814 -0.00063 0.00079c-0.11945 0.14983 -0.19103 0.33216 -0.2054 0.52326 -0.0144 0.19142 0.02928 0.38274 0.12533 0.54895l0.1845 0.31931c0.0958 0.16619 0.23967 0.30001 0.41247 0.38332 0.17292 0.08338 0.36697 0.11266 0.55679 0.08401l0.36606 -0.05567 0.35594 0.20548 0.13478 0.34386c0.06979 0.17836 0.19189 0.33219 0.34997 0.44032 0.1583 0.10825 0.3455 0.16629 0.5372 0.16653l0.1852 0.00004 0.1844 -0.00007c0.1918 -0.00024 0.379 -0.05828 0.5373 -0.16654 0.1581 -0.10813 0.2802 -0.26196 0.3499 -0.44031l0.1348 -0.34386 0.356 -0.20549 0.366 0.05568c0.1898 0.02864 0.3839 -0.00063 0.5568 -0.08401 0.1728 -0.08332 0.3167 -0.21713 0.4125 -0.38332l0.1845 -0.31931c0.096 -0.16621 0.1397 -0.35753 0.1253 -0.54896 -0.0144 -0.19109 -0.0859 -0.37342 -0.2054 -0.52325l-0.0006 -0.00079 -0.2287 -0.28814v-0.4122l0.2305 -0.28893c0.1198 -0.14994 0.1915 -0.33249 0.2059 -0.52383 0.0144 -0.19143 -0.0293 -0.38275 -0.1253 -0.54897l-0.1849 -0.31994c-0.0958 -0.16606 -0.2394 -0.29941 -0.4121 -0.38268 -0.1729 -0.08338 -0.3675 -0.11257 -0.5574 -0.08392l-0.3654 0.05559 -0.3554 -0.205129 -0.1356 -0.344867c-0.0698 -0.178337 -0.1917 -0.331543 -0.3497 -0.439667ZM10.788 2.45483c-0.237 -0.00012 -0.4888 0.0682 -0.6744 0.22335 -0.21195 0.17715 -0.31043 0.4531 -0.32404 0.71274 -0.01362 0.25985 0.05543 0.54173 0.22704 0.74336 0.1906 0.22405 0.4929 0.3207 0.7714 0.32055 0.2782 0.00015 0.5807 -0.09596 0.7715 -0.32017 0.1716 -0.20163 0.2406 -0.48351 0.227 -0.74336 -0.0136 -0.25964 -0.1121 -0.53559 -0.324 -0.71274 -0.1854 -0.15502 -0.4373 -0.22385 -0.6745 -0.22373Z" clip-rule="evenodd" stroke-width="1"></path>
  </g>
</svg>