<svg xmlns="http://www.w3.org/2000/svg" fill="none" viewBox="0 0 14 14" id="Shirt--Streamline-Flex">
  <desc>
    Shirt Streamline Icon: https://streamlinehq.com
  </desc>
  <g id="shirt--clothing-t-shirt-men-top-shopping-catergories">
    <path id="Union" fill="#7fb0f2" fill-rule="evenodd" d="M3.44379 0c-0.15418 0 -0.28776 0.0498534 -0.38202 0.0952777C2.96243 0.143157 2.86854 0.20498 2.7847 0.267491c-0.16746 0.124855 -0.33766 0.284961 -0.4896 0.438881 -0.15408 0.156092 -0.30174 0.318578 -0.42318 0.453678l-0.06655 0.07413 -0.00002 0.00002c-0.09267 0.10331 -0.15748 0.17556 -0.19897 0.21704 -0.3829 0.38291 -0.733299 0.77728 -1.062264 1.1521 -0.4740679 0.54015 -0.55078901 1.36972 -0.109458 1.97735 0.118908 0.16371 0.254361 0.33379 0.414151 0.49358 0.159791 0.15979 0.329871 0.29524 0.493581 0.41415l0.27805 -0.38283 -0.27805 0.38283c0.43676 0.31723 0.9882 0.36679 1.46439 0.19352 -0.02047 2.18161 -0.01726 4.63276 0.05963 6.44076 0.02536 0.5966 0.39888 1.1413 0.98667 1.3446 2.18271 0.7549 4.2404 0.6663 6.36702 -0.0068 0.6091 -0.1928 1.0111 -0.7478 1.0371 -1.3692 0.0756 -1.8047 0.0787 -4.23968 0.0583 -6.40855 0.4761 0.17302 1.0273 0.12334 1.4639 -0.19376 0.1638 -0.11898 0.3339 -0.25452 0.4938 -0.4144 0.1599 -0.15988 0.2954 -0.33007 0.4144 -0.49388 0.4414 -0.60761 0.3647 -1.43718 -0.1094 -1.97737 -0.3289 -0.37482 -0.6793 -0.76919 -1.0622 -1.1521 -0.0407 -0.04072 -0.1049 -0.11245 -0.1974 -0.21588l0 -0.00003 -0.0659 -0.07361c-0.121 -0.13498 -0.2684 -0.297647 -0.4224 -0.454019 -0.1519 -0.154195 -0.3224 -0.314754 -0.4906 -0.440002 -0.0842 -0.062723 -0.1786 -0.1247 -0.2785 -0.1726575C10.9662 0.0494202 10.8325 0 10.6785 0H8.88739c-0.23614 0 -0.44008 0.1652 -0.48911 0.396188 -0.1425 0.671422 -0.73951 1.174942 -1.45297 1.174942 -0.71346 0 -1.31047 -0.50352 -1.45298 -1.174942C5.44331 0.1652 5.23936 0 5.00323 0H3.44379Z" clip-rule="evenodd" stroke-width="1"></path>
  </g>
</svg>