<svg xmlns="http://www.w3.org/2000/svg" fill="none" viewBox="0 0 14 14" id="Shopping-Bag-Hand-Bag-2--Streamline-Flex">
  <desc>
    Shopping Bag Hand Bag 2 Streamline Icon: https://streamlinehq.com
  </desc>
  <g id="shopping-bag-hand-bag-2--shopping-bag-purse-goods-item-products">
    <path id="Vector 193 (Stroke)" fill="#3c6de3" fill-rule="evenodd" d="M7 1.75c-0.9665 0 -1.75 0.7835 -1.75 1.75v1c0 0.41421 -0.33579 0.75 -0.75 0.75s-0.75 -0.33579 -0.75 -0.75v-1C3.75 1.70507 5.20507 0.25 7 0.25s3.25 1.45507 3.25 3.25v1c0 0.41421 -0.33579 0.75 -0.75 0.75s-0.75 -0.33579 -0.75 -0.75v-1c0 -0.9665 -0.7835 -1.75 -1.75 -1.75Z" clip-rule="evenodd" stroke-width="1"></path>
    <path id="Union" fill="#7fb0f2" fill-rule="evenodd" d="M2.5374 3.75c-0.66183 0 -1.25185 0.43451 -1.43612 1.07786C0.65336 6.39167 0.25 8.10714 0.25 10.25c0 0.8692 0.29661 1.626 0.84424 2.1984 0.54327 0.5677 1.30345 0.9233 2.18541 1.0562 0.95332 0.1437 2.13574 0.2454 3.72035 0.2454 1.58461 0 2.76703 -0.1017 3.7204 -0.2454 0.8819 -0.1329 1.6421 -0.4885 2.1854 -1.0562 0.5476 -0.5724 0.8442 -1.3292 0.8442 -2.1984 0 -2.14286 -0.4034 -3.85833 -0.8513 -5.42214 -0.1843 -0.64335 -0.7743 -1.07786 -1.4361 -1.07786H2.5374Z" clip-rule="evenodd" stroke-width="1"></path>
  </g>
</svg>