<svg width="24" height="22" viewBox="0 0 24 22" fill="none" xmlns="http://www.w3.org/2000/svg">
<path d="M2.21484 1.10569C2.21484 0.569462 2.64954 0.134766 3.18577 0.134766H20.7837C21.32 0.134766 21.7547 0.569463 21.7547 1.10569V4.62528H2.21484V1.10569Z" fill="#3c6de3"/>
<path d="M24 18.4307H12.7129L11.9844 14.4551L11.2559 18.4307H0L2.21484 4.625H21.7549L24 18.4307Z" fill="#7fb0f2"/>
<path d="M24 18.4307H12.7129L11.9844 14.4551L11.2559 18.4307H0L2.21484 4.625H21.7549L24 18.4307Z" fill="#3c6de3" fill-opacity="0.5"/>
<path d="M10.8575 20.6082C10.773 21.0692 10.3712 21.4041 9.90245 21.4041H0.970923C0.434697 21.4041 0 20.9694 0 20.4332V18.4307H11.2565L10.8575 20.6082Z" fill="#3c6de3"/>
<path d="M24 20.4332C24 20.9694 23.5653 21.4041 23.0291 21.4041H14.0672C13.5985 21.4041 13.1967 21.0692 13.1122 20.6082L12.7132 18.4307H24V20.4332Z" fill="#3c6de3"/>
<path d="M11.9849 4.59473H13.4109V10.8754C13.4109 11.4116 12.9762 11.8463 12.44 11.8463H11.9849V4.59473Z" fill="#3c6de3"/>
</svg>
