<svg xmlns="http://www.w3.org/2000/svg" fill="none" viewBox="0 0 14 14">
  <g id="skateboarding--sports-skateboarding-trick-wheels-olympic">
    <path id="Union" fill="#7fb0f2" fill-rule="evenodd" d="M6.95187 0.213382c0.34421 -0.21960516 0.77205 -0.2633714 1.23825 -0.1603425 0.4662 0.1030285 0.83575 0.3230125 1.05536 0.6672185 0.2196 0.344202 0.26337 0.772042 0.16034 1.238242 -0.10303 0.46621 -0.32301 0.83575 -0.66722 1.05536 -0.34421 0.2196 -0.77204 0.26337 -1.23824 0.16034 -0.46621 -0.10303 -0.83576 -0.32301 -1.05536 -0.66722 -0.21961 -0.3442 -0.26337 -0.77204 -0.16034 -1.23824 0.10303 -0.466205 0.32301 -0.835752 0.66721 -1.055358ZM4.1238 4.1451c0.71422 -0.52232 1.68032 -0.76919 2.85519 -0.51988 0.52835 0.09783 0.93567 0.3658 1.25236 0.6356 0.20412 0.17389 0.41885 0.39538 0.59585 0.57796l0.00001 0.00001 0.00012 0.00013c0.07412 0.07646 0.14163 0.1461 0.19896 0.20254 0.23393 0.23031 0.40487 0.36001 0.56403 0.42312 0.12783 0.05069 0.29366 0.07714 0.56808 -0.01676 0.392 -0.13409 0.8184 0.07492 0.9524 0.46683 0.1341 0.39191 -0.0749 0.81832 -0.4668 0.9524 -0.5894 0.20168 -1.12464 0.18303 -1.60662 -0.0081 -0.45065 -0.17871 -0.7983 -0.48755 -1.06343 -0.74858 -0.11397 -0.1122 -0.20889 -0.21062 -0.29571 -0.30065l-0.00001 0c-0.13329 -0.13821 -0.24752 -0.25666 -0.38236 -0.37488 -0.13261 0.24878 -0.27302 0.54451 -0.40005 0.84734 -0.1147 0.27344 -0.20826 0.52847 -0.26841 0.72952 0.18934 0.08814 0.4346 0.1849 0.70949 0.29082l0.10522 0.04046c0.26335 0.1012 0.5465 0.20999 0.774 0.31245 0.12805 0.05766 0.26724 0.12587 0.38727 0.20297 0.05986 0.03846 0.13505 0.09178 0.20658 0.16131 0.06334 0.06157 0.17932 0.18852 0.2382 0.38272 0.0155 0.05113 0.04462 0.14488 0.08357 0.27033l0.06458 0.20808c0.07047 0.22736 0.15646 0.50605 0.24176 0.78802 0.1615 0.53384 0.34635 1.16164 0.39106 1.42274 0.0699 0.4083 -0.2044 0.796 -0.61268 0.8659 -0.40827 0.0699 -0.79591 -0.2044 -0.86581 -0.6127 -0.02475 -0.1446 -0.1715 -0.6572 -0.34831 -1.2416 -0.08385 -0.27717 -0.16868 -0.55211 -0.23878 -0.77828l-0.06167 -0.19874 -0.02021 -0.06508c-0.02344 -0.01135 -0.05049 -0.024 -0.08148 -0.03796 -0.18026 -0.08118 -0.41064 -0.17014 -0.67177 -0.27058 0.03164 0.17403 0.06075 0.36978 0.06075 0.52975 0 0.23245 -0.08558 0.42296 -0.14747 0.53724 -0.06815 0.12584 -0.1538 0.24215 -0.2369 0.34285 -0.16668 0.2021 -0.38126 0.4108 -0.59569 0.6038 -0.41002 0.3691 -0.89517 0.7473 -1.22621 1.0053l-0.051 0.0397c-0.32662 0.2548 -0.79791 0.1965 -1.05264 -0.1301 -0.25473 -0.3267 -0.19645 -0.7979 0.13018 -1.0527l0.04121 -0.0321 0.00001 0c0.33822 -0.2637 0.7858 -0.61267 1.15494 -0.94494 0.19356 -0.17422 0.34488 -0.32562 0.44212 -0.44349 0.01128 -0.01367 0.02106 -0.02597 0.0295 -0.03693 -0.00819 -0.05768 -0.02008 -0.12763 -0.03549 -0.20841 -0.03363 -0.17632 -0.08002 -0.38355 -0.12942 -0.59123 -0.04974 -0.2091 -0.10973 -0.4461 -0.15633 -0.63018l0 -0.00003c-0.00939 -0.03709 -0.01824 -0.07202 -0.02634 -0.10415 -0.01897 -0.04696 -0.03515 -0.09865 -0.04641 -0.15497 -0.03769 -0.18849 -0.01305 -0.37222 0.00495 -0.4791 0.02166 -0.1286 0.05638 -0.26606 0.09629 -0.40133 0.08027 -0.27211 0.19694 -0.58692 0.3281 -0.89959 0.08945 -0.21324 0.19097 -0.43816 0.29877 -0.65797 -0.33837 0.04299 -0.60033 0.16435 -0.80208 0.31189 -0.37082 0.27119 -0.59761 0.6757 -0.68102 1.0246 -0.09632 0.40286 -0.50098 0.65137 -0.90384 0.55505 -0.40286 -0.09631 -0.65136 -0.50097 -0.55505 -0.90383 0.15523 -0.64929 0.56033 -1.37896 1.25444 -1.88659Zm1.39891 4.96014 -0.00091 0.00164c0.00305 -0.0066 0.004 -0.00734 0.00091 -0.00164Z" clip-rule="evenodd" stroke-width="1"></path>
    <path id="Union_2" fill="#3c6de3" fill-rule="evenodd" d="M1.57149 9.67086c0.27994 -0.3053 0.75437 -0.32585 1.05966 -0.04591 0.06583 0.06037 0.12723 0.11746 0.18539 0.17155l0 0.00001 0.00003 0.00002c0.22291 0.20727 0.39834 0.37047 0.59412 0.50427 0.22093 0.1509 0.41091 0.2207 0.62346 0.2207h5.93136c0.21259 0 0.40249 -0.0698 0.62349 -0.2207 0.1958 -0.1338 0.3712 -0.297 0.5941 -0.50426l0.0001 -0.0001c0.0581 -0.05407 0.1195 -0.11114 0.1853 -0.17149 0.3053 -0.27994 0.7797 -0.25939 1.0597 0.04591 0.2799 0.30529 0.2594 0.77974 -0.0459 1.05964 -0.0442 0.0406 -0.0911 0.0843 -0.1402 0.1302 -0.2289 0.2137 -0.5082 0.4745 -0.8069 0.6786 -0.3888 0.2656 -0.8696 0.4822 -1.46969 0.4822H4.03415c-0.60006 0 -1.0809 -0.2166 -1.4697 -0.4822 -0.29871 -0.2041 -0.57795 -0.4649 -0.80687 -0.6786 -0.04915 -0.0459 -0.09598 -0.0896 -0.14019 -0.1302 -0.30529 -0.2799 -0.32585 -0.75435 -0.0459 -1.05964ZM4.48364 14c0.48 0 0.75 -0.27 0.75 -0.75s-0.27 -0.75 -0.75 -0.75 -0.75 0.27 -0.75 0.75 0.27 0.75 0.75 0.75Zm5.60646 -0.75c0 0.48 -0.27001 0.75 -0.75001 0.75s-0.75 -0.27 -0.75 -0.75 0.27 -0.75 0.75 -0.75 0.75001 0.27 0.75001 0.75Z" clip-rule="evenodd" stroke-width="1"></path>
  </g>
</svg>