<svg xmlns="http://www.w3.org/2000/svg" fill="none" viewBox="0 0 14 14">
  <g id="sledding--sports-sledding-winter-snow">
    <path id="Union" fill="#7fb0f2" fill-rule="evenodd" d="M5.81514 0.680161c0.35678 -0.205987 0.79019 -0.231104 1.2561 -0.106263 0.46592 0.124842 0.8287 0.363297 1.03469 0.720082 0.20598 0.35678 0.2311 0.79018 0.10626 1.2561 -0.12484 0.46591 -0.3633 0.8287 -0.72008 1.03468 -0.35678 0.20599 -0.79019 0.23111 -1.2561 0.10627 -0.46592 -0.12485 -0.8287 -0.3633 -1.03469 -0.72008 -0.20598 -0.35678 -0.2311 -0.79019 -0.10626 -1.2561 0.12484 -0.46592 0.3633 -0.828702 0.72008 -1.034689ZM3.62908 7.55716c-0.02617 -0.40835 -0.02189 -0.74254 0.01437 -0.91967 0.00106 -0.00131 0.00243 -0.00303 0.00412 -0.00518 0.01584 -0.02007 0.06061 -0.07679 0.16391 -0.16693 0.1569 -0.13692 0.37554 -0.28701 0.61744 -0.41822 0.14803 -0.08029 0.29388 -0.1476 0.42806 -0.1989 -0.06376 0.22143 -0.1512 0.48228 -0.25101 0.77983 -0.14168 0.42238 -0.30629 0.91379 -0.39592 1.34967 -0.04504 0.21904 -0.07884 0.45854 -0.07184 0.69095 0.00674 0.22375 0.05345 0.52471 0.24923 0.78889 0.1814 0.24478 0.44963 0.41453 0.77673 0.44138 0.28469 0.02338 0.52917 -0.06937 0.69231 -0.15022 0.30548 -0.1514 0.61922 -0.41653 0.85552 -0.61621l0.023 -0.01943c0.2775 -0.23436 0.50472 -0.42604 0.71506 -0.55287 0.12816 -0.07728 0.19613 -0.09676 0.22011 -0.10197 0.03604 0.01796 0.12644 0.07709 0.25903 0.24658 0.1516 0.19381 0.30123 0.45876 0.43983 0.75815 0.24493 0.52911 0.41218 1.06759 0.49134 1.32249 0.01033 0.0332 0.01916 0.0617 0.02646 0.0846 0.12567 0.3947 0.5475 0.6128 0.94219 0.4871 0.39468 -0.1256 0.61278 -0.5475 0.48708 -0.9422 -0.0054 -0.0172 -0.0127 -0.0406 -0.0216 -0.0696 -0.0756 -0.2445 -0.2731 -0.88356 -0.56425 -1.51253 -0.16269 -0.35143 -0.36846 -0.73116 -0.61957 -1.05218 -0.2402 -0.30707 -0.59106 -0.65012 -1.06823 -0.77797 -0.55167 -0.14782 -1.04972 0.0817 -1.36694 0.27297 -0.31601 0.19055 -0.62473 0.45162 -0.86693 0.65643l-0.04141 0.035 -0.01491 0.01259c0.0719 -0.2629 0.1696 -0.55789 0.27584 -0.87459l0.02036 -0.06066 0 -0.00001c0.134 -0.39908 0.28359 -0.84462 0.35768 -1.2131 0.03813 -0.18966 0.0715 -0.4271 0.0426 -0.65899 -0.02966 -0.23795 -0.15125 -0.62042 -0.55983 -0.81243 -0.40633 -0.19095 -0.8614 -0.12001 -1.16183 -0.04318 -0.34055 0.08709 -0.69464 0.23902 -1.01332 0.41188 -0.31996 0.17354 -0.63365 0.38415 -0.88852 0.60656 -0.22006 0.19203 -0.52114 0.49778 -0.62295 0.88052 -0.11529 0.43341 -0.09693 1.01928 -0.07013 1.43739 0.01456 0.2273 0.03475 0.44136 0.05169 0.61125l0.01324 0.13163c0.01055 0.10428 0.01686 0.16669 0.01868 0.19969 0.02275 0.41359 0.37647 0.73043 0.79006 0.70767 0.41359 -0.02275 0.73043 -0.37647 0.70768 -0.79006 -0.0039 -0.07078 -0.01565 -0.18645 -0.02769 -0.30491l0 -0.00001 -0.00937 -0.0928c-0.01637 -0.16417 -0.03449 -0.3576 -0.04737 -0.5584Zm1.53959 0.85708c-0.00054 0.00021 -0.00082 0.00034 -0.00083 0.00038 -0.00003 0.00009 0.00159 -0.00041 0.00497 -0.00179 -0.00194 0.0006 -0.00333 0.00109 -0.00414 0.00141Zm0.47217 0.24689c0.00005 -0.00006 -0.00017 -0.00151 -0.00081 -0.00417 0.00022 0.00152 0.00042 0.00261 0.00056 0.00329 0.00013 0.00062 0.00022 0.0009 0.00025 0.00088Z" clip-rule="evenodd" stroke-width="1"></path>
    <path id="Union_2" fill="#3c6de3" fill-rule="evenodd" d="M1.43893 7.66246c-0.4001 -0.10721 -0.811353 0.13023 -0.918559 0.53033 -0.107207 0.4001 0.13023 0.81135 0.530329 0.91856l1.78981 0.47958 -0.1698 0.63367 -1.727142 -0.46275c-0.4001 -0.1072 -0.811352 0.13023 -0.9185586 0.53035 -0.1072064 0.4001 0.1302306 0.8113 0.5303296 0.9185l2.413831 0.6468c0.01233 0.004 0.02483 0.0077 0.03749 0.0111 0.01267 0.0034 0.02534 0.0064 0.03802 0.0092l7.55422 2.0241c1.644 0.4405 2.8584 -0.6843 3.2484 -1.8568 0.1987 -0.5971 0.2222 -1.2872 -0.0429 -1.9093 -0.2757 -0.64667 -0.833 -1.14471 -1.6367 -1.36006 -0.4001 -0.1072 -0.8114 0.13023 -0.9186 0.53033 -0.1072 0.4001 0.1303 0.81133 0.5304 0.91853 0.3842 0.103 0.5603 0.3007 0.645 0.4994 0.0952 0.2232 0.1059 0.528 -0.0005 0.8476 -0.2198 0.661 -0.7836 1.0565 -1.4368 0.8814l-1.82576 -0.4892 0.16981 -0.6337 1.10465 0.296c0.4001 0.1072 0.8114 -0.1302 0.9186 -0.5303 0.1072 -0.4001 -0.1302 -0.8114 -0.5303 -0.9186L1.43893 7.66246Zm6.44343 3.27944L4.2894 9.97916l-0.1698 0.63374 3.59295 0.9627 0.16981 -0.6337Z" clip-rule="evenodd" stroke-width="1"></path>
  </g>
</svg>