<svg xmlns="http://www.w3.org/2000/svg" fill="none" viewBox="0 0 14 14" id="Snow-Flake--Streamline-Flex">
  <desc>
    Snow Flake Streamline Icon: https://streamlinehq.com
  </desc>
  <g id="snow-flake--winter-freeze-snow-freezing-ice-cold-weather-snowflake">
    <path id="Union" fill="#7fb0f2" fill-rule="evenodd" d="M4.83125 0.162463c0.32349 -0.2587007 0.79545 -0.2061765 1.05415 0.117316l0.32334 0.40432c0.24765 0.309683 0.53863 0.426201 0.7909 0.426201s0.54325 -0.116519 0.79091 -0.426202l0.58574 0.468422 -0.58574 -0.468422 0.32334 -0.40432c0.2587 -0.3234915 0.73066 -0.3760156 1.05415 -0.117315 0.3235 0.2587 0.37602 0.73066 0.11732 1.054147l-0.32334 0.40432c-0.33276 0.41611 -0.75221 0.71217 -1.2124 0.86654v2.18044c0.3484 0.08941 0.66834 0.2487 0.93752 0.49161l1.83296 -1.05859c-0.0983 -0.4777 -0.0521 -0.99157 0.1428 -1.49025l0.1884 -0.48226c0.1508 -0.3858 0.5858 -0.57633 0.9716 -0.42557 0.3858 0.15077 0.5763 0.58575 0.4255 0.97155l-0.1884 0.48225c-0.1277 0.32674 -0.1076 0.60733 -0.0138 0.81909 0.019 0.02503 0.0367 0.05154 0.0528 0.07947 0.0151 0.02614 0.0284 0.0528 0.04 0.07986 0.1371 0.18468 0.369 0.33992 0.7125 0.39222l0.5119 0.07794c0.4095 0.06235 0.691 0.44485 0.6286 0.85434 -0.0623 0.4095 -0.4448 0.69092 -0.8543 0.62858l-0.512 -0.07794c-0.5243 -0.07983 -0.9886 -0.29351 -1.3517 -0.61245L9.38038 6.49134c0.02763 0.16895 0.04073 0.34305 0.04073 0.51998 0 0.16983 -0.01207 0.33704 -0.03747 0.4996l1.89026 1.09165c0.3631 -0.31899 0.8274 -0.53269 1.3518 -0.61253l0.512 -0.07794c0.4095 -0.06234 0.792 0.21908 0.8543 0.62857 0.0624 0.4095 -0.2191 0.792 -0.6286 0.85434l-0.5119 0.07794c-0.344 0.05238 -0.576 0.20798 -0.713 0.393 -0.0116 0.02679 -0.0248 0.0532 -0.0397 0.07908 -0.016 0.02765 -0.0335 0.0539 -0.0523 0.07867 -0.094 0.2119 -0.1144 0.4928 0.0135 0.8199l0.1884 0.4822c0.1508 0.3858 -0.0397 0.8208 -0.4255 0.9716 -0.3858 0.1508 -0.8208 -0.0398 -0.9716 -0.4256l-0.1884 -0.4822c-0.1949 -0.4987 -0.2411 -1.0125 -0.1428 -1.49017L8.70209 8.84949c-0.27225 0.2506 -0.5976 0.41416 -0.95247 0.50523v2.15778c0.46016 0.1544 0.8796 0.4504 1.21234 0.8665l0.32334 0.4043c0.2587 0.3235 0.20618 0.7955 -0.11732 1.0542 -0.32349 0.2587 -0.79545 0.2062 -1.05415 -0.1173l-0.32334 -0.4043c-0.24514 -0.3066 -0.53273 -0.4239 -0.78321 -0.4262l-0.00766 0 -0.0077 0c-0.25048 0.0023 -0.53809 0.1196 -0.78324 0.4262l-0.32334 0.4043c-0.2587 0.3235 -0.73066 0.376 -1.05415 0.1173 -0.32349 -0.2587 -0.37602 -0.7307 -0.11732 -1.0542l0.32334 -0.4043c0.33276 -0.4161 0.75221 -0.7121 1.21241 -0.8665V9.3547c-0.35492 -0.0911 -0.68031 -0.25472 -0.95257 -0.50539L3.47991 9.89873c0.09846 0.47787 0.05237 0.99197 -0.14259 1.49087l-0.18846 0.4822c-0.15076 0.3858 -0.58574 0.5764 -0.97154 0.4256 -0.3858 -0.1508 -0.57633 -0.5858 -0.42557 -0.9716l0.18847 -0.4822c0.1271 -0.3253 0.1077 -0.6048 0.01504 -0.8162 -0.01988 -0.0259 -0.0383 -0.05341 -0.05507 -0.08245 -0.01563 -0.02707 -0.02939 -0.05472 -0.04131 -0.08278 -0.13737 -0.18336 -0.36853 -0.3372 -0.71021 -0.38922l-0.511936 -0.07794c-0.409495 -0.06234 -0.6909175 -0.44484 -0.6285746 -0.85434 0.0623429 -0.40949 0.4448436 -0.69091 0.8543386 -0.62857l0.511932 0.07794c0.52416 0.0798 0.98829 0.29333 1.35132 0.61206l1.88991 -1.09145c-0.02538 -0.16248 -0.03743 -0.3296 -0.03743 -0.49933 0 -0.17695 0.0131 -0.35106 0.04074 -0.52003L2.7259 5.39802c-0.36305 0.31879 -0.82724 0.53238 -1.35147 0.61219l-0.511932 0.07794c-0.409495 0.06234 -0.7919957 -0.21908 -0.8543386 -0.62858 -0.0623429 -0.40949 0.2190796 -0.79199 0.6285746 -0.85434l0.511936 -0.07794c0.34208 -0.05208 0.57339 -0.20622 0.7107 -0.38987 0.01186 -0.02786 0.02554 -0.05532 0.04107 -0.08221 0.01663 -0.02879 0.03488 -0.05607 0.05457 -0.08178 0.09287 -0.21149 0.11243 -0.49123 -0.01479 -0.81678l-0.18847 -0.48225c-0.15076 -0.3858 0.03977 -0.82078 0.42557 -0.97155 0.3858 -0.15076 0.82078 0.03977 0.97154 0.42557l0.18846 0.48226c0.19494 0.49881 0.24104 1.01283 0.14263 1.49064l1.83228 1.05816c0.26914 -0.24286 0.58904 -0.40213 0.93739 -0.49154V2.48745c-0.46017 -0.15437 -0.8796 -0.45043 -1.21235 -0.86652l-0.32334 -0.40432c-0.2587 -0.323487 -0.20618 -0.795447 0.11732 -1.054147ZM6.19258 7.58635c-0.00919 -0.02264 -0.01957 -0.04503 -0.03115 -0.06708 -0.04888 -0.11966 -0.0832 -0.28353 -0.0832 -0.50795 0 -0.40199 0.11012 -0.6097 0.21676 -0.71709 0.10587 -0.10661 0.30931 -0.21609 0.70468 -0.21609s0.59881 0.10948 0.70468 0.21609c0.10664 0.10739 0.21676 0.3151 0.21676 0.71709 0 0.22318 -0.03394 0.38647 -0.08239 0.50596 -0.01237 0.02337 -0.02338 0.04711 -0.03305 0.07114 -0.03153 0.05945 -0.06661 0.10503 -0.10132 0.13998 -0.10538 0.10612 -0.30742 0.21508 -0.69918 0.21609 -0.00185 -0.00001 -0.0037 -0.00002 -0.00555 -0.00002s-0.00369 0.00001 -0.00553 0.00002c-0.39171 -0.00102 -0.59373 -0.10998 -0.6991 -0.21609 -0.03511 -0.03535 -0.0706 -0.08159 -0.10241 -0.14205Z" clip-rule="evenodd" stroke-width="1"></path>
  </g>
</svg>