<svg xmlns="http://www.w3.org/2000/svg" fill="none" viewBox="0 0 14 14">
  <g id="snowboarding--sports-snowboarding-winter-snow">
    <path id="Union" fill="#7fb0f2" fill-rule="evenodd" d="M8.0324 0.153723c0.40165 -0.1999706 0.87634 -0.1992309 1.38 -0.03039 0.50366 0.168841 0.8829 0.454357 1.0829 0.856009 0.1999 0.401648 0.1992 0.876338 0.0303 1.379998 -0.1688 0.50366 -0.4543 0.88288 -0.85597 1.08285 -0.40165 0.19997 -0.87634 0.19924 -1.38 0.03039 -0.50366 -0.16884 -0.88288 -0.45435 -1.08285 -0.856 -0.19997 -0.40166 -0.19923 -0.87634 -0.03039 -1.38 0.16884 -0.503664 0.45436 -0.882886 0.85601 -1.082857ZM4.5476 4.3182c0.81191 -0.47083 1.86114 -0.62484 3.08094 -0.22706 0.54318 0.16134 0.94196 0.48809 1.24788 0.81047 0.19752 0.20815 0.39927 0.46605 0.56806 0.68182l0.00002 0.00002 0.0001 0.00013 0.00005 0.00006c0.0717 0.09165 0.13744 0.1757 0.19439 0.24508 0.22633 0.2758 0.40166 0.44284 0.57696 0.53484 0.1453 0.07633 0.3356 0.12501 0.6547 0.05242 0.4038 -0.0919 0.8058 0.16103 0.8977 0.56492 0.0919 0.40389 -0.1611 0.8058 -0.565 0.8977 -0.6437 0.14646 -1.2021 0.06647 -1.68478 -0.18699 -0.45286 -0.23778 -0.78499 -0.60166 -1.0391 -0.9113 -0.10736 -0.13082 -0.19737 -0.24645 -0.2803 -0.35298l0 -0.00001c-0.14063 -0.18065 -0.26089 -0.33514 -0.41087 -0.49319 -0.01693 -0.01784 -0.03368 -0.03506 -0.05027 -0.05168 -0.25959 0.29387 -0.55056 0.64697 -0.78144 0.98743 -0.17029 0.25112 -0.27957 0.45471 -0.33132 0.59773 0.05929 0.04217 0.14904 0.09717 0.2805 0.1645 0.15775 0.08079 0.32421 0.15493 0.51224 0.23867l0.00001 0c0.07946 0.03539 0.16278 0.07249 0.25091 0.11254 0.27273 0.12393 0.58786 0.27481 0.85695 0.46061 0.25958 0.17925 0.57806 0.45893 0.71553 0.88189 0.0105 0.03231 0.01879 0.06528 0.02482 0.09871l0.51952 2.88067c0.07351 0.4077 -0.19734 0.7977 -0.60498 0.8712 -0.40764 0.0736 -0.79769 -0.1973 -0.87121 -0.6049l-0.50171 -2.782c-0.01767 -0.01967 -0.05642 -0.05747 -0.1343 -0.11125 -0.1495 -0.10323 -0.35716 -0.20753 -0.62514 -0.32929 -0.06353 -0.02887 -0.13198 -0.05936 -0.20318 -0.09107l-0.00002 -0.00001c-0.01424 -0.00634 -0.02859 -0.01273 -0.04304 -0.01917 0.0007 0.00818 0.00138 0.01632 0.00205 0.02442 0.01727 0.20872 0.03116 0.45356 0.01101 0.64307 -0.02239 0.2105 -0.10986 0.385 -0.17517 0.4962 -0.07208 0.1228 -0.16074 0.2403 -0.25042 0.347 -0.17985 0.2141 -0.40959 0.4386 -0.64708 0.6502 -0.47502 0.4231 -1.04833 0.8535 -1.48102 1.1226 -0.35174 0.2188 -0.81422 0.111 -1.03298 -0.2407 -0.21876 -0.3518 -0.11096 -0.8142 0.24077 -1.033 0.3512 -0.2184 0.85632 -0.5956 1.27553 -0.969 0.20963 -0.1867 0.38097 -0.35768 0.49631 -0.49496 0.03843 -0.04574 0.06565 -0.08187 0.08402 -0.10852 -0.00012 -0.01235 -0.00038 -0.02599 -0.00081 -0.04095 -0.00194 -0.06742 -0.007 -0.15093 -0.01505 -0.24829 -0.01611 -0.19476 -0.04242 -0.42393 -0.07184 -0.65328 -0.02997 -0.23367 -0.06744 -0.49563 -0.0964 -0.6981l-0.00001 -0.00004c-0.02261 -0.15808 -0.04003 -0.27989 -0.04465 -0.32366 -0.00597 -0.05664 -0.00548 -0.11248 0.00088 -0.16677 0.00391 -0.18036 0.04029 -0.34517 0.0782 -0.46988 0.10979 -0.36115 0.32419 -0.72939 0.53962 -1.04706 0.15312 -0.2258 0.32448 -0.45142 0.49633 -0.66369 -0.37124 0.01028 -0.67169 0.11248 -0.91142 0.2515 -0.44386 0.2574 -0.74262 0.67887 -0.87642 1.05639 -0.13837 0.39042 -0.56704 0.59474 -0.95746 0.45637 -0.39042 -0.13838 -0.59474 -0.56705 -0.45637 -0.95746 0.23698 -0.66862 0.74742 -1.39457 1.53776 -1.8529Zm2.04645 3.26441c-0.00025 0.00021 -0.00011 -0.00312 0.0012 -0.01059 -0.00028 0.00665 -0.00094 0.01039 -0.0012 0.01059ZM5.35382 9.62944c0.00012 -0.00004 -0.00078 0.00199 -0.00307 0.00619 0.0018 -0.00406 0.00295 -0.00616 0.00307 -0.00619Z" clip-rule="evenodd" stroke-width="1"></path>
    <path id="Union_2" fill="#3c6de3" fill-rule="evenodd" d="M0.243856 9.65922c0.305788 -0.27941 0.780184 -0.25802 1.059584 0.04777 0.05587 0.06115 0.10976 0.12054 0.16202 0.17814 0.59289 0.65337 0.9755 1.07507 1.6552 1.19907l7.60374 1.3866c0.6797 0.1239 1.1865 -0.1355 1.9718 -0.5376 0.0693 -0.0354 0.1407 -0.072 0.2145 -0.1095 0.3694 -0.1875 0.8208 -0.04 1.0083 0.3293 0.1874 0.3694 0.04 0.8208 -0.3294 1.0083 -0.0745 0.0378 -0.152 0.0784 -0.2325 0.1205 -0.7258 0.3797 -1.6921 0.8853 -2.9018 0.6647l-7.60374 -1.3867C1.64183 12.3392 0.916175 11.5251 0.371118 10.9136c-0.060427 -0.0678 -0.118635 -0.1331 -0.175036 -0.1948 -0.2794038 -0.3058 -0.2580146 -0.78018 0.047774 -1.05958Z" clip-rule="evenodd" stroke-width="1"></path>
  </g>
</svg>