<svg xmlns="http://www.w3.org/2000/svg" fill="none" viewBox="0 0 14 14" id="Soccer--Streamline-Flex">
  <desc>
    Soccer Streamline Icon: https://streamlinehq.com
  </desc>
  <g id="soccer--soccer-sports-ball-field-games">
    <path id="Union" fill="#7fb0f2" fill-rule="evenodd" d="M7 0C4.82797 0 3.06046 0.612432 1.83645 1.83645 0.612432 3.06046 0 4.82797 0 7s0.612432 3.9395 1.83645 5.1636C3.06046 13.3876 4.82797 14 7 14s3.9395 -0.6124 5.1636 -1.8364C13.3876 10.9395 14 9.17203 14 7s-0.6124 -3.93954 -1.8364 -5.16355C10.9395 0.612432 9.17203 0 7 0Z" clip-rule="evenodd" stroke-width="1"></path>
    <path id="Intersect" fill="#3c6de3" fill-rule="evenodd" d="M7.62277 0.0174168c0.00121 0.0158465 0.00182 0.0318581 0.00182 0.0480129V3.61953c0.05746 0.02404 0.11385 0.05154 0.16887 0.0825 0.87291 0.49108 1.48728 0.93339 2.24684 1.63236 0.0297 0.02738 0.0583 0.05574 0.0857 0.08499l3.4893 -1.13376c0.1221 0.38616 0.2151 0.79452 0.2791 1.22367l-3.3333 1.08305c-0.0035 0.0838 -0.0136 0.1679 -0.0304 0.25156 -0.1973 0.98194 -0.428 1.70292 -0.85808 2.64127 -0.02053 0.04479 -0.04297 0.08836 -0.0672 0.13063l2.13068 2.9327c-0.3215 0.2605 -0.6734 0.486 -1.0536 0.6765l-2.06993 -2.8491c-0.07302 0.0192 -0.14784 0.0333 -0.22402 0.0422 -0.995 0.1158 -1.75208 0.1191 -2.77762 0 -0.07628 -0.0088 -0.15118 -0.023 -0.22426 -0.0422l-2.06979 2.8488c-0.38018 -0.1904 -0.73198 -0.416 -1.05351 -0.6766l2.13076 -2.93273c-0.02405 -0.042 -0.04633 -0.08528 -0.06672 -0.12977 -0.4301 -0.93841 -0.66092 -1.6594 -0.85823 -2.64127 -0.01681 -0.08365 -0.02685 -0.16773 -0.03034 -0.25151L0.173703 5.53191C0.150418 5.52434 0.127881 5.51554 0.10614 5.5056c0.062467 -0.41789 0.152499 -0.81607 0.270083 -1.1932 0.060934 0.00094 0.122762 0.01087 0.183751 0.03069L3.87362 5.41976c0.02754 -0.02947 0.05629 -0.05803 0.08624 -0.0856 0.73663 -0.67826 1.34707 -1.12584 2.24639 -1.63213 0.05486 -0.03088 0.11107 -0.05832 0.16834 -0.08232V0.0654297c0 -0.01614 0.00061 -0.0321371 0.00181 -0.0479694C6.58033 0.00582054 6.78823 0 6.99997 0c0.21148 0 0.41912 0.00580613 0.6228 0.0174168ZM6.81947 4.79128c0.1116 -0.06283 0.2489 -0.06294 0.36109 0.00018 0.78994 0.44441 1.32575 0.83003 2.01325 1.46272 0.09425 0.08673 0.13678 0.21728 0.11142 0.34348 -0.17854 0.88862 -0.3797 1.51737 -0.76896 2.36673 -0.05336 0.11643 -0.16437 0.19722 -0.29224 0.2121 -0.90043 0.10481 -1.56061 0.10778 -2.48892 -0.00002 -0.12725 -0.01477 -0.23799 -0.09524 -0.29136 -0.21169 -0.38933 -0.84944 -0.59052 -1.47819 -0.76907 -2.36672 -0.02536 -0.12618 0.01719 -0.25716 0.11188 -0.34434 0.66661 -0.61378 1.19887 -1.00416 2.01291 -1.46244Z" clip-rule="evenodd" stroke-width="1"></path>
  </g>
</svg>