<svg xmlns="http://www.w3.org/2000/svg" fill="none" viewBox="0 0 14 14" id="Sock--Streamline-Flex">
  <desc>
    Sock Streamline Icon: https://streamlinehq.com
  </desc>
  <g id="sock">
    <path id="Union" fill="#7fb0f2" fill-rule="evenodd" d="M8.10543 0.25c-0.83049 0 -1.49945 0.663551 -1.49927 1.47607 0.00006 0.27462 -0.00065 0.56271 -0.00295 0.80314 -0.00294 0.30839 -0.00486 0.63486 -0.00681 0.96599 -0.00369 0.62916 -0.00749 1.27513 -0.01861 1.84588 -0.00848 0.43487 -0.02108 0.81702 -0.04051 1.10712l-0.00427 0.06078 -0.21283 -0.03449c-1.64471 -0.29399 -3.14508 -0.19406 -4.25822 0.40181C0.910121 7.49288 0.25 8.59983 0.25 10.1127c0 0.7569 0.184126 1.3953 0.555126 1.915 0.369294 0.5173 0.894934 0.8766 1.508604 1.1263 1.20366 0.4899 2.84555 0.596 4.63507 0.596 1.21208 0 2.39625 -0.0566 3.5364 -0.119 0.9293 -0.0509 1.6903 -0.3358 2.241 -0.8974 0.5444 -0.5553 0.8238 -1.3212 0.9201 -2.22 0.1137 -1.06198 0.107 -2.16771 0.1008 -3.19602v-0.00004c-0.0013 -0.2286 -0.0027 -0.45337 -0.0027 -0.67299 0 -1.42288 -0.0786 -2.80925 -0.1536 -4.13195l0 -0.00003 -0.0003 -0.00597c-0.0095 -0.16728 -0.03 -0.52116 -0.0503 -0.87049C13.495 0.858011 12.8396 0.25 12.0466 0.25H8.10543Z" clip-rule="evenodd" stroke-width="1"></path>
    <path id="Intersect" fill="#3c6de3" fill-rule="evenodd" d="M13.6402 3.40459c-0.0161 -0.30029 -0.033 -0.59772 -0.0496 -0.89199l0 -0.00003 -0.0004 -0.00597c-0.0095 -0.16728 -0.03 -0.52116 -0.0502 -0.87049C13.4948 0.858011 12.8394 0.25 12.0463 0.25H8.10517c-0.83049 0 -1.49944 0.663551 -1.49927 1.47607 0.00006 0.27462 -0.00065 0.56271 -0.00294 0.80314 -0.00268 0.28022 -0.00451 0.57537 -0.00628 0.87538h7.04352Zm0.1085 4.97504c-0.0049 0.70702 -0.0273 1.4301 -0.1027 2.13397 -0.0962 0.8988 -0.3757 1.6647 -0.9201 2.22 -0.5506 0.5616 -1.3116 0.8465 -2.2409 0.8974 -0.70956 0.0388 -1.43612 0.0754 -2.17583 0.0975 -0.00929 -0.1526 -0.01396 -0.3089 -0.01396 -0.4687 0 -3.1319 1.79299 -4.89363 4.98059 -4.89363 0.1612 0 0.3188 0.0045 0.4729 0.01346Z" clip-rule="evenodd" stroke-width="1"></path>
  </g>
</svg>