<svg xmlns="http://www.w3.org/2000/svg" fill="none" viewBox="0 0 14 14">
  <g id="sprint--sports-sprint-run-fast-project-management-top-speed">
    <path id="Union" fill="#3c6de3" fill-rule="evenodd" d="M0.771023 3.80078c0 -0.41421 0.335787 -0.75 0.749997 -0.75h1.7658c0.41421 0 0.75 0.33579 0.75 0.75s-0.33579 0.75 -0.75 0.75h-1.7658c-0.41421 0 -0.749997 -0.33579 -0.749997 -0.75Zm0 4.25391c0 -0.41422 0.335787 -0.75 0.749997 -0.75h1.7658c0.41421 0 0.75 0.33578 0.75 0.75 0 0.41421 -0.33579 0.75 -0.75 0.75h-1.7658c-0.41421 0 -0.749997 -0.33579 -0.749997 -0.75ZM0.75 5.17773c-0.414214 0 -0.75 0.33579 -0.75 0.75 0 0.41422 0.335786 0.75 0.75 0.75h1.76579c0.41422 0 0.75 -0.33578 0.75 -0.75 0 -0.41421 -0.33578 -0.75 -0.75 -0.75H0.75Z" clip-rule="evenodd" stroke-width="1"></path>
    <path id="Union_2" fill="#7fb0f2" fill-rule="evenodd" d="M11.0292 1.24146c0.3882 -0.247705 0.8733 -0.298846 1.4074 -0.18081 0.5342 0.11804 0.9525 0.36884 1.2002 0.7571 0.2478 0.38825 0.2989 0.87336 0.1809 1.40747 -0.1181 0.53411 -0.3689 0.95249 -0.7571 1.2002 -0.3883 0.24771 -0.8734 0.29885 -1.4075 0.18081 -0.5341 -0.11803 -0.9525 -0.36884 -1.2002 -0.75709 -0.2477 -0.38826 -0.2989 -0.87337 -0.1808 -1.40748 0.118 -0.53411 0.3688 -0.95249 0.7571 -1.2002ZM6.27686 5.53724l-0.02459 0.00531c-0.00999 0.11372 -0.01077 0.27561 0.00443 0.48651 0.01053 0.14611 0.02602 0.28832 0.04106 0.42651l0.00341 0.03136 0.00127 0.01165c0.01371 0.12607 0.03127 0.28754 0.03127 0.41336 0 0.41421 -0.33579 0.75 -0.75 0.75s-0.75 -0.33579 -0.75 -0.75c0 -0.02949 -0.00635 -0.10276 -0.02376 -0.263l-0.00374 -0.03433 0 -0.00001 0 -0.00002c-0.01469 -0.13472 -0.03303 -0.30292 -0.04563 -0.47768 -0.02467 -0.34224 -0.04381 -0.87013 0.12414 -1.30195 0.11644 -0.29939 0.34798 -0.47345 0.52206 -0.56898 0.18083 -0.09923 0.38089 -0.15942 0.5672 -0.19783 0.3755 -0.07742 0.82466 -0.09222 1.27823 -0.05992 0.89406 0.06367 1.99448 0.32528 2.79719 0.86843 0.9349 0.63263 1.3083 1.27273 1.4895 1.91824 0.0506 0.18035 0.0928 0.39746 0.1247 0.56143l0.0001 0.00007 0 0.00002 0 0.00003 0 0.00002 0 0.00005 0 0.00015c0.0132 0.06759 0.0245 0.12614 0.034 0.16932 0.0416 0.18925 0.086 0.32181 0.1586 0.4429 0.0117 0.01941 0.0986 0.11544 0.4691 0.14381 0.1588 0.01216 0.3251 0.00795 0.484 -0.0014 0.0351 -0.00206 0.0793 -0.00522 0.127 -0.00863l0.0001 -0.00001c0.1098 -0.00785 0.2379 -0.017 0.3135 -0.017 0.4142 0 0.75 0.33579 0.75 0.75s-0.3358 0.75 -0.75 0.75c0.0002 0 -0.0022 0 -0.0081 0.0002l-0.0235 0.00108c-0.0207 0.00112 -0.0461 0.00282 -0.0789 0.00516l-0.042 0.00305 -0.0001 0 0 0.00001c-0.0567 0.00414 -0.1265 0.00923 -0.1999 0.01355 -0.1873 0.01102 -0.4302 0.01924 -0.6866 -0.00039 -0.4601 -0.03523 -1.228 -0.17966 -1.6408 -0.86775 -0.1919 -0.31988 -0.2799 -0.63092 -0.3374 -0.89253 -0.0271 -0.12322 -0.045 -0.21781 -0.0608 -0.30114l0 -0.00005c-0.023 -0.12149 -0.0414 -0.21909 -0.0772 -0.34669 -0.0603 -0.21459 -0.15841 -0.45728 -0.45848 -0.74318 -0.16735 0.20373 -0.38099 0.46102 -0.62517 0.74886 -0.24629 0.29031 -0.52537 0.61373 -0.82065 0.94584 0.15905 0.10297 0.32919 0.22007 0.49828 0.34911 0.29543 0.22545 0.61252 0.50599 0.86167 0.83221 0.24557 0.32153 0.47285 0.75051 0.47285 1.25671 0 0.3263 -0.17 0.5808 -0.26314 0.706 -0.11399 0.1533 -0.2581 0.2994 -0.40146 0.43 -0.28958 0.2638 -0.66094 0.5404 -1.01677 0.7872 -0.71287 0.4943 -1.45501 0.9312 -1.58622 1.0021 -0.36442 0.197 -0.81946 0.0612 -1.01637 -0.3032 -0.19691 -0.3645 -0.06113 -0.8195 0.30329 -1.0164l0.00095 -0.0005 0.00296 -0.0017 0.01039 -0.0058 0.03417 -0.0195c0.02805 -0.0162 0.06486 -0.0377 0.1093 -0.0641 0.08883 -0.0526 0.20605 -0.1232 0.34165 -0.207 0.27197 -0.1681 0.61299 -0.3863 0.94515 -0.6166 0.33659 -0.2334 0.6446 -0.4659 0.86128 -0.6633 0.06281 -0.0572 0.11121 -0.1055 0.14722 -0.1445 -0.0233 -0.0581 -0.06491 -0.1341 -0.13734 -0.229 -0.13671 -0.179 -0.33938 -0.36688 -0.57957 -0.55018 -0.22073 -0.16844 -0.43579 -0.30743 -0.62434 -0.42074 -0.08937 0.09224 -0.17853 0.18292 -0.26709 0.27147 -0.73097 0.73085 -1.77145 1.71405 -2.65626 2.54865l-0.13833 0.1304 -0.00003 0 -0.00008 0.0001c-0.39005 0.3679 -0.74402 0.7017 -1.02354 0.9686 -0.15619 0.1491 -0.28668 0.275 -0.38592 0.3729 -0.04966 0.049 -0.08964 0.0892 -0.12014 0.1206 -0.01518 0.0156 -0.02696 0.028 -0.03573 0.0375 -0.00788 0.0085 -0.01153 0.0126 -0.01211 0.0133l-0.00003 0c-0.26841 0.3155 -0.74174 0.3537 -1.05723 0.0853 -0.31548 -0.2684 -0.35364 -0.7418 -0.08523 -1.0573 0.1034 -0.1215 0.36188 -0.3721 0.6605 -0.6572 0.28314 -0.2703 0.6408 -0.6076 1.0299 -0.9746l0.00005 0 0.13872 -0.1309c0.88942 -0.8388 1.91253 -1.80583 2.62487 -2.51808 0.17765 -0.17762 0.35882 -0.36539 0.53985 -0.55797 0.05327 -0.08587 0.1211 -0.15725 0.19832 -0.21291 0.46485 -0.50344 0.91987 -1.02602 1.30237 -1.47689 0.1609 -0.18967 0.30822 -0.36575 0.43716 -0.52125 -0.36949 -0.11038 -0.77283 -0.18229 -1.15871 -0.20977 -0.36647 -0.02609 -0.66944 -0.00829 -0.8688 0.03281Zm2.29607 4.83906c0.0008 -0.0015 0.00107 -0.0022 0.00089 -0.0021 -0.00043 0.0001 -0.00352 0.0046 -0.00798 0.0132 0.00366 -0.0053 0.00594 -0.009 0.00709 -0.0111Z" clip-rule="evenodd" stroke-width="1"></path>
  </g>
</svg>