<svg xmlns="http://www.w3.org/2000/svg" fill="none" viewBox="0 0 14 14" id="Stadium--Streamline-Flex">
  <desc>
    Stadium Streamline Icon: https://streamlinehq.com
  </desc>
  <g id="stadium--stadium-sports-ball-field-games">
    <path id="Union" fill="#7fb0f2" fill-rule="evenodd" d="M0.999023 6.16895c0 -0.27615 -0.223857 -0.5 -0.5 -0.5 -0.276142 0 -0.499999562 0.22385 -0.499999562 0.5v5.33345c0 0.4033 0.188538562 0.7499 0.457588562 1.0265 0.265726 0.2731 0.630458 0.5015 1.053328 0.6914 0.84713 0.3804 2.02657 0.6502 3.42212 0.7761 0.13986 0.0127 0.27857 -0.0341 0.38223 -0.1288 0.10366 -0.0948 0.16271 -0.2287 0.16271 -0.3691v-1.1581c0 -0.8284 0.67157 -1.5 1.5 -1.5h0.04598c0.82843 0 1.5 0.6716 1.5 1.5v1.1581c0 0.1404 0.05905 0.2743 0.16271 0.3691 0.10366 0.0947 0.24238 0.1415 0.38223 0.1288 1.39558 -0.1259 2.57498 -0.3957 3.42208 -0.7761 0.4229 -0.1899 0.7876 -0.4183 1.0534 -0.6914 0.269 -0.2766 0.4576 -0.6232 0.4576 -1.0265V6.16895c0 -0.27615 -0.2239 -0.5 -0.5 -0.5 -0.2762 0 -0.5 0.22385 -0.5 0.5H0.999023Z" clip-rule="evenodd" stroke-width="1"></path>
    <path id="Union_2" fill="#7fb0f2" fill-rule="evenodd" d="M6.76318 0.16291C7.46161 -0.0577105 8.1571 -0.0693957 8.9069 0.240138c0.38288 0.158056 0.56513 0.596565 0.40707 0.979442 -0.15806 0.38287 -0.59656 0.56512 -0.97944 0.40706 -0.31765 -0.13113 -0.59669 -0.15527 -0.90948 -0.08924v2.76336c0 0.41421 -0.33579 0.75 -0.75 0.75s-0.75 -0.33579 -0.75 -0.75V1.32761c0 -0.48882 0.29585 -0.993403 0.83813 -1.1647ZM2.53603 0.969742c0.69848 -0.22061 1.39394 -0.232203 2.1437 0.077308 0.38287 0.15806 0.56512 0.59657 0.40707 0.97944 -0.15806 0.38287 -0.59657 0.56512 -0.97944 0.40707 -0.31768 -0.13115 -0.59673 -0.15531 -0.90948 -0.08931v2.29426c0 0.41422 -0.33579 0.75 -0.75 0.75 -0.41422 0 -0.75 -0.33578 -0.75 -0.75V2.13444c0 -0.48881 0.29584 -0.99341 0.83815 -1.164698ZM12.2033 2.43356c-0.3177 -0.13114 -0.5965 -0.1553 -0.909 -0.08933v2.32419c0 0.41421 -0.3358 0.75 -0.75 0.75s-0.75 -0.33579 -0.75 -0.75V2.13444c0 -0.48881 0.2958 -0.99339 0.8381 -1.164696 0.6984 -0.220625 1.3936 -0.232191 2.1433 0.077306 0.3829 0.15806 0.5651 0.59657 0.4071 0.97944 -0.1581 0.38287 -0.5966 0.56512 -0.9795 0.40707Z" clip-rule="evenodd" stroke-width="1"></path>
    <path id="Union_3" fill="#3c6de3" fill-rule="evenodd" d="M7 3.88672c2.09776 0 3.7789 0.17392 4.9522 0.52195 0.5851 0.17356 1.0805 0.40083 1.4386 0.70126 0.3692 0.30979 0.6092 0.71515 0.6092 1.20488s-0.24 0.8951 -0.6092 1.20488c-0.3581 0.30044 -0.8535 0.5277 -1.4386 0.70126 -1.1733 0.34803 -2.85444 0.52195 -4.9522 0.52195 -2.09776 0 -3.77891 -0.17392 -4.95219 -0.52195 -0.58512 -0.17356 -1.080497 -0.40082 -1.438565 -0.70126C0.240026 7.20991 0 6.80454 0 6.31481s0.240026 -0.89509 0.609245 -1.20488c0.358068 -0.30043 0.853445 -0.5277 1.438565 -0.70126C3.22109 4.06064 4.90224 3.88672 7 3.88672Z" clip-rule="evenodd" stroke-width="1"></path>
  </g>
</svg>