<svg xmlns="http://www.w3.org/2000/svg" fill="none" viewBox="0 0 14 14">
  <g id="surfing--sports-surfing-sea-outdoor-beach-water">
    <path id="Union" fill="#7fb0f2" fill-rule="evenodd" d="M8.64549 0.041782c0.37218 -0.0997243 0.76831 -0.0170314 1.1553 0.206396 0.38701 0.223427 0.65671 0.52514 0.75641 0.897312 0.0997 0.37218 0.017 0.76831 -0.2064 1.1553 -0.2234 0.38698 -0.52516 0.65666 -0.89733 0.75639 -0.37218 0.09972 -0.76831 0.01703 -1.1553 -0.2064 -0.38698 -0.22342 -0.65666 -0.52514 -0.75639 -0.89731 -0.09972 -0.37218 -0.01703 -0.76831 0.2064 -1.155297 0.22342 -0.386987 0.52514 -0.656667 0.89731 -0.756391ZM3.65434 3.67681c0.83003 -1.09849 2.56415 -1.23642 4.23631 -0.35633 0.15715 0.08271 0.35875 0.22745 0.531 0.35111l0.00003 0.00003c0.03356 0.02409 0.06601 0.04738 0.09679 0.06926 0.22183 0.15766 0.45914 0.3198 0.70931 0.45569 0.52891 0.2873 0.93952 0.36198 1.25762 0.22805 0.3817 -0.16073 0.8215 0.01844 0.9823 0.40019 0.1607 0.38176 -0.0185 0.82154 -0.4002 0.98227 -0.9705 0.4086 -1.9186 0.05365 -2.5557 -0.29242 -0.33176 -0.18021 -0.62842 -0.38494 -0.86003 -0.54951l-0.59313 0.51644c0.76085 0.48152 1.51401 1.18323 1.92179 1.86717 0.43185 0.72432 0.42048 1.39535 0.41379 1.79059 -0.00076 0.04438 -0.00145 0.08529 -0.00145 0.1224 0 0.41421 -0.33579 0.74995 -0.75 0.74995s-0.75 -0.33574 -0.75 -0.74995c0 -0.04905 0.00032 -0.09612 0.00062 -0.14155 0.00261 -0.39013 0.00441 -0.65819 -0.20134 -1.00329 -0.25469 -0.42716 -0.79596 -0.95096 -1.37385 -1.32837 0.01686 0.50276 0.07887 0.94042 0.27818 1.40424 0.16354 0.38056 -0.01239 0.82164 -0.39295 0.98518 -0.38056 0.16354 -0.82165 -0.01239 -0.98519 -0.39295 -0.4008 -0.93269 -0.40958 -1.78487 -0.40515 -2.547 0.00294 -0.50428 0.22252 -0.98387 0.60328 -1.3154l0.7423 -0.64633c-0.7266 -0.12626 -1.16803 0.12016 -1.30756 0.30482 -0.24971 0.33048 -0.72005 0.39595 -1.05053 0.14624 -0.33048 -0.24971 -0.39595 -0.72005 -0.14624 -1.05053Z" clip-rule="evenodd" stroke-width="1"></path>
    <path id="Union_2" fill="#3c6de3" fill-rule="evenodd" d="M9.24854 9.45053c0.3656 0.14666 0.70201 0.29594 0.97676 0.43838 -0.1447 -0.01692 -0.29387 -0.02563 -0.44752 -0.02563 -0.71971 0 -1.34114 0.19102 -1.86965 0.52262 -0.34118 0.2141 -0.63145 0.489 -0.90813 0.779 -0.27668 -0.29 -0.56695 -0.5646 -0.90813 -0.7787 -0.52851 -0.3316 -1.14994 -0.52266 -1.86965 -0.52266 -0.7197 0 -1.34113 0.19106 -1.86965 0.52266 -0.19564 0.1228 -0.37162 0.2662 -0.53887 0.4197 -0.28806 -0.3084 -0.53572 -0.6615 -0.66946 -1.0129 -0.10432 -0.2741 -0.165846 -0.61919 -0.03186 -0.95145 0.1434 -0.35561 0.45641 -0.56774 0.8285 -0.66715 0.65108 -0.17394 1.473 -0.16211 2.31322 -0.06028 0.85111 0.10315 1.76858 0.30499 2.6344 0.54544 0.86672 0.2407 1.6918 0.52292 2.36004 0.79097ZM4.22222 11.1133c-0.48669 0 -0.87752 0.1258 -1.20524 0.3314 -0.28056 0.1761 -0.49711 0.4033 -0.64654 0.5602l-0.0319 0.0334c-0.1693 0.1769 -0.27386 0.277 -0.3948 0.3475 -0.10228 0.0597 -0.24678 0.1146 -0.4993 0.1146H0.75c-0.414214 0 -0.75 0.3358 -0.75 0.75s0.335786 0.75 0.75 0.75h0.69444c0.50397 0 0.9115 -0.1185 1.25509 -0.3189 0.32291 -0.1883 0.55716 -0.4331 0.71964 -0.6029l0.00305 -0.0032c0.18208 -0.1902 0.2787 -0.289 0.392 -0.3601 0.0868 -0.0544 0.20094 -0.102 0.408 -0.102 0.20707 0 0.32121 0.0476 0.408 0.102 0.1133 0.0711 0.20993 0.1699 0.392 0.3601l0.00305 0.0032c0.16248 0.1698 0.39674 0.4146 0.71964 0.6029 0.34359 0.2004 0.75113 0.3189 1.25509 0.3189 0.50396 0 0.9115 -0.1185 1.25509 -0.3189 0.3229 -0.1883 0.55715 -0.4331 0.71963 -0.6029l0.00001 0 0.00305 -0.0032c0.18207 -0.1902 0.2787 -0.289 0.392 -0.3601 0.08679 -0.0544 0.20093 -0.102 0.408 -0.102 0.20706 0 0.32122 0.0476 0.40802 0.102 0.1133 0.0711 0.2099 0.1699 0.392 0.3601l0.003 0.0032c0.1625 0.1698 0.3968 0.4146 0.7197 0.6029 0.3436 0.2004 0.7511 0.3189 1.2551 0.3189h0.6944c0.4142 0 0.75 -0.3358 0.75 -0.75s-0.3358 -0.75 -0.75 -0.75h-0.6944c-0.2526 0 -0.3971 -0.0549 -0.4993 -0.1146 -0.121 -0.0705 -0.2255 -0.1706 -0.3948 -0.3475l-0.0319 -0.0334c-0.1495 -0.1569 -0.366 -0.3841 -0.6466 -0.5602 -0.3277 -0.2056 -0.7185 -0.3314 -1.20522 -0.3314 -0.48669 0 -0.87753 0.1258 -1.20525 0.3314 -0.28056 0.1761 -0.4971 0.4033 -0.64654 0.5602l-0.0319 0.0334c-0.16929 0.1769 -0.27385 0.277 -0.3948 0.3475 -0.10228 0.0597 -0.24677 0.1146 -0.49929 0.1146s-0.39701 -0.0549 -0.49929 -0.1146c-0.12095 -0.0705 -0.22551 -0.1706 -0.3948 -0.3475l-0.0319 -0.0334c-0.14944 -0.1569 -0.36598 -0.3841 -0.64654 -0.5602 -0.32772 -0.2056 -0.71856 -0.3314 -1.20525 -0.3314Z" clip-rule="evenodd" stroke-width="1"></path>
  </g>
</svg>