<svg xmlns="http://www.w3.org/2000/svg" fill="none" viewBox="0 0 14 14" id="Swimming--Streamline-Flex">
  <desc>
    Swimming Streamline Icon: https://streamlinehq.com
  </desc>
  <g id="swimming--swimming-sports-pool-water">
    <path id="Union" fill="#7fb0f2" fill-rule="evenodd" d="M4.11111 8.40332c-0.4435 0 -0.79114 0.10163 -1.08445 0.267 -0.26081 0.14705 -0.46442 0.33879 -0.62269 0.48782l-0.03061 0.0288c-0.17376 0.16315 -0.30625 0.28092 -0.47098 0.36726 -0.15474 0.08111 -0.36119 0.1454 -0.68016 0.1454H0.5c-0.276142 0 -0.5 0.22386 -0.5 0.5v3.3c0 0.2761 0.223858 0.5 0.5 0.5h13c0.2761 0 0.5 -0.2239 0.5 -0.5v-3.3c0 -0.27614 -0.2239 -0.5 -0.5 -0.5h-0.7222c-0.319 0 -0.5254 -0.06429 -0.6802 -0.1454 -0.1647 -0.08634 -0.2972 -0.20411 -0.471 -0.36726l-0.0306 -0.0288c-0.1582 -0.14904 -0.3618 -0.34077 -0.6227 -0.48782 -0.2933 -0.16537 -0.6409 -0.267 -1.08441 -0.267 -0.4435 0 -0.79115 0.10163 -1.08445 0.267 -0.26082 0.14705 -0.46442 0.33878 -0.62269 0.48782l-0.03062 0.02881c-0.17376 0.16314 -0.30624 0.28091 -0.47097 0.36725 -0.15474 0.08111 -0.3612 0.1454 -0.68016 0.1454 -0.31896 0 -0.52542 -0.06429 -0.68016 -0.1454 -0.16473 -0.08634 -0.29721 -0.20411 -0.47097 -0.36725l-0.03062 -0.02881c-0.15826 -0.14903 -0.36187 -0.34077 -0.62269 -0.48782 -0.2933 -0.16537 -0.64095 -0.267 -1.08445 -0.267Z" clip-rule="evenodd" stroke-width="1"></path>
    <path id="Intersect" fill="#3c6de3" fill-rule="evenodd" d="M14 11.6342h-1.2222c-0.3004 0 -0.4867 -0.0601 -0.6221 -0.1311 -0.148 -0.0775 -0.2694 -0.1842 -0.4435 -0.3477l-0.0318 -0.0299c-0.1572 -0.1482 -0.3711 -0.3497 -0.6457 -0.5045 -0.3127 -0.1763 -0.6816 -0.2831 -1.14581 -0.2831 -0.4642 0 -0.83311 0.1068 -1.14585 0.2831 -0.2746 0.1548 -0.48842 0.3563 -0.6457 0.5045l-0.03178 0.0299c-0.17405 0.1635 -0.2955 0.2702 -0.44344 0.3477 -0.13546 0.071 -0.32176 0.1311 -0.62212 0.1311s-0.48666 -0.0601 -0.62212 -0.1311c-0.14794 -0.0775 -0.26939 -0.1842 -0.44344 -0.3477l-0.03178 -0.0299 -0.00001 0c-0.15727 -0.1482 -0.3711 -0.3497 -0.64569 -0.5045 -0.31274 -0.1763 -0.68165 -0.2831 -1.14585 -0.2831 -0.46419 0 -0.8331 0.1068 -1.14585 0.2831 -0.27459 0.1548 -0.48842 0.3563 -0.6457 0.5045l-0.03177 0.0299c-0.17406 0.1635 -0.2955 0.2702 -0.44345 0.3477 -0.13546 0.071 -0.32176 0.1311 -0.62212 0.1311H0v1.25h1.22222c0.48639 0 0.87419 -0.1019 1.20244 -0.274 0.31577 -0.1655 0.54764 -0.3828 0.71875 -0.5435 0.18535 -0.174 0.29825 -0.2793 0.43578 -0.3568 0.11835 -0.0668 0.27461 -0.122 0.53192 -0.122 0.25731 0 0.41357 0.0552 0.53192 0.122 0.13753 0.0775 0.25044 0.1828 0.43579 0.3568 0.1711 0.1607 0.40297 0.378 0.71874 0.5435 0.32825 0.1721 0.71606 0.274 1.20244 0.274 0.48638 0 0.87419 -0.1019 1.20244 -0.274 0.31577 -0.1655 0.54764 -0.3828 0.71874 -0.5435 0.18535 -0.174 0.29826 -0.2793 0.43579 -0.3568 0.11835 -0.0668 0.27461 -0.122 0.53192 -0.122 0.25731 0 0.41361 0.0552 0.53191 0.122 0.1375 0.0775 0.2504 0.1828 0.4358 0.3568 0.1711 0.1607 0.403 0.378 0.7187 0.5435 0.3283 0.1721 0.7161 0.274 1.2025 0.274H14v-1.25Z" clip-rule="evenodd" stroke-width="1"></path>
    <path id="Union_2" fill="#3c6de3" fill-rule="evenodd" d="M8.17185 7.52807c-0.00076 -0.05964 -0.02282 -0.11705 -0.0622 -0.16186l-0.00002 -0.00002 -0.0003 -0.00035 -0.00145 -0.00166 -0.00616 -0.00707 -0.02451 -0.02846c-0.02146 -0.02506 -0.05269 -0.06191 -0.09122 -0.10839 -0.07713 -0.09305 -0.1831 -0.22421 -0.29818 -0.37631 -0.23358 -0.3087 -0.49186 -0.687 -0.63068 -1.004 -0.09596 -0.21914 -0.20807 -0.62525 -0.25878 -1.02892 -0.02519 -0.20047 -0.034 -0.39103 -0.02103 -0.55095 0.01348 -0.16624 0.04827 -0.26938 0.08468 -0.3211 0.05537 -0.07867 0.18741 -0.21118 0.37689 -0.37798 0.18323 -0.1613 0.40213 -0.33925 0.61407 -0.50584 0.21154 -0.16627 0.41412 -0.31965 0.56396 -0.43155 0.07487 -0.05592 0.13644 -0.10138 0.17922 -0.13282l0.04937 -0.03616 0.01281 -0.00933 0.00321 -0.00233 0.00078 -0.00057 0.00018 -0.00013 0.00003 -0.00002c0.00468 -0.0034 0.00924 -0.00695 0.01367 -0.01066 0.58285 -0.48782 0.65989 -1.35578 0.17207 -1.93863 -0.48782 -0.5828539 -1.35578 -0.659891 -1.93863 -0.172068L5.05145 1.8761c-0.80765 0.67597 -1.22797 1.70815 -1.1223 2.75604l0.12032 1.19314 -2.4343 1.83445c-0.06268 0.04723 -0.09955 0.12116 -0.09955 0.19965v0.4505l0.00168 -0.00157 0.00045 -0.00043 0.02927 -0.02753 0.00044 -0.00041 0.0168 -0.01585 0.00001 0 0.00001 -0.00001c0.15654 -0.14764 0.45344 -0.42767 0.84848 -0.65039 0.48773 -0.27499 1.04802 -0.42814 1.69835 -0.42814 0.65033 0 1.21062 0.15315 1.69836 0.42814 0.39504 0.22272 0.69194 0.50276 0.84848 0.6504l0.01681 0.01585 0.00042 0.00039 0.00002 0.00002 0.02927 0.02753c0.08565 0.08042 0.13175 0.12159 0.16636 0.14942 0.01022 0.00821 0.0176 0.01374 0.02262 0.01732 0.01419 0.00259 0.04766 0.00721 0.10655 0.00721 0.05889 0 0.09236 -0.00462 0.10655 -0.00721 0.00502 -0.00358 0.0124 -0.00911 0.02262 -0.01732 0.03455 -0.02778 0.08056 -0.06887 0.16594 -0.14902l0.00042 -0.00039 0.02927 -0.02755 0.00044 -0.00041 0.01682 -0.01585c0.15422 -0.14546 0.44469 -0.41942 0.83101 -0.64048l-0.00122 -0.09553Zm2.37555 -4.29965c0.545 0 1.0539 0.25811 1.4969 0.70109 0.443 0.44298 0.7011 0.95191 0.7011 1.49695s-0.2581 1.05397 -0.7011 1.49695c-0.443 0.44298 -0.9519 0.70109 -1.4969 0.70109 -0.5451 0 -1.05401 -0.25811 -1.49699 -0.70109 -0.44297 -0.44298 -0.70109 -0.95191 -0.70109 -1.49695s0.25812 -1.05397 0.70109 -1.49695c0.44298 -0.44298 0.95189 -0.70109 1.49699 -0.70109Z" clip-rule="evenodd" stroke-width="1"></path>
  </g>
</svg>