<svg xmlns="http://www.w3.org/2000/svg" fill="none" viewBox="0 0 14 14" id="Tennis--Streamline-Flex">
  <desc>
    Tennis Streamline Icon: https://streamlinehq.com
  </desc>
  <g id="tennis--tennis-sports-ball-racket">
    <path id="Union" fill="#7fb0f2" fill-rule="evenodd" d="M1.83645 1.83645C3.06046 0.612432 4.82797 0 7 0s3.9395 0.612432 5.1636 1.83645C13.3876 3.06046 14 4.82797 14 7s-0.6124 3.9395 -1.8364 5.1636C10.9395 13.3876 9.17203 14 7 14s-3.93954 -0.6124 -5.16355 -1.8364C0.612432 10.9395 0 9.17203 0 7s0.612432 -3.93954 1.83645 -5.16355Z" clip-rule="evenodd" stroke-width="1"></path>
    <path id="Intersect" fill="#3c6de3" fill-rule="evenodd" d="M3.6267 13.3699c-0.38844 -0.1689 -0.74997 -0.3717 -1.08275 -0.6083 0.00482 -0.0115 0.01001 -0.0229 0.01558 -0.0342 0.85412 -1.7356 1.31537 -3.70342 1.31537 -5.72723 0 -2.02363 -0.46117 -3.99123 -1.31513 -5.72677 -0.0056 -0.01136 -0.01081 -0.02281 -0.01565 -0.03434 0.33279 -0.23663 0.69431 -0.439363 1.08275 -0.608199 0.02035 0.028176 0.03861 0.058436 0.05447 0.090668C4.62112 2.63145 5.1249 4.78819 5.1249 7.00017c0 2.21217 -0.50388 4.36913 -1.44381 6.27913 -0.01584 0.0322 -0.03408 0.0624 -0.05439 0.0906Zm7.8292 -0.6083c-0.3327 0.2367 -0.6943 0.4394 -1.0827 0.6083 -0.0203 -0.0282 -0.0386 -0.0584 -0.0544 -0.0906 -0.93993 -1.91 -1.44381 -4.06696 -1.44381 -6.27913 0 -2.21198 0.50379 -4.36872 1.44351 -6.27864 0.0159 -0.032234 0.0342 -0.062493 0.0545 -0.090671 0.3885 0.168835 0.75 0.371571 1.0828 0.608201 -0.0049 0.01152 -0.0101 0.02298 -0.0157 0.03434 -0.8539 1.73554 -1.3151 3.70314 -1.3151 5.72677 0 2.02381 0.4612 3.99163 1.3154 5.72723 0.0055 0.0113 0.0107 0.0227 0.0155 0.0342Z" clip-rule="evenodd" stroke-width="1"></path>
  </g>
</svg>