<svg width="40" height="40" viewBox="0 0 40 40" fill="none" xmlns="http://www.w3.org/2000/svg">
<g opacity="0.5">
<path d="M35.3092 11.1621L11.1611 4.69162C9.49638 4.24556 7.77983 5.23662 7.33377 6.90133L2.48091 25.0124C2.03485 26.6772 3.02591 28.3937 4.69062 28.8398L28.8388 35.3102C30.5035 35.7563 32.22 34.7652 32.6661 33.1005L37.519 14.9894C37.965 13.3247 36.974 11.6082 35.3092 11.1621ZM13.721 10.2304C14.3215 10.3913 14.8334 10.7841 15.1442 11.3224C15.455 11.8607 15.5392 12.5005 15.3783 13.1009C15.2174 13.7013 14.8246 14.2132 14.2863 14.524C13.748 14.8348 13.1082 14.9191 12.5078 14.7582C11.9074 14.5973 11.3955 14.2045 11.0847 13.6662C10.7739 13.1279 10.6897 12.4881 10.8505 11.8877C11.0114 11.2873 11.4042 10.7754 11.9425 10.4646C12.4809 10.1538 13.1206 10.0695 13.721 10.2304ZM17.9779 27.5472L7.41309 24.7164L15.4722 18.7877L16.9272 22.4128L23.0726 17.589L28.5427 30.3781L17.9779 27.5472Z" fill="#14A892"/>
<path d="M13.721 10.2304C14.3215 10.3913 14.8334 10.7841 15.1442 11.3224C15.455 11.8607 15.5392 12.5005 15.3783 13.1009C15.2174 13.7013 14.8246 14.2132 14.2863 14.524C13.748 14.8348 13.1082 14.9191 12.5078 14.7582C11.9074 14.5973 11.3955 14.2045 11.0847 13.6662C10.7739 13.1279 10.6897 12.4881 10.8505 11.8877C11.0114 11.2873 11.4042 10.7754 11.9425 10.4646C12.4809 10.1538 13.1206 10.0695 13.721 10.2304Z" fill="white"/>
<path d="M17.9779 27.5472L7.41309 24.7164L15.4722 18.7877L16.9272 22.4128L23.0726 17.589L28.5427 30.3781L17.9779 27.5472Z" fill="white"/>
</g>
<path d="M32.5 7.5H7.5C5.77656 7.5 4.375 8.90156 4.375 10.625V29.375C4.375 31.0984 5.77656 32.5 7.5 32.5H32.5C34.2234 32.5 35.625 31.0984 35.625 29.375V10.625C35.625 8.90156 34.2234 7.5 32.5 7.5ZM11.4062 12.1875C12.0279 12.1875 12.624 12.4344 13.0635 12.874C13.5031 13.3135 13.75 13.9096 13.75 14.5312C13.75 15.1529 13.5031 15.749 13.0635 16.1885C12.624 16.6281 12.0279 16.875 11.4062 16.875C10.7846 16.875 10.1885 16.6281 9.74897 16.1885C9.30943 15.749 9.0625 15.1529 9.0625 14.5312C9.0625 13.9096 9.30943 13.3135 9.74897 12.874C10.1885 12.4344 10.7846 12.1875 11.4062 12.1875ZM20 27.8125H9.0625L15.3125 20L17.6562 23.125L22.3438 16.875L30.9375 27.8125H20Z" fill="#14A892"/>
<path d="M11.4062 12.1875C12.0279 12.1875 12.624 12.4344 13.0635 12.874C13.5031 13.3135 13.75 13.9096 13.75 14.5312C13.75 15.1529 13.5031 15.749 13.0635 16.1885C12.624 16.6281 12.0279 16.875 11.4062 16.875C10.7846 16.875 10.1885 16.6281 9.74897 16.1885C9.30943 15.749 9.0625 15.1529 9.0625 14.5312C9.0625 13.9096 9.30943 13.3135 9.74897 12.874C10.1885 12.4344 10.7846 12.1875 11.4062 12.1875Z" fill="white"/>
<path d="M20 27.8125H9.0625L15.3125 20L17.6562 23.125L22.3438 16.875L30.9375 27.8125H20Z" fill="white"/>
</svg>
