<svg xmlns="http://www.w3.org/2000/svg" fill="none" viewBox="0 0 14 14" id="User-Circle-Single--Streamline-Flex">
  <desc>
    User Circle Single Streamline Icon: https://streamlinehq.com
  </desc>
  <g id="user-circle-single--circle-geometric-human-person-single-user">
    <path id="Vector" fill="#7fb0f2" d="M7 14c4.48 0 7 -2.52 7 -7s-2.52 -7 -7 -7 -7 2.52 -7 7 2.52 7 7 7Z" stroke-width="1"></path>
    <path id="Union" fill="#3c6de3" fill-rule="evenodd" d="M9.35583 5.26879c0 1.5077 -0.84808 2.35577 -2.35577 2.35577 -1.5077 0 -2.35577 -0.84807 -2.35577 -2.35577 0 -1.50769 0.84807 -2.35577 2.35577 -2.35577 1.50769 0 2.35577 0.84808 2.35577 2.35577ZM7 14c1.85809 0 3.379 -0.4335 4.5228 -1.2605 -0.2798 -0.8666 -0.8042 -1.6385 -1.5151 -2.2195 -0.8489 -0.69388 -1.91161 -1.07293 -3.00803 -1.07293 -1.09642 0 -2.15913 0.37905 -3.00806 1.07293 -0.71077 0.5809 -1.23509 1.3527 -1.51498 2.2191C3.62051 13.5664 5.14162 14 7 14Z" clip-rule="evenodd" stroke-width="1"></path>
  </g>
</svg>