<svg xmlns="http://www.w3.org/2000/svg" fill="none" viewBox="0 0 14 14">
  <g id="volleyball--sports-volleyball-team-net-ball">
    <path id="Union" fill="#7fb0f2" fill-rule="evenodd" d="M7.0003 0C4.86215 0 3.08582 0.603675 1.84475 1.84475 0.603675 3.08582 0 4.86215 0 7.0003c0 2.13814 0.603675 3.9145 1.84475 5.1555 1.24107 1.2411 3.0174 1.8448 5.15555 1.8448 2.13814 0 3.9145 -0.6037 5.1555 -1.8448 1.2411 -1.241 1.8448 -3.01736 1.8448 -5.1555 0 -2.13815 -0.6037 -3.91448 -1.8448 -5.15555C10.9148 0.603675 9.13844 0 7.0003 0Z" clip-rule="evenodd" stroke-width="1"></path>
    <path id="Intersect" fill="#3c6de3" fill-rule="evenodd" d="M7.66541 0.0202423C7.44786 0.00673418 7.22607 0 7.00024 0c-0.20029 0 -0.39741 0.00529755 -0.59121 0.0159199 0.22088 2.2182101 0.22162 4.3847401 0.00221 6.6026101L4.46823 7.74032c0.01682 -0.17774 0.03476 -0.37498 0.05271 -0.58501 0.07142 -0.83608 0.14456 -1.89353 0.14456 -2.73213 0 -0.83859 -0.07314 -1.89604 -0.14456 -2.73212 -0.03593 -0.42054 -0.07184 -0.789773 -0.09879 -1.053987 -0.01169 -0.114654 -0.0217 -0.209637 -0.02931 -0.280577 -0.42776 0.129456 -0.83033 0.294454 -1.20532 0.49546 0.02516 0.250334 0.05656 0.578054 0.08795 0.945504 0.07087 0.82954 0.14003 1.84303 0.14003 2.62572 0 0.78269 -0.06916 1.79619 -0.14003 2.62572 -0.03522 0.41227 -0.07045 0.77452 -0.09687 1.03358 -0.0132 0.12948 -0.02419 0.23304 -0.03185 0.30403l-0.00886 0.08118 -0.0023 0.02068 -0.00057 0.00509 -0.00013 0.0012 -0.00003 0.00025 0 0.00003 -0.00001 0.00002 -0.00161 0.01612L0.499512 10.0317c0.149721 0.4004 0.333417 0.7762 0.551518 1.1249l5.96761 -3.44538c0.72591 0.32623 1.43342 0.67473 2.12574 1.04685 -2.153 1.48953 -4.38769 2.76813 -6.77055 3.86383 0.39581 0.3066 0.83363 0.5612 1.30937 0.7647 2.33828 -1.129 4.54072 -2.4366 6.6671 -3.94745 0.8886 0.5266 1.7541 1.09545 2.604 1.70965 0.2202 -0.3532 0.4051 -0.7341 0.5552 -1.1402 -1.8489 -1.31973 -3.77455 -2.43631 -5.84366 -3.37661 0.06602 -0.68894 0.11154 -1.37346 0.13654 -2.05631C9.9062 5.59453 11.8894 6.77311 13.8067 8.13464c0.0399 0.02831 0.0819 0.05129 0.1253 0.06907 0.0458 -0.38665 0.0685 -0.78821 0.0685 -1.20341 0 -0.08643 -0.001 -0.17226 -0.0029 -0.25749 -1.9664 -1.35419 -4.00628 -2.52723 -6.17259 -3.54073 -0.00392 -1.0568 -0.05712 -2.11401 -0.1596 -3.1818377Z" clip-rule="evenodd" stroke-width="1"></path>
  </g>
</svg>