<svg xmlns="http://www.w3.org/2000/svg" fill="none" viewBox="0 0 14 14">
  <g id="walking-steps--sports-walking-steps-running-sprint">
    <path id="Union" fill="#7fb0f2" d="M4.71828 0.0559151c-0.14847 -0.0772725 -0.32611 -0.0771508 -0.47447 0.0003251C3.44171 0.475106 2.64866 1.33637 1.99191 2.23599 1.32476 3.14986 0.749537 4.17148 0.400746 4.98528 0.0619082 5.77585 0.329908 6.60647 0.85023 7.17214 2.7816 9.27182 4.73898 11.35 6.8743 13.291c0.47539 0.4321 1.09135 0.6569 1.71541 0.6774l0.07799 0.0026c1.15776 0.0382 2.023 0.0668 3.3 -0.0896 0.0271 -0.0033 0.0538 -0.0088 0.08 -0.0163 0.9501 -0.274 1.5626 -0.9508 1.6813 -1.8154 0.1149 -0.837 -0.2452 -1.7478 -0.9955 -2.52834L10.389 6.89888c-0.0568 -0.74225 -0.1745 -1.73203 -0.3743 -2.5889 -0.10716 -0.45949 -0.24359 -0.90598 -0.41973 -1.26085 -0.1587 -0.31974 -0.42453 -0.72065 -0.87065 -0.82548 -0.34903 -0.08201 -0.70049 0.001 -0.9767 0.09615 -0.25549 0.08801 -0.51852 0.21347 -0.74435 0.32118l-0.07221 0.0344c-0.26117 0.12409 -0.45957 0.21275 -0.61662 0.2525 -0.05104 0.01292 -0.08377 0.01717 -0.10291 0.01828 -0.06249 -0.07107 -0.11067 -0.21534 -0.09549 -0.50598 0.00776 -0.14882 0.02998 -0.30086 0.05384 -0.45656l0.00536 -0.0348c0.02011 -0.13007 0.04537 -0.29342 0.04537 -0.42493 0 -0.17573 -0.06815 -0.3197 -0.12732 -0.41516 -0.06176 -0.09965 -0.13928 -0.187314 -0.21316 -0.260371 -0.14782 -0.146175 -0.33128 -0.28263 -0.49567 -0.393855C5.21657 0.34091 5.05095 0.24189 4.92869 0.171895 4.86715 0.136661 4.81562 0.10823 4.77905 0.0883772L4.7358 0.0651443 4.72361 0.0587007 4.72006 0.0568408 4.71828 0.0559151Z" stroke-width="1"></path>
    <path id="Intersect (Stroke)" fill="#3c6de3" d="M2.97122 5.16418c0.74958 0.09386 1.43549 0.4304 2.13378 1.0503 2.33525 2.07312 4.81936 4.40292 6.8258 6.74622l0.004 0.0047 0.1067 0.1279c0.1182 0.1415 0.1489 0.3367 0.0798 0.5076 -0.069 0.171 -0.2266 0.2901 -0.4099 0.3099 -1.0523 0.1136 -2.09599 0.0914 -3.11333 0.0579 -0.72684 -0.0021 -1.26008 -0.2608 -1.71609 -0.6753C4.74823 11.3539 2.79212 9.27724 0.861995 7.17899 0.573183 6.86502 0.367177 6.47927 0.291634 6.05928c-0.042296 -0.23514 0.087676 -0.46735 0.310228 -0.55426l0.061879 -0.02416c0.010832 -0.00423 0.021807 -0.00808 0.032907 -0.01155 0.796632 -0.24863 1.540002 -0.39711 2.274572 -0.30513Z" stroke-width="1"></path>
  </g>
</svg>