<svg xmlns="http://www.w3.org/2000/svg" fill="none" viewBox="0 0 14 14" id="Whistle--Streamline-Flex">
  <desc>
    Whistle Streamline Icon: https://streamlinehq.com
  </desc>
  <g id="whistle--sport-payment-whistle-loud-attention">
    <path id="Union" fill="#7fb0f2" fill-rule="evenodd" d="M1.02004 3.64001c-0.27052 0 -0.529961 0.10747 -0.721248 0.29876 -0.191287 0.19128 -0.2987511112 0.45072 -0.2987511112 0.72124v3.1824H0l0.0000817478 0.0064C0.00324053 8.09588 0.0959802 8.33341 0.261069 8.51725c0.163411 0.18198 0.386713 0.29913 0.629145 0.33023l1.468066 0.21589c0.71555 0.10523 1.2976 0.76457 1.63063 1.62553 0.13646 0.3527 0.31183 0.6913 0.52412 1.009 0.56918 0.8518 1.37819 1.5157 2.32471 1.9078 0.94652 0.3921 1.98805 0.4947 2.99287 0.2948 1.00479 -0.1999 1.92779 -0.6932 2.65229 -1.4177 0.7244 -0.7244 1.2177 -1.6474 1.4176 -2.65222 0.1999 -1.00482 0.0973 -2.04634 -0.2948 -2.99287 -0.392 -0.94652 -1.056 -1.75552 -1.9078 -2.32471 -0.8519 -0.56918 -1.85335 -0.87299 -2.87786 -0.87299h-7.8Z" clip-rule="evenodd" stroke-width="1"></path>
    <path id="Union_2" fill="#3c6de3" fill-rule="evenodd" d="M8.81977 7.01001c-0.99964 0 -1.81 0.81036 -1.81 1.81 0 0.99963 0.81036 1.80999 1.81 1.80999 0.99963 0 1.81003 -0.81036 1.81003 -1.80999 0 -0.99964 -0.8104 -1.81 -1.81003 -1.81Z" clip-rule="evenodd" stroke-width="1"></path>
    <path id="Union_3" fill="#3c6de3" fill-rule="evenodd" d="M5.44043 0c0.41421 0 0.75 0.335786 0.75 0.75v1.04c0 0.41421 -0.33579 0.75 -0.75 0.75s-0.75 -0.33579 -0.75 -0.75V0.75c0 -0.414214 0.33579 -0.75 0.75 -0.75Zm3.90994 0.47968c0.29289 0.292893 0.29289 0.76777 0 1.06066l-0.78 0.78c-0.29289 0.29289 -0.76777 0.29289 -1.06066 0s-0.29289 -0.76777 0 -1.06066l0.78 -0.78c0.29289 -0.292894 0.76777 -0.292894 1.06066 0Zm-6.76047 0c-0.29289 -0.292894 -0.76777 -0.292894 -1.06066 0 -0.29289 0.292893 -0.29289 0.76777 0 1.06066l0.78 0.78c0.29289 0.29289 0.76777 0.29289 1.06066 0s0.29289 -0.76777 0 -1.06066l-0.78 -0.78Z" clip-rule="evenodd" stroke-width="1"></path>
  </g>
</svg>