<svg xmlns="http://www.w3.org/2000/svg" fill="none" viewBox="-0.855 -0.855 24 24" id="Backpack--Streamline-Flex" height="24" width="24">
  <desc>
    Backpack Streamline Icon: https://streamlinehq.com
  </desc>
  <g id="backpack--bag-backpack-school-baggage-cloth-clothing-accessories">
    <path id="Subtract" fill="#d7e0ff" d="M4.482566764285714 11.910534128571427c0.006177514285714286 0.013772035714285714 0.009505092857142856 0.02665247142857143 0.009839442857142857 0.03859354285714286 0.30215687142857145 0.13049202857142858 0.6268425642857143 0.21769369285714282 0.9659849142857143 0.25377165 1.7943449999999999 0.19088200714285714 3.649334721428571 0.38115899999999997 5.547758099999999 0.38115899999999997 1.8984074571428573 0 3.7534131 -0.19027699285714286 5.547678492857143 -0.38115899999999997 0.44850664285714287 -0.047700599999999996 0.8716982142857143 -0.18480002142857144 1.2507874285714284 -0.39314783571428574 0.05954614285714286 2.9517054857142857 -0.2932727142857143 6.450853371428572 -1.88651415 8.914535228571427 -1.6435531499999998 0.20888914285714286 -3.4316251071428567 0.3763825714285714 -4.911967692857143 0.3714469285714286 -1.4726366142857141 -0.004935642857142857 -3.257938242857143 -0.1826187857142857 -4.885315221428571 -0.39708042857142856 -1.2117480857142857 -2.6942241428571427 -1.5860608714285713 -6.005785757142856 -1.6382513142857145 -8.788119085714285Z" stroke-width="1.71"></path>
    <path id="Subtract_2" fill="#d7e0ff" fill-rule="evenodd" d="M17.76035357142857 10.643363549999998c0.021016285714285713 0.3760800642857143 0.0367785 0.7661869071428571 0.044739214285714285 1.16632425l-0.0004776428571428571 0.0002706642857142857 0 -0.00019105714285714285c-0.3790892142857143 0.20833189285714285 -0.8022807857142857 0.3454313142857143 -1.2507874285714284 0.39314783571428574 -1.7942653928571426 0.19088200714285714 -3.649271035714286 0.38114307857142854 -5.547678492857143 0.38114307857142854 -1.8984233785714284 0 -3.7534131 -0.1902610714285714 -5.547758099999999 -0.38114307857142854 -0.2858055642857143 -0.030409928571428567 -0.5613577285714285 -0.09713663571428571 -0.8218163785714285 -0.19546737857142857l-0.1535781 -0.09699334285714285c-0.006113828571428571 -0.3259753285714286 -0.007817421428571428 -0.6446745642857142 -0.00590685 -0.9542667428571429 0.017513571428571427 -2.8540752857142855 2.2631196214285714 -5.110476064285714 5.1086610214285715 -5.343326957142857 0.5587943785714286 -0.04572634285714285 1.0575649714285715 -0.07495808571428571 1.41953865 -0.07495808571428571 0.42338262857142855 0 1.03392165 0.03999462857142857 1.708783242857143 0.09960445714285715 2.70455715 0.23886919285714284 4.893912792857142 2.2959336857142856 5.046280864285714 5.005856357142857Z" clip-rule="evenodd" stroke-width="1.71"></path>
    <path id="Subtract_3" fill="#ffffff" d="m4.502181964285714 12.598053257142857 -0.0247419 -0.00006368571428571429c-0.5814983357142857 0 -1.1519790428571428 0.05978496428571428 -1.7077961142857143 0.1299507 -0.7678268142857143 0.09694557857142856 -1.3760715578571427 0.7246160571428572 -1.4503720885714284 1.4947037142857142C1.2532281835714285 14.907169885714284 1.1941071428571428 15.611931921428571 1.1941071428571428 16.331564571428572c0 0.6452954999999999 0.07289785285714286 1.6464349285714286 0.1399859764285714 2.4310429285714283 0.06003970714285714 0.7022942142857143 0.5812865807142857 1.2724405714285714 1.2756837664285714 1.3940802857142858 0.8659187357142856 0.15173121428571426 2.1318792857142856 0.35998349999999996 3.511311857142857 0.5418062142857143 -1.1133695785714284 -2.4753045 -1.5197640428571428 -5.4720039428571425 -1.6189067785714284 -8.100440742857144Z" stroke-width="1.71"></path>
    <path id="Subtract_4" stroke="#4147d5" stroke-linecap="round" stroke-linejoin="round" d="m4.502181964285714 12.598053257142857 -0.0247419 -0.00006368571428571429c-0.5814983357142857 0 -1.1519790428571428 0.05978496428571428 -1.7077961142857143 0.1299507 -0.7678268142857143 0.09694557857142856 -1.3760715578571427 0.7246160571428572 -1.4503720885714284 1.4947037142857142C1.2532281835714285 14.907169885714284 1.1941071428571428 15.611931921428571 1.1941071428571428 16.331564571428572c0 0.6452954999999999 0.07289785285714286 1.6464349285714286 0.1399859764285714 2.4310429285714283 0.06003970714285714 0.7022942142857143 0.5812865807142857 1.2724405714285714 1.2756837664285714 1.3940802857142858 0.8659187357142856 0.15173121428571426 2.1318792857142856 0.35998349999999996 3.511311857142857 0.5418062142857143" stroke-width="1.71"></path>
    <path id="Subtract_5" fill="#ffffff" d="M15.91832389285714 20.7241275c1.4814093214285713 -0.1881912857142857 2.8452388928571426 -0.40981757142857145 3.7607210357142855 -0.5688726428571429 0.6952887857142857 -0.12084364285714284 1.2167155714285713 -0.6913084285714285 1.276739357142857 -1.3942395 0.06702921428571428 -0.7842895714285714 0.13979014285714286 -1.7844737142857143 0.13979014285714286 -2.4294507857142857 0 -0.71963265 -0.059068499999999996 -1.4243946857142857 -0.12514242857142857 -2.108920585714286 -0.07419385714285714 -0.7700876571428571 -0.6825516428571429 -1.3977581357142856 -1.4502829285714285 -1.4947037142857142 -0.5558170714285714 -0.0701657357142857 -1.1262818571428572 -0.1299507 -1.7078916428571427 -0.1299507l-0.0017513571428571428 0c-0.017672785714285714 2.769277757142857 -0.4386353571428572 5.878669071428571 -1.8921821785714286 8.12613792857143Z" stroke-width="1.71"></path>
    <path id="Intersect" stroke="#4147d5" stroke-linecap="round" stroke-linejoin="round" d="M4.492836085714286 11.949063985714286c-0.00033435 -0.011956992857142856 -0.003661928571428571 -0.02483742857142857 -0.009839442857142857 -0.03860946428571429 -0.006113828571428571 -0.3259753285714286 -0.007817421428571428 -0.6446745642857142 -0.00590685 -0.9542667428571429 0.017513571428571427 -2.8540752857142855 2.2631196214285714 -5.110476064285714 5.1086610214285715 -5.343326957142857 0.5587943785714286 -0.04572634285714285 1.0575649714285715 -0.07495808571428571 1.41953865 -0.07495808571428571 0.42338262857142855 0 1.03392165 0.03999462857142857 1.708783242857143 0.09960445714285715 2.70455715 0.23886919285714284 4.893912792857142 2.2959336857142856 5.046280864285714 5.005856357142857 0.021016285714285713 0.3760800642857143 0.0367785 0.7661869071428571 0.044739214285714285 1.16632425" stroke-width="1.71"></path>
    <path id="Vector 122" stroke="#4147d5" stroke-linecap="round" stroke-linejoin="round" d="m11.145 11.184835414285713 0 2.79839805" stroke-width="1.71"></path>
    <path id="Subtract_6" stroke="#4147d5" stroke-linecap="round" stroke-linejoin="round" d="M15.91832389285714 20.7241275c1.4814093214285713 -0.1881912857142857 2.8452388928571426 -0.40981757142857145 3.7607210357142855 -0.5688726428571429 0.6952887857142857 -0.12084364285714284 1.2167155714285713 -0.6913084285714285 1.276739357142857 -1.3942395 0.06702921428571428 -0.7842895714285714 0.13979014285714286 -1.7844737142857143 0.13979014285714286 -2.4294507857142857 0 -0.71963265 -0.059068499999999996 -1.4243946857142857 -0.12514242857142857 -2.108920585714286 -0.07419385714285714 -0.7700876571428571 -0.6825516428571429 -1.3977581357142856 -1.4502829285714285 -1.4947037142857142 -0.5558170714285714 -0.0701657357142857 -1.1262818571428572 -0.1299507 -1.7078916428571427 -0.1299507l-0.0017513571428571428 0" stroke-width="1.71"></path>
    <path id="Vector 194" stroke="#4147d5" stroke-linecap="round" stroke-linejoin="round" d="M7.990248535714286 5.976760992857143V4.348492414285714C7.990248535714286 2.6063696999999997 9.402527014285713 1.1941071428571428 11.144649728571428 1.1941071428571428v0C12.886756521428572 1.1941071428571428 14.299035 2.6063696999999997 14.299035 4.348492414285714v1.6282685785714286" stroke-width="1.71"></path>
    <path id="Subtract_7" stroke="#4147d5" stroke-linecap="round" stroke-linejoin="round" d="M4.482566764285714 11.910534128571427c0.006177514285714286 0.013772035714285714 0.009505092857142856 0.02665247142857143 0.009839442857142857 0.03859354285714286 0.30215687142857145 0.13049202857142858 0.6268425642857143 0.21769369285714282 0.9659849142857143 0.25377165 1.7943449999999999 0.19088200714285714 3.649334721428571 0.38115899999999997 5.547758099999999 0.38115899999999997 1.8984074571428573 0 3.7534131 -0.19027699285714286 5.547678492857143 -0.38115899999999997 0.44850664285714287 -0.047700599999999996 0.8716982142857143 -0.18480002142857144 1.2507874285714284 -0.39314783571428574 0.05954614285714286 2.9517054857142857 -0.2932727142857143 6.450853371428572 -1.88651415 8.914535228571427 -1.6435531499999998 0.20888914285714286 -3.4316251071428567 0.3763825714285714 -4.911967692857143 0.3714469285714286 -1.4726366142857141 -0.004935642857142857 -3.257938242857143 -0.1826187857142857 -4.885315221428571 -0.39708042857142856 -1.2117480857142857 -2.6942241428571427 -1.5860608714285713 -6.005785757142856 -1.6382513142857145 -8.788119085714285Z" stroke-width="1.71"></path>
  </g>
</svg>