<svg xmlns="http://www.w3.org/2000/svg" fill="none" viewBox="-0.855 -0.855 24 24" id="Ball--Streamline-Flex" height="24" width="24">
  <desc>
    Ball Streamline Icon: https://streamlinehq.com
  </desc>
  <g id="ball--sports-ball-sport-basketball-shopping-catergories">
    <path id="Vector" fill="#d7e0ff" d="M11.145 21.49392857142857c6.623314285714286 0 10.348928571428571 -3.7256142857142853 10.348928571428571 -10.348928571428571S17.768314285714286 0.7960714285714285 11.145 0.7960714285714285 0.7960714285714285 4.521685714285714 0.7960714285714285 11.145s3.7256142857142853 10.348928571428571 10.348928571428571 10.348928571428571Z" stroke-width="1.71"></path>
    <path id="Vector_2" stroke="#4147d5" stroke-linecap="round" stroke-linejoin="round" d="M11.145 21.49392857142857c6.623314285714286 0 10.348928571428571 -3.7256142857142853 10.348928571428571 -10.348928571428571S17.768314285714286 0.7960714285714285 11.145 0.7960714285714285 0.7960714285714285 4.521685714285714 0.7960714285714285 11.145s3.7256142857142853 10.348928571428571 10.348928571428571 10.348928571428571Z" stroke-width="1.71"></path>
    <path id="Vector 5" stroke="#4147d5" stroke-linecap="round" stroke-linejoin="round" d="m11.145 0.7960714285714285 0 20.697857142857142" stroke-width="1.71"></path>
    <path id="Vector_3" stroke="#4147d5" stroke-linecap="round" stroke-linejoin="round" d="M2.9883725357142854 4.064708871428571c2.114238342857143 1.5205760357142857 3.2401380857142854 3.920508492857143 3.2401380857142854 7.0804184999999995 0 3.159910007142857 -1.125899742857143 5.5597947 -3.2401380857142854 7.080450342857143" stroke-width="1.71"></path>
    <path id="Vector_4" stroke="#4147d5" stroke-linecap="round" stroke-linejoin="round" d="M19.3265445 4.064708871428571c-2.1142065 1.5205760357142857 -3.2401699285714285 3.920508492857143 -3.2401699285714285 7.0804184999999995 0 3.159910007142857 1.1259634285714286 5.5597947 3.2401699285714285 7.080450342857143" stroke-width="1.71"></path>
  </g>
</svg>