<svg xmlns="http://www.w3.org/2000/svg" fill="none" viewBox="-0.855 -0.855 24 24" id="Baseball--Streamline-Flex" height="24" width="24">
  <desc>
    Baseball Streamline Icon: https://streamlinehq.com
  </desc>
  <g id="baseball--baseball-sports-bat-homerun-field-games">
    <path id="Vector_2" fill="#d7e0ff" d="M11.145 21.492336428571427c-6.623314285714286 0 -10.348928571428571 -3.7256142857142853 -10.348928571428571 -10.348896728571429C0.7960714285714285 4.520125414285714 4.521685714285714 0.7945159049999999 11.145 0.7945159049999999s10.348928571428571 3.725609509285714 10.348928571428571 10.348923795C21.49392857142857 17.766722142857144 17.768314285714286 21.492336428571427 11.145 21.492336428571427Z" stroke-width="1.71"></path>
    <path id="Vector_2_2" stroke="#4147d5" stroke-linecap="round" stroke-linejoin="round" d="M11.145 21.49392857142857c6.623314285714286 0 10.348928571428571 -3.7256142857142853 10.348928571428571 -10.348928571428571S17.768314285714286 0.7960714285714285 11.145 0.7960714285714285 0.7960714285714285 4.521685714285714 0.7960714285714285 11.145s3.7256142857142853 10.348928571428571 10.348928571428571 10.348928571428571Z" stroke-width="1.71"></path>
    <path id="Intersect" stroke="#4147d5" stroke-linecap="round" stroke-linejoin="round" d="M3.9803571428571427 3.0334620214285715C1.9021489928571427 4.787828314285714 0.7960714285714285 7.536392292857142 0.7960714285714285 11.14523882142857c0 3.6088306071428566 1.1060775642857144 6.357346821428571 3.184285714285714 8.111729035714285 2.07820815 -1.7543822142857144 3.184285714285714 -4.502898428571428 3.184285714285714 -8.111729035714285 0 -3.608846528571428 -1.1060775642857144 -6.357410507142856 -3.184285714285714 -8.1117768Z" stroke-width="1.71"></path>
    <path id="Intersect_2" stroke="#4147d5" stroke-linecap="round" stroke-linejoin="round" d="M18.309642857142855 3.031917642857143c2.078224071428571 1.7543503714285713 3.184285714285714 4.502914349999999 3.184285714285714 8.11176087857143 0 3.608846528571428 -1.1060616428571428 6.3574741928571425 -3.184285714285714 8.111697192857143 -2.078224071428571 -1.7542229999999999 -3.184285714285714 -4.502850664285714 -3.184285714285714 -8.111697192857143s1.1060616428571428 -6.357410507142856 3.184285714285714 -8.11176087857143Z" stroke-width="1.71"></path>
    <path id="Vector 3998" stroke="#4147d5" stroke-linecap="round" stroke-linejoin="round" d="m4.776428571428571 7.641314507142857 3.7813392857142856 -1.3504874142857142" stroke-width="1.71"></path>
    <path id="Vector 3999" stroke="#4147d5" stroke-linecap="round" stroke-linejoin="round" d="m4.776428571428571 14.645580814285713 3.7813392857142856 1.350519257142857" stroke-width="1.71"></path>
    <path id="Vector 4000" stroke="#4147d5" stroke-linecap="round" stroke-linejoin="round" d="m17.513571428571428 7.641314507142857 -3.7813392857142856 -1.3504874142857142" stroke-width="1.71"></path>
    <path id="Vector 4001" stroke="#4147d5" stroke-linecap="round" stroke-linejoin="round" d="m17.513571428571428 14.645580814285713 -3.7813392857142856 1.350519257142857" stroke-width="1.71"></path>
  </g>
</svg>