<svg xmlns="http://www.w3.org/2000/svg" fill="none" viewBox="-0.855 -0.855 24 24" id="Bicycle-Bike--Streamline-Flex" height="24" width="24">
  <desc>
    Bicycle Bike Streamline Icon: https://streamlinehq.com
  </desc>
  <g id="bicycle-bike">
    <path id="Vector" fill="#d7e0ff" d="M4.878596378571428 19.105873499999998c2.6128338 0 4.082540871428571 -1.4697070714285714 4.082540871428571 -4.082604557142857 0 -2.6128178785714287 -1.4697070714285714 -4.082540871428571 -4.082540871428571 -4.082540871428571C2.2657785 10.94072807142857 0.7960714285714285 12.410451064285715 0.7960714285714285 15.023268942857142c0 2.6128974857142855 1.4697070714285714 4.082604557142857 4.08252495 4.082604557142857Z" stroke-width="1.71"></path>
    <path id="Vector_2" fill="#d7e0ff" d="M17.41135585714286 19.105873499999998c2.6127064285714283 0 4.0824134999999995 -1.4697070714285714 4.0824134999999995 -4.082604557142857 0 -2.6128178785714287 -1.4697070714285714 -4.082540871428571 -4.0824134999999995 -4.082540871428571 -2.6128815642857144 0 -4.082604557142857 1.4697229928571427 -4.082604557142857 4.082540871428571 0 2.6128974857142855 1.4697229928571427 4.082604557142857 4.082604557142857 4.082604557142857Z" stroke-width="1.71"></path>
    <path id="Vector_3" stroke="#4147d5" stroke-linecap="round" stroke-linejoin="round" d="M4.878596378571428 19.105873499999998c2.6128338 0 4.082540871428571 -1.4697070714285714 4.082540871428571 -4.082604557142857 0 -2.6128178785714287 -1.4697070714285714 -4.082540871428571 -4.082540871428571 -4.082540871428571C2.2657785 10.94072807142857 0.7960714285714285 12.410451064285715 0.7960714285714285 15.023268942857142c0 2.6128974857142855 1.4697070714285714 4.082604557142857 4.08252495 4.082604557142857Z" stroke-width="1.71"></path>
    <path id="Vector_4" stroke="#4147d5" stroke-linecap="round" stroke-linejoin="round" d="M17.41135585714286 19.105873499999998c2.6127064285714283 0 4.0824134999999995 -1.4697070714285714 4.0824134999999995 -4.082604557142857 0 -2.6128178785714287 -1.4697070714285714 -4.082540871428571 -4.0824134999999995 -4.082540871428571 -2.6128974857142855 0 -4.082604557142857 1.4697229928571427 -4.082604557142857 4.082540871428571 0 2.6128974857142855 1.4697070714285714 4.082604557142857 4.082604557142857 4.082604557142857Z" stroke-width="1.71"></path>
    <path id="Vector 655" stroke="#4147d5" stroke-linecap="round" stroke-linejoin="round" d="M20.263361357142855 5.487559178571428C20.331186642857144 4.71979605 19.965471428571426 3.184285714285714 17.9601675 3.184285714285714c-1.2135312857142857 0 -2.9663691214285715 0.09097504285714286 -2.749614792857143 1.8177335785714286 0.4292417142857143 3.4196521928571424 1.1706867214285714 6.730513264285714 2.241084364285714 10.037823857142856" stroke-width="1.71"></path>
    <path id="Vector 656" stroke="#4147d5" stroke-linecap="round" stroke-linejoin="round" d="M15.397406592857143 6.883804778571429c-3.9056856428571427 2.2157533714285713 -7.311629485714286 4.838967942857143 -10.444122792857142 8.055892585714286" stroke-width="1.71"></path>
    <path id="Vector 657" stroke="#4147d5" stroke-linecap="round" stroke-linejoin="round" d="m7.393194964285715 5.023258478571428 3.2741781 4.830545507142857" stroke-width="1.71"></path>
    <path id="Vector 658" stroke="#4147d5" stroke-linecap="round" stroke-linejoin="round" d="M5.750533414285714 5.3833375071428575c1.3187241642857142 -0.48011067857142853 2.4960978857142857 -0.48011067857142853 3.81482205 0" stroke-width="1.71"></path>
  </g>
</svg>