<svg xmlns="http://www.w3.org/2000/svg" fill="none" viewBox="-0.855 -0.855 24 24" id="Boots--Streamline-Flex" height="24" width="24">
  <desc>
    Boots Streamline Icon: https://streamlinehq.com
  </desc>
  <g id="boots">
    <path id="Union" fill="#d7e0ff" d="M20.840353928571428 4.044631949999999c0.12100285714285713 2.1077901642857144 0.24646371428571426 4.2928311 0.24646371428571426 6.532227792857142 0 1.9524447857142855 0.06432257142857142 4.057098428571429 -0.1534825714285714 6.066764828571428 -0.2877002142857143 2.653146857142857 -1.6292397857142857 4.1113905 -4.3333352142857136 4.257708428571428 -1.8325245857142856 0.09903128571428571 -3.7193730857142855 0.18803207142857142 -5.646184371428571 0.18803207142857142 -2.012309357142857 0 -3.2480510357142856 0.05333678571428572 -5.319317442857143 -0.1580997857142857 -2.734505357142857 -0.27894342857142856 -4.237577374285714 -1.5806794285714285 -4.3883087228571425 -4.204371642857143 -0.013281655714285714 -0.23101992857142858 -0.026383399285714284 -0.4629951428571428 -0.03912850285714286 -0.6956072142857143C1.062752172857143 13.397006464285715 3.2565212357142856 11.257723714285714 5.975375828571428 11.257723714285714h4.175856364285714c0.24641594999999997 -0.5001876 0.2191743857142857 -4.394823771428571 0.24641594999999997 -7.213171371428571 0.003630085714285714 -0.3754432071428571 0.004824192857142857 -0.8219278285714285 0.00479235 -1.2487813285714287C10.402376807142858 1.9127049 11.138376685714286 1.1941071428571428 12.04852515 1.1941071428571428h7.07486192142857c0.8697876428571428 0 1.5884809285714285 0.6584943642857143 1.6381557857142854 1.5010563642857142 0.03200207142857143 0.5444969357142857 0.06384492857142857 1.0894874357142856 0.07881107142857142 1.3494684428571428Z" stroke-width="1.71"></path>
    <path id="Intersect" fill="#ffffff" fill-rule="evenodd" d="M20.822362714285713 17.371870714285713c-0.44484471428571426 2.191743857142857 -1.7760353571428569 3.397155214285714 -4.221566785714286 3.5294622857142857 -1.8324927428571427 0.09903128571428571 -3.7193412428571424 0.18803207142857142 -5.646152528571428 0.18803207142857142 -0.35340794999999997 0 -0.6828700714285714 0.001592142857142857 -0.9971113071428571 0.003184285714285714 -1.4750248285714285 0.007323857142857142 -2.6146966071428572 0.013055571428571429 -4.322206135714286 -0.16128407142857143 -2.500412592857143 -0.2550612857142857 -3.971202321428571 -1.3652625 -4.3199421085714285 -3.559394571428571H20.822362714285713Z" clip-rule="evenodd" stroke-width="1.71"></path>
    <path id="Vector 3777" stroke="#4147d5" stroke-linecap="round" stroke-linejoin="round" d="M10.389353078571428 5.691448992857143h4.928366764285714" stroke-width="1.71"></path>
    <path id="Vector 3779" stroke="#4147d5" stroke-linecap="round" stroke-linejoin="round" d="M1.6729918714285714 17.371870714285713H20.533707214285716" stroke-width="1.71"></path>
    <path id="Vector 3778" stroke="#4147d5" stroke-linecap="round" stroke-linejoin="round" d="M10.389353078571428 9.204384835714286h4.928366764285714" stroke-width="1.71"></path>
    <path id="Union_2" stroke="#4147d5" stroke-linecap="round" stroke-linejoin="round" d="M20.839557857142857 4.045205121428571c0.12100285714285713 2.1078060857142855 0.24646371428571426 4.292847021428572 0.24646371428571426 6.532243714285714 0 1.9524288642857144 0.06432257142857142 4.057098428571429 -0.1534825714285714 6.066653378571428 -0.2877002142857143 2.653146857142857 -1.6292397857142857 4.111549714285714 -4.3333352142857136 4.257867642857143 -1.832540507142857 0.09903128571428571 -3.719389007142857 0.18787285714285712 -5.646200292857142 0.18787285714285712 -2.012309357142857 0 -3.2480510357142856 0.053495999999999995 -5.319317442857143 -0.15794057142857143 -2.7345212785714286 -0.27910264285714287 -4.237583742857143 -1.5806794285714285 -4.388315091428571 -4.204371642857143 -0.015259097142857144 -0.26556942857142857 -0.03028255714285714 -0.5322533571428572 -0.044801307857142855 -0.7997333571428571C1.0607604021428572 13.35092985 3.207610607142857 11.258312807142858 5.867141957142857 11.258312807142858h4.2832782428571425c0.24641594999999997 -0.5001876 0.2191743857142857 -4.394823771428571 0.24641594999999997 -7.213171371428571 0.0037256142857142855 -0.38571252857142857 0.0048719571428571425 -0.8463672214285715 0.004776428571428571 -1.2837129428571428 -0.00019105714285714285 -0.8638011857142858 0.7197918642857143 -1.5667386257142857 1.6100703857142857 -1.5667386257142857h7.144661464285714c0.8508411428571429 0 1.5539314285714285 0.6441236828571428 1.6023325714285712 1.4682964328571428 0.03263892857142857 0.5552916642857143 0.06559628571428572 1.1170315071428571 0.08088085714285714 1.3822188214285713Z" stroke-width="1.71"></path>
  </g>
</svg>