<svg xmlns="http://www.w3.org/2000/svg" fill="none" viewBox="-0.855 -0.855 24 24" id="Brightness-1--Streamline-Flex" height="24" width="24">
  <desc>
    Brightness 1 Streamline Icon: https://streamlinehq.com
  </desc>
  <g id="brightness-1--bright-adjust-brightness-adjustment-sun-raise-controls">
    <path id="Vector 96" fill="#d7e0ff" d="M11.14501592142857 16.319464285714286C6.8329517357142855 16.319464285714286 5.970535714285714 13.732263985714283 5.970535714285714 11.14501592142857c0 -2.5872321428571428 0.8624160214285713 -5.174480207142857 5.174480207142857 -5.174480207142857S16.319464285714286 8.557783778571428 16.319464285714286 11.14501592142857c0 2.5872480642857143 -0.8623841785714285 5.174448364285714 -5.174448364285714 5.174448364285714Z" stroke-width="1.71"></path>
    <path id="Vector" stroke="#4147d5" stroke-linecap="round" stroke-linejoin="round" d="m3.8272089214285714 3.8272089214285714 0.6098225571428572 0.6098225571428572" stroke-width="1.71"></path>
    <path id="Vector_2" stroke="#4147d5" stroke-linecap="round" stroke-linejoin="round" d="m17.8531755 17.853334714285715 0.6097907142857143 0.6097907142857143" stroke-width="1.71"></path>
    <path id="Vector_3" stroke="#4147d5" stroke-linecap="round" stroke-linejoin="round" d="m11.145191057142856 0.7960714285714285 0 0.8624160214285713" stroke-width="1.71"></path>
    <path id="Vector_4" stroke="#4147d5" stroke-linecap="round" stroke-linejoin="round" d="m11.145191057142856 20.631624 0 0.8623045714285713" stroke-width="1.71"></path>
    <path id="Vector_5" stroke="#4147d5" stroke-linecap="round" stroke-linejoin="round" d="m21.494087785714285 11.145 -0.8623045714285713 0" stroke-width="1.71"></path>
    <path id="Vector_6" stroke="#4147d5" stroke-linecap="round" stroke-linejoin="round" d="M1.6586148214285712 11.145 0.7961987999999999 11.145" stroke-width="1.71"></path>
    <path id="Vector_7" stroke="#4147d5" stroke-linecap="round" stroke-linejoin="round" d="m18.462966214285714 3.8272089214285714 -0.6097907142857143 0.6098225571428572" stroke-width="1.71"></path>
    <path id="Vector_8" stroke="#4147d5" stroke-linecap="round" stroke-linejoin="round" d="m4.437095164285714 17.853334714285715 -0.6098225571428572 0.6097907142857143" stroke-width="1.71"></path>
    <path id="Vector 82" stroke="#4147d5" stroke-linecap="round" stroke-linejoin="round" d="M11.14501592142857 16.319464285714286C6.8329517357142855 16.319464285714286 5.970535714285714 13.732263985714283 5.970535714285714 11.14501592142857c0 -2.5872321428571428 0.8624160214285713 -5.174480207142857 5.174480207142857 -5.174480207142857S16.319464285714286 8.557783778571428 16.319464285714286 11.14501592142857c0 2.5872480642857143 -0.8623841785714285 5.174448364285714 -5.174448364285714 5.174448364285714Z" stroke-width="1.71"></path>
  </g>
</svg>