<svg xmlns="http://www.w3.org/2000/svg" fill="none" viewBox="-0.855 -0.855 24 24" id="Cap-Side--Streamline-Flex" height="24" width="24">
  <desc>
    Cap Side Streamline Icon: https://streamlinehq.com
  </desc>
  <g id="cap-side">
    <path id="Vector" fill="#ffffff" d="M15.392789378571429 5.016189364285713c-4.985874964285713 -1.3359670714285714 -8.541910114285713 0.7171170642857142 -9.877861264285714 5.702992028571429 -0.14146189285714286 0.5278908857142858 -0.2449193357142857 1.039764814285714 -0.31092957857142856 1.5346665l15.39371282142857 4.124684892857143c0.1902610714285714 -0.4615462928571428 0.35664 -0.9565753499999999 0.49802228571428575 -1.484482157142857 1.3359670714285714 -4.985874964285713 -0.7171011428571429 -8.541910114285713 -5.702944264285714 -9.877861264285714Z" stroke-width="1.71"></path>
    <path id="Intersect" fill="#d7e0ff" fill-rule="evenodd" d="m17.29401492857143 5.696957807142857 -0.078015 -0.020283899999999997c-3.3053841 0.28258943571428574 -5.644353407142857 2.44465575 -6.6759027642857145 6.2944890214285705 -0.14743242857142858 0.5501808857142857 -0.2544881142857143 1.0838671714285715 -0.3217720714285714 1.6000717285714285l0.0791295 0.04760507142857143 10.300256764285715 2.7600114857142857c0.1902610714285714 -0.46167366428571427 0.35664 -0.9567027214285715 0.49802228571428575 -1.4845936071428572 1.1509600714285713 -4.295489978571428 -0.21350635714285712 -7.529689371428572 -3.801718714285714 -9.1972998Z" clip-rule="evenodd" stroke-width="1.71"></path>
    <path id="Vector 3771" fill="#d7e0ff" d="m2.637289114285714 16.4110125 -1.478207522142857 -1.0456239c-0.5505789214285715 -0.38943814285714284 -0.45809771142857136 -1.2324300214285715 0.16381876285714284 -1.4932230214285713L5.1788586 12.255153449999998l8.296608664285714 2.2159285071428574 -3.0490650214285715 2.040553971428571c-2.3664019285714284 1.5837045 -5.464425342857142 1.5435825 -7.789113128571429 -0.10062342857142857Z" stroke-width="1.71"></path>
    <path id="Vector 3770" stroke="#4147d5" stroke-linecap="round" stroke-linejoin="round" d="m2.637289114285714 16.4110125 -1.478207522142857 -1.0456239c-0.5505789214285715 -0.38943814285714284 -0.45809771142857136 -1.2324300214285715 0.16381876285714284 -1.4932230214285713L5.1788586 12.255153449999998l8.296608664285714 2.2159285071428574 -3.0490650214285715 2.040553971428571c-2.3664019285714284 1.5837045 -5.464425342857142 1.5435825 -7.789113128571429 -0.10062342857142857Z" stroke-width="1.71"></path>
    <path id="Vector_2" stroke="#4147d5" stroke-linecap="round" stroke-linejoin="round" d="M15.392789378571429 5.016189364285713c-4.985874964285713 -1.3359670714285714 -8.541910114285713 0.7171170642857142 -9.877861264285714 5.702992028571429 -0.14146189285714286 0.5278908857142858 -0.2449193357142857 1.039764814285714 -0.31092957857142856 1.5346665l15.39371282142857 4.124684892857143c0.1902610714285714 -0.4615462928571428 0.35664 -0.9565753499999999 0.49802228571428575 -1.484482157142857 1.3359670714285714 -4.985874964285713 -0.7171011428571429 -8.541910114285713 -5.702944264285714 -9.877861264285714Z" stroke-width="1.71"></path>
    <path id="Vector_3" stroke="#4147d5" stroke-linecap="round" stroke-linejoin="round" d="M10.218325092857143 13.570645564285714c0.06728395714285713 -0.5162045571428572 0.17433964285714285 -1.0498749214285714 0.3217720714285714 -1.6000717285714285 1.0315493571428571 -3.849833271428571 3.3705186642857137 -6.011899585714286 6.6759027642857145 -6.2944890214285705" stroke-width="1.71"></path>
  </g>
</svg>