<svg xmlns="http://www.w3.org/2000/svg" fill="none" viewBox="-0.855 -0.855 24 24" id="Cap-Front--Streamline-Flex" height="24" width="24">
  <desc>
    Cap Front Streamline Icon: https://streamlinehq.com
  </desc>
  <g id="cap-front">
    <path id="Vector" fill="#d7e0ff" d="M11.173340142857143 13.37901525C3.677881842857143 13.374509485714286 1.2393415135714285 15.177547585714287 1.2393415135714285 15.177547585714287L0.7960714285714285 19.903696285714286s3.855660514285714 -1.328484 10.348928571428571 -1.328484c6.493236214285713 0 10.348928571428571 1.328484 10.348928571428571 1.328484l-0.38306957142857145 -4.7105457s-2.442028714285714 -1.8096454928571426 -9.937518857142857 -1.8141353357142855Z" stroke-width="1.71"></path>
    <path id="Subtract" fill="#d7e0ff" d="M21.09939557142857 15.182467307142856c-1.9457577857142856 -1.0780080857142857 -5.324921785714285 -1.8034998214285713 -9.925545942857141 -1.8034998214285713 -4.600624157142857 0 -7.979724471428571 0.7254917357142857 -9.925471112142857 1.8034998214285713 -0.19973909785714286 -0.8943225642857143 -0.3014881714285714 -1.8686821499999997 -0.3014881714285714 -2.919480514285714 0 -6.3208389857142855 3.6817077621428567 -9.876332807142857 10.226959283571428 -9.876332807142857 6.545267442857142 0 10.226938585714285 3.5554938214285716 10.226938585714285 9.876332807142857 0 1.0507983642857142 -0.10173792857142856 2.0251738714285716 -0.30139264285714285 2.919480514285714Z" stroke-width="1.71"></path>
    <path id="Subtract_2" fill="#ffffff" fill-rule="evenodd" d="M11.172146035714286 2.3864629285714285c1.15517925 0 4.413308549999999 3.6090694285714284 4.413308549999999 10.025198164285714 0 0.32990792142857145 -0.004203257142857143 0.6523964571428571 -0.012546085714285714 0.9673541571428571v0.2539467857142857c-1.3091235428571428 -0.16403847857142856 -2.7793719428571424 -0.25421745 -4.40149485 -0.25421745 -1.6215019714285714 0 -3.0912727285714285 0.0901152857142857 -4.400030078571429 0.25402639285714285v-0.25375572857142853c-0.008342828571428571 -0.3149577 -0.012546085714285714 -0.6374462357142857 -0.012546085714285714 -0.9673541571428571 0 -6.4161287357142855 3.2581293000000002 -10.025198164285714 4.413308549999999 -10.025198164285714Z" clip-rule="evenodd" stroke-width="1.71"></path>
    <path id="Vector_2" stroke="#4147d5" stroke-linecap="round" stroke-linejoin="round" d="M11.173340142857143 13.37901525C3.677881842857143 13.374509485714286 1.2393415135714285 15.177547585714287 1.2393415135714285 15.177547585714287L0.7960714285714285 19.903696285714286s3.855660514285714 -1.328484 10.348928571428571 -1.328484c6.493236214285713 0 10.348928571428571 1.328484 10.348928571428571 1.328484l-0.38306957142857145 -4.7105457s-2.442028714285714 -1.8096454928571426 -9.937518857142857 -1.8141353357142855Z" stroke-width="1.71"></path>
    <path id="Subtract_3" stroke="#4147d5" stroke-linecap="round" stroke-linejoin="round" d="M6.773071242857142 13.379206307142855c-0.00835875 -0.3149577 -0.012546085714285714 -0.6374462357142857 -0.012546085714285714 -0.9673541571428571 0 -6.4161287357142855 3.2581133785714287 -10.025198164285714 4.413308549999999 -10.025198164285714 1.15517925 0 4.413308549999999 3.6090694285714284 4.413308549999999 10.025198164285714 0 0.32990792142857145 -0.004203257142857143 0.6523964571428571 -0.012562007142857141 0.9673541571428571" stroke-width="1.71"></path>
    <path id="Subtract_4" stroke="#4147d5" stroke-linecap="round" stroke-linejoin="round" d="M21.09939557142857 15.182467307142856c-1.9457577857142856 -1.0780080857142857 -5.324921785714285 -1.8034998214285713 -9.925545942857141 -1.8034998214285713 -4.600624157142857 0 -7.979724471428571 0.7254917357142857 -9.925471112142857 1.8034998214285713 -0.19973909785714286 -0.8943225642857143 -0.3014881714285714 -1.8686821499999997 -0.3014881714285714 -2.919480514285714 0 -6.3208389857142855 3.6817077621428567 -9.876332807142857 10.226959283571428 -9.876332807142857 6.545267442857142 0 10.226938585714285 3.5554938214285716 10.226938585714285 9.876332807142857 0 1.0507983642857142 -0.10173792857142856 2.0251738714285716 -0.30139264285714285 2.919480514285714Z" stroke-width="1.71"></path>
  </g>
</svg>