<svg xmlns="http://www.w3.org/2000/svg" fill="none" viewBox="-0.855 -0.855 24 24" height="24" width="24">
  <g id="cricket--sports-cricket-bat-ball-teams-game">
    <path id="Vector_2" stroke="#4147d5" stroke-linecap="round" stroke-linejoin="round" d="M19.105714285714285 5.5725c1.5284571428571427 0 2.3882142857142856 -0.8597571428571429 2.3882142857142856 -2.3882142857142856S20.634171428571427 0.7960714285714285 19.105714285714285 0.7960714285714285s-2.3882142857142856 0.8597571428571429 -2.3882142857142856 2.3882142857142856 0.8597571428571429 2.3882142857142856 2.3882142857142856 2.3882142857142856Z" stroke-width="1.71"></path>
    <path id="Vector_2_2" fill="#ffffff" d="M19.105714285714285 5.5725c1.5284571428571427 0 2.3882142857142856 -0.8597571428571429 2.3882142857142856 -2.3882142857142856S20.634171428571427 0.7960714285714285 19.105714285714285 0.7960714285714285s-2.3882142857142856 0.8597571428571429 -2.3882142857142856 2.3882142857142856 0.8597571428571429 2.3882142857142856 2.3882142857142856 2.3882142857142856Z" stroke-width="1.71"></path>
    <path id="Vector_2_3" stroke="#4147d5" stroke-linecap="round" stroke-linejoin="round" d="M19.105714285714285 5.5725c1.5284571428571427 0 2.3882142857142856 -0.8597571428571429 2.3882142857142856 -2.3882142857142856S20.634171428571427 0.7960714285714285 19.105714285714285 0.7960714285714285s-2.3882142857142856 0.8597571428571429 -2.3882142857142856 2.3882142857142856 0.8597571428571429 2.3882142857142856 2.3882142857142856 2.3882142857142856Z" stroke-width="1.71"></path>
    <path id="Intersect" fill="#d7e0ff" d="m15.614861464285713 10.606489521428571 0.13783180714285712 0.14631792857142856 -0.36816711428571425 4.632498857142857 -4.632498857142857 0.36816711428571425 -0.14633385000000002 -0.13784772857142857C5.678186442857143 10.974242678571429 5.442835885714286 10.752536785714286 1.22298543 6.2739185357142855 0.7464156771428572 5.768126592857143 0.6456473635714286 5.002465092857143 1.0349199235714284 4.426778078571429 1.9619817214285715 3.055767942857143 3.0549877928571427 1.9627618714285713 4.425997928571428 1.0356968892857144 5.001684942857143 0.6464243292857142 5.767346442857143 0.7471926428571428 6.273138385714286 1.2237623957142858 10.751772557142857 5.443616035714285 10.973462528571428 5.678966592857143 15.614861464285713 10.606489521428571Z" stroke-width="1.71"></path>
    <path id="Vector 4374" stroke="#4147d5" stroke-linecap="round" stroke-linejoin="round" d="m15.437098714285714 15.442543842857143 5.3023133571428565 5.302440728571428" stroke-width="1.71"></path>
    <path id="Vector 4375" stroke="#4147d5" stroke-linecap="round" stroke-linejoin="round" d="m21.494883857142856 20.03552571428571 -1.4585620714285714 1.4585620714285714" stroke-width="1.71"></path>
    <path id="Intersect_2" stroke="#4147d5" stroke-linecap="round" stroke-linejoin="round" d="m15.614861464285713 10.606489521428571 0.13783180714285712 0.14631792857142856 -0.36816711428571425 4.632498857142857 -4.632498857142857 0.36816711428571425 -0.14633385000000002 -0.13784772857142857C5.678186442857143 10.974242678571429 5.442835885714286 10.752536785714286 1.22298543 6.2739185357142855 0.7464156771428572 5.768126592857143 0.6456473635714286 5.002465092857143 1.0349199235714284 4.426778078571429 1.9619817214285715 3.055767942857143 3.0549877928571427 1.9627618714285713 4.425997928571428 1.0356968892857144 5.001684942857143 0.6464243292857142 5.767346442857143 0.7471926428571428 6.273138385714286 1.2237623957142858 10.751772557142857 5.443616035714285 10.973462528571428 5.678966592857143 15.614861464285713 10.606489521428571Z" stroke-width="1.71"></path>
  </g>
</svg>