<svg xmlns="http://www.w3.org/2000/svg" fill="none" viewBox="-0.855 -0.855 24 24" id="Cycling--Streamline-Flex" height="24" width="24">
  <desc>
    Cycling Streamline Icon: https://streamlinehq.com
  </desc>
  <g id="cycling--cycling-sports-bycicle-track-wheel">
    <path id="Vector_2" fill="#d7e0ff" d="M4.328049299999999 20.911204285714284c2.261463792857143 0 3.5335381714285714 -1.2719629285714287 3.5335381714285714 -3.5334426428571426 0 -2.2615115571428572 -1.2720743785714284 -3.533585935714286 -3.5335381714285714 -3.533585935714286S0.7945159049999999 15.116250085714285 0.7945159049999999 17.37776164285714c0 2.261479714285714 1.272069602142857 3.5334426428571426 3.533533395 3.5334426428571426Z" stroke-width="1.71"></path>
    <path id="Vector_2_2" fill="#d7e0ff" d="M17.961918857142855 20.911204285714284c2.261479714285714 0 3.5336018571428567 -1.2719629285714287 3.5336018571428567 -3.5334426428571426 0 -2.2615115571428572 -1.272122142857143 -3.533585935714286 -3.5336018571428567 -3.533585935714286 -2.26143195 0 -3.5335063285714283 1.2720743785714284 -3.5335063285714283 3.533585935714286 0 2.261479714285714 1.2720743785714284 3.5334426428571426 3.5335063285714283 3.5334426428571426Z" stroke-width="1.71"></path>
    <path id="Vector_2_3" fill="#d7e0ff" d="M15.83960835 6.0307824c1.1257882928571428 0 1.7591427214285713 -0.6332748214285714 1.7591427214285713 -1.759094957142857 0 -1.1258201357142856 -0.6333544285714285 -1.759094957142857 -1.7591427214285713 -1.759094957142857 -1.1258201357142856 0 -1.759094957142857 0.6332748214285714 -1.759094957142857 1.759094957142857 0 1.1258201357142856 0.6332748214285714 1.759094957142857 1.759094957142857 1.759094957142857Z" stroke-width="1.71"></path>
    <path id="Vector_2_4" stroke="#4147d5" stroke-linecap="round" stroke-linejoin="round" d="M4.328049299999999 20.911204285714284c2.261463792857143 0 3.5335381714285714 -1.2719629285714287 3.5335381714285714 -3.5334426428571426 0 -2.2615115571428572 -1.2720743785714284 -3.533585935714286 -3.5335381714285714 -3.533585935714286S0.7945159049999999 15.116250085714285 0.7945159049999999 17.37776164285714c0 2.261479714285714 1.272069602142857 3.5334426428571426 3.533533395 3.5334426428571426Z" stroke-width="1.71"></path>
    <path id="Vector_2_5" stroke="#4147d5" stroke-linecap="round" stroke-linejoin="round" d="M17.961918857142855 20.911204285714284c2.261479714285714 0 3.5336018571428567 -1.2719629285714287 3.5336018571428567 -3.5334426428571426 0 -2.2615115571428572 -1.272122142857143 -3.533585935714286 -3.5336018571428567 -3.533585935714286 -2.26143195 0 -3.5335063285714283 1.2720743785714284 -3.5335063285714283 3.533585935714286 0 2.261479714285714 1.2720743785714284 3.5334426428571426 3.5335063285714283 3.5334426428571426Z" stroke-width="1.71"></path>
    <path id="Vector_2_6" stroke="#4147d5" stroke-linecap="round" stroke-linejoin="round" d="M15.83960835 6.0307824c1.1257882928571428 0 1.7591427214285713 -0.6332748214285714 1.7591427214285713 -1.759094957142857 0 -1.1258201357142856 -0.6333544285714285 -1.759094957142857 -1.7591427214285713 -1.759094957142857 -1.1258201357142856 0 -1.759094957142857 0.6332748214285714 -1.759094957142857 1.759094957142857 0 1.1258201357142856 0.6332748214285714 1.759094957142857 1.759094957142857 1.759094957142857Z" stroke-width="1.71"></path>
    <path id="Ellipse 1545" stroke="#4147d5" stroke-linecap="round" stroke-linejoin="round" d="M10.67480837142857 18.79015157142857c1.035450107142857 -1.5375323571428572 1.4145074785714287 -3.013560235714286 1.1472026142857141 -4.7098610785714285 -0.09181887857142856 -0.5826287571428571 -0.5667391714285714 -1.0143223714285714 -1.1430948857142857 -1.139655857142857l-0.7925527928571429 -0.17234946428571427c-1.5058327928571429 -0.3274560214285714 -2.0782718357142858 -2.1632285785714283 -0.9909497142857142 -3.2552475214285717 1.25214075 -1.2575540357142858 2.576803607142857 -2.5004444357142854 2.852323928571429 -2.4260595214285714 0.5493052071428571 0.1482921857142857 2.0126596285714284 1.8802888714285713 2.9082399857142853 2.117151964285714 1.4573042785714285 0.38541002142857145 3.6785027785714286 0 3.6785027785714286 0" stroke-width="1.71"></path>
  </g>
</svg>