<svg xmlns="http://www.w3.org/2000/svg" fill="none" viewBox="-0.855 -0.855 24 24" height="24" width="24">
  <g id="downhill-skiing--sports-downhill-skiing-snow-winter">
    <path id="Vector_2" fill="#d7e0ff" d="M14.892554014285714 4.291955421428572c0.8861707928571428 0.9392050714285713 1.9129914857142856 0.9690418285714285 2.852196557142857 0.08287103571428571 0.9392050714285713 -0.8861707928571428 0.9689781428571429 -1.9129437214285712 0.08279142857142857 -2.8521472007142856C16.941355285714284 0.5834694085714286 15.914646042857141 0.5536342435714285 14.97542505 1.43980026c-0.9392050714285713 0.88616124 -0.9690418285714285 1.9129341685714285 -0.08287103571428571 2.852155161428571Z" stroke-width="1.71"></path>
    <path id="Vector_2_2" stroke="#4147d5" stroke-linecap="round" stroke-linejoin="round" d="M14.892554014285714 4.291955421428572c0.8861707928571428 0.9392050714285713 1.9129914857142856 0.9690418285714285 2.852196557142857 0.08287103571428571 0.9392050714285713 -0.8861707928571428 0.9689781428571429 -1.9129437214285712 0.08279142857142857 -2.8521472007142856C16.941355285714284 0.5834694085714286 15.914646042857141 0.5536342435714285 14.97542505 1.43980026c-0.9392050714285713 0.88616124 -0.9690418285714285 1.9129341685714285 -0.08287103571428571 2.852155161428571Z" stroke-width="1.71"></path>
    <path id="Vector 4158" stroke="#4147d5" stroke-linecap="round" stroke-linejoin="round" d="M0.7960714285714285 15.706855478571429s12.466590021428571 5.786595449999999 17.38142357142857 5.786595449999999c1.3571425714285714 0 3.3164335714285715 -0.8559359999999999 3.3164335714285715 -0.8559359999999999" stroke-width="1.71"></path>
    <path id="Vector 4159" stroke="#4147d5" stroke-linecap="round" stroke-linejoin="round" d="M8.87823437142857 18.682841142857143s2.5268580857142857 -4.768865892857143 2.282320864285714 -6.357935914285714c-0.3824327142857143 -2.4850484142857145 -4.192924135714285 -2.6446925785714286 -3.6680583214285716 -5.013052842857143 0.5211242785714285 -2.3515472357142855 4.931137092857143 -2.6489276785714284 4.931137092857143 -2.6489276785714284s0.9700608000000001 2.437793614285714 2.1603308785714286 3.668010557142857c0.9513053571428571 0.9832278214285715 2.8933056857142856 2.159853235714286 2.8933056857142856 2.159853235714286" stroke-width="1.71"></path>
    <path id="Vector 4160" stroke="#4147d5" stroke-linecap="round" stroke-linejoin="round" d="m13.6443777 20.58306364285714 2.4803675142857142 -7.688887735714285" stroke-width="1.71"></path>
    <path id="Vector 4161" stroke="#4147d5" stroke-linecap="round" stroke-linejoin="round" d="m16.91811 9.820767021428571 0.9920642142857142 -2.4384463928571427" stroke-width="1.71"></path>
  </g>
</svg>