<svg xmlns="http://www.w3.org/2000/svg" fill="none" viewBox="-0.855 -0.855 24 24" id="Dribble-Logo--Streamline-Flex" height="24" width="24">
  <desc>
    Dribble Logo Streamline Icon: https://streamlinehq.com
  </desc>
  <g id="dribble">
    <path id="Vector" fill="#d7e0ff" d="M11.145 21.49392857142857c6.623314285714286 0 10.348928571428571 -3.7256142857142853 10.348928571428571 -10.348928571428571S17.768314285714286 0.7960714285714285 11.145 0.7960714285714285 0.7960714285714285 4.521685714285714 0.7960714285714285 11.145s3.7256142857142853 10.348928571428571 10.348928571428571 10.348928571428571Z" stroke-width="1.71"></path>
    <path id="Vector_2" stroke="#4147d5" stroke-linecap="round" stroke-linejoin="round" d="M11.145 21.49392857142857c6.623314285714286 0 10.348928571428571 -3.7256142857142853 10.348928571428571 -10.348928571428571S17.768314285714286 0.7960714285714285 11.145 0.7960714285714285 0.7960714285714285 4.521685714285714 0.7960714285714285 11.145s3.7256142857142853 10.348928571428571 10.348928571428571 10.348928571428571Z" stroke-width="1.71"></path>
    <path id="Vector_3" stroke="#4147d5" stroke-linecap="round" stroke-linejoin="round" d="M2.8297791857142855 18.058084285714287c3.879096857142857 -3.5690270357142855 7.6911645 -5.2981101 11.518405264285715 -5.896294092857143 2.35928505 -0.3687562071428571 4.724413264285714 -0.3077612142857143 7.114538121428572 0.01690855714285714" stroke-width="1.71"></path>
    <path id="Vector_4" stroke="#4147d5" stroke-linecap="round" stroke-linejoin="round" d="M0.9189020657142857 9.155935928571429c4.219500184285715 0.5375074285714285 8.116620098571428 -0.21150025714285717 11.280399012857142 -1.4887809428571428 2.89625115 -1.1692697142857142 5.177982921428571 -2.7812506714285714 6.529871421428571 -4.254317164285714" stroke-width="1.71"></path>
    <path id="Vector_5" stroke="#4147d5" stroke-linecap="round" stroke-linejoin="round" d="M6.573814564285715 1.5394731792857141C9.01219727142857 3.395706364285714 10.846122942857143 5.50239795 12.198377635714285 7.6672186714285715c0.9316423928571428 1.491503507142857 1.6346530714285712 3.010614771428571 2.149169957142857 4.49444415 1.1454990214285714 3.303537214285714 1.356712692857143 6.432177535714286 1.0767502928571426 8.692065107142856" stroke-width="1.71"></path>
  </g>
</svg>