<svg xmlns="http://www.w3.org/2000/svg" fill="none" viewBox="-0.855 -0.855 24 24" height="24" width="24">
  <g id="fishing-phishing--sports-fishing-phishing-hook-string">
    <path id="Vector_2" fill="#d7e0ff" d="M15.505895207142856 11.145c1.7941698642857142 0 2.8032700071428573 -1.00305 2.8032700071428573 -2.78625S17.30006507142857 5.5725 15.505895207142856 5.5725c-1.7941380214285714 0 -2.803349614285714 1.00305 -2.803349614285714 2.78625S13.711757185714285 11.145 15.505895207142856 11.145Z" stroke-width="1.71"></path>
    <path id="Vector_2_2" stroke="#4147d5" stroke-linecap="round" stroke-linejoin="round" d="M15.505895207142856 11.145c1.7941698642857142 0 2.8032700071428573 -1.00305 2.8032700071428573 -2.78625S17.30006507142857 5.5725 15.505895207142856 5.5725c-1.7941380214285714 0 -2.803349614285714 1.00305 -2.803349614285714 2.78625S13.711757185714285 11.145 15.505895207142856 11.145Z" stroke-width="1.71"></path>
    <path id="Vector 4217" stroke="#4147d5" stroke-linecap="round" stroke-linejoin="round" d="M7.084828735714285 15.920584735714286c-0.5489230928571429 -1.4734645285714285 -1.6211835428571428 -2.439688264285714 -3.1036914428571425 -2.985267857142857 0 3.8406147642857142 0.5176374857142857 8.55781562142857 5.606683307142856 8.55781562142857 4.486101321428571 0 5.775386764285714 -5.0419979999999995 6.0009138 -10.32326322857143" stroke-width="1.71"></path>
    <path id="Vector 4216" stroke="#4147d5" stroke-linecap="round" stroke-linejoin="round" d="M15.194153635714285 0.7960714285714285c0.06201396428571428 1.133605714285714 0.21321977142857143 2.809065407142857 0.3194475428571429 4.724206285714286" stroke-width="1.71"></path>
  </g>
</svg>