<svg xmlns="http://www.w3.org/2000/svg" fill="none" viewBox="-0.855 -0.855 24 24" height="24" width="24">
  <g id="flag-score--sports-score-flag-racing-checker">
    <path id="Intersect" fill="#d7e0ff" d="M3.3896402999999995 2.573523792857143c0.046172142857142856 -0.7889386285714286 0.6678402428571428 -1.418928859285714 1.4505854357142856 -1.4949202457142856C8.9920089 0.7891519757142856 13.08179402142857 0.6477410314285713 17.274113142857143 1.0392871714285714c0.7740998571428571 0.07230398357142857 1.3988567142857142 0.6777433714285714 1.5020275714285714 1.452161657142857 0.4399090714285714 3.2974552285714283 0.4399090714285714 6.32378445 0 9.62123967857143 -0.10317085714285713 0.7744342071428572 -0.7279277142857142 1.37986245 -1.5020275714285714 1.452161657142857 -4.581757264285715 0.4279202357142857 -9.469142271428572 0.06577142142857142 -14.049864642857143 -0.27903895714285715 -0.07742590714285714 -3.5269944642857145 -0.03962843571428571 -7.209429835714285 0.1653918 -10.712287414285715Z" stroke-width="1.71"></path>
    <path id="Intersect_2" fill="#ffffff" fill-rule="evenodd" d="M13.799038457142856 0.8280703157142856C12.023815092857141 0.7745520257142857 10.2589725 0.7990582885714286 8.491630242857141 0.871416405V5.118484542857143h5.307408214285714v4.3193084357142855h-5.307408214285714v4.20155355c1.7691573 0.09119794285714285 3.5490138 0.14225796428571427 5.307408214285714 0.11076537857142858v-4.312318928571428h5.240442685714286c0.08963764285714286 -1.4479424785714285 0.08868235714285713 -2.8707927857142854 -0.0030250714285714286 -4.3193084357142855H13.799038457142856V0.8280703157142856ZM3.187788428571429 9.437792978571428h5.303730364285714V5.118484542857143H3.2702773499999997c-0.05125107857142858 1.4310180000000001 -0.07763288571428571 2.87797335 -0.08248892142857144 4.3193084357142855Z" clip-rule="evenodd" stroke-width="1.71"></path>
    <path id="Intersect_3" stroke="#4147d5" stroke-linecap="round" stroke-linejoin="round" d="M3.6056463214285714 21.49329171428571c-0.4247677928571429 -6.273536421428571 -0.5835522 -12.64188495 -0.2161174714285714 -18.91976792142857 0.046188064285714286 -0.7889386285714286 0.6678561642857143 -1.418928859285714 1.4505854357142856 -1.4949202457142856C8.991913371428572 0.7891519757142856 13.081698492857141 0.6477410314285713 17.27395392857143 1.0392871714285714c0.7740998571428571 0.07230398357142857 1.3988567142857142 0.6777433714285714 1.5021867857142857 1.452161657142857 0.43974985714285714 3.2974552285714283 0.43974985714285714 6.32378445 0 9.62123967857143 -0.10333007142857142 0.7744342071428572 -0.7280869285714285 1.37986245 -1.5021867857142857 1.452161657142857 -4.5817095 0.4279202357142857 -9.418448442857143 0.08844353571428572 -13.999170814285714 -0.25636684285714284" stroke-width="1.71"></path>
    <path id="Vector 4214" stroke="#4147d5" stroke-linecap="round" stroke-linejoin="round" d="M8.491693928571427 0.9702120535714285V13.533214285714285" stroke-width="1.71"></path>
    <path id="Vector 4215" stroke="#4147d5" stroke-linecap="round" stroke-linejoin="round" d="M13.79908622142857 0.9702120535714285V13.533214285714285" stroke-width="1.71"></path>
    <path id="Vector 4209" stroke="#4147d5" stroke-linecap="round" stroke-linejoin="round" d="m18.90669642857143 9.437792978571428 -15.473526942857143 0" stroke-width="1.71"></path>
    <path id="Vector 4211" stroke="#4147d5" stroke-linecap="round" stroke-linejoin="round" d="m18.90669642857143 5.118484542857143 -15.473526942857143 0" stroke-width="1.71"></path>
  </g>
</svg>