<svg xmlns="http://www.w3.org/2000/svg" fill="none" viewBox="-0.855 -0.855 24 24" id="Football--Streamline-Flex" height="24" width="24">
  <desc>
    Football Streamline Icon: https://streamlinehq.com
  </desc>
  <g id="football--football-sports-american-rugby-ball">
    <path id="Vector 3998" fill="#d7e0ff" d="M4.825466571428572 4.825848685714285C8.815838292857142 0.8354849249999999 13.13627715 0.21379135071428573 18.714524785714286 1.2220970142857144c1.1982467142857143 0.2165855614285714 2.136974142857143 1.1553066214285714 2.3536647857142854 2.3535374142857144 1.0083040714285714 5.5782954 0.3864130714285714 9.898670571428571 -3.603974571428571 13.889058214285713 -3.990292114285714 3.9903876428571428 -8.310667285714286 4.612119428571428 -13.888962685714285 3.603815357142857 -1.1982467142857143 -0.21653142857142857 -2.1369598135714285 -1.155258857142857 -2.353545375 -2.3535055714285713C0.21340286785714283 13.136675185714285 0.83509485 8.816220407142856 4.825466571428572 4.825848685714285Z" stroke-width="1.71"></path>
    <path id="Vector 2877" stroke="#4147d5" stroke-linecap="round" stroke-linejoin="round" d="M4.825466571428572 4.825848685714285C8.815838292857142 0.8354849249999999 13.13627715 0.21379135071428573 18.714524785714286 1.222095422142857c1.1982467142857143 0.21658715357142855 2.136974142857143 1.1553082135714285 2.3536647857142854 2.3535390064285715 1.0083040714285714 5.5782954 0.3864130714285714 9.898670571428571 -3.603974571428571 13.889058214285713 -3.990292114285714 3.9903876428571428 -8.310667285714286 4.612119428571428 -13.888962685714285 3.603815357142857 -1.1982467142857143 -0.21653142857142857 -2.1369582214285714 -1.155258857142857 -2.353545375 -2.3535055714285713C0.21340286785714283 13.136675185714285 0.83509485 8.816220407142856 4.825466571428572 4.825848685714285Z" stroke-width="1.71"></path>
    <path id="Vector 2879" stroke="#4147d5" stroke-linecap="round" stroke-linejoin="round" d="M12.626536692857142 6.535937485714286c1.10101455 0.43075425 2.6968830214285715 2.0266227214285717 3.1276531928571427 3.127637271428571" stroke-width="1.71"></path>
    <path id="Vector 2882" stroke="#4147d5" stroke-linecap="round" stroke-linejoin="round" d="M9.453905464285715 9.710893242857143c1.1010304714285715 0.43075425 2.696898942857143 2.0266227214285717 3.1276531928571427 3.127637271428571" stroke-width="1.71"></path>
    <path id="Vector 2883" stroke="#4147d5" stroke-linecap="round" stroke-linejoin="round" d="M6.280892121428571 12.88118402142857c1.1010304714285715 0.43075425 2.696898942857143 2.0266227214285717 3.1276531928571427 3.1276531928571427" stroke-width="1.71"></path>
    <path id="Vector 3997" stroke="#4147d5" stroke-linecap="round" stroke-linejoin="round" d="m6.169553571428571 15.821919642857143 9.901218 -9.901138392857142" stroke-width="1.71"></path>
  </g>
</svg>