<svg xmlns="http://www.w3.org/2000/svg" fill="none" viewBox="-0.855 -0.855 24 24" height="24" width="24">
  <g id="golf--sports-golf-ball-club-outdoor">
    <path id="Vector_2" stroke="#4147d5" stroke-linecap="round" stroke-linejoin="round" d="M5.049305935714286 16.11726214285714c1.6050392142857142 0.9826705714285714 3.651181607142857 1.4951813571428572 6.095932885714285 1.4951813571428572 2.4447672 0 4.490893671428571 -0.5125107857142858 6.095916964285714 -1.4951813571428572" stroke-width="1.71"></path>
    <path id="Vector_2_2" stroke="#4147d5" stroke-linecap="round" stroke-linejoin="round" d="M11.145 17.613080357142856v3.881485071428571" stroke-width="1.71"></path>
    <path id="Vector_2_3" fill="#d7e0ff" d="M11.145429878571429 13.535634342857142c4.076665864285714 0 6.369733692857142 -2.2931155928571427 6.369733692857142 -6.369781457142857C17.51516357142857 3.0891870214285713 15.222095742857142 0.7960714285714285 11.145429878571429 0.7960714285714285 7.068779935714286 0.7960714285714285 4.7756484214285715 3.0891870214285713 4.7756484214285715 7.165852885714285c0 4.076665864285714 2.2931315142857143 6.369781457142857 6.369781457142857 6.369781457142857Z" stroke-width="1.71"></path>
    <path id="Vector_2_4" stroke="#4147d5" stroke-linecap="round" stroke-linejoin="round" d="M11.096805835714285 3.3428790642857145v0.3925746642857143" stroke-width="1.71"></path>
    <path id="Vector_2_5" stroke="#4147d5" stroke-linecap="round" stroke-linejoin="round" d="M8.646386528571428 4.9598911928571425v0.3925905857142857" stroke-width="1.71"></path>
    <path id="Vector_2_6" stroke="#4147d5" stroke-linecap="round" stroke-linejoin="round" d="M13.546429071428571 4.9598911928571425v0.3925905857142857" stroke-width="1.71"></path>
    <path id="Vector_2_7" stroke="#4147d5" stroke-linecap="round" stroke-linejoin="round" d="M11.145429878571429 13.535634342857142c4.076665864285714 0 6.369733692857142 -2.2931155928571427 6.369733692857142 -6.369781457142857C17.51516357142857 3.0891870214285713 15.222095742857142 0.7960714285714285 11.145429878571429 0.7960714285714285 7.068779935714286 0.7960714285714285 4.7756484214285715 3.0891870214285713 4.7756484214285715 7.165852885714285c0 4.076665864285714 2.2931315142857143 6.369781457142857 6.369781457142857 6.369781457142857Z" stroke-width="1.71"></path>
  </g>
</svg>