<svg xmlns="http://www.w3.org/2000/svg" fill="none" viewBox="-0.855 -0.855 24 24" height="24" width="24">
  <g id="gymnastics--sports-gymnastics-acrobatic-athlete-gym-sport">
    <path id="Vector_2" fill="#d7e0ff" d="M5.473038835714286 5.840027764285714c1.2951445285714285 0 2.023661335714286 -0.728516807142857 2.023661335714286 -2.023661335714286 0 -1.2951286071428572 -0.728516807142857 -2.0236454142857143 -2.023661335714286 -2.0236454142857143 -1.2951445285714285 0 -2.023661335714286 0.728516807142857 -2.023661335714286 2.0236454142857143 0 1.2951445285714285 0.728516807142857 2.023661335714286 2.023661335714286 2.023661335714286Z" stroke-width="1.71"></path>
    <path id="Vector 4155" stroke="#4147d5" stroke-linecap="round" stroke-linejoin="round" d="M0.7968483942857143 8.747216935714286c5.238790041428571 0.6871370142857143 9.064390898571428 -0.8695169785714285 12.522572948571428 -4.864808421428571" stroke-width="1.71"></path>
    <path id="Vector 4156" stroke="#4147d5" stroke-linecap="round" stroke-linejoin="round" d="M7.654242707142856 8.155274142857143c2.007246342857143 0.4181285571428572 5.647537692857143 1.5799151999999999 5.995914471428572 2.3641729285714286 0.34837677857142857 0.7842577285714286 0 9.977481642857143 0 9.977481642857143" stroke-width="1.71"></path>
    <path id="Vector 4157" stroke="#4147d5" stroke-linecap="round" stroke-linejoin="round" d="M13.432543092857141 10.126760957142857C16.5692715 8.34169815 19.17099214285714 6.179759207142856 21.49329171428571 3.4175028" stroke-width="1.71"></path>
    <path id="Vector_2_2" stroke="#4147d5" stroke-linecap="round" stroke-linejoin="round" d="M5.473038835714286 5.840027764285714c1.2951445285714285 0 2.023661335714286 -0.728516807142857 2.023661335714286 -2.023661335714286 0 -1.2951286071428572 -0.728516807142857 -2.0236454142857143 -2.023661335714286 -2.0236454142857143 -1.2951445285714285 0 -2.023661335714286 0.728516807142857 -2.023661335714286 2.0236454142857143 0 1.2951445285714285 0.728516807142857 2.023661335714286 2.023661335714286 2.023661335714286Z" stroke-width="1.71"></path>
  </g>
</svg>