<svg xmlns="http://www.w3.org/2000/svg" fill="none" viewBox="-0.855 -0.855 24 24" id="Hiking--Streamline-Flex" height="24" width="24">
  <desc>
    Hiking Streamline Icon: https://streamlinehq.com
  </desc>
  <g id="hiking--hiking-sports-mountain-track-walk">
    <path id="Vector" fill="#d7e0ff" d="M10.470011035714286 5.633526835714286c1.5479927357142855 0 2.4187197428571428 -0.8707429285714287 2.4187197428571428 -2.4187197428571428C12.888730778571428 1.666814357142857 12.018003771428571 0.7960714285714285 10.470011035714286 0.7960714285714285c-1.5479927357142855 0 -2.418735664285714 0.8707429285714287 -2.418735664285714 2.418735664285714 0 1.5479768142857142 0.8707429285714287 2.4187197428571428 2.418735664285714 2.4187197428571428Z" stroke-width="1.71"></path>
    <path id="Vector 2892" stroke="#4147d5" stroke-linecap="round" stroke-linejoin="round" d="M17.894571214285715 5.7466485857142855c0.8842761428571428 5.327278157142857 0.8842761428571428 10.422835842857143 0 15.750145842857142" stroke-width="1.71"></path>
    <path id="Ellipse 1545" stroke="#4147d5" stroke-linecap="round" stroke-linejoin="round" d="M10.274288914285714 8.557767857142856c-0.42290498571428575 0.7463169642857143 -0.8436924214285714 2.4693817285714283 -1.0134626142857142 4.014508607142857 -0.07545165 0.6868185857142857 0.23611478571428568 1.3517133642857142 0.7961191928571428 1.7564201571428573 2.7728123142857144 2.0038232357142856 3.337895657142857 2.438478235714286 3.337895657142857 6.942491164285714" stroke-width="1.71"></path>
    <path id="Vector 2890" stroke="#4147d5" stroke-linecap="round" stroke-linejoin="round" d="M7.994547321428572 16.319464285714286c-0.6629205214285714 1.8069229285714286 -1.6119650357142858 3.3159559285714284 -2.9250370928571425 4.7250023571428565" stroke-width="1.71"></path>
    <path id="Vector 2891" stroke="#4147d5" stroke-linecap="round" stroke-linejoin="round" d="M6.3934407 13.035478585714284c-0.2985267857142857 -0.17395752857142857 -2.006848307142857 -0.8738635285714286 -1.9986965357142856 -2.116483264285714C4.408723178571428 8.78937687857143 7.443554442857143 7.672138392857142 9.552857142857142 8.234101135714285c2.1093027 0.5619786642857143 2.779722214285714 2.2839766928571428 4.652050371428571 2.413831864285714 1.8722326285714286 0.12985517142857142 3.5076817714285715 -1.5677512285714286 3.6899821285714283 -1.7515322785714285" stroke-width="1.71"></path>
    <path id="Vector_2" stroke="#4147d5" stroke-linecap="round" stroke-linejoin="round" d="M10.470011035714286 5.633526835714286c1.5479927357142855 0 2.4187197428571428 -0.8707429285714287 2.4187197428571428 -2.4187197428571428C12.888730778571428 1.666814357142857 12.018003771428571 0.7960714285714285 10.470011035714286 0.7960714285714285c-1.5479927357142855 0 -2.418735664285714 0.8707429285714287 -2.418735664285714 2.418735664285714 0 1.5479768142857142 0.8707429285714287 2.4187197428571428 2.418735664285714 2.4187197428571428Z" stroke-width="1.71"></path>
  </g>
</svg>