<svg xmlns="http://www.w3.org/2000/svg" fill="none" viewBox="-0.855 -0.855 24 24" height="24" width="24">
  <g id="hockey--sports-hockey-skater-team-hooked-angle-stick">
    <path id="Subtract" fill="#d7e0ff" fill-rule="evenodd" d="m11.647496207142858 11.18144415 -0.00001592142857142857 0.00003184285714285714 2.0721102428571427 2.6888586214285715 0.00001592142857142857 -0.00003184285714285714 -2.0721102428571427 -2.6888586214285715ZM9.461133792857142 20.14267692857143l-2.2104196928571427 -3.2557729285714285 -0.21259883571428573 0.2759183571428572c-1.171817142857143 -0.3029847857142857 -2.9380767428571426 -0.6204580714285713 -4.510620321428571 -0.8748824999999999 -0.8590566000000001 -0.13899407142857143 -1.661085827142857 0.4551936428571428 -1.704559287857143 1.3276879285714285 -0.04063467 0.8154955714285714 -0.03517202785714286 1.691811 0.01638951857142857 2.491066714285714 0.04841547214285714 0.7503769285714286 0.6707331664285714 1.3117664999999998 1.419304605 1.3385145 1.882979592857143 0.06766607142857144 3.6693797999999997 0.0612975 5.570446135714286 -0.0189465 0.5020026428571429 -0.021175499999999996 0.9618771857142857 -0.28547121428571426 1.2397061142857142 -0.7057969285714286l0.3923517642857143 -0.5777886428571428Zm5.435289128571428 -8.005708242857143L12.903792450000001 9.551249078571429 19.270660285714285 1.2892822585714285c0.36698892857142856 -0.4876892785714286 1.0329822857142859 -0.6346456564285714 1.5696936428571429 -0.3463850078571428 0.6429072857142857 0.3451924928571429 0.8502042857142857 1.1709748992857143 0.44707371428571424 1.7807974564285711L14.896422921428572 12.136968685714285Z" clip-rule="evenodd" stroke-width="1.71"></path>
    <path id="Intersect" fill="#ffffff" fill-rule="evenodd" d="M3.7551962999999997 16.492371c-0.1399971214285714 1.562529 -0.13802286428571428 3.4364811428571427 0.005922771428571429 4.990094142857142 -0.4966052785714286 -0.007483071428571428 -0.9960923357142857 -0.020220214285714286 -1.5025529785714284 -0.03837064285714285 -0.7485698464285714 -0.02690721428571428 -1.3708859485714286 -0.5882967857142857 -1.4193014207142858 -1.3386737142857141 -0.05156154642857142 -0.7990965 -0.05702418857142857 -1.6755711428571427 -0.016391110714285714 -2.491066714285714 0.04347346071428571 -0.8724942857142858 0.8455010957142857 -1.4665227857142857 1.7045576957142856 -1.3275287142857142 0.40101302142857137 0.06480021428571428 0.8146358142857143 0.13374 1.227765042857143 0.20554564285714283Z" clip-rule="evenodd" stroke-width="1.71"></path>
    <path id="Intersect_2" stroke="#4147d5" stroke-linecap="round" stroke-linejoin="round" d="M7.0381152642857145 17.162822357142858c-1.171817142857143 -0.3029847857142857 -2.9380767428571426 -0.6204580714285713 -4.510620321428571 -0.8748824999999999 -0.8590566000000001 -0.13899407142857143 -1.661085827142857 0.4551936428571428 -1.704559287857143 1.3276879285714285 -0.04063467 0.8154955714285714 -0.03517202785714286 1.691811 0.01638951857142857 2.491066714285714 0.04841547214285714 0.7503769285714286 0.6707331664285714 1.3117664999999998 1.419304605 1.3385145 1.882979592857143 0.06766607142857144 3.6693797999999997 0.0612975 5.570446135714286 -0.0189465 0.5020026428571429 -0.021175499999999996 0.9618771857142857 -0.28547121428571426 1.2397061142857142 -0.7057969285714286m4.085629628571429 -11.494443514285713L19.270660285714285 1.2892822585714285c0.36698892857142856 -0.4876892785714286 1.0329822857142859 -0.6346456564285714 1.5696936428571429 -0.3463850078571428 0.6429072857142857 0.3451924928571429 0.8502042857142857 1.1709748992857143 0.44707371428571424 1.7807974564285711L15.178088914285714 11.72210402142857" stroke-width="1.71"></path>
    <path id="Intersect_3" stroke="#4147d5" stroke-linecap="round" stroke-linejoin="round" d="M3.856743171428571 21.38773264285714c-0.2190947785714286 -1.3744969285714284 -0.2190947785714286 -3.488544214285714 0 -4.863041142857142" stroke-width="1.71"></path>
    <path id="Intersect_4" fill="#d7e0ff" d="M14.460924085714286 21.4262625c1.9010504142857143 0.080244 3.6874347 0.08661257142857141 5.570462057142857 0.0189465 0.7486255714285714 -0.026747999999999997 1.370835 -0.5881375714285714 1.4192361428571427 -1.3385145 0.05158542857142857 -0.7992557142857143 0.056998714285714284 -1.6755711428571427 0.01639907142857143 -2.491066714285714 -0.0434655 -0.8724942857142858 -0.8454278571428572 -1.466682 -1.7045481428571427 -1.3276879285714285 -1.5725594999999999 0.25442442857142855 -3.3387235714285715 0.5718977142857143 -4.510588478571428 0.8748824999999999L3.0192919499999995 1.2892822585714285C2.652366707142857 0.80159298 1.9864370357142855 0.6546366021428571 1.449631742142857 0.9428972507142858 0.8068056557142858 1.2880897435714285 0.5995198007142857 2.11387215 1.0026217135714286 2.7236947071428568L13.221217971428572 20.720465571428573c0.27782892857142855 0.4203257142857143 0.7377034714285714 0.6846214285714285 1.2397061142857142 0.7057969285714286Z" stroke-width="1.71"></path>
    <path id="Intersect_5" stroke="#4147d5" stroke-linecap="round" stroke-linejoin="round" d="M14.460924085714286 21.4262625c1.9010504142857143 0.080244 3.6874347 0.08661257142857141 5.570462057142857 0.0189465 0.7486255714285714 -0.026747999999999997 1.370835 -0.5881375714285714 1.4192361428571427 -1.3385145 0.05158542857142857 -0.7992557142857143 0.056998714285714284 -1.6755711428571427 0.01639907142857143 -2.491066714285714 -0.0434655 -0.8724942857142858 -0.8454278571428572 -1.466682 -1.7045481428571427 -1.3276879285714285 -1.5725594999999999 0.25442442857142855 -3.3387235714285715 0.5718977142857143 -4.510588478571428 0.8748824999999999L3.0192919499999995 1.2892822585714285C2.652366707142857 0.80159298 1.9864370357142855 0.6546366021428571 1.449631742142857 0.9428972507142858 0.8068056557142858 1.2880897435714285 0.5995198007142857 2.11387215 1.0026217135714286 2.7236947071428568L13.221217971428572 20.720465571428573c0.27782892857142855 0.4203257142857143 0.7377034714285714 0.6846214285714285 1.2397061142857142 0.7057969285714286Z" stroke-width="1.71"></path>
    <path id="Intersect_6" fill="#ffffff" fill-rule="evenodd" d="M18.534771857142857 16.492371c0.14010857142857142 1.562529 0.1380387857142857 3.4364811428571427 -0.005890928571428571 4.990094142857142 0.4965893571428571 -0.007483071428571428 0.9960445714285715 -0.020220214285714286 1.5025052142857143 -0.03837064285714285 0.7486255714285714 -0.02690721428571428 1.370994214285714 -0.5882967857142857 1.419395357142857 -1.3386737142857141 0.05158542857142857 -0.7990965 0.056998714285714284 -1.6755711428571427 0.01639907142857143 -2.491066714285714 -0.0434655 -0.8724942857142858 -0.8455870714285714 -1.4665227857142857 -1.7045481428571427 -1.3275287142857142 -0.4010607857142857 0.06480021428571428 -0.8146995 0.13374 -1.2278605714285713 0.20554564285714283Z" clip-rule="evenodd" stroke-width="1.71"></path>
    <path id="Intersect_7" stroke="#4147d5" stroke-linecap="round" stroke-linejoin="round" d="M18.534771857142857 16.492371c0.14010857142857142 1.562529 0.1380387857142857 3.4364811428571427 -0.005890928571428571 4.990094142857142 0.4965893571428571 -0.007483071428571428 0.9960445714285715 -0.020220214285714286 1.5025052142857143 -0.03837064285714285 0.7486255714285714 -0.02690721428571428 1.370994214285714 -0.5882967857142857 1.419395357142857 -1.3386737142857141 0.05158542857142857 -0.7990965 0.056998714285714284 -1.6755711428571427 0.01639907142857143 -2.491066714285714 -0.0434655 -0.8724942857142858 -0.8455870714285714 -1.4665227857142857 -1.7045481428571427 -1.3275287142857142 -0.4010607857142857 0.06480021428571428 -0.8146995 0.13374 -1.2278605714285713 0.20554564285714283Z" stroke-width="1.71"></path>
  </g>
</svg>