<svg xmlns="http://www.w3.org/2000/svg" fill="none" viewBox="-0.855 -0.855 24 24" height="24" width="24">
  <g id="holiday-vacation-beach-umbrella--holiday-vacation-beach-umbrella-seaside-summer">
    <path id="Subtract" fill="#ffffff" d="M5.47520415 2.66867025c3.6586805999999994 -1.1150476971428571 6.587650285714285 0.4191316071428571 8.3016876 4.276543478571429C9.596720678571428 8.5990362 5.361827657142857 9.889690885714286 0.969802872857143 10.848415628571429c-0.7287174171428571 -4.157721857142858 0.8467365985714286 -7.064704049999999 4.505401277142857 -8.179745378571429Z" stroke-width="1.71"></path>
    <path id="Vector" fill="#d7e0ff" d="M19.255057285714283 5.273973214285714c1.4327693571428572 0 2.2388712857142856 -0.8060223214285713 2.2388712857142856 -2.238950892857143S20.687826642857143 0.7960714285714285 19.255057285714283 0.7960714285714285c-1.4330877857142856 0 -2.2390305 0.8060223214285713 -2.2390305 2.238950892857143s0.8059427142857142 2.238950892857143 2.2390305 2.238950892857143Z" stroke-width="1.71"></path>
    <path id="Subtract_2" fill="#d7e0ff" d="M4.605384664285714 16.518482142857142c4.789993628571428 -1.8391001357142858 15.456570621428572 1.3423356428571427 16.888543907142857 4.972580571428572H0.9018884271428571s-1.0865005757142856 -3.133496357142857 3.7034962371428573 -4.972580571428572Z" stroke-width="1.71"></path>
    <path id="Vector_2" stroke="#4147d5" stroke-linecap="round" stroke-linejoin="round" d="M19.255057285714283 5.273973214285714c1.4327693571428572 0 2.2388712857142856 -0.8060223214285713 2.2388712857142856 -2.238950892857143S20.687826642857143 0.7960714285714285 19.255057285714283 0.7960714285714285c-1.4330877857142856 0 -2.2390305 0.8060223214285713 -2.2390305 2.238950892857143s0.8059427142857142 2.238950892857143 2.2390305 2.238950892857143Z" stroke-width="1.71"></path>
    <path id="Subtract_3" stroke="#4147d5" stroke-linecap="round" stroke-linejoin="round" d="M4.605384664285714 16.518482142857142c4.789993628571428 -1.8391001357142858 15.456570621428572 1.3423356428571427 16.888543907142857 4.972580571428572H0.9018884271428571s-1.0865005757142856 -3.133496357142857 3.7034962371428573 -4.972580571428572Z" stroke-width="1.71"></path>
    <path id="Subtract_4" stroke="#4147d5" stroke-linecap="round" stroke-linejoin="round" d="M5.47520415 2.66867025c3.6586805999999994 -1.1150476971428571 6.587650285714285 0.4191316071428571 8.3016876 4.276543478571429C9.596720678571428 8.5990362 5.361827657142857 9.889690885714286 0.969802872857143 10.848415628571429c-0.7287174171428571 -4.157721857142858 0.8467365985714286 -7.064704049999999 4.505401277142857 -8.179745378571429Z" stroke-width="1.71"></path>
    <path id="Intersect" stroke="#4147d5" stroke-linecap="round" stroke-linejoin="round" d="M5.475013092857142 2.6697369857142856c1.1592869785714286 -0.3533283428571429 2.6102863714285713 1.7055989571428571 4.136212007142857 5.798154407142857 -1.4336609571428571 0.4806201642857143 -2.8775116285714284 0.9206566071428571 -4.335532371428571 1.3213352785714285 -1.0159941214285713 -4.247964514285714 -0.9599666142857143 -6.766177264285713 0.19932036428571426 -7.119489685714285Z" stroke-width="1.71"></path>
    <path id="Vector 4352" stroke="#4147d5" stroke-linecap="round" stroke-linejoin="round" d="M7.275392314285714 9.21390585 9.289309735714285 15.821919642857143" stroke-width="1.71"></path>
  </g>
</svg>