<svg xmlns="http://www.w3.org/2000/svg" fill="none" viewBox="-0.855 -0.855 24 24" height="24" width="24">
  <g id="ice-skating--sports-ice-skating-shoe-winter">
    <path id="Union" fill="#d7e0ff" d="M11.679609728571428 9.186393621428572c-0.8904855 -0.1280719714285714 -1.6131113785714284 -0.8754875142857144 -1.608414557142857 -1.7751119142857141 0.010858414285714284 -2.077587214285714 -0.05575684285714286 -4.716277414285714 -0.19986169285714286 -6.401622722142857 -2.9658277928571426 -0.2847834085714286 -4.937043942857143 -0.2847834085714286 -7.902871735714284 0C1.6161842142857141 5.129725071428571 1.3443815464285715 11.601626571428572 1.9502794714285712 16.1011815c0.09850587857142858 0.7315896428571429 0.7215432214285714 1.2652759285714286 1.4591670857142855 1.2925015714285712 4.741512878571429 0.17497649999999998 9.130716385714285 0.17497649999999998 13.872149657142858 0 0.7376397857142857 -0.027225642857142858 1.3649440714285712 -0.5618672142857143 1.4746427142857144 -1.2917055 0.6838253571428571 -4.552238935714286 -3.1823433 -6.355515857142857 -7.0766292 -6.915583949999999Z" stroke-width="1.71"></path>
    <path id="Union_2" stroke="#4147d5" stroke-linecap="round" stroke-linejoin="round" d="M11.679609728571428 9.186393621428572c-0.8904855 -0.1280719714285714 -1.6131113785714284 -0.8754875142857144 -1.608414557142857 -1.7751119142857141 0.010858414285714284 -2.077587214285714 -0.05575684285714286 -4.716277414285714 -0.19986169285714286 -6.401622722142857 -2.9658277928571426 -0.2847834085714286 -4.937043942857143 -0.2847834085714286 -7.902871735714284 0C1.6161842142857141 5.129725071428571 1.3443815464285715 11.601626571428572 1.9502794714285712 16.1011815c0.09850587857142858 0.7315896428571429 0.7215432214285714 1.2652759285714286 1.4591670857142855 1.2925015714285712 4.741512878571429 0.17497649999999998 9.130716385714285 0.17497649999999998 13.872149657142858 0 0.7376397857142857 -0.027225642857142858 1.3649440714285712 -0.5618672142857143 1.4746427142857144 -1.2917055 0.6838253571428571 -4.552238935714286 -3.1823433 -6.355515857142857 -7.0766292 -6.915583949999999Z" stroke-width="1.71"></path>
    <path id="Vector 4218" stroke="#4147d5" stroke-linecap="round" stroke-linejoin="round" d="M0.7960714285714285 21.49392857142857h17.513571428571428c2.183942357142857 0 3.184285714285714 -1.8597820714285713 3.184285714285714 -3.7813392857142856" stroke-width="1.71"></path>
    <path id="Vector 4219" stroke="#4147d5" stroke-linecap="round" stroke-linejoin="round" d="M5.099824628571429 17.712589285714284v3.7316644285714284" stroke-width="1.71"></path>
    <path id="Vector 4220" stroke="#4147d5" stroke-linecap="round" stroke-linejoin="round" d="m13.085424107142856 17.76863271428571 0 3.676576285714286" stroke-width="1.71"></path>
    <path id="Vector 4221" stroke="#4147d5" stroke-linecap="round" stroke-linejoin="round" d="M9.950892857142858 3.6849350357142856H7.711941964285714" stroke-width="1.71"></path>
    <path id="Vector 4222" stroke="#4147d5" stroke-linecap="round" stroke-linejoin="round" d="M9.950892857142858 6.620448428571428H7.711941964285714" stroke-width="1.71"></path>
  </g>
</svg>