<svg xmlns="http://www.w3.org/2000/svg" fill="none" viewBox="-0.855 -0.855 24 24" height="24" width="24">
  <g id="kayaking--sports-kayaking-boat-double-end-puddle">
    <path id="Vector" stroke="#4147d5" stroke-linecap="round" stroke-linejoin="round" d="M0.7960714285714285 21.49456542857143h1.1498774142857142c2.5052049428571426 0 2.3020634357142855 -2.208461357142857 4.599525578571428 -2.208461357142857S8.639795057142857 21.49456542857143 11.145 21.49456542857143s2.3020634357142855 -2.208461357142857 4.599525578571428 -2.208461357142857c2.297478064285714 0 2.0943206357142854 2.208461357142857 4.599557421428571 2.208461357142857H21.49392857142857" stroke-width="1.71"></path>
    <path id="Subtract" fill="#ffffff" fill-rule="evenodd" d="M1.2228707957142857 17.798087357142855c0 -1.1963361428571428 5.885235068571428 -2.8997379428571426 9.922176968571428 -2.8997379428571426 4.036925978571428 0 9.92218652142857 1.7034017999999997 9.92218652142857 2.8997379428571426 0 0.2776697142857143 -0.3169956428571428 0.5827242857142857 -0.8545030714285713 0.8874604285714286 -0.0033434999999999997 -0.0030250714285714286 -0.007005428571428571 -0.006209357142857142 -0.010985785714285714 -0.009552857142857142 -0.06607392857142858 -0.05779478571428571 -0.14950221428571428 -0.13931249999999998 -0.3074427857142857 -0.29836757142857145l-0.028021714285714285 -0.028180928571428572c-0.2472597857142857 -0.24964799999999998 -0.7172603571428572 -0.7241065714285714 -1.3467936428571428 -1.103991857142857 -0.7862001428571429 -0.47429935714285715 -1.7034336428571428 -0.7456005 -2.774961707142857 -0.7456005 -1.0714803 0 -1.9887934071428572 0.27130114285714285 -2.7749776285714285 0.7456005 -0.6295014428571428 0.3798852857142857 -1.0995816214285714 0.8543438571428571 -1.3468254857142856 1.103991857142857l-0.00001592142857142857 0 -0.02794210714285714 0.028180928571428572 -0.04690452857142857 0.04712742857142857c-0.1369242857142857 0.13756114285714285 -0.2120256642857143 0.2093667857142857 -0.26864226428571425 0.2580863571428571 -0.009521014285714285 0.008279142857142856 -0.017529492857142857 0.014966142857142857 -0.024136885714285714 0.020220214285714286 -0.022369607142857142 0.0025474285714285716 -0.05820874285714286 0.005254071428571428 -0.11008075714285713 0.005254071428571428 -0.05187201428571428 0 -0.08771115 -0.0027066428571428567 -0.11008075714285713 -0.005254071428571428 -0.006607392857142857 -0.005254071428571428 -0.014615871428571429 -0.011941071428571428 -0.024136885714285714 -0.020220214285714286 -0.0566166 -0.048719571428571425 -0.13171797857142856 -0.12052521428571429 -0.26864226428571425 -0.2580863571428571l-0.04690452857142857 -0.04712742857142857 -0.02794210714285714 -0.028180928571428572c-0.2472438642857143 -0.24964799999999998 -0.7173240428571428 -0.7241065714285714 -1.346841407142857 -1.103991857142857 -0.7861842214285714 -0.47429935714285715 -1.7034814071428572 -0.7456005 -2.7749776285714285 -0.7456005 -1.0714803 0 -1.9887774857142857 0.27130114285714285 -2.7749776285714285 0.7456005 -0.6295173642857143 0.3798852857142857 -1.099597542857143 0.8543438571428571 -1.346841407142857 1.103991857142857l-0.02795802857142857 0.028180928571428572c-0.15789280714285714 0.15905507142857142 -0.24132109285714287 0.24057278571428573 -0.3074746285714286 0.29836757142857145 -0.0038689071428571423 0.0033434999999999997 -0.007514914285714286 0.006527785714285714 -0.01093802142857143 0.009393642857142857 -0.537378465 -0.30457692857142854 -0.8544139114285714 -0.6096315 -0.8544139114285714 -0.8873012142857143Z" clip-rule="evenodd" stroke-width="1.71"></path>
    <path id="Intersect" stroke="#4147d5" stroke-linecap="round" stroke-linejoin="round" d="M1.2228707957142857 17.798087357142855c0 -1.1963361428571428 5.885235068571428 -2.8997379428571426 9.922176968571428 -2.8997379428571426 4.036925978571428 0 9.92218652142857 1.7034017999999997 9.92218652142857 2.8997379428571426" stroke-width="1.71"></path>
    <path id="Vector_2" fill="#d7e0ff" d="M9.71074995 7.676930742857143c1.3503441214285714 0.26814869999999996 2.2607473285714286 -0.34057527857142855 2.5288960285714284 -1.6909194 0.26814869999999996 -1.3503441214285714 -0.34057527857142855 -2.2607473285714286 -1.6909194 -2.5288960285714284 -1.3503441214285714 -0.26814869999999996 -2.260731407142857 0.34057527857142855 -2.5288960285714284 1.6909194 -0.26814869999999996 1.3503441214285714 0.3405912 2.2607473285714286 1.6909194 2.5288960285714284Z" stroke-width="1.71"></path>
    <path id="Vector_3" stroke="#4147d5" stroke-linecap="round" stroke-linejoin="round" d="M7.035679285714285 15.1210902c0.09126162857142857 -0.6473015999999999 0.8369735785714285 -5.270406814285714 2.4833288999999996 -5.116032642857142 1.6463553214285713 0.15439009285714286 1.0362143357142857 2.06438835 2.848518707142857 2.1620026285714284 1.1199451285714286 0.06031037142857142 2.7019619571428573 -0.6998900785714285 2.7019619571428573 -0.6998900785714285" stroke-width="1.71"></path>
    <path id="Vector 4326" stroke="#4147d5" stroke-linecap="round" d="M16.692981 6.5209395 14.448234707142856 14.898349414285713" stroke-width="1.71"></path>
    <path id="Intersect_2" fill="#d7e0ff" d="m16.538543142857144 6.059616107142857 0.5171279999999999 0.13856419285714286c0.5554986428571428 0.14881759285714286 1.163060357142857 -0.0035027142857142857 1.4974103571428572 -0.4712583642857142 0.6215725714285715 -0.86919855 0.9382497857142857 -1.813928357142857 1.1799370714285713 -2.8473086785714288 0.17402121428571427 -0.7438969071428571 -0.23961749999999998 -1.505624222142857 -0.9686597142857143 -1.7338085442857143 -0.3902342142857143 -0.12210302785714285 -0.7803092142857142 -0.22665268071428574 -1.1793002142857143 -0.31598463214285716 -0.7454412857142857 -0.166940955 -1.484514 0.2859393042857143 -1.7058059357142858 1.017193005 -0.3073313357142857 1.015803064285714 -0.5054894357142857 1.9922802 -0.4018568571428571 3.055767942857143 0.05575684285714286 0.5723116714285714 0.5058078642857142 1.008001564285714 1.0611472928571428 1.1568350785714285Z" stroke-width="1.71"></path>
    <path id="Vector_4" stroke="#4147d5" stroke-linecap="round" stroke-linejoin="round" d="M9.71074995 7.676930742857143c1.3503441214285714 0.26814869999999996 2.2607473285714286 -0.34057527857142855 2.5288960285714284 -1.6909194 0.26814869999999996 -1.3503441214285714 -0.34057527857142855 -2.2607473285714286 -1.6909194 -2.5288960285714284 -1.3503441214285714 -0.26814869999999996 -2.260731407142857 0.34057527857142855 -2.5288960285714284 1.6909194 -0.26814869999999996 1.3503441214285714 0.3405912 2.2607473285714286 1.6909194 2.5288960285714284Z" stroke-width="1.71"></path>
    <path id="Intersect_3" stroke="#4147d5" stroke-linecap="round" stroke-linejoin="round" d="m16.538543142857144 6.059616107142857 0.5171279999999999 0.13856419285714286c0.5554986428571428 0.14881759285714286 1.163060357142857 -0.0035027142857142857 1.4974103571428572 -0.4712583642857142 0.6215725714285715 -0.86919855 0.9382497857142857 -1.813928357142857 1.1799370714285713 -2.8473086785714288 0.17402121428571427 -0.7438969071428571 -0.23961749999999998 -1.505624222142857 -0.9686597142857143 -1.7338085442857143 -0.3902342142857143 -0.12210302785714285 -0.7803092142857142 -0.22665268071428574 -1.1793002142857143 -0.31598463214285716 -0.7454412857142857 -0.166940955 -1.484514 0.2859393042857143 -1.7058059357142858 1.017193005 -0.3073313357142857 1.015803064285714 -0.5054894357142857 1.9922802 -0.4018568571428571 3.055767942857143 0.05575684285714286 0.5723116714285714 0.5058078642857142 1.008001564285714 1.0611472928571428 1.1568350785714285Z" stroke-width="1.71"></path>
  </g>
</svg>