<svg xmlns="http://www.w3.org/2000/svg" fill="none" viewBox="-0.855 -0.855 24 24" id="Leaf--Streamline-Flex" height="24" width="24">
  <desc>
    Leaf Streamline Icon: https://streamlinehq.com
  </desc>
  <g id="leaf--nature-environment-leaf-ecology-plant-plants-eco">
    <path id="Vector 154" fill="#d7e0ff" d="M18.319991785714286 6.842026949999999c3.972874071428571 4.034219335714286 3.419286 8.630560628571429 0 12.102721692857143 -3.0446547857142856 3.091623 -8.362013892857142 2.8750915714285714 -12.713292557142855 -0.806898C0.42719740285714286 13.75495202142857 0.04465180564285714 5.631759557142857 3.2229588642857143 1.1941071428571428c2.383740364285714 3.2273850214285718 11.124111085714286 1.61368455 15.097032921428571 5.6479198071428565Z" stroke-width="1.71"></path>
    <path id="Vector 156" stroke="#4147d5" stroke-linecap="round" stroke-linejoin="round" d="M18.319991785714286 6.842026949999999c3.972874071428571 4.034219335714286 3.419286 8.630560628571429 0 12.102721692857143 -3.0446547857142856 3.091623 -8.362013892857142 2.8750915714285714 -12.713292557142855 -0.806898C0.42719740285714286 13.75495202142857 0.04465180564285714 5.631759557142857 3.2229588642857143 1.1941071428571428c2.383740364285714 3.2273850214285718 11.124111085714286 1.61368455 15.097032921428571 5.6479198071428565Z" stroke-width="1.71"></path>
    <path id="Vector 155" stroke="#4147d5" stroke-linecap="round" stroke-linejoin="round" d="M9.57968475 9.640807114285714c4.864585521428571 2.48789835 8.918467821428571 5.805112071428572 8.918467821428571 9.12227802857143" stroke-width="1.71"></path>
  </g>
</svg>