<svg xmlns="http://www.w3.org/2000/svg" fill="none" viewBox="-0.855 -0.855 24 24" height="24" width="24">
  <g id="martial-arts--sports-martial-arts-fighting-close-combat">
    <path id="Vector_2" fill="#d7e0ff" d="M3.7813392857142856 5.886582021428572c1.2737142857142858 0 1.9901785714285714 -0.7164642857142857 1.9901785714285714 -1.9901785714285714s-0.7164642857142857 -1.9901785714285714 -1.9901785714285714 -1.9901785714285714 -1.9901785714285714 0.7164642857142857 -1.9901785714285714 1.9901785714285714 0.7164642857142857 1.9901785714285714 1.9901785714285714 1.9901785714285714Z" stroke-width="1.71"></path>
    <path id="Vector 4155" stroke="#4147d5" stroke-linecap="round" stroke-linejoin="round" d="M11.572968 21.49329171428571V10.302278785714286l9.324066214285715 -7.864310035714285" stroke-width="1.71"></path>
    <path id="Vector 4156" stroke="#4147d5" stroke-linecap="round" stroke-linejoin="round" d="M6.685009821428572 14.317519778571429s-1.0047058285714285 -2.3771329714285714 -1.1778513642857142 -3.7657203642857144C4.8937695 5.632858135714286 10.636867607142857 6.3437499214285715 11.148805221428571 4.833363599999999 11.572490357142858 3.5833722428571426 9.517638942857142 0.7960714285714285 9.517638942857142 0.7960714285714285" stroke-width="1.71"></path>
    <path id="Vector 4157" stroke="#4147d5" stroke-linecap="round" stroke-linejoin="round" d="m6.9337503 7.544018657142856 4.639297307142857 2.708505664285714" stroke-width="1.71"></path>
    <path id="Vector_2_2" stroke="#4147d5" stroke-linecap="round" stroke-linejoin="round" d="M3.7813392857142856 5.886582021428572c1.2737142857142858 0 1.9901785714285714 -0.7164642857142857 1.9901785714285714 -1.9901785714285714s-0.7164642857142857 -1.9901785714285714 -1.9901785714285714 -1.9901785714285714 -1.9901785714285714 0.7164642857142857 -1.9901785714285714 1.9901785714285714 0.7164642857142857 1.9901785714285714 1.9901785714285714 1.9901785714285714Z" stroke-width="1.71"></path>
  </g>
</svg>