<svg xmlns="http://www.w3.org/2000/svg" fill="none" viewBox="-0.855 -0.855 24 24" id="Meditation--Streamline-Flex" height="24" width="24">
  <desc>
    Meditation Streamline Icon: https://streamlinehq.com
  </desc>
  <g id="meditation--meditation-zen-concentration-mind">
    <path id="Vector" fill="#d7e0ff" d="M7.8511907785714286 15.7750788V9.149503671428572c0.8201605499999999 -0.5281774714285714 2.020954692857143 -0.9244618285714286 3.2939206714285714 -0.9244618285714286 1.2729659785714285 0 2.473155107142857 0.3713991642857143 3.2933156571428572 0.899592557142857v6.590420614285714l4.309691892857143 2.510681914285714c0.5359152857142857 0.31221921428571425 0.8656480714285714 0.8857090714285715 0.8656480714285714 1.5060079285714285 0 0.8368302857142856 -0.5938692857142857 1.5655540714285714 -1.4254455 1.657898357142857 -3.0394962428571426 0.3373750714285714 -5.6253273 -0.14440735714285713 -8.419967892857143 -1.3302353571428571 -1.0904427214285715 0.5543841428571429 -2.225147014285714 0.996363 -3.4375956428571426 1.3366039285714286 -0.23936275714285712 0.06718842857142857 -0.4873390071428571 0.0979167857142857 -0.7359361928571427 0.0979167857142857h-1.2737302071428571c-0.9086359285714285 0 -1.6452408214285714 -0.7365252857142857 -1.6452408214285714 -1.6451612142857144 0 -0.5742859285714286 0.29946615 -1.1070169285714286 0.7900849714285714 -1.4055437142857143l4.385254992857142 -2.668144842857143Z" stroke-width="1.71"></path>
    <path id="Vector_2" fill="#d7e0ff" d="M11.145 5.970535714285714c1.6558285714285714 0 2.5872321428571428 -0.9314035714285713 2.5872321428571428 -2.5872321428571428S12.80082857142857 0.7960714285714285 11.145 0.7960714285714285s-2.5872321428571428 0.9314035714285713 -2.5872321428571428 2.5872321428571428S9.489171428571428 5.970535714285714 11.145 5.970535714285714Z" stroke-width="1.71"></path>
    <path id="Vector 2894" stroke="#4147d5" stroke-linecap="round" stroke-linejoin="round" d="M7.8511907785714286 14.801961085714284v0.9731177142857141L3.465935785714285 18.44322364285714c-0.4906188214285714 0.2985267857142857 -0.7900849714285714 0.8312577857142857 -0.7900849714285714 1.4055437142857143v0c0 0.9086359285714285 0.7366048928571428 1.6451612142857144 1.6452408214285714 1.6451612142857144h1.2737302071428571c0.2485971857142857 0 0.4965734357142857 -0.030728357142857144 0.7359361928571427 -0.0979167857142857 2.0924419071428573 -0.5873415 3.9533703214285714 -1.4775085714285714 5.754784435714286 -2.7252709285714283" stroke-width="1.71"></path>
    <path id="Vector 2895" stroke="#4147d5" stroke-linecap="round" stroke-linejoin="round" d="M14.438427107142857 14.777075892857143v0.9379791214285714l4.309691892857143 2.510681914285714c0.5359152857142857 0.31221921428571425 0.8656480714285714 0.8857090714285715 0.8656480714285714 1.5060079285714285v0c0 0.8368302857142856 -0.5938692857142857 1.5655540714285714 -1.4254455 1.657898357142857 -1.7241315 0.19137557142857142 -3.4040810357142854 0.11941071428571427 -5.161345028571429 -0.2158945714285714" stroke-width="1.71"></path>
    <path id="Vector_3" stroke="#4147d5" stroke-linecap="round" stroke-linejoin="round" d="M11.145 5.970535714285714c1.6558285714285714 0 2.5872321428571428 -0.9314035714285713 2.5872321428571428 -2.5872321428571428S12.80082857142857 0.7960714285714285 11.145 0.7960714285714285s-2.5872321428571428 0.9314035714285713 -2.5872321428571428 2.5872321428571428S9.489171428571428 5.970535714285714 11.145 5.970535714285714Z" stroke-width="1.71"></path>
    <path id="Vector_4" stroke="#4147d5" stroke-linecap="round" stroke-linejoin="round" d="m0.7960714285714285 14.528303571428571 3.1724083285714286 -1.0424873785714284c1.2298825928571429 -0.4041495428571429 1.9867395428571428 -1.5654903857142857 2.5359969857142857 -2.7377851714285715 0.7668078428571428 -1.6366591714285714 2.359030307142857 -2.5229891785714282 4.640634707142857 -2.5229891785714282 2.2815884785714284 0 3.873810942857143 0.8863300071428571 4.640634707142857 2.5229891785714282 0.5493211285714286 1.1722947857142856 1.3060666285714286 2.3336356285714284 2.5359969857142857 2.7377851714285715l3.1723446428571425 1.0424873785714284" stroke-width="1.71"></path>
    <path id="Vector 2896" stroke="#4147d5" stroke-linecap="round" stroke-linejoin="round" d="M7.8511907785714286 14.801961085714284v0.9731177142857141L3.465935785714285 18.44322364285714c-0.4906188214285714 0.2985267857142857 -0.7900849714285714 0.8312577857142857 -0.7900849714285714 1.4055437142857143 0 0.9086359285714285 0.7366048928571428 1.6451612142857144 1.6452408214285714 1.6451612142857144h1.2737302071428571c0.2485971857142857 0 0.4965734357142857 -0.030728357142857144 0.7359361928571427 -0.0979167857142857 2.0924419071428573 -0.5873415 3.9533703214285714 -1.4775085714285714 5.754784435714286 -2.7252709285714283" stroke-width="1.71"></path>
    <path id="Vector 2897" stroke="#4147d5" stroke-linecap="round" stroke-linejoin="round" d="M14.438474871428571 14.777075892857143v0.9379791214285714l4.309644128571429 2.510681914285714c0.5360745 0.31221921428571425 0.8656480714285714 0.8857090714285715 0.8656480714285714 1.5060079285714285 0 0.8368302857142856 -0.5937100714285715 1.5655540714285714 -1.4254455 1.657898357142857 -1.7239722857142856 0.19137557142857142 -3.4040332714285713 0.11941071428571427 -5.1612972642857144 -0.2158945714285714" stroke-width="1.71"></path>
    <path id="Vector_5" stroke="#4147d5" stroke-linecap="round" stroke-linejoin="round" d="m0.7960714285714285 14.528303571428571 3.1724083285714286 -1.0424873785714284c1.2298825928571429 -0.4041495428571429 1.9867395428571428 -1.5654903857142857 2.5359969857142857 -2.7377851714285715 0.7668078428571428 -1.6366591714285714 2.359030307142857 -2.5229891785714282 4.640634707142857 -2.5229891785714282 2.2815884785714284 0 3.873810942857143 0.8863300071428571 4.640634707142857 2.5229891785714282 0.5493211285714286 1.1722947857142856 1.3060666285714286 2.3336356285714284 2.5359969857142857 2.7377851714285715l3.1723446428571425 1.0424873785714284" stroke-width="1.71"></path>
  </g>
</svg>