<svg xmlns="http://www.w3.org/2000/svg" fill="none" viewBox="-0.855 -0.855 24 24" id="Module-Three--Streamline-Flex" height="24" width="24">
  <desc>
    Module Three Streamline Icon: https://streamlinehq.com
  </desc>
  <g id="module-three--code-three-module-programming-plugin">
    <path id="Intersect" fill="#d7e0ff" d="M7.0240725642857145 7.688346407142856c0.1051610357142857 0.9829253142857143 0.8957077285714284 1.7734720071428571 1.8781554 1.882979592857143 0.7297268357142858 0.08134257857142857 1.4789733428571428 0.15120580714285714 2.242867564285714 0.15120580714285714 0.7638942214285714 0 1.5131407285714285 -0.06986322857142857 2.242867564285714 -0.15120580714285714 0.9824476714285715 -0.1095075857142857 1.7729943642857144 -0.9000542785714285 1.8781554 -1.882979592857143 0.07763288571428571 -0.7256031857142856 0.14318140714285713 -1.470550907142857 0.14318140714285713 -2.2300348928571427 0 -0.7594680642857142 -0.06554852142857143 -1.5044157857142857 -0.14318140714285713 -2.2300189714285716C15.160957457142858 2.2453672285714283 14.370410764285712 1.454812575 13.387963092857143 1.345304989285714 12.658236257142857 1.263967187142857 11.90898975 1.1941071428571428 11.145095528571428 1.1941071428571428c-0.7638942214285714 0 -1.5131407285714285 0.06986004428571428 -2.242867564285714 0.15119784642857143 -0.9824476714285715 0.1095075857142857 -1.7729943642857144 0.9000622392857143 -1.8781554 1.8829875535714284 -0.07763288571428571 0.7256031857142856 -0.14318140714285713 1.470550907142857 -0.14318140714285713 2.2300189714285716 0 0.7594839857142857 0.06554852142857143 1.5044317071428572 0.14318140714285713 2.2300348928571427Z" stroke-width="1.71"></path>
    <path id="Intersect_2" fill="#d7e0ff" d="M1.3372933264285713 19.061771142857143c0.1051610357142857 0.9828297857142856 0.8957188735714284 1.7734879285714282 1.8781506235714285 1.882868142857143 0.7297268357142858 0.0813585 1.4789733428571428 0.15125357142857143 2.242867564285714 0.15125357142857143 0.7639101428571429 0 1.5131566499999998 -0.06989507142857143 2.242867564285714 -0.15125357142857143 0.9824476714285715 -0.10938021428571428 1.7729943642857144 -0.9000383571428572 1.8781554 -1.882868142857143 0.07763288571428571 -0.7256987142857142 0.14319732857142858 -1.470662357142857 0.14319732857142858 -2.2301145 0 -0.7594521428571428 -0.06556444285714286 -1.5043998642857142 -0.14319732857142858 -2.23000305 -0.1051610357142857 -0.9829253142857143 -0.8957077285714284 -1.7734720071428571 -1.8781554 -1.882979592857143 -0.7297268357142858 -0.08134257857142857 -1.4789574214285715 -0.15120580714285714 -2.242867564285714 -0.15120580714285714 -0.7638942214285714 0 -1.5131407285714285 0.06986322857142857 -2.242867564285714 0.15120580714285714 -0.9824317499999999 0.1095075857142857 -1.772989587857143 0.9000542785714285 -1.8781506235714285 1.882979592857143C1.2596620328571428 15.32725677857143 1.1941071428571428 16.072204499999998 1.1941071428571428 16.83165664285714c0 0.7594521428571428 0.06555489 1.5044157857142857 0.14318618357142857 2.2301145Z" stroke-width="1.71"></path>
    <path id="Intersect_3" fill="#d7e0ff" d="M12.710458542857143 19.061771142857143c0.1051610357142857 0.9828297857142856 0.89572365 1.7734879285714282 1.8781554 1.882868142857143 0.7297268357142858 0.0813585 1.4789733428571428 0.15125357142857143 2.2428834857142856 0.15125357142857143s1.5131725714285713 -0.06989507142857143 2.242851642857143 -0.15125357142857143c0.9825113571428571 -0.10938021428571428 1.7730102857142855 -0.9000383571428572 1.878091714285714 -1.882868142857143 0.07769657142857143 -0.7256987142857142 0.14329285714285714 -1.470662357142857 0.14329285714285714 -2.2301145 0 -0.7594521428571428 -0.06559628571428572 -1.5043998642857142 -0.14329285714285714 -2.23000305 -0.10508142857142858 -0.9829253142857143 -0.8955803571428571 -1.7734720071428571 -1.878091714285714 -1.882979592857143 -0.7296790714285714 -0.08134257857142857 -1.4789415 -0.15120580714285714 -2.242851642857143 -0.15120580714285714 -0.7639101428571429 0 -1.5131566499999998 0.06986322857142857 -2.2428834857142856 0.15120580714285714 -0.9824317499999999 0.1095075857142857 -1.7729943642857144 0.9000542785714285 -1.8781554 1.882979592857143 -0.07763288571428571 0.7256031857142856 -0.14318140714285713 1.470550907142857 -0.14318140714285713 2.23000305 0 0.7594521428571428 0.06554852142857143 1.5044157857142857 0.14318140714285713 2.2301145Z" stroke-width="1.71"></path>
    <path id="Intersect_4" stroke="#4147d5" stroke-linecap="round" stroke-linejoin="round" d="M7.0240725642857145 7.688346407142856c0.1051610357142857 0.9829253142857143 0.8957077285714284 1.7734720071428571 1.8781554 1.882979592857143 0.7297268357142858 0.08134257857142857 1.4789733428571428 0.15120580714285714 2.242867564285714 0.15120580714285714 0.7638942214285714 0 1.5131407285714285 -0.06986322857142857 2.242867564285714 -0.15120580714285714 0.9824476714285715 -0.1095075857142857 1.7729943642857144 -0.9000542785714285 1.8781554 -1.882979592857143 0.07763288571428571 -0.7256031857142856 0.14318140714285713 -1.470550907142857 0.14318140714285713 -2.2300348928571427 0 -0.7594680642857142 -0.06554852142857143 -1.5044157857142857 -0.14318140714285713 -2.2300189714285716C15.160957457142858 2.2453672285714283 14.370410764285712 1.454812575 13.387963092857143 1.345304989285714 12.658236257142857 1.263967187142857 11.90898975 1.1941071428571428 11.145095528571428 1.1941071428571428c-0.7638942214285714 0 -1.5131407285714285 0.06986004428571428 -2.242867564285714 0.15119784642857143 -0.9824476714285715 0.1095075857142857 -1.7729943642857144 0.9000622392857143 -1.8781554 1.8829875535714284 -0.07763288571428571 0.7256031857142856 -0.14318140714285713 1.470550907142857 -0.14318140714285713 2.2300189714285716 0 0.7594839857142857 0.06554852142857143 1.5044317071428572 0.14318140714285713 2.2300348928571427Z" stroke-width="1.71"></path>
    <path id="Intersect_5" stroke="#4147d5" stroke-linecap="round" stroke-linejoin="round" d="M1.3372933264285713 19.061771142857143c0.1051610357142857 0.9828297857142856 0.8957188735714284 1.7734879285714282 1.8781506235714285 1.882868142857143 0.7297268357142858 0.0813585 1.4789733428571428 0.15125357142857143 2.242867564285714 0.15125357142857143 0.7639101428571429 0 1.5131566499999998 -0.06989507142857143 2.242867564285714 -0.15125357142857143 0.9824476714285715 -0.10938021428571428 1.7729943642857144 -0.9000383571428572 1.8781554 -1.882868142857143 0.07763288571428571 -0.7256987142857142 0.14319732857142858 -1.470662357142857 0.14319732857142858 -2.2301145 0 -0.7594521428571428 -0.06556444285714286 -1.5043998642857142 -0.14319732857142858 -2.23000305 -0.1051610357142857 -0.9829253142857143 -0.8957077285714284 -1.7734720071428571 -1.8781554 -1.882979592857143 -0.7297109142857142 -0.08134257857142857 -1.4789574214285715 -0.15120580714285714 -2.242867564285714 -0.15120580714285714 -0.7638942214285714 0 -1.5131407285714285 0.06986322857142857 -2.242867564285714 0.15120580714285714 -0.9824317499999999 0.1095075857142857 -1.772989587857143 0.9000542785714285 -1.8781506235714285 1.882979592857143C1.2596620328571428 15.32725677857143 1.1941071428571428 16.072204499999998 1.1941071428571428 16.83165664285714c0 0.7594521428571428 0.06555489 1.5044157857142857 0.14318618357142857 2.2301145Z" stroke-width="1.71"></path>
    <path id="Intersect_6" stroke="#4147d5" stroke-linecap="round" stroke-linejoin="round" d="M12.710458542857143 19.061771142857143c0.1051610357142857 0.9828297857142856 0.89572365 1.7734879285714282 1.8781554 1.882868142857143 0.7297268357142858 0.0813585 1.4789733428571428 0.15125357142857143 2.2428834857142856 0.15125357142857143s1.5131725714285713 -0.06989507142857143 2.242851642857143 -0.15125357142857143c0.9825113571428571 -0.10938021428571428 1.7730102857142855 -0.9000383571428572 1.878091714285714 -1.882868142857143 0.07769657142857143 -0.7256987142857142 0.14329285714285714 -1.470662357142857 0.14329285714285714 -2.2301145 0 -0.7594521428571428 -0.06559628571428572 -1.5043998642857142 -0.14329285714285714 -2.23000305 -0.10508142857142858 -0.9829253142857143 -0.8955803571428571 -1.7734720071428571 -1.878091714285714 -1.882979592857143 -0.7296790714285714 -0.08134257857142857 -1.4789415 -0.15120580714285714 -2.242851642857143 -0.15120580714285714 -0.7639101428571429 0 -1.5131566499999998 0.06986322857142857 -2.2428834857142856 0.15120580714285714 -0.9824317499999999 0.1095075857142857 -1.7729943642857144 0.9000542785714285 -1.8781554 1.882979592857143 -0.07763288571428571 0.7256031857142856 -0.14318140714285713 1.470550907142857 -0.14318140714285713 2.23000305 0 0.7594521428571428 0.06554852142857143 1.5044157857142857 0.14318140714285713 2.2301145Z" stroke-width="1.71"></path>
  </g>
</svg>