<svg xmlns="http://www.w3.org/2000/svg" fill="none" viewBox="-0.855 -0.855 24 24" height="24" width="24">
  <g id="motorsports-helmet--sports-motorsports-racer-car-bike-helmet">
    <path id="Vector_2" fill="#d7e0ff" d="M21.493132499999998 11.143758128571429c0 5.2731453 -2.9582014285714284 8.239307442857141 -8.217176657142858 8.239307442857141h-10.912228714285714c-0.8793198021428571 0 -1.5956248735714285 -0.7190117142857143 -1.5657323914285712 -1.5978745714285714 0.3944709064285714 -11.59716857142857 5.1798329914285715 -14.880772157142857 12.477961105714286 -14.880772157142857 5.258975228571428 0 8.217176657142858 2.9661621428571427 8.217176657142858 8.239339285714285Z" stroke-width="1.71"></path>
    <path id="Intersect" fill="#ffffff" d="M1.2046025485714287 13.464083442857143C1.8016051714285712 9.877638364285714 2.999310557142857 7.399101814285714 4.693637142857143 5.749753264285714c1.873999907142857 0.45995414999999995 3.8344690928571428 0.9734520642857143 5.3610156642857145 1.4183763857142857 1.3656127714285715 0.3980038714285714 2.4046770428571427 1.607936914285714 2.463427114285714 3.0326818714285713 0.0787473857142857 1.9096957499999998 -1.6385697428571429 3.267395571428571 -3.5442214499999998 3.3124532142857137 -2.602771457142857 0.06153632142857142 -5.121971335714285 0.04513725 -7.769255922857143 -0.04918129285714286Z" stroke-width="1.71"></path>
    <path id="Vector_2_2" stroke="#4147d5" stroke-linecap="round" stroke-linejoin="round" d="M21.493132499999998 11.143758128571429c0 5.2731453 -2.9582014285714284 8.239307442857141 -8.217176657142858 8.239307442857141h-10.912228714285714c-0.8793198021428571 0 -1.5956248735714285 -0.7190117142857143 -1.5657323914285712 -1.5978745714285714 0.3944709064285714 -11.59716857142857 5.1798329914285715 -14.880772157142857 12.477961105714286 -14.880772157142857 5.258975228571428 0 8.217176657142858 2.9661621428571427 8.217176657142858 8.239339285714285Z" stroke-width="1.71"></path>
    <path id="Vector_2_3" stroke="#4147d5" stroke-linecap="round" stroke-linejoin="round" d="M18.525059785714287 10.89692822142857c0 -0.42537280714285713 -0.02770328571428571 -0.8290606285714285 -0.08263221428571428 -1.2103310785714285 -0.26142985714285716 -1.8150587785714285 -1.1366307857142857 -3.122208064285714 -2.5482087214285714 -3.843560228571428" stroke-width="1.71"></path>
    <path id="Intersect_2" stroke="#4147d5" stroke-linecap="round" stroke-linejoin="round" d="M1.2046025485714287 13.464083442857143C1.8016051714285712 9.877638364285714 2.999310557142857 7.399117735714285 4.693637142857143 5.749753264285714c1.873999907142857 0.45995414999999995 3.8344690928571428 0.9734520642857143 5.3610156642857145 1.4183763857142857 1.3656127714285715 0.3980038714285714 2.4046770428571427 1.607936914285714 2.463427114285714 3.0326818714285713 0.0787473857142857 1.9096957499999998 -1.6385697428571429 3.267395571428571 -3.5442214499999998 3.3124532142857137 -2.602771457142857 0.06153632142857142 -5.121971335714285 0.04513725 -7.769255922857143 -0.04918129285714286Z" stroke-width="1.71"></path>
  </g>
</svg>