<svg xmlns="http://www.w3.org/2000/svg" fill="none" viewBox="-0.855 -0.855 24 24" height="24" width="24">
  <g id="nordic-walking--sports-nordic-walking-pole-society-activity">
    <path id="Vector" fill="#d7e0ff" d="M12.206800071428571 6.137010171428572c1.6789942500000001 0.3710488928571429 2.8321355571428573 -0.36468032142857143 3.2031844499999997 -2.04365865C15.781033414285714 2.4143572714285715 15.045320121428572 1.261203227142857 13.36632587142857 0.8901527421428571 11.687347542857141 0.5191038492857143 10.534190314285715 1.2548219185714284 10.163141421428572 2.9338098c-0.3710488928571429 1.6789942500000001 0.3646644 2.8321514785714283 2.04365865 3.2032003714285713Z" stroke-width="1.71"></path>
    <path id="Vector 702" stroke="#4147d5" stroke-linecap="round" stroke-linejoin="round" d="M5.373848335714285 11.723743928571428c1.2414097071428571 -3.5620852928571423 3.747649542857143 -3.8053806428571426 5.621139964285714 -3.469358892857143 2.4470439642857142 0.4388741785714286 3.5529463928571428 4.610543207142857 6.8893932 3.4689767785714283" stroke-width="1.71"></path>
    <path id="Rectangle 150" stroke="#4147d5" stroke-linecap="round" stroke-linejoin="round" d="M12.800382771428572 21.486286285714286v-3.9391206428571426c0 -0.4477105714285714 -0.07387542857142856 -0.9124570714285715 -0.3849801428571428 -1.234388357142857 -0.6145989857142856 -0.6359496214285714 -1.6620538499999997 -1.0399558714285713 -2.5656745285714284 -1.4660133 -0.6302975142857142 -0.2971893857142857 -0.8739749785714286 -1.0200859285714285 -0.6473015999999999 -1.6790420142857143 0.6420952928571428 -1.8665486785714285 1.3496117357142856 -3.6953954142857137 2.170456907142857 -4.756112828571428" stroke-width="1.71"></path>
    <path id="Vector 726" stroke="#4147d5" stroke-linecap="round" stroke-linejoin="round" d="M9.473679878571428 12.385756928571428c-0.9029519785714286 2.836036307142857 -1.9348993714285712 5.610711428571428 -3.3601060499999997 8.87890307142857" stroke-width="1.71"></path>
    <path id="Vector 4327" stroke="#4147d5" stroke-linecap="round" d="m16.70348914285714 14.441229278571427 0 6.950006078571429" stroke-width="1.71"></path>
    <path id="Vector 4328" stroke="#4147d5" stroke-linecap="round" d="M4.707234042857142 14.441229278571427 2.0414933357142857 21.391235357142854" stroke-width="1.71"></path>
    <path id="Vector_2" stroke="#4147d5" stroke-linecap="round" stroke-linejoin="round" d="M12.206800071428571 6.137010171428572c1.6789942500000001 0.3710488928571429 2.8321355571428573 -0.36468032142857143 3.2031844499999997 -2.0436745714285713C15.781033414285714 2.4143572714285715 15.045320121428572 1.261203227142857 13.36632587142857 0.8901527421428571 11.687347542857141 0.5191038492857143 10.534190314285715 1.2548219185714284 10.163141421428572 2.9338098c-0.3710488928571429 1.6789942500000001 0.3646644 2.8321514785714283 2.04365865 3.2032003714285713Z" stroke-width="1.71"></path>
  </g>
</svg>