<svg xmlns="http://www.w3.org/2000/svg" fill="none" viewBox="-0.855 -0.855 24 24" id="Paint-Palette--Streamline-Flex" height="24" width="24">
  <desc>
    Paint Palette Streamline Icon: https://streamlinehq.com
  </desc>
  <g id="paint-palette--color-colors-design-paint-painting-palette">
    <path id="Vector" fill="#d7e0ff" d="M0.7960714285714285 11.145c0 6.623314285714286 3.7256142857142853 10.348928571428571 10.348928571428571 10.348928571428571 1.6397797714285713 0 3.8035337571428567 -0.42430607142857146 4.3739348571428565 -2.059436785714286 0.8269589999999999 -2.3702230714285712 -3.5017112357142857 -1.7618652857142858 -3.5017112357142857 -4.7459868 0 -5.287410899999999 9.476704949999998 0.7110032357142857 9.476704949999998 -6.367966414285714C21.49392857142857 5.205797657142857 17.768314285714286 0.7960714285714285 11.145 0.7960714285714285S0.7960714285714285 4.521685714285714 0.7960714285714285 11.145Z" stroke-width="1.71"></path>
    <path id="Vector_2" fill="#ffffff" d="M13.62799455 7.833295092857143c1.0597302857142856 0 1.6558285714285714 -0.5960982857142857 1.6558285714285714 -1.6558285714285714s-0.5960982857142857 -1.6558285714285714 -1.6558285714285714 -1.6558285714285714 -1.6558285714285714 0.5960982857142857 -1.6558285714285714 1.6558285714285714 0.5960982857142857 1.6558285714285714 1.6558285714285714 1.6558285714285714Z" stroke-width="1.71"></path>
    <path id="Vector_3" fill="#ffffff" d="M7.005985821428572 10.317117557142856c1.0597302857142856 0 1.6558285714285714 -0.5960982857142857 1.6558285714285714 -1.6558285714285714s-0.5960982857142857 -1.6558285714285714 -1.6558285714285714 -1.6558285714285714 -1.6558285714285714 0.5960982857142857 -1.6558285714285714 1.6558285714285714 0.5960982857142857 1.6558285714285714 1.6558285714285714 1.6558285714285714Z" stroke-width="1.71"></path>
    <g id="Group 4540">
      <path id="Vector_4" stroke="#4147d5" stroke-linecap="round" stroke-linejoin="round" d="M7.420372842857142 16.462916357142856c-0.5298492214285714 0 -0.8279142857142857 -0.2865857142857143 -0.8279142857142857 -0.7960873499999999 0 -0.5094857142857143 0.2980650642857143 -0.7960714285714285 0.8279142857142857 -0.7960714285714285" stroke-width="1.71"></path>
      <path id="Vector_5" stroke="#4147d5" stroke-linecap="round" stroke-linejoin="round" d="M7.419640457142857 16.462916357142856c0.5298651428571428 0 0.8279142857142857 -0.2865857142857143 0.8279142857142857 -0.7960873499999999 0 -0.5094857142857143 -0.29804914285714285 -0.7960714285714285 -0.8279142857142857 -0.7960714285714285" stroke-width="1.71"></path>
    </g>
    <path id="Vector_6" stroke="#4147d5" stroke-linecap="round" stroke-linejoin="round" d="M0.7960714285714285 11.145c0 6.623314285714286 3.7256142857142853 10.348928571428571 10.348928571428571 10.348928571428571 1.6397797714285713 0 3.8035337571428567 -0.42430607142857146 4.3739348571428565 -2.059436785714286 0.8269589999999999 -2.3702230714285712 -3.5017112357142857 -1.7618652857142858 -3.5017112357142857 -4.7459868 0 -5.287410899999999 9.476704949999998 0.7110032357142857 9.476704949999998 -6.367966414285714C21.49392857142857 5.205797657142857 17.768314285714286 0.7960714285714285 11.145 0.7960714285714285S0.7960714285714285 4.521685714285714 0.7960714285714285 11.145Z" stroke-width="1.71"></path>
    <path id="Vector_7" stroke="#4147d5" stroke-linecap="round" stroke-linejoin="round" d="M13.62799455 7.833295092857143c1.0597302857142856 0 1.6558285714285714 -0.5960982857142857 1.6558285714285714 -1.6558285714285714s-0.5960982857142857 -1.6558285714285714 -1.6558285714285714 -1.6558285714285714 -1.6558285714285714 0.5960982857142857 -1.6558285714285714 1.6558285714285714 0.5960982857142857 1.6558285714285714 1.6558285714285714 1.6558285714285714Z" stroke-width="1.71"></path>
    <path id="Vector_8" stroke="#4147d5" stroke-linecap="round" stroke-linejoin="round" d="M7.005985821428572 10.317117557142856c1.0597302857142856 0 1.6558285714285714 -0.5960982857142857 1.6558285714285714 -1.6558285714285714s-0.5960982857142857 -1.6558285714285714 -1.6558285714285714 -1.6558285714285714 -1.6558285714285714 0.5960982857142857 -1.6558285714285714 1.6558285714285714 0.5960982857142857 1.6558285714285714 1.6558285714285714 1.6558285714285714Z" stroke-width="1.71"></path>
    <path id="Vector_9" fill="#d7e0ff" d="M0.7960714285714285 11.145c0 6.623314285714286 3.7256142857142853 10.348928571428571 10.348928571428571 10.348928571428571 1.6397797714285713 0 3.8035337571428567 -0.42430607142857146 4.3739348571428565 -2.059436785714286 0.8269589999999999 -2.3702230714285712 -3.5017112357142857 -1.7618652857142858 -3.5017112357142857 -4.7459868 0 -5.287410899999999 9.476704949999998 0.7110032357142857 9.476704949999998 -6.367966414285714C21.49392857142857 5.205797657142857 17.768314285714286 0.7960714285714285 11.145 0.7960714285714285S0.7960714285714285 4.521685714285714 0.7960714285714285 11.145Z" stroke-width="1.71"></path>
    <path id="Vector_10" fill="#ffffff" d="M13.62799455 7.833295092857143c1.0597302857142856 0 1.6558285714285714 -0.5960982857142857 1.6558285714285714 -1.6558285714285714s-0.5960982857142857 -1.6558285714285714 -1.6558285714285714 -1.6558285714285714 -1.6558285714285714 0.5960982857142857 -1.6558285714285714 1.6558285714285714 0.5960982857142857 1.6558285714285714 1.6558285714285714 1.6558285714285714Z" stroke-width="1.71"></path>
    <path id="Vector_11" fill="#ffffff" d="M7.005985821428572 10.317117557142856c1.0597302857142856 0 1.6558285714285714 -0.5960982857142857 1.6558285714285714 -1.6558285714285714s-0.5960982857142857 -1.6558285714285714 -1.6558285714285714 -1.6558285714285714 -1.6558285714285714 0.5960982857142857 -1.6558285714285714 1.6558285714285714 0.5960982857142857 1.6558285714285714 1.6558285714285714 1.6558285714285714Z" stroke-width="1.71"></path>
    <g id="Group 4541">
      <path id="Vector_12" stroke="#4147d5" stroke-linecap="round" stroke-linejoin="round" d="M7.420372842857142 16.462916357142856c-0.5298492214285714 0 -0.8279142857142857 -0.2865857142857143 -0.8279142857142857 -0.7960873499999999 0 -0.5094857142857143 0.2980650642857143 -0.7960714285714285 0.8279142857142857 -0.7960714285714285" stroke-width="1.71"></path>
      <path id="Vector_13" stroke="#4147d5" stroke-linecap="round" stroke-linejoin="round" d="M7.419640457142857 16.462916357142856c0.5298651428571428 0 0.8279142857142857 -0.2865857142857143 0.8279142857142857 -0.7960873499999999 0 -0.5094857142857143 -0.29804914285714285 -0.7960714285714285 -0.8279142857142857 -0.7960714285714285" stroke-width="1.71"></path>
    </g>
    <path id="Vector_14" stroke="#4147d5" stroke-linecap="round" stroke-linejoin="round" d="M0.7960714285714285 11.145c0 6.623314285714286 3.7256142857142853 10.348928571428571 10.348928571428571 10.348928571428571 1.6397797714285713 0 3.8035337571428567 -0.42430607142857146 4.3739348571428565 -2.059436785714286 0.8269589999999999 -2.3702230714285712 -3.5017112357142857 -1.7618652857142858 -3.5017112357142857 -4.7459868 0 -5.287410899999999 9.476704949999998 0.7110032357142857 9.476704949999998 -6.367966414285714C21.49392857142857 5.205797657142857 17.768314285714286 0.7960714285714285 11.145 0.7960714285714285S0.7960714285714285 4.521685714285714 0.7960714285714285 11.145Z" stroke-width="1.71"></path>
    <path id="Vector_15" stroke="#4147d5" stroke-linecap="round" stroke-linejoin="round" d="M13.62799455 7.833295092857143c1.0597302857142856 0 1.6558285714285714 -0.5960982857142857 1.6558285714285714 -1.6558285714285714s-0.5960982857142857 -1.6558285714285714 -1.6558285714285714 -1.6558285714285714 -1.6558285714285714 0.5960982857142857 -1.6558285714285714 1.6558285714285714 0.5960982857142857 1.6558285714285714 1.6558285714285714 1.6558285714285714Z" stroke-width="1.71"></path>
    <path id="Vector_16" stroke="#4147d5" stroke-linecap="round" stroke-linejoin="round" d="M7.005985821428572 10.317117557142856c1.0597302857142856 0 1.6558285714285714 -0.5960982857142857 1.6558285714285714 -1.6558285714285714s-0.5960982857142857 -1.6558285714285714 -1.6558285714285714 -1.6558285714285714 -1.6558285714285714 0.5960982857142857 -1.6558285714285714 1.6558285714285714 0.5960982857142857 1.6558285714285714 1.6558285714285714 1.6558285714285714Z" stroke-width="1.71"></path>
  </g>
</svg>