<svg xmlns="http://www.w3.org/2000/svg" fill="none" viewBox="-0.855 -0.855 24 24" id="Playground--Streamline-Flex" height="24" width="24">
  <desc>
    Playground Streamline Icon: https://streamlinehq.com
  </desc>
  <g id="playground--playground-sports-soccer-football-stadium">
    <path id="Intersect" fill="#d7e0ff" d="M1.1459320842857141 15.92254307142857c0.22023156857142856 1.5333927857142855 1.4784765942857143 2.7268630714285713 3.01454418 2.8642649999999996 4.709335671428572 0.42144021428571427 9.259664035714286 0.42144021428571427 13.96893602142857 0 1.5360994285714284 -0.13740192857142858 2.7943699285714287 -1.3308722142857141 3.0145632857142854 -2.8642649999999996 0.4660202142857143 -3.244580164285714 0.4660202142857143 -6.30862725 0 -9.553175571428572 -0.22019335714285715 -1.5334883142857143 -1.478463857142857 -2.726926757142857 -3.0145632857142854 -2.86437645 -4.7092719857142855 -0.42139245000000003 -9.25960035 -0.42139245000000003 -13.96893602142857 0 -1.5360675857142856 0.13744969285714287 -2.7943142035714286 1.3308881357142857 -3.01454418 2.86437645 -0.4659628971428571 3.2445324 -0.4659628971428571 6.308595407142857 0 9.553175571428572Z" stroke-width="1.71"></path>
    <path id="Vector_2" fill="#ffffff" d="M11.145 13.931249999999999c-1.7832000000000001 0 -2.78625 -1.00305 -2.78625 -2.78625S9.361799999999999 8.35875 11.145 8.35875 13.931249999999999 9.361799999999999 13.931249999999999 11.145 12.928199999999999 13.931249999999999 11.145 13.931249999999999Z" stroke-width="1.71"></path>
    <path id="Intersect_2" fill="#ffffff" fill-rule="evenodd" d="M0.919874865 13.967120978571428H3.2956720285714285c0.7450910142857142 0 1.4019454714285713 -0.5156632285714285 1.4970123214285713 -1.254672257142857 0.13550727857142858 -1.0532502642857142 0.13550727857142858 -2.083080107142857 0 -3.1363462928571426 -0.09506685 -0.7389931071428572 -0.7519213071428571 -1.254672257142857 -1.4970123214285713 -1.254672257142857H0.9201630428571428C0.7553221242857142 10.216000564285713 0.7552265957142856 12.07259835 0.919874865 13.967120978571428ZM21.36974142857143 8.321430171428572c0.16494599999999998 1.894570392857143 0.16494599999999998 3.7511681785714286 0.00031842857142857145 5.645690807142857H18.994264285714284c-0.7449636428571428 0 -1.4018817857142856 -0.5156632285714285 -1.4969327142857143 -1.254672257142857 -0.13549135714285712 -1.0532502642857142 -0.13549135714285712 -2.083080107142857 0 -3.1363462928571426 0.09505092857142858 -0.7389931071428572 0.7519690714285714 -1.254672257142857 1.4969327142857143 -1.254672257142857h2.3754771428571426Z" clip-rule="evenodd" stroke-width="1.71"></path>
    <path id="Vector 2874" stroke="#4147d5" stroke-linecap="round" stroke-linejoin="round" d="M21.34458557142857 8.321430171428572H18.994264285714284c-0.7449636428571428 0 -1.4018817857142856 0.51567915 -1.4969327142857143 1.254672257142857 -0.13549135714285712 1.0532661857142858 -0.13549135714285712 2.0830960285714286 0 3.136362214285714 0.09505092857142858 0.7389931071428572 0.7519690714285714 1.2546563357142857 1.4969327142857143 1.2546563357142857h2.3503212857142857" stroke-width="1.71"></path>
    <path id="Vector 2875" stroke="#4147d5" stroke-linecap="round" stroke-linejoin="round" d="m11.144617885714286 3.1873903928571425 0 5.134804007142857" stroke-width="1.71"></path>
    <path id="Vector 2876" stroke="#4147d5" stroke-linecap="round" stroke-linejoin="round" d="M11.144808942857143 13.968569828571429V19.102529999999998" stroke-width="1.71"></path>
    <path id="Intersect_3" stroke="#4147d5" stroke-linecap="round" stroke-linejoin="round" d="M1.1459320842857141 15.92254307142857c0.22023156857142856 1.5333927857142855 1.4784765942857143 2.7268630714285713 3.01454418 2.8642649999999996 4.709335671428572 0.42144021428571427 9.259664035714286 0.42144021428571427 13.96893602142857 0 1.5360994285714284 -0.13740192857142858 2.7943699285714287 -1.3308722142857141 3.0145632857142854 -2.8642649999999996 0.4660202142857143 -3.244580164285714 0.4660202142857143 -6.30862725 0 -9.553175571428572 -0.22019335714285715 -1.5334883142857143 -1.478463857142857 -2.726926757142857 -3.0145632857142854 -2.86437645 -4.7092719857142855 -0.42139245000000003 -9.25960035 -0.42139245000000003 -13.96893602142857 0 -1.5360675857142856 0.13744969285714287 -2.7943142035714286 1.3308881357142857 -3.01454418 2.86437645 -0.4659628971428571 3.2445324 -0.4659628971428571 6.308595407142857 0 9.553175571428572Z" stroke-width="1.71"></path>
    <path id="Vector_2_2" stroke="#4147d5" stroke-linecap="round" stroke-linejoin="round" d="M11.145 13.931249999999999c1.7832000000000001 0 2.78625 -1.00305 2.78625 -2.78625S12.928199999999999 8.35875 11.145 8.35875 8.35875 9.361799999999999 8.35875 11.145 9.361799999999999 13.931249999999999 11.145 13.931249999999999Z" stroke-width="1.71"></path>
    <path id="Vector 2877" stroke="#4147d5" stroke-linecap="round" stroke-linejoin="round" d="M0.9453348214285714 8.321430171428572h2.350337207142857c0.7450910142857142 0 1.4019454714285713 0.51567915 1.4970123214285713 1.254672257142857 0.13550727857142858 1.0532661857142858 0.13550727857142858 2.0830960285714286 0 3.136362214285714 -0.09506685 0.7389931071428572 -0.7519213071428571 1.2546563357142857 -1.4970123214285713 1.2546563357142857H0.9453348214285714" stroke-width="1.71"></path>
    <path id="Vector_2_3" stroke="#4147d5" stroke-linecap="round" stroke-linejoin="round" d="M11.145 13.931249999999999c-1.7832000000000001 0 -2.78625 -1.00305 -2.78625 -2.78625S9.361799999999999 8.35875 11.145 8.35875 13.931249999999999 9.361799999999999 13.931249999999999 11.145 12.928199999999999 13.931249999999999 11.145 13.931249999999999Z" stroke-width="1.71"></path>
  </g>
</svg>