<svg xmlns="http://www.w3.org/2000/svg" fill="none" viewBox="-0.855 -0.855 24 24" id="Potted-Flower-Tulip--Streamline-Flex" height="24" width="24">
  <desc>
    Potted Flower Tulip Streamline Icon: https://streamlinehq.com
  </desc>
  <g id="potted-flower-tulip--nature-flower-plant-tree-pot">
    <path id="Vector 664" fill="#ffffff" d="M11.14466565 12.339107142857141c-7.1757241714285716 0 -7.544384849999999 -6.531654621428571 -4.776380807142857 -11.145 0.7961032714285714 0 2.8659526714285715 0.4776428571428571 4.7765241 2.3882142857142856 1.9105714285714284 -1.9105714285714284 3.9804049071428573 -2.3882142857142856 4.7765081785714285 -2.3882142857142856 2.768051807142857 4.613345378571428 2.399152307142857 11.145 -4.776651471428571 11.145Z" stroke-width="1.71"></path>
    <path id="Vector 654" stroke="#4147d5" stroke-linecap="round" stroke-linejoin="round" d="M11.14466565 12.339107142857141c-7.1757241714285716 0 -7.544384849999999 -6.531654621428571 -4.776380807142857 -11.145 0.7961032714285714 0 2.8659526714285715 0.4776428571428571 4.7765241 2.3882142857142856 1.9105714285714284 -1.9105714285714284 3.9804049071428573 -2.3882142857142856 4.7765081785714285 -2.3882142857142856 2.768051807142857 4.613345378571428 2.399152307142857 11.145 -4.776651471428571 11.145Z" stroke-width="1.71"></path>
    <path id="Vector 659" stroke="#4147d5" stroke-linecap="round" stroke-linejoin="round" d="m11.145 12.339107142857141 0 8.2840785" stroke-width="1.71"></path>
    <path id="Vector 660" fill="#d7e0ff" d="M11.145 20.614747285714287c0.2764119214285714 -2.4877232142857144 4.4461863 -6.751386257142857 9.950892857142858 -4.146258428571429 -0.276396 2.2113272142857143 -4.578206785714285 5.961938142857143 -9.950892857142858 4.146258428571429Z" stroke-width="1.71"></path>
    <path id="Vector 661" fill="#d7e0ff" d="M11.145 20.614269642857142C10.868588078571428 18.126546428571427 6.6988137 13.862978914285714 1.1941071428571428 16.468011214285713c0.2764135135714285 2.2114864285714284 4.578143099999999 5.962097357142857 9.950892857142858 4.146258428571429Z" stroke-width="1.71"></path>
    <path id="Vector 662" stroke="#4147d5" stroke-linecap="round" stroke-linejoin="round" d="M11.145 20.614747285714287c0.2764119214285714 -2.4877232142857144 4.4461863 -6.751386257142857 9.950892857142858 -4.146258428571429 -0.276396 2.2113272142857143 -4.578206785714285 5.961938142857143 -9.950892857142858 4.146258428571429Z" stroke-width="1.71"></path>
    <path id="Vector 663" stroke="#4147d5" stroke-linecap="round" stroke-linejoin="round" d="M11.145 20.614269642857142C10.868588078571428 18.126546428571427 6.6988137 13.862978914285714 1.1941071428571428 16.468011214285713c0.2764135135714285 2.2114864285714284 4.578143099999999 5.962097357142857 9.950892857142858 4.146258428571429Z" stroke-width="1.71"></path>
  </g>
</svg>