<svg xmlns="http://www.w3.org/2000/svg" fill="none" viewBox="-0.855 -0.855 24 24" height="24" width="24">
  <g id="roller-skating--sports-roller-skating-shoe-wheel">
    <path id="Union" fill="#d7e0ff" d="M12.759114428571428 7.6425563785714274c-0.8039047714285714 -0.11560549285714285 -1.456285307142857 -0.7903715571428571 -1.4520502071428572 -1.60253955 0.0098076 -1.8756079714285714 -0.05034355714285715 -3.5296214999999997 -0.18043755 -5.051120978571428 -2.677506642857143 -0.2570992285714286 -4.457092478571428 -0.2570992285714286 -7.134599121428572 0 -0.3180464571428571 3.7195482214285716 -0.5634115928571428 8.834116092857142 -0.016414992857142856 12.896245692857143 0.08893709999999999 0.6604049357142857 0.6513934071428571 1.1422192071428572 1.3173071571428572 1.1668018928571429 4.280571599999999 0.15803609999999998 8.243096742857142 0.15803609999999998 12.523636499999999 0.00001592142857142857 0.6659933571428571 -0.02459860714285714 1.232159357142857 -0.5071611857142857 1.3311906428571427 -1.1661331928571428 0.6174329999999999 -4.109670985714286 -2.872862571428571 -5.737637057142857 -6.388632428571428 -6.243269785714285Z" stroke-width="1.71"></path>
    <path id="Vector_2" fill="#ffffff" d="M4.247072914285714 21.49392857142857c1.1884072714285714 0 1.8569002928571428 -0.6666302142857143 1.8569002928571428 -1.851821357142857s-0.6684930214285715 -1.851821357142857 -1.8569002928571428 -1.851821357142857c-1.188423192857143 0 -1.856916214285714 0.6666302142857143 -1.856916214285714 1.851821357142857S3.058649721428571 21.49392857142857 4.247072914285714 21.49392857142857Z" stroke-width="1.71"></path>
    <path id="Vector_2_2" fill="#ffffff" d="M11.14466565 21.49392857142857c1.188423192857143 0 1.856916214285714 -0.6666302142857143 1.856916214285714 -1.851821357142857s-0.6684930214285715 -1.851821357142857 -1.856916214285714 -1.851821357142857c-1.188423192857143 0 -1.8569002928571428 0.6666302142857143 -1.8569002928571428 1.851821357142857S9.956242457142856 21.49392857142857 11.14466565 21.49392857142857Z" stroke-width="1.71"></path>
    <path id="Vector_2_3" fill="#ffffff" d="M18.0426405 21.49392857142857c1.1883754285714285 0 1.856916214285714 -0.6666302142857143 1.856916214285714 -1.851821357142857s-0.6685407857142857 -1.851821357142857 -1.856916214285714 -1.851821357142857 -1.856916214285714 0.6666302142857143 -1.856916214285714 1.851821357142857 0.6685407857142857 1.851821357142857 1.856916214285714 1.851821357142857Z" stroke-width="1.71"></path>
    <path id="Union_2" stroke="#4147d5" stroke-linecap="round" stroke-linejoin="round" d="M12.759114428571428 7.6425563785714274c-0.8039047714285714 -0.11560549285714285 -1.456285307142857 -0.7903715571428571 -1.4520502071428572 -1.60253955 0.0098076 -1.8756079714285714 -0.05034355714285715 -3.5296214999999997 -0.18043755 -5.051120978571428 -2.677506642857143 -0.2570992285714286 -4.457092478571428 -0.2570992285714286 -7.134599121428572 0 -0.3180464571428571 3.7195482214285716 -0.5634115928571428 8.834116092857142 -0.016414992857142856 12.896245692857143 0.08893709999999999 0.6604049357142857 0.6513934071428571 1.1422192071428572 1.3173071571428572 1.1668018928571429 4.280571599999999 0.15803609999999998 8.243096742857142 0.15803609999999998 12.523636499999999 0.00001592142857142857 0.6659933571428571 -0.02459860714285714 1.232159357142857 -0.5071611857142857 1.3311906428571427 -1.1661331928571428 0.6174329999999999 -4.109670985714286 -2.872862571428571 -5.737637057142857 -6.388632428571428 -6.243269785714285Z" stroke-width="1.71"></path>
    <path id="Vector 4221" stroke="#4147d5" stroke-linecap="round" stroke-linejoin="round" d="M11.198639292857143 3.405068164285714H9.17735025" stroke-width="1.71"></path>
    <path id="Vector 4222" stroke="#4147d5" stroke-linecap="round" stroke-linejoin="round" d="M11.198639292857143 6.0544894071428565H9.17735025" stroke-width="1.71"></path>
    <path id="Vector_2_4" stroke="#4147d5" stroke-linecap="round" stroke-linejoin="round" d="M4.247072914285714 21.49392857142857c1.1884072714285714 0 1.8569002928571428 -0.6666302142857143 1.8569002928571428 -1.851821357142857s-0.6684930214285715 -1.851821357142857 -1.8569002928571428 -1.851821357142857c-1.188423192857143 0 -1.856916214285714 0.6666302142857143 -1.856916214285714 1.851821357142857S3.058649721428571 21.49392857142857 4.247072914285714 21.49392857142857Z" stroke-width="1.71"></path>
    <path id="Vector_2_5" stroke="#4147d5" stroke-linecap="round" stroke-linejoin="round" d="M11.14466565 21.49392857142857c1.188423192857143 0 1.856916214285714 -0.6666302142857143 1.856916214285714 -1.851821357142857s-0.6684930214285715 -1.851821357142857 -1.856916214285714 -1.851821357142857c-1.188423192857143 0 -1.8569002928571428 0.6666302142857143 -1.8569002928571428 1.851821357142857S9.956242457142856 21.49392857142857 11.14466565 21.49392857142857Z" stroke-width="1.71"></path>
    <path id="Vector_2_6" stroke="#4147d5" stroke-linecap="round" stroke-linejoin="round" d="M18.0426405 21.49392857142857c1.1883754285714285 0 1.856916214285714 -0.6666302142857143 1.856916214285714 -1.851821357142857s-0.6685407857142857 -1.851821357142857 -1.856916214285714 -1.851821357142857 -1.856916214285714 0.6666302142857143 -1.856916214285714 1.851821357142857 0.6685407857142857 1.851821357142857 1.856916214285714 1.851821357142857Z" stroke-width="1.71"></path>
  </g>
</svg>