<svg xmlns="http://www.w3.org/2000/svg" fill="none" viewBox="-0.855 -0.855 24 24" id="Running--Streamline-Flex" height="24" width="24">
  <desc>
    Running Streamline Icon: https://streamlinehq.com
  </desc>
  <g id="running--running-sports-track-endurance-speed">
    <path id="Vector" fill="#d7e0ff" d="M15.378651150000001 6.4455833785714285c1.6327584214285713 0.9497132142857143 3.0816084214285713 0.5586351642857142 4.024316207142857 -1.0863190714285713 0.9427077857142856 -1.6449383142857144 0.5543841428571429 -3.10443975 -1.0783583571428572 -4.054146595714286 -1.6327425 -0.9497100299999999 -3.0815447357142856 -0.5586399407142857 -4.024252521428571 1.0863127028571429 -0.9427077857142856 1.6449383142857144 -0.5545274357142856 3.10443975 1.0782946714285713 4.054152964285714Z" stroke-width="1.71"></path>
    <path id="Vector 660" stroke="#4147d5" stroke-linecap="round" stroke-linejoin="round" d="M2.3828646857142854 16.829268428571428c2.0491833857142856 0.6239607857142857 4.1584224 0.8283919285714285 5.995389064285714 -1.0151343642857142" stroke-width="1.71"></path>
    <path id="Vector 661" stroke="#4147d5" stroke-linecap="round" stroke-linejoin="round" d="M14.910959185714285 21.493610142857143c0 -2.9765110714285714 -1.1989154142857144 -4.736784214285714 -3.429523478571429 -6.440775107142857 -1.9785718499999998 -1.5114689785714286 0.7768701857142857 -5.144659371428571 1.7664984214285713 -6.115691378571428" stroke-width="1.71"></path>
    <path id="Vector 702" stroke="#4147d5" stroke-linecap="round" stroke-linejoin="round" d="M5.328106071428571 9.304960499999998c3.650465142857143 -3.156646114285714 5.607670435714286 -2.4004260214285713 7.968706842857142 -0.35342387142857146 1.2457244142857142 1.0800141857142858 1.8963854357142855 2.8392842785714283 3.0130985142857143 3.2475097071428567 0.8769522857142856 0.32056204285714285 1.3889854285714285 0.029072528571428568 2.4975945 -0.3870817714285714" stroke-width="1.71"></path>
    <path id="Vector_2" stroke="#4147d5" stroke-linecap="round" stroke-linejoin="round" d="M15.378651150000001 6.4455833785714285c1.6327584214285713 0.9497132142857143 3.0816084214285713 0.5586351642857142 4.024316207142857 -1.0863190714285713 0.9427077857142856 -1.6449383142857144 0.5543841428571429 -3.10443975 -1.0783583571428572 -4.054146595714286 -1.6327425 -0.9497100299999999 -3.0815447357142856 -0.5586399407142857 -4.024252521428571 1.0863127028571429 -0.9427077857142856 1.6449383142857144 -0.5545274357142856 3.10443975 1.0782946714285713 4.054152964285714Z" stroke-width="1.71"></path>
  </g>
</svg>