<svg xmlns="http://www.w3.org/2000/svg" fill="none" viewBox="-0.855 -0.855 24 24" height="24" width="24">
  <g id="scuba-diving--sports-scuba-diving-marine-environment-explore">
    <path id="Vector" fill="#d7e0ff" d="M4.2681369642857145 12.494977928571428c0.7051282285714285 -0.9706658142857142 0.5557693071428571 -1.9132939928571429 -0.4148965071428571 -2.6184222214285713 -0.9706498928571429 -0.7051123071428571 -1.9132780714285713 -0.5557533857142857 -2.6184062999999997 0.4148965071428571 -0.7051234521428571 0.9706658142857142 -0.5557629385714286 1.9132939928571429 0.4148965071428571 2.6184062999999997 0.9706498928571429 0.7051282285714285 1.9132780714285713 0.5557693071428571 2.6184062999999997 -0.41488058571428565Z" stroke-width="1.71"></path>
    <path id="Vector 4335" stroke="#4147d5" stroke-linecap="round" stroke-linejoin="round" d="M3.3506487214285716 20.298706928571427s2.5799878928571425 -3.194316214285714 2.817408235714286 -3.8306957142857145c0.4932458571428572 -1.3219402928571429 0.3008831571428571 -3.311211342857143 0.7324653214285715 -3.9451707857142857 0.9665740071428571 -1.41976155 8.300445728571429 -2.5754980499999998 10.367222292857143 -3.886564007142857 0 0 1.056068357142857 -2.9982438214285714 1.464930642857143 -3.775766785714286 0.40902150000000004 -0.7775070428571428 1.8593044285714284 -1.9713116785714286 2.7609349285714284 -2.8734357428571426" stroke-width="1.71"></path>
    <path id="Rectangle 177421" fill="#ffffff" d="M7.216737771428572 7.504963392857142c-0.1975053214285714 -0.7370506928571429 0.17077324285714285 -1.5147806357142857 0.8886067714285714 -1.7735675357142857 1.4076771857142858 -0.5075114571428571 2.838599657142857 -0.8369894999999998 4.357312885714285 -1.005692957142857l0.6868026642857142 2.563206707142857c-1.3995890999999998 0.6132456642857143 -2.8035406714285713 1.0433789785714285 -4.276384264285714 1.3077065357142856 -0.75106155 0.13479081428571427 -1.4588486571428572 -0.35460205714285714 -1.656338057142857 -1.09165275Z" stroke-width="1.71"></path>
    <path id="Rectangle 177422" stroke="#4147d5" stroke-linejoin="round" d="M7.216737771428572 7.504963392857142c-0.1975053214285714 -0.7370506928571429 0.17077324285714285 -1.5147806357142857 0.8886067714285714 -1.7735675357142857 1.4076771857142858 -0.5075114571428571 2.838599657142857 -0.8369894999999998 4.357312885714285 -1.005692957142857l0.6868026642857142 2.563206707142857c-1.3995890999999998 0.6132456642857143 -2.8035406714285713 1.0433789785714285 -4.276384264285714 1.3077065357142856 -0.75106155 0.13479081428571427 -1.4588486571428572 -0.35460205714285714 -1.656338057142857 -1.09165275Z" stroke-width="1.71"></path>
    <path id="Vector_2" stroke="#4147d5" stroke-linecap="round" stroke-linejoin="round" d="M4.2681369642857145 12.494977928571428c0.7051282285714285 -0.9706658142857142 0.5557693071428571 -1.9132939928571429 -0.4148965071428571 -2.6184222214285713 -0.9706498928571429 -0.7051123071428571 -1.9132780714285713 -0.5557533857142857 -2.6184047078571426 0.4148965071428571 -0.7051250442857142 0.9706658142857142 -0.5557645307142857 1.9132939928571429 0.41489491500000003 2.6184062999999997 0.9706498928571429 0.7051282285714285 1.9132780714285713 0.5557693071428571 2.6184062999999997 -0.41488058571428565Z" stroke-width="1.71"></path>
  </g>
</svg>