<svg xmlns="http://www.w3.org/2000/svg" fill="none" viewBox="-0.855 -0.855 24 24" id="Shirt--Streamline-Flex" height="24" width="24">
  <desc>
    Shirt Streamline Icon: https://streamlinehq.com
  </desc>
  <g id="shirt--clothing-t-shirt-men-top-shopping-catergories">
    <path id="Subtract" fill="#d7e0ff" d="M7.965649928571428 0.7960714285714285H5.482798671428571c-0.6185793428571428 0 -1.9601189142857143 1.6750298142857143 -2.3625011785714283 2.077428 -0.5897774785714285 0.5897615571428572 -1.1329051714285714 1.2006349285714286 -1.6558779278571427 1.7965103142857142 -0.5265407485714285 0.59993535 -0.5975789785714285 1.5094310357142855 -0.12848592857142857 2.1552678642857144 0.17517711 0.24119372142857143 0.36361517785714287 0.47619400714285715 0.5781882707142857 0.6907830214285714 0.2145890142857143 0.21457309285714285 0.4495893 0.4030032 0.6907671 0.5781866785714285 0.64585275 0.46909305 1.5553484357142857 0.3980516357142857 2.1552837857142855 -0.12848592857142857 0.20035525714285715 -0.17585217857142857 0.5163000857142858 -0.03160403571428571 0.5132909357142857 0.23495252142857143 -0.041491242857142854 3.6724844785714286 -0.046172142857142856 7.972273242857142 0.08540254285714285 11.066602885714286 0.027353014285714287 0.6430665 0.4273948285714286 1.2117799285714286 1.0357844571428572 1.4222612142857143 3.288491464285714 1.1372676428571429 6.386992521428571 1.0111699285714286 9.636794914285714 -0.017513571428571427 0.6378124285714286 -0.20188371428571428 1.0680094285714286 -0.7860409285714286 1.0960311428571428 -1.4544225 0.12944121428571428 -3.090349285714286 0.1246647857142857 -7.363565185714285 0.08326907142857143 -11.016338935714286 -0.0028658571428571426 -0.26611075714285715 0.31237842857142856 -0.4101041571428571 0.5125107857142858 -0.23457040714285712 0.5999194285714285 0.5265375642857143 1.5093514285714285 0.5975312142857143 2.1552837857142855 0.12842224285714285 0.24136885714285716 -0.17529492857142856 0.47652835714285713 -0.36385240714285716 0.6911492142857142 -0.5785847142857142 0.21478007142857142 -0.21473230714285713 0.40328978571428575 -0.4499077285714286 0.5785847142857142 -0.6912447428571428 0.4692045 -0.6458686714285714 0.3981949285714285 -1.555364357142857 -0.1283267142857143 -2.15533155 -0.5230189285714286 -0.5958753857142857 -1.0660988571428571 -1.2067328357142857 -1.6558285714285714 -1.7964943928571426C18.965924142857144 2.4753204214285716 17.627409642857142 0.7960714285714285 17.00137907142857 0.7960714285714285H14.149787528571427c-0.30335097857142856 1.4291870357142855 -1.5724798928571428 2.501463407142857 -3.0920688 2.501463407142857S8.268984985714285 2.2252584642857145 7.965649928571428 0.7960714285714285Z" stroke-width="1.71"></path>
    <path id="Subtract_2" stroke="#4147d5" stroke-linecap="round" stroke-linejoin="round" d="M7.965649928571428 0.7960714285714285H5.482798671428571c-0.6185793428571428 0 -1.9601189142857143 1.6750298142857143 -2.3625011785714283 2.077428 -0.5897774785714285 0.5897615571428572 -1.1329051714285714 1.2006349285714286 -1.6558779278571427 1.7965103142857142 -0.5265407485714285 0.59993535 -0.5975789785714285 1.5094310357142855 -0.12848592857142857 2.1552678642857144 0.17517711 0.24119372142857143 0.36361517785714287 0.47619400714285715 0.5781882707142857 0.6907830214285714 0.2145890142857143 0.21457309285714285 0.4495893 0.4030032 0.6907671 0.5781866785714285 0.64585275 0.46909305 1.5553484357142857 0.3980516357142857 2.1552837857142855 -0.12848592857142857 0.20035525714285715 -0.17585217857142857 0.5163000857142858 -0.03160403571428571 0.5132909357142857 0.23495252142857143 -0.041491242857142854 3.6724844785714286 -0.046172142857142856 7.972273242857142 0.08540254285714285 11.066602885714286 0.027353014285714287 0.6430665 0.4273948285714286 1.2117799285714286 1.0357844571428572 1.4222612142857143 3.288491464285714 1.1372676428571429 6.386992521428571 1.0111699285714286 9.636794914285714 -0.017513571428571427 0.6378124285714286 -0.20188371428571428 1.0680094285714286 -0.7860409285714286 1.0960311428571428 -1.4544225 0.12944121428571428 -3.090349285714286 0.1246647857142857 -7.363565185714285 0.08326907142857143 -11.016338935714286 -0.0028658571428571426 -0.26611075714285715 0.31237842857142856 -0.4101041571428571 0.5125107857142858 -0.23457040714285712 0.5999194285714285 0.5265375642857143 1.5093514285714285 0.5975312142857143 2.1552837857142855 0.12842224285714285 0.24136885714285716 -0.17529492857142856 0.47652835714285713 -0.36385240714285716 0.6911492142857142 -0.5785847142857142 0.21478007142857142 -0.21473230714285713 0.40328978571428575 -0.4499077285714286 0.5785847142857142 -0.6912447428571428 0.4692045 -0.6458686714285714 0.3981949285714285 -1.555364357142857 -0.1283267142857143 -2.15533155 -0.5230189285714286 -0.5958753857142857 -1.0660988571428571 -1.2067328357142857 -1.6558285714285714 -1.7964943928571426C18.965924142857144 2.4753204214285716 17.627409642857142 0.7960714285714285 17.00137907142857 0.7960714285714285H14.149787528571427c-0.30335097857142856 1.4291870357142855 -1.5724798928571428 2.501463407142857 -3.0920688 2.501463407142857S8.268984985714285 2.2252584642857145 7.965649928571428 0.7960714285714285Z" stroke-width="1.71"></path>
  </g>
</svg>