<svg xmlns="http://www.w3.org/2000/svg" fill="none" viewBox="-0.855 -0.855 24 24" id="Shopping-Bag-Hand-Bag-2--Streamline-Flex" height="24" width="24">
  <desc>
    Shopping Bag Hand Bag 2 Streamline Icon: https://streamlinehq.com
  </desc>
  <g id="shopping-bag-hand-bag-2--shopping-bag-purse-goods-item-products">
    <path id="Vector 193" stroke="#4147d5" stroke-linecap="round" stroke-linejoin="round" d="M7.164642857142857 6.766607142857143v-1.592142857142857C7.164642857142857 2.9761767214285713 8.946712435714286 1.1941071428571428 11.145 1.1941071428571428v0c2.1982875642857143 0 3.9803571428571427 1.7820695785714284 3.9803571428571427 3.9803571428571427v1.592142857142857" stroke-width="1.71"></path>
    <path id="Vector 191" fill="#d7e0ff" d="M1.1941071428571428 16.319464285714286c0 -3.3051293571428566 0.6203943857142857 -5.955123771428571 1.3245832499999999 -8.413615242857142 0.19395484285714285 -0.6771542785714286 0.8168170499999999 -1.1392418999999998 1.521212892857143 -1.1392418999999998h14.210193428571428c0.704364 0 1.3272102857142856 0.4620876214285714 1.5212925 1.1392418999999998 0.7040455714285714 2.4584914714285713 1.3245036428571428 5.108485885714285 1.3245036428571428 8.413615242857142 0 2.3882142857142856 -1.6133183571428573 4.012836857142857 -4.146258428571429 4.394632714285715 -1.4742765214285714 0.22226314285714285 -3.3169112142857142 0.38179585714285713 -5.804634428571428 0.38179585714285713s-4.330357907142857 -0.15953271428571428 -5.804682192857143 -0.38179585714285713C2.8074255 20.332301142857144 1.1941071428571428 18.70767857142857 1.1941071428571428 16.319464285714286Z" stroke-width="1.71"></path>
    <path id="Vector 194" stroke="#4147d5" stroke-linecap="round" stroke-linejoin="round" d="M1.1941071428571428 16.319464285714286c0 -3.3051293571428566 0.6203943857142857 -5.955123771428571 1.3245832499999999 -8.413615242857142 0.19395484285714285 -0.6771542785714286 0.8168170499999999 -1.1392418999999998 1.521212892857143 -1.1392418999999998h14.210193428571428c0.704364 0 1.3272102857142856 0.4620876214285714 1.5212925 1.1392418999999998 0.7040455714285714 2.4584914714285713 1.3245036428571428 5.108485885714285 1.3245036428571428 8.413615242857142 0 2.3882142857142856 -1.6133183571428573 4.012836857142857 -4.146258428571429 4.394632714285715 -1.4742765214285714 0.22226314285714285 -3.3169112142857142 0.38179585714285713 -5.804634428571428 0.38179585714285713s-4.330357907142857 -0.15953271428571428 -5.804682192857143 -0.38179585714285713C2.8074255 20.332301142857144 1.1941071428571428 18.70767857142857 1.1941071428571428 16.319464285714286Z" stroke-width="1.71"></path>
  </g>
</svg>