<svg xmlns="http://www.w3.org/2000/svg" fill="none" viewBox="-0.855 -0.855 24 24" height="24" width="24">
  <g id="skateboarding--sports-skateboarding-trick-wheels-olympic">
    <path id="Vector" fill="#d7e0ff" d="M11.796074978571427 5.063253107142857c1.3414440428571428 0.29645699999999997 2.26276935 -0.2913462214285714 2.55922635 -1.6327902642857144 0.29644107857142854 -1.3414440428571428 -0.29136214285714285 -2.2627709421428572 -1.6328061857142855 -2.5592231657142857C11.381051099999999 0.5747858614285714 10.459725792857142 1.1625938592857143 10.163268792857142 2.5040426785714285c-0.29644107857142854 1.3414440428571428 0.29136214285714285 2.26276935 1.6328061857142855 2.5592104285714283Z" stroke-width="1.71"></path>
    <path id="Vector_2" stroke="#4147d5" stroke-linecap="round" stroke-linejoin="round" d="M11.796074978571427 5.063253107142857c1.3414440428571428 0.29645699999999997 2.26276935 -0.2913462214285714 2.55922635 -1.6327902642857144 0.29644107857142854 -1.3414440428571428 -0.29136214285714285 -2.2627709421428572 -1.6328061857142855 -2.5592231657142857C11.381051099999999 0.5747858614285714 10.459725792857142 1.1625938592857143 10.163268792857142 2.5040426785714285c-0.29644107857142854 1.3414440428571428 0.29136214285714285 2.26276935 1.6328061857142855 2.5592104285714283Z" stroke-width="1.71"></path>
    <path id="Vector 702" stroke="#4147d5" stroke-linecap="round" stroke-linejoin="round" d="M5.498258378571428 9.880950021428571c0.3799489714285714 -1.589356607142857 2.0121182999999996 -3.611823835714286 5.149929364285714 -2.937758314285714 2.2534234714285715 0.40336939285714285 2.9295269357142857 3.8015754214285717 5.680510971428571 2.8603164857142853" stroke-width="1.71"></path>
    <path id="Rectangle 150" stroke="#4147d5" stroke-linecap="round" stroke-linejoin="round" d="m14.240858099999999 17.860977 -1.209200657142857 -4.136641885714286c-0.4814321571428571 -1.0774986 -3.0544464642857143 -1.365899357142857 -3.9991444285714284 -2.0461264714285714 -0.944729807142857 -0.6802111928571428 1.1165061 -3.55558935 1.9276232785714285 -4.603744757142857" stroke-width="1.71"></path>
    <path id="Vector 726" stroke="#4147d5" stroke-linecap="round" stroke-linejoin="round" d="M6.567971399999999 17.8620915c1.0717668857142857 -0.835875 2.906297571428571 -2.700576792857143 2.906297571428571 -3.3569695285714283 0 -0.6563927357142857 -0.6126247285714286 -2.8894845428571427 -0.6741610499999999 -3.1766593499999995" stroke-width="1.71"></path>
    <path id="Vector 4260" stroke="#4147d5" stroke-linecap="round" stroke-linejoin="round" d="M2.7535951499999998 16.60238807142857c0.9510187714285714 0.8296656428571428 1.8363775714285713 1.7414858571428573 3.1963700785714284 1.7414858571428573H15.876689357142856c1.3600084285714285 0 2.2453990714285714 -0.9118202142857142 3.196386 -1.7414858571428573" stroke-width="1.71"></path>
    <g id="Group 1000007206">
      <path id="Vector_2_2" stroke="#4147d5" stroke-linecap="round" stroke-linejoin="round" d="M6.824131264285714 21.49392857142857c-0.25474285714285716 0 -0.39803571428571427 -0.14329285714285714 -0.39803571428571427 -0.39803571428571427s0.14329285714285714 -0.39803571428571427 0.39803571428571427 -0.39803571428571427" stroke-width="1.71"></path>
      <path id="Vector_2_3" stroke="#4147d5" stroke-linecap="round" stroke-linejoin="round" d="M6.824131264285714 21.49392857142857c0.25474285714285716 0 0.39803571428571427 -0.14329285714285714 0.39803571428571427 -0.39803571428571427s-0.14329285714285714 -0.39803571428571427 -0.39803571428571427 -0.39803571428571427" stroke-width="1.71"></path>
    </g>
    <g id="Group 1000007207">
      <path id="Vector_2_4" stroke="#4147d5" stroke-linecap="round" stroke-linejoin="round" d="M14.951988707142856 21.49392857142857c0.25474285714285716 0 0.39803571428571427 -0.14329285714285714 0.39803571428571427 -0.39803571428571427s-0.14329285714285714 -0.39803571428571427 -0.39803571428571427 -0.39803571428571427" stroke-width="1.71"></path>
      <path id="Vector_2_5" stroke="#4147d5" stroke-linecap="round" stroke-linejoin="round" d="M14.951988707142856 21.49392857142857c-0.25474285714285716 0 -0.39803571428571427 -0.14329285714285714 -0.39803571428571427 -0.39803571428571427s0.14329285714285714 -0.39803571428571427 0.39803571428571427 -0.39803571428571427" stroke-width="1.71"></path>
    </g>
  </g>
</svg>