<svg xmlns="http://www.w3.org/2000/svg" fill="none" viewBox="-0.855 -0.855 24 24" height="24" width="24">
  <g id="sledding--sports-sledding-winter-snow">
    <path id="Vector" fill="#d7e0ff" d="M10.260787542857141 5.581097571428571c1.2458836285714285 0.33382459285714283 2.1344744785714287 -0.17919567857142857 2.4682990714285715 -1.4250793071428571 0.33384051428571426 -1.2458677071428572 -0.17919567857142857 -2.134458557142857 -1.4250633857142856 -2.46828315 -1.2458836285714285 -0.3338341457142857 -2.134458557142857 0.17919567857142857 -2.4682990714285715 1.4250633857142856 -0.33382459285714283 1.2458836285714285 0.17919567857142857 2.134458557142857 1.4250633857142856 2.4682990714285715Z" stroke-width="1.71"></path>
    <path id="Vector 4268" stroke="#4147d5" stroke-linecap="round" stroke-linejoin="round" d="m14.02453365 17.180813571428573 -0.8200013357142857 3.0602577857142856" stroke-width="1.71"></path>
    <path id="Vector 4266" stroke="#4147d5" stroke-linecap="round" stroke-linejoin="round" d="m1.6162478999999998 13.86283562142857 15.539250599999999 4.163724235714286" stroke-width="1.71"></path>
    <path id="Vector 4267" stroke="#4147d5" stroke-linecap="round" stroke-linejoin="round" d="m5.6751136071428565 14.951208557142857 -0.8200013357142857 3.0602259428571426" stroke-width="1.71"></path>
    <path id="Vector 4269" stroke="#4147d5" stroke-linecap="round" stroke-linejoin="round" d="m0.7960714285714285 16.922886428571427 16.629295285714285 4.4557709999999995c3.8034700714285714 1.0191306428571427 5.888221928571428 -5.034514928571428 1.9545145714285714 -6.088481657142856" stroke-width="1.71"></path>
    <path id="Vector_2" stroke="#4147d5" stroke-linecap="round" stroke-linejoin="round" d="M10.260787542857141 5.581097571428571c1.2458836285714285 0.33382459285714283 2.1344744785714287 -0.17919567857142857 2.4682990714285715 -1.4250793071428571 0.33384051428571426 -1.2458677071428572 -0.17919567857142857 -2.134458557142857 -1.4250633857142856 -2.46828315 -1.2458836285714285 -0.3338341457142857 -2.134458557142857 0.17919567857142857 -2.4682990714285715 1.4250633857142856 -0.33382459285714283 1.2458836285714285 0.17919567857142857 2.134458557142857 1.4250633857142856 2.4682990714285715Z" stroke-width="1.71"></path>
    <path id="Vector 4270" stroke="#4147d5" stroke-linecap="round" stroke-linejoin="round" d="M4.344114021428571 14.042381571428573c-0.023245285714285715 -0.4654788857142857 -0.3243831857142857 -2.679671957142857 -0.04824192857142857 -3.71763765 0.2761571785714286 -1.0379497714285715 3.445285692857143 -2.902317214285714 4.521208071428571 -2.3927359714285714s-1.9232767285714285 5.644862892857143 -1.0192261714285713 6.8864158928571415c0.9040664785714284 1.241521157142857 3.215873828571428 -2.6936350499999997 4.8883880571428575 -2.2454786785714287 1.6724983071428572 0.44814044999999997 2.77722255 4.412830907142857 2.9709067285714283 5.038065407142857" stroke-width="1.71"></path>
  </g>
</svg>