<svg xmlns="http://www.w3.org/2000/svg" fill="none" viewBox="-0.855 -0.855 24 24" height="24" width="24">
  <g id="snowboarding--sports-snowboarding-winter-snow">
    <path id="Vector" fill="#d7e0ff" d="M13.323911185714284 5.5495094571428565c1.464866957142857 0.4910646214285714 2.5650695142857143 -0.05669620714285715 3.0560545285714285 -1.5215631642857144 0.4911760714285714 -1.464866957142857 -0.05668028571428571 -2.5650711064285714 -1.521483557142857 -3.0561341357142857 -1.464866957142857 -0.4910646214285714 -2.5650695142857143 0.05669620714285715 -3.0561341357142857 1.5215631642857144s0.05669620714285715 2.5650695142857143 1.5215631642857144 3.0561341357142857Z" stroke-width="1.71"></path>
    <path id="Vector_2" stroke="#4147d5" stroke-linecap="round" stroke-linejoin="round" d="M13.323911185714284 5.5495094571428565c1.464866957142857 0.4910646214285714 2.5650695142857143 -0.05669620714285715 3.0560545285714285 -1.5215631642857144 0.4911760714285714 -1.464866957142857 -0.05668028571428571 -2.5650711064285714 -1.521483557142857 -3.0561341357142857 -1.464866957142857 -0.4910646214285714 -2.5650695142857143 0.05669620714285715 -3.0561341357142857 1.5215631642857144s0.05669620714285715 2.5650695142857143 1.5215631642857144 3.0561341357142857Z" stroke-width="1.71"></path>
    <path id="Vector 702" stroke="#4147d5" stroke-linecap="round" stroke-linejoin="round" d="M5.7083097857142855 10.19132235c0.6139302857142857 -1.7321558999999997 2.6797038 -3.7997444571428565 6.108510814285714 -2.6727461357142857 2.4719928428571425 0.7190913214285714 2.8239041785714285 4.599668871428571 6.0121543285714285 3.874256742857143" stroke-width="1.71"></path>
    <path id="Rectangle 150" stroke="#4147d5" stroke-linecap="round" stroke-linejoin="round" d="m14.535643349999999 20.152229785714283 -0.8602029428571428 -4.769868942857143c-0.4102315285714286 -1.2622030928571428 -3.3438184285714287 -1.7528856 -4.22874735 -2.763768942857143 -0.9755696142857142 -0.8730356142857143 1.6714315714285715 -3.843401014285714 2.703140142857143 -4.919052728571429" stroke-width="1.71"></path>
    <path id="Vector 726" stroke="#4147d5" stroke-linecap="round" stroke-linejoin="round" d="M5.9549327142857145 19.238180571428572c1.2979626214285713 -0.8072164285714285 3.5712560357142857 -2.674322357142857 3.649334721428571 -3.4083798214285714 0.07806276428571428 -0.7340256214285714 -0.3414350357142857 -3.3041263071428575 -0.3760959857142857 -3.632585378571428" stroke-width="1.71"></path>
    <path id="Vector 4260" stroke="#4147d5" stroke-linecap="round" stroke-linejoin="round" d="M0.7960714285714285 16.465622999999997c1.0389209785714286 1.1371084285714284 1.9780145999999998 2.3496844285714285 3.702878485714286 2.664291857142857l12.589997014285714 2.296029214285714c1.7249275714285712 0.3144482142857143 3.031599214285714 -0.48862864285714286 4.404981642857143 -1.1858279999999999" stroke-width="1.71"></path>
  </g>
</svg>