<svg xmlns="http://www.w3.org/2000/svg" fill="none" viewBox="-0.855 -0.855 24 24" id="Snow-Flake--Streamline-Flex" height="24" width="24">
  <desc>
    Snow Flake Streamline Icon: https://streamlinehq.com
  </desc>
  <g id="snow-flake--winter-freeze-snow-freezing-ice-cold-weather-snowflake">
    <path id="Vector" stroke="#4147d5" stroke-linecap="round" stroke-linejoin="round" d="m8.329979978571428 0.7960714285714285 0.5353898785714286 0.669290685c1.2496410857142857 1.562161215 3.30928485 1.562161215 4.558925935714285 -0.00000159214285714286L13.959685671428572 0.7960714285714285" stroke-width="1.71"></path>
    <path id="Vector_2" stroke="#4147d5" stroke-linecap="round" stroke-linejoin="round" d="m13.960020021428571 21.49392857142857 -0.5353898785714286 -0.6693368571428571c-1.2496410857142857 -1.5620513571428571 -3.30928485 -1.5620513571428571 -4.558925935714285 0l-0.5353898785714286 0.6693368571428571" stroke-width="1.71"></path>
    <path id="Vector_3" stroke="#4147d5" stroke-linecap="round" stroke-linejoin="round" d="M11.145 2.636986607142857 11.145 8.35875" stroke-width="1.71"></path>
    <path id="Vector_4" stroke="#4147d5" stroke-linecap="round" stroke-linejoin="round" d="m11.145 13.949909914285714 0 5.703023871428571" stroke-width="1.71"></path>
    <path id="Vector_5" stroke="#4147d5" stroke-linecap="round" stroke-linejoin="round" d="m18.679019999999998 3.532566964285714 -0.3119007857142857 0.7983004285714285c-0.7280869285714285 1.8633007071428571 0.3017110714285714 3.647010192857143 2.2794709285714285 3.948148092857142l0.8473384285714286 0.12901133571428572" stroke-width="1.71"></path>
    <path id="Vector_6" stroke="#4147d5" stroke-linecap="round" stroke-linejoin="round" d="m3.610916314285714 18.757353428571427 0.31193262857142856 -0.7983004285714285c0.7280550857142857 -1.8632847857142856 -0.3017747571428571 -3.6470261142857137 -2.279455007142857 -3.948148092857142L0.7960714285714285 13.88187765" stroke-width="1.71"></path>
    <path id="Vector_7" stroke="#4147d5" stroke-linecap="round" stroke-linejoin="round" d="M18.513596357142855 6.890985342857143 13.623011142857143 9.714555171428572" stroke-width="1.71"></path>
    <path id="Vector_8" stroke="#4147d5" stroke-linecap="round" stroke-linejoin="round" d="M8.657276785714286 12.581081014285713 3.776674307142857 15.398887285714284" stroke-width="1.71"></path>
    <path id="Vector_9" stroke="#4147d5" stroke-linecap="round" stroke-linejoin="round" d="m18.679019999999998 18.757353428571427 -0.3119007857142857 -0.7983004285714285c-0.7280869285714285 -1.8632847857142856 0.3017110714285714 -3.6470261142857137 2.2794709285714285 -3.948148092857142l0.8473384285714286 -0.12902725714285715" stroke-width="1.71"></path>
    <path id="Vector_10" stroke="#4147d5" stroke-linecap="round" stroke-linejoin="round" d="m3.610916314285714 3.532566964285714 0.31193262857142856 0.7983004285714285c0.7280550857142857 1.8633007071428571 -0.3017747571428571 3.647010192857143 -2.279455007142857 3.948148092857142L0.7960714285714285 8.408026821428571" stroke-width="1.71"></path>
    <path id="Vector_11" stroke="#4147d5" stroke-linecap="round" stroke-linejoin="round" d="M18.513118714285714 15.399014657142857 13.632723214285713 12.58127207142857" stroke-width="1.71"></path>
    <path id="Vector_12" stroke="#4147d5" stroke-linecap="round" stroke-linejoin="round" d="M8.667625714285714 9.714555171428572 3.7770564214285716 6.890985342857143" stroke-width="1.71"></path>
    <path id="Vector_13" stroke="#4147d5" stroke-linecap="round" stroke-linejoin="round" d="M11.145 13.949909914285714c1.7712589285714286 0 2.7675900857142857 -1.00305 2.7675900857142857 -2.78625S12.916258928571429 8.377409914285714 11.145 8.377409914285714s-2.7675900857142857 1.00305 -2.7675900857142857 2.78625 0.9963311571428571 2.78625 2.7675900857142857 2.78625Z" stroke-width="1.71"></path>
  </g>
</svg>