<svg xmlns="http://www.w3.org/2000/svg" fill="none" viewBox="-0.855 -0.855 24 24" id="Soccer--Streamline-Flex" height="24" width="24">
  <desc>
    Soccer Streamline Icon: https://streamlinehq.com
  </desc>
  <g id="soccer--soccer-sports-ball-field-games">
    <path id="Vector_2" fill="#d7e0ff" d="M11.145 21.49392857142857c6.623314285714286 0 10.348928571428571 -3.7256142857142853 10.348928571428571 -10.348928571428571S17.768314285714286 0.7960714285714285 11.145 0.7960714285714285 0.7960714285714285 4.521685714285714 0.7960714285714285 11.145s3.7256142857142853 10.348928571428571 10.348928571428571 10.348928571428571Z" stroke-width="1.71"></path>
    <path id="Polygon 5" fill="#ffffff" d="M9.048243385714287 15.598701214285713c1.5554121214285712 0.1806126857142857 2.6836523142857143 0.17562927857142857 4.192542021428571 0 0.54844545 -0.06382900714285714 1.0248305142857144 -0.40961059285714285 1.2548633142857142 -0.9115336285714286 0.6522213214285715 -1.4231528142857142 0.9960764142857141 -2.4976263428571426 1.2952719 -3.986725714285714 0.10875927857142856 -0.54131265 -0.07287237857142857 -1.10123745 -0.4791553928571428 -1.475120357142857 -1.1519312785714284 -1.0600964785714286 -2.0675567142857143 -1.7191799357142856 -3.39131205 -2.4639047571428567 -0.4812092571428571 -0.27071205 -1.0698563142857143 -0.27099863571428573 -1.5509859642857142 -0.00012737142857142857 -1.3639410214285714 0.7678586571428571 -2.273611842857143 1.4349346714285713 -3.3907070357142852 2.4634907999999998 -0.40645815 0.37426502142857143 -0.5885356071428571 0.9346196999999999 -0.47968079999999996 1.4763144642857142 0.29921140714285716 1.488972 0.6431301857142857 2.5634773714285712 1.2954470357142855 3.986725714285714 0.2298895071428571 0.5015727642857142 0.7056695571428572 0.8472428999999999 1.2537169714285714 0.91088085Z" stroke-width="1.71"></path>
    <path id="Vector_2_2" stroke="#4147d5" stroke-linecap="round" stroke-linejoin="round" d="M11.145 21.49392857142857c6.623314285714286 0 10.348928571428571 -3.7256142857142853 10.348928571428571 -10.348928571428571S17.768314285714286 0.7960714285714285 11.145 0.7960714285714285 0.7960714285714285 4.521685714285714 0.7960714285714285 11.145s3.7256142857142853 10.348928571428571 10.348928571428571 10.348928571428571Z" stroke-width="1.71"></path>
    <path id="Polygon 4" stroke="#4147d5" stroke-linecap="round" stroke-linejoin="round" d="M9.048243385714287 15.598701214285713c1.5554121214285712 0.1806126857142857 2.6836523142857143 0.17562927857142857 4.192542021428571 0 0.54844545 -0.06382900714285714 1.0248305142857144 -0.40961059285714285 1.2548633142857142 -0.9115336285714286 0.6522213214285715 -1.4231528142857142 0.9960764142857141 -2.4976263428571426 1.2952719 -3.986725714285714 0.10875927857142856 -0.54131265 -0.07287237857142857 -1.10123745 -0.4791553928571428 -1.475120357142857 -1.1519312785714284 -1.0600964785714286 -2.0675567142857143 -1.7191799357142856 -3.39131205 -2.4639047571428567 -0.4812092571428571 -0.27071205 -1.0698563142857143 -0.27099863571428573 -1.5509859642857142 -0.00012737142857142857 -1.3639410214285714 0.7678586571428571 -2.273611842857143 1.4349346714285713 -3.3907070357142852 2.4634907999999998 -0.40645815 0.37426502142857143 -0.5885356071428571 0.9346196999999999 -0.47968079999999996 1.4763303857142855 0.29921140714285716 1.4889560785714284 0.6431301857142857 2.5634614499999997 1.2954470357142855 3.9867097928571424 0.2298895071428571 0.5015727642857142 0.7056695571428572 0.8472428999999999 1.2537169714285714 0.91088085Z" stroke-width="1.71"></path>
    <path id="Vector 2883" stroke="#4147d5" d="M11.144808942857143 6.558259328571428V0.7867430635714285" stroke-width="1.71"></path>
    <path id="Vector 2884" stroke="#4147d5" d="m15.693354107142856 9.739440364285715 5.464791535714285 -1.7756214" stroke-width="1.71"></path>
    <path id="Vector 2882" stroke="#4147d5" d="M6.592665535714285 9.767048121428571 1.1194754464285714 7.988704157142856" stroke-width="1.71"></path>
    <path id="Vector 2886" stroke="#4147d5" d="M8.372824542857142 15.240421307142856 4.940944692857143 19.964038499999997" stroke-width="1.71"></path>
    <path id="Vector 2885" stroke="#4147d5" d="m14.074781678571426 15.249735342857143 3.36411825 4.630397228571429" stroke-width="1.71"></path>
  </g>
</svg>