<svg xmlns="http://www.w3.org/2000/svg" fill="none" viewBox="-0.855 -0.855 24 24" id="Sock--Streamline-Flex" height="24" width="24">
  <desc>
    Sock Streamline Icon: https://streamlinehq.com
  </desc>
  <g id="sock">
    <path id="Union" fill="#d7e0ff" d="M20.843379 4.045571314285715c0.11956992857142856 2.1085066285714285 0.24375707142857145 4.294264028571428 0.24375707142857145 6.534409028571429 0 1.9530816428571427 0.06368571428571429 4.058435828571429 -0.15189042857142857 6.068739085714285 -0.28451592857142854 2.654102142857143 -1.611567 4.112823428571429 -4.286526214285714 4.259141357142857 -1.8127024071428572 0.0991905 -3.679171478571429 0.18803207142857142 -5.585157535714286 0.18803207142857142C5.357688085714285 21.095892857142857 1.1941071428571428 20.395509214285713 1.1941071428571428 16.092902357142854c0 -4.30252725 3.6763215428571425 -5.920271764285714 8.733046864285713 -5.015743564285715l1.1364078857142856 0.18390842142857142c0.24375707142857145 -0.5003627357142857 0.21680209285714286 -4.3962885428571425 0.24375707142857145 -7.215559585714285 0.003598242857142857 -0.3756820285714286 0.0047605071428571425 -0.8224532357142856 0.004728664285714285 -1.2495614785714286C11.311983942857141 1.9128163500000002 12.0261237 1.1941071428571428 12.90923757857143 1.1941071428571428h6.266690207142857c0.843198857142857 0 1.540239 0.6574753928571428 1.5892769999999998 1.4993209285714284 0.031683642857142855 0.5454203785714286 0.06336728571428571 1.091732357142857 0.07817421428571428 1.352143242857143Z" stroke-width="1.71"></path>
    <path id="Intersect" fill="#ffffff" fill-rule="evenodd" d="M11.625222128571428 5.429668864285714h9.309386657142857c-0.025155857142857143 -0.46485795 -0.051267 -0.9262927928571428 -0.07737814285714285 -1.3840975500000001 -0.01480692857142857 -0.2604108857142857 -0.04633135714285714 -0.8067228642857142 -0.07817421428571428 -1.352143242857143 -0.048878785714285715 -0.8418455357142858 -0.7459189285714286 -1.4993209285714284 -1.5891177857142855 -1.4993209285714284H12.923216592857143c-0.8831138785714285 0 -1.5972536357142855 0.7187092071428571 -1.5971899499999997 1.601839007142857 0.00003184285714285714 0.42710824285714283 -0.0011304214285714285 0.8738794499999999 -0.004728664285714285 1.2495614785714286 -0.004219178571428572 0.4407688285714285 -0.007116878571428571 0.9078398571428572 -0.009934971428571427 1.3841612357142856h0.3138591214285714Z" clip-rule="evenodd" stroke-width="1.71"></path>
    <path id="Union_2" stroke="#4147d5" stroke-linecap="round" stroke-linejoin="round" d="M20.843379 4.045571314285715c0.11956992857142856 2.1085066285714285 0.24375707142857145 4.294264028571428 0.24375707142857145 6.534409028571429 0 1.9530816428571427 0.06368571428571429 4.058435828571429 -0.15189042857142857 6.068739085714285 -0.28451592857142854 2.654102142857143 -1.611567 4.112823428571429 -4.286526214285714 4.259141357142857 -1.8127024071428572 0.0991905 -3.679171478571429 0.18803207142857142 -5.585157535714286 0.18803207142857142C5.357688085714285 21.095892857142857 1.1941071428571428 20.395509214285713 1.1941071428571428 16.092902357142854c0 -4.30252725 3.6763215428571425 -5.920271764285714 8.733046864285713 -5.015743564285715l1.1364078857142856 0.18390842142857142c0.24375707142857145 -0.5003627357142857 0.21680209285714286 -4.3962885428571425 0.24375707142857145 -7.215559585714285 0.003598242857142857 -0.3756820285714286 0.0047605071428571425 -0.8224532357142856 0.004728664285714285 -1.2495614785714286C11.311983942857141 1.9128163500000002 12.0261237 1.1941071428571428 12.90923757857143 1.1941071428571428h6.266690207142857c0.843198857142857 0 1.540239 0.6574753928571428 1.5892769999999998 1.4993209285714284 0.031683642857142855 0.5454203785714286 0.06336728571428571 1.091732357142857 0.07817421428571428 1.352143242857143Z" stroke-width="1.71"></path>
    <path id="Vector 3442" stroke="#4147d5" stroke-linecap="round" stroke-linejoin="round" d="m11.311363007142857 5.429652942857143 9.591721349999998 0" stroke-width="1.71"></path>
    <path id="Intersect_2" fill="#ffffff" fill-rule="evenodd" d="M21.09350464285714 13.316698778571428c-0.007164642857142856 1.1121913928571427 -0.04171414285714286 2.2361964857142858 -0.15921428571428572 3.3320206499999996 -0.28451592857142854 2.6539429285714284 -1.611567 4.112823428571429 -4.286526214285714 4.259141357142857 -1.1268231857142856 0.061615928571428565 -2.274487521428571 0.11925149999999998 -3.439506214285714 0.15411942857142857 0.01281675 -4.943444357142857 2.8494580714285713 -7.729503299999999 7.8852467142857146 -7.745281435714286Z" clip-rule="evenodd" stroke-width="1.71"></path>
    <path id="Intersect_3" stroke="#4147d5" stroke-linecap="round" stroke-linejoin="round" d="M21.09350464285714 13.316698778571428c-0.007164642857142856 1.1121913928571427 -0.04171414285714286 2.2361964857142858 -0.15921428571428572 3.3320206499999996 -0.28451592857142854 2.6539429285714284 -1.611567 4.112823428571429 -4.286526214285714 4.259141357142857 -1.1268231857142856 0.061615928571428565 -2.274487521428571 0.11925149999999998 -3.439506214285714 0.15411942857142857 0.01281675 -4.943444357142857 2.8494580714285713 -7.729503299999999 7.8852467142857146 -7.745281435714286Z" stroke-width="1.71"></path>
  </g>
</svg>