<svg xmlns="http://www.w3.org/2000/svg" fill="none" viewBox="-0.855 -0.855 24 24" height="24" width="24">
  <g id="sprint--sports-sprint-run-fast-project-management-top-speed">
    <path id="Vector" fill="#d7e0ff" d="M18.241339928571428 7.343265364285714c1.5577525714285714 0.34423720714285716 2.627513357142857 -0.33833035714285714 2.9717346428571427 -1.8960033214285712 0.34422128571428573 -1.5576888857142857 -0.33833035714285714 -2.6275292785714286 -1.8959237142857144 -2.9717664857142854 -1.5577525714285714 -0.34423720714285716 -2.627513357142857 0.33833035714285714 -2.9718938571428573 1.8960033214285712 -0.34422128571428573 1.5576888857142857 0.33833035714285714 2.627513357142857 1.8960829285714287 2.9717664857142854Z" stroke-width="1.71"></path>
    <path id="Vector 4329" stroke="#4147d5" stroke-linecap="round" d="M3.0148021071428572 21.493769357142856c0.4673576142857143 -0.5492892857142857 4.853806714285714 -4.565469642857143 7.212773335714286 -6.924101914285713 2.359444264285714 -2.3591258357142855 5.036552871428571 -5.725807435714286 5.036552871428571 -5.725807435714286" stroke-width="1.71"></path>
    <path id="Vector 4330" stroke="#4147d5" stroke-linecap="round" stroke-linejoin="round" d="M8.963620992857143 11.133791314285714c0 -0.5204237357142857 -0.3271853571428571 -2.1090798 0 -2.9502884785714283 0.36269014285714285 -0.9325499142857143 4.473189042857143 -0.8080284214285715 6.6116598 0.6390224571428571 2.5891586357142855 1.7520258428571427 1.7243066357142858 3.227894507142857 2.5891586357142855 4.669341042857143 0.6936966428571428 1.1563255928571428 2.794529142857143 0.7860250071428572 3.328852285714286 0.7860250071428572" stroke-width="1.71"></path>
    <path id="Vector 4331" stroke="#4147d5" stroke-linecap="round" stroke-linejoin="round" d="M11.284408028571429 13.436810035714286c0.41488058571428565 0.25557077142857143 3.7091196857142856 1.8916726928571426 3.7091196857142856 3.70849875 0 0.9431854285714286 -4.356071014285714 3.5181580714285716 -4.697458285714286 3.7026874285714286" stroke-width="1.71"></path>
    <path id="Vector 4332" stroke="#4147d5" stroke-linecap="round" stroke-linejoin="round" d="M2.298815464285714 6.051384728571429h3.440891378571428" stroke-width="1.71"></path>
    <path id="Vector 4334" stroke="#4147d5" stroke-linecap="round" stroke-linejoin="round" d="M2.298815464285714 12.82421715h3.440891378571428" stroke-width="1.71"></path>
    <path id="Vector 4333" stroke="#4147d5" stroke-linecap="round" stroke-linejoin="round" d="M0.7960714285714285 9.437792978571428h3.440891378571428" stroke-width="1.71"></path>
    <path id="Vector_2" stroke="#4147d5" stroke-linecap="round" stroke-linejoin="round" d="M18.241339928571428 7.343265364285714c1.5577525714285714 0.34423720714285716 2.627513357142857 -0.33833035714285714 2.9717346428571427 -1.8960033214285712 0.34422128571428573 -1.5576888857142857 -0.33833035714285714 -2.6275292785714286 -1.8959237142857144 -2.9717664857142854 -1.5577525714285714 -0.34423720714285716 -2.627513357142857 0.33833035714285714 -2.9718938571428573 1.8960033214285712 -0.34422128571428573 1.5576888857142857 0.33833035714285714 2.627513357142857 1.8960829285714287 2.9717664857142854Z" stroke-width="1.71"></path>
  </g>
</svg>