<svg xmlns="http://www.w3.org/2000/svg" fill="none" viewBox="-0.855 -0.855 24 24" id="Stadium--Streamline-Flex" height="24" width="24">
  <desc>
    Stadium Streamline Icon: https://streamlinehq.com
  </desc>
  <g id="stadium--stadium-sports-ball-field-games">
    <path id="Ellipse 1731" fill="#d7e0ff" d="M0.7945159049999999 9.823394057142858v8.491662085714285c0 1.5115804285714285 3.183230123571428 2.7859315714285713 7.527614809285714 3.178076357142857v-2.205277071428571c0 -1.5590262857142856 1.2638429999999998 -2.8228692857142854 2.8228533642857143 -2.8228692857142854 1.5590262857142856 0 2.8228533642857143 1.2638429999999998 2.8228533642857143 2.8228692857142854v2.205277071428571c4.344352842857142 -0.3921447857142857 7.527683271428571 -1.6664959285714285 7.527683271428571 -3.178076357142857V9.823394057142858H0.7945159049999999Z" stroke-width="1.71"></path>
    <path id="Vector_2" fill="#ffffff" d="M11.145 13.125434657142858c-6.623314285714286 0 -10.348928571428571 -1.1051222785714285 -10.348928571428571 -3.0697947214285715S4.521685714285714 6.985845214285714 11.145 6.985845214285714s10.348928571428571 1.1051222785714285 10.348928571428571 3.0697947214285715S17.768314285714286 13.125434657142858 11.145 13.125434657142858Z" stroke-width="1.71"></path>
    <path id="Vector 2906" stroke="#4147d5" stroke-linecap="round" stroke-linejoin="round" d="m10.945982142857142 6.720626057142857 0 -4.986464057142857c0 -0.32233091357142857 0.19279257857142856 -0.6182927571428571 0.4997099571428571 -0.7167715692857143 0.9281874428571429 -0.2978246507142857 1.7900939785714285 -0.3103755128571429 2.7467648571428573 0.08455552285714286" stroke-width="1.71"></path>
    <path id="Ellipse 1730" stroke="#4147d5" stroke-linecap="round" stroke-linejoin="round" d="M0.7945159049999999 9.823394057142858v8.491662085714285c0 1.5115804285714285 3.183230123571428 2.7859315714285713 7.527614809285714 3.178076357142857v-2.205277071428571c0 -1.5590262857142856 1.2638429999999998 -2.8228692857142854 2.8228533642857143 -2.8228692857142854v0c1.5590262857142856 0 2.8228533642857143 1.2638429999999998 2.8228533642857143 2.8228692857142854v2.205277071428571c4.344352842857142 -0.3921447857142857 7.527683271428571 -1.6664959285714285 7.527683271428571 -3.178076357142857V9.823394057142858" stroke-width="1.71"></path>
    <path id="Vector_2_2" stroke="#4147d5" stroke-linecap="round" stroke-linejoin="round" d="M11.145 13.125434657142858c-6.623314285714286 0 -10.348928571428571 -1.1051222785714285 -10.348928571428571 -3.0697947214285715S4.521685714285714 6.985845214285714 11.145 6.985845214285714s10.348928571428571 1.1051222785714285 10.348928571428571 3.0697947214285715S17.768314285714286 13.125434657142858 11.145 13.125434657142858Z" stroke-width="1.71"></path>
    <path id="Vector 2907" stroke="#4147d5" stroke-linecap="round" stroke-linejoin="round" d="M3.8927096785714284 7.284340157142856V3.080557607142857c0 -0.3223293214285714 0.19279257857142856 -0.6182927571428571 0.4996940357142857 -0.7167508714285714 0.9281874428571429 -0.2977944 1.7901098999999998 -0.31026087857142853 2.7467807785714284 0.08467015714285714" stroke-width="1.71"></path>
    <path id="Vector 2909" stroke="#4147d5" stroke-linecap="round" stroke-linejoin="round" d="M17.402280642857143 7.334237914285714V3.080557607142857c0 -0.3223293214285714 0.1926492857142857 -0.6182927571428571 0.49961442857142857 -0.7167667928571428 0.9280600714285714 -0.2977784785714286 1.7894093571428569 -0.3102290357142857 2.7459687857142856 0.08468607857142857" stroke-width="1.71"></path>
  </g>
</svg>