<svg xmlns="http://www.w3.org/2000/svg" fill="none" viewBox="-0.855 -0.855 24 24" height="24" width="24">
  <g id="surfing--sports-surfing-sea-outdoor-beach-water">
    <path id="Subtract" fill="#ffffff" fill-rule="evenodd" d="M4.184724599999999 16.99087092857143c-1.4081548285714285 -1.2249469499999999 -2.6129213678571426 -3.3982856357142857 -0.889227707142857 -3.9071981785714285 3.5572133357142857 -1.050272957142857 11.897701457142857 2.184244864285714 13.30577667857143 3.4090166785714286 0.028340142857142855 0.02706642857142857 0.056361857142857144 0.05413285714285714 0.08390592857142856 0.0813585 -0.2994820714285714 -0.048878785714285715 -0.6128157857142857 -0.07419385714285714 -0.9406539214285713 -0.07419385714285714 -1.0714803 0 -1.9887934071428572 0.27130114285714285 -2.7749776285714285 0.7456005 -0.6295173642857143 0.3798852857142857 -1.0995816214285714 0.8543438571428571 -1.346841407142857 1.103991857142857l-0.02794210714285714 0.028180928571428572 -0.04750954285714285 0.04776428571428571c-0.07011797142857143 0.07053192857142856 -0.11874201428571426 0.12339107142857142 -0.15524985 0.16319464285714283 -0.10727858571428571 0.11670407142857143 -0.11011259999999999 0.11972914285714285 -0.24700504285714284 0.11972914285714285 -0.14206690714285714 0 -0.1723653857142857 -0.03295735714285714 -0.3039719142857143 -0.17593178571428572 -0.043959064285714285 -0.04776428571428571 -0.09923826428571429 -0.10778807142857141 -0.17373462857142855 -0.18293721428571427 -0.2472597857142857 -0.24964799999999998 -0.7173240428571428 -0.7241065714285714 -1.346841407142857 -1.103991857142857 -0.7861842214285714 -0.47429935714285715 -1.7034814071428572 -0.7456005 -2.7749776285714285 -0.7456005 -0.8793086571428571 0 -1.654777757142857 0.1826187857142857 -2.339160364285714 0.5104409999999999l-0.021589457142857142 -0.01942414285714286Z" clip-rule="evenodd" stroke-width="1.71"></path>
    <path id="Vector" fill="#d7e0ff" d="M13.410762578571429 4.592042507142857c1.1053770214285714 0.6381945428571428 2.0861370214285713 0.3753954428571428 2.724331564285714 -0.7299815785714285 0.6381308571428571 -1.1053770214285714 0.37542728571428574 -2.0861210999999997 -0.7299975 -2.7243140507142853C14.29971962142857 0.4995571114285714 13.318975542857142 0.7623498428571429 12.680781 1.867726864285714c-0.6381945428571428 1.1053770214285714 -0.3753954428571428 2.0861370214285713 0.7299815785714285 2.724315642857143Z" stroke-width="1.71"></path>
    <path id="Vector_2" stroke="#4147d5" stroke-linecap="round" stroke-linejoin="round" d="M0.7960714285714285 21.49456542857143h1.1498774142857142c2.5052049428571426 0 2.3020634357142855 -2.208461357142857 4.599525578571428 -2.208461357142857S8.639795057142857 21.49456542857143 11.145 21.49456542857143s2.3020634357142855 -2.208461357142857 4.599525578571428 -2.208461357142857c2.297478064285714 0 2.0943206357142854 2.208461357142857 4.599557421428571 2.208461357142857H21.49392857142857" stroke-width="1.71"></path>
    <path id="Vector 660" stroke="#4147d5" stroke-linecap="round" stroke-linejoin="round" d="M9.405217735714285 13.515016092857142c-0.53195085 -1.23787515 -0.5550687642857143 -2.3742034285714286 -0.5480633357142857 -3.576780771428571 0.0026748 -0.4604158714285714 0.20330072142857142 -0.8983347642857142 0.5505470785714285 -1.2006826928571428l2.4838702285714285 -2.162735014285714" stroke-width="1.71"></path>
    <path id="Vector 661" stroke="#4147d5" stroke-linecap="round" stroke-linejoin="round" d="M10.081623707142857 9.433303135714285c1.2529209 0.6693687 2.57081715 1.8381289285714286 3.190797578571429 2.8779574285714284 0.5652425571428571 0.9480573857142857 0.48803955000000004 1.7672148857142858 0.48803955000000004 2.4342431357142855" stroke-width="1.71"></path>
    <path id="Vector 702" stroke="#4147d5" stroke-linecap="round" stroke-linejoin="round" d="M6.7708900071428575 6.573368764285714c0.8172469285714286 -1.081590407142857 2.8313235642857144 -1.4961048 5.235936921428571 -0.23051044285714284 0.8241090642857143 0.4337315571428571 3.0992016 2.665565571428571 5.1507413571428575 1.8017962285714286" stroke-width="1.71"></path>
    <path id="Vector_3" stroke="#4147d5" stroke-linecap="round" stroke-linejoin="round" d="M13.410762578571429 4.592042507142857c1.1053770214285714 0.6381945428571428 2.0861370214285713 0.3753954428571428 2.724331564285714 -0.7299815785714285 0.6381308571428571 -1.1053770214285714 0.37542728571428574 -2.0861210999999997 -0.7299975 -2.7243140507142853C14.29971962142857 0.4995571114285714 13.318975542857142 0.7623498428571429 12.680781 1.867726864285714c-0.6381945428571428 1.1053770214285714 -0.3753954428571428 2.0861370214285713 0.7299815785714285 2.724315642857143Z" stroke-width="1.71"></path>
    <path id="Vector 4151" stroke="#4147d5" stroke-linecap="round" stroke-linejoin="round" d="M4.184724599999999 16.99087092857143c-1.4081548285714285 -1.2249469499999999 -2.6129213678571426 -3.3982856357142857 -0.889227707142857 -3.9071981785714285 3.5572133357142857 -1.050272957142857 11.897701457142857 2.184244864285714 13.30577667857143 3.4090166785714286" stroke-width="1.71"></path>
  </g>
</svg>