<svg xmlns="http://www.w3.org/2000/svg" fill="none" viewBox="-0.855 -0.855 24 24" id="Swimming--Streamline-Flex" height="24" width="24">
  <desc>
    Swimming Streamline Icon: https://streamlinehq.com
  </desc>
  <g id="swimming--swimming-sports-pool-water">
    <path id="Vector" fill="#d7e0ff" d="M0.7960714285714285 16.295263714285714h1.1498774142857142c2.5052049428571426 0 2.3020634357142855 -2.208525042857143 4.599525578571428 -2.208525042857143S8.639795057142857 16.295263714285714 11.145 16.295263714285714s2.3020634357142855 -2.208525042857143 4.599525578571428 -2.208525042857143c2.297478064285714 0 2.0943206357142854 2.208525042857143 4.599557421428571 2.208525042857143H21.49392857142857V21.49392857142857S15.19845242142857 22.29 11.145 22.29s-10.348928571428571 -0.7960714285714285 -10.348928571428571 -0.7960714285714285v-5.198664857142857Z" stroke-width="1.71"></path>
    <path id="Vector_2" stroke="#4147d5" stroke-linecap="round" stroke-linejoin="round" d="M0.7960714285714285 16.270426285714287h1.1498774142857142c2.5052049428571426 0 2.3020634357142855 -2.208572807142857 4.599525578571428 -2.208572807142857S8.639795057142857 16.270426285714287 11.145 16.270426285714287s2.3020634357142855 -2.208572807142857 4.599525578571428 -2.208572807142857c2.297478064285714 0 2.0943206357142854 2.208572807142857 4.599557421428571 2.208572807142857H21.49392857142857" stroke-width="1.71"></path>
    <path id="Vector_3" stroke="#4147d5" stroke-linecap="round" stroke-linejoin="round" d="M0.7960714285714285 21.49456542857143h1.1498774142857142c2.5052049428571426 0 2.3020634357142855 -2.208461357142857 4.599525578571428 -2.208461357142857S8.639795057142857 21.49456542857143 11.145 21.49456542857143s2.3020634357142855 -2.208461357142857 4.599525578571428 -2.208461357142857c2.297478064285714 0 2.0943206357142854 2.208461357142857 4.599557421428571 2.208461357142857H21.49392857142857" stroke-width="1.71"></path>
    <path id="Vector_4" stroke="#4147d5" stroke-linecap="round" stroke-linejoin="round" d="M14.831734157142858 10.600869257142858c1.255118057142857 1.2551499 2.6671895571428568 1.2551499 3.922275771428571 0 1.2552454285714285 -1.2551499 1.2552454285714285 -2.6671895571428568 0 -3.922355378571428 -1.2550862142857142 -1.2551499 -2.667157714285714 -1.2551499 -3.922275771428571 0 -1.2551499 1.2551658214285715 -1.2551499 2.6672054785714283 0 3.922355378571428Z" stroke-width="1.71"></path>
    <path id="Union" stroke="#4147d5" stroke-linecap="round" stroke-linejoin="round" d="M12.762012128571428 12.388861607142857s-1.2597511928571428 -1.4332629214285713 -1.7413903285714285 -2.5331311285714286c-0.3427565142857143 -0.7826655857142857 -0.7463328857142857 -2.7408420857142857 -0.2715718071428571 -3.41538525 0.47474515714285714 -0.6745272428571428 2.958472092857143 -2.476116492857143 2.958472092857143 -2.476116492857143 0.7594203 -0.6355834285714286 0.8597889857142856 -1.7664665785714286 0.22420555714285714 -2.525872549285714C13.29612829285714 0.6789470314285714 12.165261064285714 0.5785735692857144 11.405840764285713 1.2141665507142858L8.44736867142857 3.6902846357142858c-1.1847453428571428 0.9915865714285714 -1.8013185857142857 2.5056825857142857 -1.646307557142857 4.042832828571428l0.2140476857142857 2.1226130142857143 -4.054710214285714 3.055560964285714" stroke-width="1.71"></path>
  </g>
</svg>