<svg xmlns="http://www.w3.org/2000/svg" fill="none" viewBox="-0.855 -0.855 24 24" id="Tennis--Streamline-Flex" height="24" width="24">
  <desc>
    Tennis Streamline Icon: https://streamlinehq.com
  </desc>
  <g id="tennis--tennis-sports-ball-racket">
    <path id="Vector_2" fill="#d7e0ff" d="M11.145 21.49392857142857c6.623314285714286 0 10.348928571428571 -3.7256142857142853 10.348928571428571 -10.348928571428571S17.768314285714286 0.7960714285714285 11.145 0.7960714285714285 0.7960714285714285 4.521685714285714 0.7960714285714285 11.145s3.7256142857142853 10.348928571428571 10.348928571428571 10.348928571428571Z" stroke-width="1.71"></path>
    <path id="Vector_2_2" stroke="#4147d5" stroke-linecap="round" stroke-linejoin="round" d="M11.145 21.49392857142857c6.623314285714286 0 10.348928571428571 -3.7256142857142853 10.348928571428571 -10.348928571428571S17.768314285714286 0.7960714285714285 11.145 0.7960714285714285 0.7960714285714285 4.521685714285714 0.7960714285714285 11.145s3.7256142857142853 10.348928571428571 10.348928571428571 10.348928571428571Z" stroke-width="1.71"></path>
    <path id="Vector_2_3" stroke="#4147d5" stroke-linecap="round" stroke-linejoin="round" d="M11.145 21.49392857142857c6.623314285714286 0 10.348928571428571 -3.7256142857142853 10.348928571428571 -10.348928571428571S17.768314285714286 0.7960714285714285 11.145 0.7960714285714285 0.7960714285714285 4.521685714285714 0.7960714285714285 11.145s3.7256142857142853 10.348928571428571 10.348928571428571 10.348928571428571Z" stroke-width="1.71"></path>
    <g id="Intersect">
      <path stroke="#4147d5" stroke-linejoin="round" d="M4.968074807142857 19.970247857142855c1.4281839857142857 -2.680054071428571 2.196488442857143 -5.7123219857142855 2.196488442857143 -8.826362357142857 0 -3.1137537857142856 -0.7681611642857142 -6.145719192857142 -2.1961063285714286 -8.825645892857143C2.254458364285714 3.9908175214285713 0.7960714285714285 7.000445164285714 0.7960714285714285 11.144379064285713c0 4.143726921428571 1.4582436428571428 7.153322721428571 4.1720033785714286 8.825868792857142Z" stroke-width="1.71"></path>
      <path stroke="#4147d5" stroke-linejoin="round" d="M21.49392857142857 11.144379064285713c0 4.143726921428571 -1.4582436428571428 7.153322721428571 -4.172051142857143 8.825868792857142 -1.4281362214285713 -2.680054071428571 -2.1964406785714288 -5.7123219857142855 -2.1964406785714288 -8.826362357142857 0 -3.1137537857142856 0.7681611642857142 -6.145719192857142 2.19612225 -8.82562997142857C20.03552571428571 3.9908175214285713 21.49392857142857 7.000445164285714 21.49392857142857 11.144379064285713Z" stroke-width="1.71"></path>
    </g>
  </g>
</svg>