<svg xmlns="http://www.w3.org/2000/svg" fill="none" viewBox="-0.855 -0.855 24 24" height="24" width="24">
  <g id="volleyball--sports-volleyball-team-net-ball">
    <path id="Vector_2" fill="#d7e0ff" d="M11.145 21.49392857142857c6.623314285714286 0 10.348928571428571 -3.7256142857142853 10.348928571428571 -10.348928571428571S17.768314285714286 0.7960714285714285 11.145 0.7960714285714285 0.7960714285714285 4.521685714285714 0.7960714285714285 11.145s3.7256142857142853 10.348928571428571 10.348928571428571 10.348928571428571Z" stroke-width="1.71"></path>
    <path id="Vector_2_2" stroke="#4147d5" stroke-linecap="round" stroke-linejoin="round" d="M11.145 21.49392857142857c6.623314285714286 0 10.348928571428571 -3.7256142857142853 10.348928571428571 -10.348928571428571S17.768314285714286 0.7960714285714285 11.145 0.7960714285714285 0.7960714285714285 4.521685714285714 0.7960714285714285 11.145s3.7256142857142853 10.348928571428571 10.348928571428571 10.348928571428571Z" stroke-width="1.71"></path>
    <path id="Vector 4318" stroke="#4147d5" stroke-linecap="round" d="M11.145 0.7960714285714285c0.4401638142857142 3.480886007142857 0.4401638142857142 6.868042564285715 0 10.348928571428571" stroke-width="1.71"></path>
    <path id="Vector 4321" stroke="#4147d5" stroke-linecap="round" d="M20.10812742857143 16.318031357142857c-2.820003428571429 -2.0641176857142858 -5.762776992857143 -3.7704967928571422 -8.962506492857141 -5.174480207142857" stroke-width="1.71"></path>
    <path id="Vector 4325" stroke="#4147d5" stroke-linecap="round" d="M21.49392857142857 11.300727492857142c-3.1752105 -2.254760871428571 -6.476343578571428 -4.166876678571429 -10.018527085714286 -5.784207235714285" stroke-width="1.71"></path>
    <path id="Vector 4323" stroke="#4147d5" stroke-linecap="round" d="M2.1822069214285715 16.319464285714286 11.144633807142856 11.145" stroke-width="1.71"></path>
    <path id="Vector 4324" stroke="#4147d5" stroke-linecap="round" d="M5.808837685714285 20.274347142857142C9.450705257142856 18.613742142857145 12.843338785714286 16.648560214285713 16.10611714285714 14.329285714285714" stroke-width="1.71"></path>
    <path id="Vector 4319" stroke="#4147d5" stroke-linecap="round" d="M5.808837685714285 2.099017457142857s0.39803571428571427 3.5397634499999997 0.39803571428571427 5.816607342857142 -0.39803571428571427 5.816607342857142 -0.39803571428571427 5.816607342857142" stroke-width="1.71"></path>
  </g>
</svg>