<svg xmlns="http://www.w3.org/2000/svg" fill="none" viewBox="-0.855 -0.855 24 24" height="24" width="24">
  <g id="walking-steps--sports-walking-steps-running-sprint">
    <path id="Subtract" fill="#d7e0ff" d="M18.997607785714287 21.31115057142857c2.4415510714285715 -0.7145537142857142 2.8485027857142855 -3.368655857142857 0.7120062857142857 -5.614421121428571L15.843556864285715 11.308576757142857c-0.1573674 -2.3628832928571426 -0.7371621428571429 -6.687589092857143 -2.0216393142857143 -6.993837771428571 -1.2844771714285714 -0.30623275714285714 -3.393079328571428 1.7311369285714284 -4.23476565 1.0208023928571428 -0.8416863214285714 -0.7103186142857142 -0.30519786428571427 -2.296809364285714 -0.30519786428571427 -2.9092908S7.349013 0.7929619735714286 7.349013 0.7929619735714286C5.169751542857143 1.9477161214285714 2.724920657142857 5.77210695 1.6795514999999999 8.247029335714286c-0.3831444021428571 0.9070915499999999 -0.09960764142857144 1.9078329428571428 0.5617398428571428 2.637384642857143C5.269594821428572 14.225000357142857 8.320825157142858 17.511342428571428 11.643452164285714 20.576058214285716c0.59347125 0.5473787142857143 1.3728092571428572 0.8411290714285714 2.1784653857142855 0.8680362857142857l0.1097304857142857 0.003661928571428571c1.8206790428571429 0.060979071428571424 3.1246599642857142 0.1046037857142857 5.065959749999999 -0.13660585714285714Z" stroke-width="1.71"></path>
    <path id="Intersect" fill="#ffffff" fill-rule="evenodd" d="M1.5431653585714287 9.507926871428571c0.08906765571428571 0.5000283857142857 0.3373782557142857 0.9785946857142857 0.69807822 1.376487107142857C5.269547057142857 14.225000357142857 8.320761471428572 17.511342428571428 11.6434044 20.576058214285716c0.5934553285714286 0.5473787142857143 1.3728092571428572 0.8411290714285714 2.178449464285714 0.8680362857142857l0.10974640714285715 0.003661928571428571 0.00003184285714285714 0c1.69660335 0.0568395 2.9446045285714284 0.09855364285714285 4.677492814285714 -0.09122978571428571l-0.16733421428571427 -0.20347585714285712c-3.1126074428571426 -3.688517357142857 -6.978027792857143 -7.36897847142857 -10.635164014285714 -10.663329021428572 -2.0088384857142856 -1.809581807142857 -3.736170192857143 -1.7902213499999997 -6.162452614285714 -1.0218213642857141l-0.10100872714285714 0.04002647142857142Z" clip-rule="evenodd" stroke-width="1.71"></path>
    <path id="Subtract_2" stroke="#4147d5" stroke-linecap="round" stroke-linejoin="round" d="M18.997607785714287 21.31115057142857c2.4415510714285715 -0.7145537142857142 2.8485027857142855 -3.368655857142857 0.7120062857142857 -5.614421121428571L15.843556864285715 11.308576757142857c-0.1573674 -2.3628832928571426 -0.7371621428571429 -6.687589092857143 -2.0216393142857143 -6.993837771428571 -1.2844771714285714 -0.30623275714285714 -3.393079328571428 1.7311369285714284 -4.23476565 1.0208023928571428 -0.8416863214285714 -0.7103186142857142 -0.30519786428571427 -2.296809364285714 -0.30519786428571427 -2.9092908S7.349013 0.7929619735714286 7.349013 0.7929619735714286C5.169751542857143 1.9477161214285714 2.724920657142857 5.77210695 1.6795514999999999 8.247029335714286c-0.3831444021428571 0.9070915499999999 -0.09960764142857144 1.9078329428571428 0.5617398428571428 2.637384642857143C5.269594821428572 14.225000357142857 8.320825157142858 17.511342428571428 11.643452164285714 20.576058214285716c0.59347125 0.5473787142857143 1.3728092571428572 0.8411290714285714 2.1784653857142855 0.8680362857142857l0.1097304857142857 0.003661928571428571c1.8206790428571429 0.060979071428571424 3.1246599642857142 0.1046037857142857 5.065959749999999 -0.13660585714285714Z" stroke-width="1.71"></path>
    <path id="Intersect_2" stroke="#4147d5" stroke-linecap="round" stroke-linejoin="round" d="M1.5431653585714287 9.507926871428571c0.08906765571428571 0.5000283857142857 0.3373782557142857 0.9785946857142857 0.69807822 1.376487107142857C5.269547057142857 14.225000357142857 8.320761471428572 17.511342428571428 11.6434044 20.576058214285716c0.5934553285714286 0.5473787142857143 1.3728092571428572 0.8411290714285714 2.178449464285714 0.8680362857142857l0.10974640714285715 0.003661928571428571c1.69660335 0.0568395 2.9446363714285715 0.09855364285714285 4.677524657142857 -0.09122978571428571l-0.16733421428571427 -0.20347585714285712c-3.1126074428571426 -3.688517357142857 -6.978027792857143 -7.36897847142857 -10.635164014285714 -10.663329021428572 -2.0088384857142856 -1.809581807142857 -3.736170192857143 -1.7902213499999997 -6.162452614285714 -1.0218213642857141l-0.10100872714285714 0.04002647142857142Z" stroke-width="1.71"></path>
  </g>
</svg>