<svg xmlns="http://www.w3.org/2000/svg" fill="none" viewBox="-0.855 -0.855 24 24" id="Whistle--Streamline-Flex" height="24" width="24">
  <desc>
    Whistle Streamline Icon: https://streamlinehq.com
  </desc>
  <g id="whistle--sport-payment-whistle-loud-attention">
    <path id="Subtract" fill="#d7e0ff" fill-rule="evenodd" d="M1.6239857142857141 6.59148735h12.418714285714286c1.47370335 0 2.914258285714286 0.43701137142857144 4.139730642857143 1.2557708357142858 1.2253131428571427 0.8187435428571429 2.1802804285714283 1.9824726 2.7443766428571426 3.3440094857142855 0.563937 1.3615209642857142 0.7115286428571429 2.8597273928571427 0.4239876428571428 4.305122442857143 -0.287541 1.4454428142857143 -0.9971590714285713 2.7731307428571426 -2.0392165714285713 3.8151882428571424 -1.0422167142857142 1.0420574999999999 -2.3697454285714286 1.7516755714285714 -3.8152200857142855 2.0392165714285713 -1.44539505 0.287541 -2.943585557142857 0.13994935714285714 -4.305122442857143 -0.4239876428571428 -1.3615368857142858 -0.563937 -2.5252500214285716 -1.5190635 -3.3440094857142855 -2.7443766428571426 -0.3053570785714285 -0.4571042142857143 -0.5576321142857142 -0.9439814999999999 -0.7539274071428571 -1.4513974285714284 -0.5699075357142857 -1.473337157142857 -1.6599363 -2.8586288142857144 -3.2228155714285713 -3.0884546357142857L1.5246359999999999 13.297593064285714c-0.19911338571428572 -0.024041357142857142 -0.3827272607142857 -0.11955400714285715 -0.5167267799999999 -0.2687855571428571C0.8739097007142856 12.879575957142858 0.7986347785714285 12.686783378571429 0.7960714285714285 12.486237064285714v-5.066835428571428c0 -0.21957242142857142 0.08722713857142857 -0.4301492357142857 0.2424897257142857 -0.5854150071428571 0.15526417928571426 -0.15526577142857143 0.3658473621428571 -0.24249927857142856 0.58542456 -0.24249927857142856ZM16.526442857142857 14.0427c0 1.3717266 -1.1120162571428571 2.483742857142857 -2.483742857142857 2.483742857142857 -1.3717425214285712 0 -2.483742857142857 -1.1120162571428571 -2.483742857142857 -2.483742857142857 0 -1.3717425214285712 1.1120003357142856 -2.483742857142857 2.483742857142857 -2.483742857142857 1.3717266 0 2.483742857142857 1.1120003357142856 2.483742857142857 2.483742857142857Z" clip-rule="evenodd" stroke-width="1.71"></path>
    <path id="Vector" stroke="#4147d5" stroke-linecap="round" stroke-linejoin="round" d="M14.0427 6.59148735h-12.418714285714286c-0.21957719785714286 0 -0.4301603807142857 0.08723350714285713 -0.58542456 0.24249927857142856C0.8832985671428571 6.989252400000001 0.7960714285714285 7.199829214285714 0.7960714285714285 7.419401635714285v5.066835428571428c0.0025633500000000003 0.20054631428571426 0.07783827214285714 0.39333889285714285 0.21183779142857143 0.5425704428571428 0.1339995192857143 0.14923155 0.3176133942857143 0.2447442 0.5167267799999999 0.2687855571428571l2.345847364285714 0.3449855142857143c1.5628792714285715 0.22982582142857144 2.652908035714286 1.6151174785714284 3.2228155714285713 3.0884546357142857 0.19629529285714284 0.5074159285714285 0.44857032857142853 0.9942932142857144 0.7539274071428571 1.4513974285714284 0.8187594642857142 1.2253131428571427 1.9824726 2.180439642857143 3.3440094857142855 2.7443766428571426 1.3615368857142858 0.563937 2.8597273928571427 0.7115286428571429 4.305122442857143 0.4239876428571428 1.4454746571428572 -0.287541 2.773003371428571 -0.9971590714285713 3.8152200857142855 -2.0392165714285713 1.0420574999999999 -1.0420574999999999 1.7516755714285714 -2.3697454285714286 2.0392165714285713 -3.8151882428571424 0.287541 -1.44539505 0.13994935714285714 -2.9436014785714284 -0.4239876428571428 -4.305122442857143 -0.5640962142857142 -1.3615368857142858 -1.5190635 -2.5252659428571427 -2.7443766428571426 -3.3440094857142855 -1.2254723571428572 -0.8187594642857142 -2.6660272928571427 -1.2557708357142858 -4.139730642857143 -1.2557708357142858Z" stroke-width="1.71"></path>
    <path id="Vector_2" fill="#ffffff" d="M14.042333807142857 16.526442857142857c1.3717266 0 2.483790621428571 -1.1120003357142856 2.483790621428571 -2.4837269357142855s-1.1120640214285715 -2.483742857142857 -2.483790621428571 -2.483742857142857c-1.3717425214285712 0 -2.483742857142857 1.1120162571428571 -2.483742857142857 2.483742857142857 0 1.3717266 1.1120003357142856 2.4837269357142855 2.483742857142857 2.4837269357142855Z" stroke-width="1.71"></path>
    <path id="Vector_3" stroke="#4147d5" stroke-linecap="round" stroke-linejoin="round" d="M14.042333807142857 16.526442857142857c1.3717266 0 2.483790621428571 -1.1120003357142856 2.483790621428571 -2.4837269357142855s-1.1120640214285715 -2.483742857142857 -2.483790621428571 -2.483742857142857c-1.3717425214285712 0 -2.483742857142857 1.1120162571428571 -2.483742857142857 2.483742857142857 0 1.3717266 1.1120003357142856 2.4837269357142855 2.483742857142857 2.4837269357142855Z" stroke-width="1.71"></path>
    <path id="Vector_4" stroke="#4147d5" stroke-linecap="round" stroke-linejoin="round" d="M8.661941764285714 0.7960714285714285v1.6558285714285714" stroke-width="1.71"></path>
    <path id="Vector_5" stroke="#4147d5" stroke-linecap="round" stroke-linejoin="round" d="m12.800892257142856 2.4519159214285713 1.2418714285714285 -1.2418714285714285" stroke-width="1.71"></path>
    <path id="Vector_6" stroke="#4147d5" stroke-linecap="round" stroke-linejoin="round" d="m4.521001092857143 2.4519159214285713 -1.2418714285714285 -1.2418714285714285" stroke-width="1.71"></path>
  </g>
</svg>