<svg xmlns="http://www.w3.org/2000/svg" fill="none" viewBox="0 0 14 14" id="Categories--Streamline-Flex" height="14" width="14">
  <desc>
    Categories Streamline Icon: https://streamlinehq.com
  </desc>
  <g id="categories--categories-interface-sorting-menu-grid-app">
    <path id="Vector_2" stroke="#000000" stroke-linecap="round" stroke-linejoin="round" d="M3.4137 13.5002c1.86477 0 2.9137 -1.0489 2.9137 -2.9136 0 -1.86482 -1.04893 -2.91375 -2.9137 -2.91375S0.5 8.72178 0.5 10.5866c0 1.8647 1.04893 2.9136 2.9137 2.9136Z" stroke-width="1"></path>
    <path id="Intersect" stroke="#000000" stroke-linecap="round" stroke-linejoin="round" d="M7.99056 12.1633c0.06909 0.6458 0.58849 1.1652 1.23397 1.2371 0.47944 0.0535 0.97167 0.0994 1.47357 0.0994s0.9942 -0.0459 1.4736 -0.0994c0.6455 -0.0719 1.1649 -0.5913 1.234 -1.2371 0.051 -0.4768 0.0941 -0.9662 0.0941 -1.4652 0 -0.499 -0.0431 -0.98841 -0.0941 -1.46514 -0.0691 -0.64578 -0.5885 -1.16519 -1.234 -1.23714 -0.4794 -0.05344 -0.9717 -0.09934 -1.4736 -0.09934s-0.99413 0.0459 -1.47357 0.09934c-0.64548 0.07195 -1.16488 0.59136 -1.23397 1.23714 -0.05101 0.47673 -0.09408 0.96614 -0.09408 1.46514 0 0.499 0.04307 0.9884 0.09408 1.4652Z" stroke-width="1"></path>
    <path id="Vector 2483" stroke="#000000" stroke-linecap="round" stroke-linejoin="round" d="M0.518064 4.86237C1.07262 3.02305 2.35031 1.36751 3.13941 0.611466c0.15511 -0.148621 0.39346 -0.148621 0.54858 0 0.7891 0.756044 2.06679 2.411584 2.62134 4.250904 0.05835 0.19352 -0.02783 0.39961 -0.21255 0.48183 -0.53037 0.23607 -1.49709 0.53494 -2.68308 0.53494 -1.18599 0 -2.15271 -0.29887 -2.683087 -0.53494 -0.184715 -0.08222 -0.270895 -0.28831 -0.212549 -0.48183Z" stroke-width="1"></path>
    <path id="Subtract" stroke="#000000" stroke-linecap="round" stroke-linejoin="round" d="M7.67285 2.14022C7.69241 0.84357 9.17879 -0.359292 10.5866 1.33358c1.4077 -1.692872 2.8941 -0.49009 2.9136 0.80656 0 1.93036 -2.3566 3.51487 -2.9137 3.51487 -0.557 0 -2.91365 -1.58443 -2.91365 -3.51479Z" stroke-width="1"></path>
  </g>
</svg>