<svg xmlns="http://www.w3.org/2000/svg" fill="none" viewBox="0 0 14 14" id="Color-Swatches--Streamline-Flex" height="14" width="14">
  <desc>
    Color Swatches Streamline Icon: https://streamlinehq.com
  </desc>
  <g id="color-swatches--color-colors-design-painting-palette-sample-swatch">
    <path id="Subtract" stroke="#000000" stroke-linecap="round" stroke-linejoin="round" d="M7.4886 11.615c0.04095 -0.1572 0.06794 -0.3154 0.07785 -0.4734l0.0013 -0.0207c0.0834 -1.32976 0.16987 -2.70822 0.16987 -4.12097 0 -1.41274 -0.08646 -2.79118 -0.16987 -4.12089l-0.0013 -0.02077c-0.01513 -0.24128 -0.07212 -0.47377 -0.16411 -0.68911 0.00976 -0.0086 0.01952 -0.01721 0.02927 -0.02581l0.01558 -0.01374c0.70733 -0.62383 1.77043 -0.70274 2.55034 -0.17243 0.45037 0.30622 0.89477 0.63585 1.28847 1.02958 0.3937 0.39372 0.7233 0.8381 1.0296 1.28846 0.5303 0.7799 0.4514 1.843 -0.1725 2.55033l-0.0137 0.01559c-0.8813 0.99923 -1.7949 2.03508 -2.79383 3.03404 -0.60752 0.60752 -1.22869 1.18342 -1.84697 1.73982Z" stroke-width="1"></path>
    <path id="Subtract_2" stroke="#000000" stroke-linecap="round" stroke-linejoin="round" d="M12.1761 6.78882c0.4523 0.30215 0.7849 0.77475 0.8908 1.33023 0.1019 0.53498 0.183 1.08229 0.183 1.6391 0 0.55685 -0.0811 1.10415 -0.183 1.63915 -0.1765 0.9264 -0.984 1.6223 -1.9253 1.6814l-0.0208 0.0013c-1.3297 0.0834 -2.70814 0.1698 -4.12088 0.1698 -0.66464 0 -1.32169 -0.0191 -1.96965 -0.048" stroke-width="1"></path>
    <path id="Intersect" stroke="#000000" stroke-linecap="round" stroke-linejoin="round" d="M0.765625 8.08181c2.334475 -0.22618 4.617405 -0.22562 6.952145 0.00171" stroke-width="1"></path>
    <path id="Intersect_2" stroke="#000000" stroke-linecap="round" stroke-linejoin="round" d="M0.921168 11.1417c0.059038 0.9412 0.754972 1.7488 1.681432 1.9252 0.53498 0.102 1.08229 0.1831 1.6391 0.1831s1.10411 -0.0811 1.6391 -0.1831c0.92646 -0.1764 1.62239 -0.984 1.68143 -1.9252C7.64604 9.80553 7.7334 8.42009 7.7334 7s-0.08736 -2.80553 -0.17117 -4.14166c-0.05904 -0.94127 -0.75497 -1.7488 -1.68143 -1.925288C5.34582 0.831137 4.79851 0.75 4.2417 0.75S3.13758 0.831137 2.6026 0.933052C1.67614 1.10954 0.980206 1.91707 0.921167 2.85834 0.837363 4.19447 0.75 5.57991 0.75 7s0.087363 2.80553 0.171168 4.1417Z" stroke-width="1"></path>
    <path id="Vector 2591" stroke="#000000" stroke-linecap="round" stroke-linejoin="round" d="M0.827148 4.47211c2.294792 -0.21849 4.540622 -0.21769 6.835772 0.00238" stroke-width="1"></path>
    <path id="Vector 2593" stroke="#000000" stroke-linecap="round" stroke-linejoin="round" d="M4.2334 10.3152v0.182" stroke-width="1"></path>
  </g>
</svg>