<svg width="16" height="16" viewBox="0 0 16 16" fill="none" xmlns="http://www.w3.org/2000/svg">
<path d="M8.00002 13.3332H14M10 3.33317L12 5.33317M10.9173 2.41449C11.1827 2.1491 11.5427 2 11.918 2C12.2933 2 12.6533 2.1491 12.9187 2.41449C13.1841 2.67988 13.3332 3.03983 13.3332 3.41516C13.3332 3.79048 13.1841 4.15043 12.9187 4.41582L4.912 12.4232C4.7534 12.5818 4.55735 12.6978 4.342 12.7605L2.42734 13.3192C2.36997 13.3359 2.30916 13.3369 2.25128 13.3221C2.19339 13.3072 2.14056 13.2771 2.0983 13.2349C2.05605 13.1926 2.02593 13.1398 2.0111 13.0819C1.99627 13.024 1.99727 12.9632 2.014 12.9058L2.57267 10.9912C2.63549 10.776 2.7515 10.5802 2.91 10.4218L10.9173 2.41449Z" stroke="#0A0A0A" stroke-width="1.33" stroke-linecap="round" stroke-linejoin="round"/>
</svg>
