<svg xmlns="http://www.w3.org/2000/svg" fill="none" viewBox="0 0 14 14" height="14" width="14">
  <g id="ruler-angle-square-foot--tools-ruler-angle-square-foot-measurement-90degree">
    <path id="Intersect" stroke="#000000" stroke-linecap="round" stroke-linejoin="round" d="M0.5 11.197V1.64712C0.5 0.65724 1.66339 0.132099 2.39703 0.796651 6.18282 4.22593 9.77407 7.81718 13.2034 11.603c0.6645 0.7336 0.1394 1.897 -0.8505 1.897H2.80303C1.5311 13.5 0.5 12.4689 0.5 11.197Z" stroke-width="1"></path>
    <path id="Intersect_2" stroke="#000000" stroke-linecap="round" stroke-linejoin="round" d="M3.2334 9.94617V6.67775c0 -0.33878 0.39817 -0.51851 0.64925 -0.29107 1.29568 1.17367 2.52478 2.40276 3.69844 3.69842 0.22744 0.2511 0.04771 0.6493 -0.29107 0.6493H4.0216c-0.43531 0 -0.7882 -0.3529 -0.7882 -0.78823Z" stroke-width="1"></path>
    <path id="Vector 4187" stroke="#000000" stroke-linecap="round" stroke-linejoin="round" d="m3.33418 3.13091 0.627 -0.627" stroke-width="1"></path>
    <path id="Vector 4189" stroke="#000000" stroke-linecap="round" stroke-linejoin="round" d="m7.13447 6.93169 0.627 -0.627" stroke-width="1"></path>
    <path id="Vector 4188" stroke="#000000" stroke-linecap="round" stroke-linejoin="round" d="m5.23457 5.03325 0.627 -0.627" stroke-width="1"></path>
    <path id="Vector 4190" stroke="#000000" stroke-linecap="round" stroke-linejoin="round" d="m9.03535 8.83208 0.627 -0.627" stroke-width="1"></path>
    <path id="Vector 4191" stroke="#000000" stroke-linecap="round" stroke-linejoin="round" d="m10.9357 10.7344 0.627 -0.627" stroke-width="1"></path>
  </g>
</svg>