<svg width="14" height="14" viewBox="0 0 14 14" fill="none" xmlns="http://www.w3.org/2000/svg">
<path d="M4.08333 12.25C4.70217 12.25 5.29566 12.0042 5.73325 11.5666C6.17083 11.129 6.41667 10.5355 6.41667 9.91667V2.91667C6.41667 2.60725 6.29375 2.3105 6.07496 2.09171C5.85617 1.87292 5.55942 1.75 5.25 1.75H2.91667C2.60725 1.75 2.3105 1.87292 2.09171 2.09171C1.87292 2.3105 1.75 2.60725 1.75 2.91667V9.91667C1.75 10.5355 1.99583 11.129 2.43342 11.5666C2.871 12.0042 3.46449 12.25 4.08333 12.25ZM4.08333 12.25H11.0833C11.3928 12.25 11.6895 12.1271 11.9083 11.9083C12.1271 11.6895 12.25 11.3928 12.25 11.0833V8.75C12.25 8.44058 12.1271 8.14384 11.9083 7.92504C11.6895 7.70625 11.3928 7.58333 11.0833 7.58333H9.74167M4.08333 9.91667H4.08917M6.41661 4.66669L7.75828 3.32503C7.88854 3.19431 8.04336 3.09064 8.21383 3.01997C8.3843 2.9493 8.56706 2.91303 8.7516 2.91325C8.93613 2.91347 9.11881 2.95016 9.28911 3.02123C9.45942 3.0923 9.61399 3.19634 9.74394 3.32736L10.8499 4.43336C10.9845 4.56275 11.0917 4.71773 11.1655 4.88918C11.2392 5.06064 11.278 5.24511 11.2794 5.43175C11.2808 5.61839 11.2449 5.80342 11.1737 5.97598C11.1026 6.14853 10.9977 6.30512 10.8651 6.43653L5.77494 11.55" stroke="#737373" stroke-linecap="round" stroke-linejoin="round"/>
</svg>
