<svg width="37" height="40" viewBox="0 0 37 40" fill="none" xmlns="http://www.w3.org/2000/svg">
<path d="M1.57466 3.29592L24.5903 0.00927739C24.7201 -0.00933432 24.8523 0.000128087 24.9781 0.037025C25.1038 0.0739219 25.2202 0.137393 25.3193 0.223147C25.4184 0.3089 25.498 0.414937 25.5526 0.534088C25.6072 0.653238 25.6356 0.782724 25.6358 0.913791V39.0865C25.6355 39.2174 25.6072 39.3467 25.5527 39.4657C25.4982 39.5847 25.4188 39.6906 25.3199 39.7763C25.221 39.8621 25.1049 39.9256 24.9793 39.9626C24.8538 39.9996 24.7218 40.0093 24.5922 39.991L1.57283 36.7043C1.13635 36.6422 0.736963 36.4246 0.448025 36.0916C0.159087 35.7586 4.23065e-06 35.3325 0 34.8916V5.10861C4.23065e-06 4.66773 0.159087 4.24166 0.448025 3.90865C0.736963 3.57565 1.13818 3.35809 1.57466 3.29592ZM27.4668 3.52113H34.7908C35.2764 3.52113 35.7422 3.71404 36.0855 4.05742C36.4289 4.4008 36.6218 4.86652 36.6218 5.35213V34.6481C36.6218 35.1337 36.4289 35.5995 36.0855 35.9428C35.7422 36.2862 35.2764 36.4791 34.7908 36.4791H27.4668V3.52113ZM15.016 20.0001L20.1428 12.6761H15.7484L12.8188 16.8618L9.88923 12.6761H5.49483L10.6216 20.0001L5.49483 27.3241H9.88923L12.8188 23.1385L15.7484 27.3241H20.1428L15.016 20.0001Z" fill="#14A892"/>
<path d="M15.016 20.0001L20.1428 12.6761H15.7484L12.8188 16.8618L9.88923 12.6761H5.49483L10.6216 20.0001L5.49483 27.3241H9.88923L12.8188 23.1385L15.7484 27.3241H20.1428L15.016 20.0001Z" fill="currentColor"/>
</svg>
