<svg width="64" height="64" viewBox="0 0 64 64" fill="none" xmlns="http://www.w3.org/2000/svg">
<g opacity="0.5">
<path d="M56.4949 17.8578L17.8579 7.50503C15.1943 6.79134 12.4478 8.37703 11.7341 11.0406L3.96956 40.0183C3.25587 42.6819 4.84156 45.4284 7.5051 46.1421L46.1421 56.4948C48.8057 57.2085 51.5522 55.6228 52.2659 52.9593L60.0304 23.9815C60.7441 21.318 59.1584 18.5715 56.4949 17.8578ZM21.9538 16.3671C22.9144 16.6245 23.7335 17.253 24.2308 18.1143C24.7281 18.9756 24.8628 19.9992 24.6054 20.9599C24.348 21.9206 23.7195 22.7396 22.8582 23.2369C21.9969 23.7342 20.9733 23.869 20.0126 23.6115C19.0519 23.3541 18.2329 22.7256 17.7356 21.8643C17.2383 21.003 17.1035 19.9794 17.361 19.0187C17.6184 18.0581 18.2469 17.239 19.1082 16.7417C19.9695 16.2444 20.9931 16.1097 21.9538 16.3671ZM28.7648 44.074L11.8611 39.5447L24.7555 30.0588L27.0837 35.859L36.9163 28.1409L45.6685 48.6033L28.7648 44.074Z" fill="#14A892"/>
<path d="M21.9538 16.3671C22.9144 16.6245 23.7335 17.253 24.2308 18.1143C24.7281 18.9756 24.8628 19.9992 24.6054 20.9599C24.348 21.9206 23.7195 22.7396 22.8582 23.2369C21.9969 23.7342 20.9733 23.869 20.0126 23.6115C19.0519 23.3541 18.2329 22.7256 17.7356 21.8643C17.2383 21.003 17.1035 19.9794 17.361 19.0187C17.6184 18.0581 18.2469 17.239 19.1082 16.7417C19.9695 16.2444 20.9931 16.1097 21.9538 16.3671Z" fill="white"/>
<path d="M28.7648 44.074L11.8611 39.5447L24.7555 30.0588L27.0837 35.859L36.9163 28.1409L45.6685 48.6033L28.7648 44.074Z" fill="white"/>
</g>
<path d="M52 12H12C9.24247 12 6.99997 14.2425 6.99997 17V47C6.99997 49.7575 9.24247 52 12 52H52C54.7575 52 57 49.7575 57 47V17C57 14.2425 54.7575 12 52 12ZM18.25 19.5C19.2445 19.5 20.1984 19.8951 20.9016 20.5983C21.6049 21.3016 22 22.2554 22 23.25C22 24.2446 21.6049 25.1984 20.9016 25.9017C20.1984 26.6049 19.2445 27 18.25 27C17.2554 27 16.3016 26.6049 15.5983 25.9017C14.8951 25.1984 14.5 24.2446 14.5 23.25C14.5 22.2554 14.8951 21.3016 15.5983 20.5983C16.3016 19.8951 17.2554 19.5 18.25 19.5ZM32 44.5H14.5L24.5 32L28.25 37L35.75 27L49.5 44.5H32Z" fill="#14A892"/>
<path d="M18.25 19.5C19.2445 19.5 20.1984 19.8951 20.9016 20.5983C21.6049 21.3016 22 22.2554 22 23.25C22 24.2446 21.6049 25.1984 20.9016 25.9017C20.1984 26.6049 19.2445 27 18.25 27C17.2554 27 16.3016 26.6049 15.5983 25.9017C14.8951 25.1984 14.5 24.2446 14.5 23.25C14.5 22.2554 14.8951 21.3016 15.5983 20.5983C16.3016 19.8951 17.2554 19.5 18.25 19.5Z" fill="white"/>
<path d="M32 44.5H14.5L24.5 32L28.25 37L35.75 27L49.5 44.5H32Z" fill="white"/>
</svg>
